G04 #@! TF.GenerationSoftware,KiCad,Pcbnew,(5.1.9-0-10_14)*
G04 #@! TF.CreationDate,2021-03-05T10:11:07-05:00*
G04 #@! TF.ProjectId,Arducon,41726475-636f-46e2-9e6b-696361645f70,rev?*
G04 #@! TF.SameCoordinates,Original*
G04 #@! TF.FileFunction,Paste,Top*
G04 #@! TF.FilePolarity,Positive*
%FSLAX46Y46*%
G04 Gerber Fmt 4.6, Leading zero omitted, Abs format (unit mm)*
G04 Created by KiCad (PCBNEW (5.1.9-0-10_14)) date 2021-03-05 10:11:07*
%MOMM*%
%LPD*%
G01*
G04 APERTURE LIST*
%ADD10R,0.900000X0.500000*%
%ADD11R,0.500000X0.900000*%
%ADD12R,0.551180X0.299720*%
%ADD13R,0.750000X0.750000*%
%ADD14R,1.000000X1.250000*%
%ADD15R,0.700000X1.300000*%
%ADD16R,1.300000X0.700000*%
%ADD17R,0.680000X0.380000*%
%ADD18R,2.600000X3.660000*%
%ADD19R,2.600000X3.540000*%
%ADD20R,2.700000X1.600000*%
%ADD21R,2.500000X1.200000*%
%ADD22R,1.750000X1.300000*%
%ADD23R,0.650000X1.060000*%
%ADD24R,1.500000X0.600000*%
%ADD25R,0.800000X0.800000*%
%ADD26R,1.100000X2.000000*%
%ADD27R,2.000000X1.100000*%
%ADD28R,0.800100X0.800100*%
%ADD29R,0.700000X1.500000*%
%ADD30R,1.000000X0.800000*%
G04 APERTURE END LIST*
D10*
X110350000Y-88510000D03*
X110350000Y-90010000D03*
D11*
X99750000Y-122620000D03*
X101250000Y-122620000D03*
D10*
X110580000Y-116690000D03*
X110580000Y-115190000D03*
D11*
X94430000Y-122480000D03*
X92930000Y-122480000D03*
X97140000Y-106230000D03*
X98640000Y-106230000D03*
D12*
X107348820Y-124300380D03*
X107348820Y-123650000D03*
X107348820Y-122999620D03*
X105911180Y-122999620D03*
X105911180Y-123650000D03*
X105911180Y-124300380D03*
G36*
G01*
X162645000Y-111300000D02*
X162495000Y-111300000D01*
G75*
G02*
X162420000Y-111225000I0J75000D01*
G01*
X162420000Y-110645000D01*
G75*
G02*
X162495000Y-110570000I75000J0D01*
G01*
X162645000Y-110570000D01*
G75*
G02*
X162720000Y-110645000I0J-75000D01*
G01*
X162720000Y-111225000D01*
G75*
G02*
X162645000Y-111300000I-75000J0D01*
G01*
G37*
G36*
G01*
X163145000Y-111300000D02*
X162995000Y-111300000D01*
G75*
G02*
X162920000Y-111225000I0J75000D01*
G01*
X162920000Y-110645000D01*
G75*
G02*
X162995000Y-110570000I75000J0D01*
G01*
X163145000Y-110570000D01*
G75*
G02*
X163220000Y-110645000I0J-75000D01*
G01*
X163220000Y-111225000D01*
G75*
G02*
X163145000Y-111300000I-75000J0D01*
G01*
G37*
G36*
G01*
X163645000Y-111300000D02*
X163495000Y-111300000D01*
G75*
G02*
X163420000Y-111225000I0J75000D01*
G01*
X163420000Y-110645000D01*
G75*
G02*
X163495000Y-110570000I75000J0D01*
G01*
X163645000Y-110570000D01*
G75*
G02*
X163720000Y-110645000I0J-75000D01*
G01*
X163720000Y-111225000D01*
G75*
G02*
X163645000Y-111300000I-75000J0D01*
G01*
G37*
G36*
G01*
X164145000Y-111300000D02*
X163995000Y-111300000D01*
G75*
G02*
X163920000Y-111225000I0J75000D01*
G01*
X163920000Y-110645000D01*
G75*
G02*
X163995000Y-110570000I75000J0D01*
G01*
X164145000Y-110570000D01*
G75*
G02*
X164220000Y-110645000I0J-75000D01*
G01*
X164220000Y-111225000D01*
G75*
G02*
X164145000Y-111300000I-75000J0D01*
G01*
G37*
G36*
G01*
X164645000Y-111300000D02*
X164495000Y-111300000D01*
G75*
G02*
X164420000Y-111225000I0J75000D01*
G01*
X164420000Y-110645000D01*
G75*
G02*
X164495000Y-110570000I75000J0D01*
G01*
X164645000Y-110570000D01*
G75*
G02*
X164720000Y-110645000I0J-75000D01*
G01*
X164720000Y-111225000D01*
G75*
G02*
X164645000Y-111300000I-75000J0D01*
G01*
G37*
G36*
G01*
X165900000Y-109895000D02*
X165900000Y-110045000D01*
G75*
G02*
X165825000Y-110120000I-75000J0D01*
G01*
X165245000Y-110120000D01*
G75*
G02*
X165170000Y-110045000I0J75000D01*
G01*
X165170000Y-109895000D01*
G75*
G02*
X165245000Y-109820000I75000J0D01*
G01*
X165825000Y-109820000D01*
G75*
G02*
X165900000Y-109895000I0J-75000D01*
G01*
G37*
G36*
G01*
X165900000Y-109395000D02*
X165900000Y-109545000D01*
G75*
G02*
X165825000Y-109620000I-75000J0D01*
G01*
X165245000Y-109620000D01*
G75*
G02*
X165170000Y-109545000I0J75000D01*
G01*
X165170000Y-109395000D01*
G75*
G02*
X165245000Y-109320000I75000J0D01*
G01*
X165825000Y-109320000D01*
G75*
G02*
X165900000Y-109395000I0J-75000D01*
G01*
G37*
G36*
G01*
X165900000Y-108895000D02*
X165900000Y-109045000D01*
G75*
G02*
X165825000Y-109120000I-75000J0D01*
G01*
X165245000Y-109120000D01*
G75*
G02*
X165170000Y-109045000I0J75000D01*
G01*
X165170000Y-108895000D01*
G75*
G02*
X165245000Y-108820000I75000J0D01*
G01*
X165825000Y-108820000D01*
G75*
G02*
X165900000Y-108895000I0J-75000D01*
G01*
G37*
G36*
G01*
X165900000Y-108395000D02*
X165900000Y-108545000D01*
G75*
G02*
X165825000Y-108620000I-75000J0D01*
G01*
X165245000Y-108620000D01*
G75*
G02*
X165170000Y-108545000I0J75000D01*
G01*
X165170000Y-108395000D01*
G75*
G02*
X165245000Y-108320000I75000J0D01*
G01*
X165825000Y-108320000D01*
G75*
G02*
X165900000Y-108395000I0J-75000D01*
G01*
G37*
G36*
G01*
X165900000Y-107895000D02*
X165900000Y-108045000D01*
G75*
G02*
X165825000Y-108120000I-75000J0D01*
G01*
X165245000Y-108120000D01*
G75*
G02*
X165170000Y-108045000I0J75000D01*
G01*
X165170000Y-107895000D01*
G75*
G02*
X165245000Y-107820000I75000J0D01*
G01*
X165825000Y-107820000D01*
G75*
G02*
X165900000Y-107895000I0J-75000D01*
G01*
G37*
G36*
G01*
X164645000Y-107370000D02*
X164495000Y-107370000D01*
G75*
G02*
X164420000Y-107295000I0J75000D01*
G01*
X164420000Y-106715000D01*
G75*
G02*
X164495000Y-106640000I75000J0D01*
G01*
X164645000Y-106640000D01*
G75*
G02*
X164720000Y-106715000I0J-75000D01*
G01*
X164720000Y-107295000D01*
G75*
G02*
X164645000Y-107370000I-75000J0D01*
G01*
G37*
G36*
G01*
X164145000Y-107370000D02*
X163995000Y-107370000D01*
G75*
G02*
X163920000Y-107295000I0J75000D01*
G01*
X163920000Y-106715000D01*
G75*
G02*
X163995000Y-106640000I75000J0D01*
G01*
X164145000Y-106640000D01*
G75*
G02*
X164220000Y-106715000I0J-75000D01*
G01*
X164220000Y-107295000D01*
G75*
G02*
X164145000Y-107370000I-75000J0D01*
G01*
G37*
G36*
G01*
X163645000Y-107370000D02*
X163495000Y-107370000D01*
G75*
G02*
X163420000Y-107295000I0J75000D01*
G01*
X163420000Y-106715000D01*
G75*
G02*
X163495000Y-106640000I75000J0D01*
G01*
X163645000Y-106640000D01*
G75*
G02*
X163720000Y-106715000I0J-75000D01*
G01*
X163720000Y-107295000D01*
G75*
G02*
X163645000Y-107370000I-75000J0D01*
G01*
G37*
G36*
G01*
X163145000Y-107370000D02*
X162995000Y-107370000D01*
G75*
G02*
X162920000Y-107295000I0J75000D01*
G01*
X162920000Y-106715000D01*
G75*
G02*
X162995000Y-106640000I75000J0D01*
G01*
X163145000Y-106640000D01*
G75*
G02*
X163220000Y-106715000I0J-75000D01*
G01*
X163220000Y-107295000D01*
G75*
G02*
X163145000Y-107370000I-75000J0D01*
G01*
G37*
G36*
G01*
X162645000Y-107370000D02*
X162495000Y-107370000D01*
G75*
G02*
X162420000Y-107295000I0J75000D01*
G01*
X162420000Y-106715000D01*
G75*
G02*
X162495000Y-106640000I75000J0D01*
G01*
X162645000Y-106640000D01*
G75*
G02*
X162720000Y-106715000I0J-75000D01*
G01*
X162720000Y-107295000D01*
G75*
G02*
X162645000Y-107370000I-75000J0D01*
G01*
G37*
G36*
G01*
X161970000Y-107895000D02*
X161970000Y-108045000D01*
G75*
G02*
X161895000Y-108120000I-75000J0D01*
G01*
X161315000Y-108120000D01*
G75*
G02*
X161240000Y-108045000I0J75000D01*
G01*
X161240000Y-107895000D01*
G75*
G02*
X161315000Y-107820000I75000J0D01*
G01*
X161895000Y-107820000D01*
G75*
G02*
X161970000Y-107895000I0J-75000D01*
G01*
G37*
G36*
G01*
X161970000Y-108395000D02*
X161970000Y-108545000D01*
G75*
G02*
X161895000Y-108620000I-75000J0D01*
G01*
X161315000Y-108620000D01*
G75*
G02*
X161240000Y-108545000I0J75000D01*
G01*
X161240000Y-108395000D01*
G75*
G02*
X161315000Y-108320000I75000J0D01*
G01*
X161895000Y-108320000D01*
G75*
G02*
X161970000Y-108395000I0J-75000D01*
G01*
G37*
G36*
G01*
X161970000Y-108895000D02*
X161970000Y-109045000D01*
G75*
G02*
X161895000Y-109120000I-75000J0D01*
G01*
X161315000Y-109120000D01*
G75*
G02*
X161240000Y-109045000I0J75000D01*
G01*
X161240000Y-108895000D01*
G75*
G02*
X161315000Y-108820000I75000J0D01*
G01*
X161895000Y-108820000D01*
G75*
G02*
X161970000Y-108895000I0J-75000D01*
G01*
G37*
G36*
G01*
X161970000Y-109395000D02*
X161970000Y-109545000D01*
G75*
G02*
X161895000Y-109620000I-75000J0D01*
G01*
X161315000Y-109620000D01*
G75*
G02*
X161240000Y-109545000I0J75000D01*
G01*
X161240000Y-109395000D01*
G75*
G02*
X161315000Y-109320000I75000J0D01*
G01*
X161895000Y-109320000D01*
G75*
G02*
X161970000Y-109395000I0J-75000D01*
G01*
G37*
G36*
G01*
X161970000Y-109895000D02*
X161970000Y-110045000D01*
G75*
G02*
X161895000Y-110120000I-75000J0D01*
G01*
X161315000Y-110120000D01*
G75*
G02*
X161240000Y-110045000I0J75000D01*
G01*
X161240000Y-109895000D01*
G75*
G02*
X161315000Y-109820000I75000J0D01*
G01*
X161895000Y-109820000D01*
G75*
G02*
X161970000Y-109895000I0J-75000D01*
G01*
G37*
D13*
X164195000Y-108345000D03*
X162945000Y-108345000D03*
X164195000Y-109595000D03*
X162945000Y-109595000D03*
D14*
X122350000Y-114000000D03*
X124350000Y-114000000D03*
X98000000Y-104340000D03*
X96000000Y-104340000D03*
X126480000Y-94490000D03*
X124480000Y-94490000D03*
X142270000Y-99270000D03*
X140270000Y-99270000D03*
X140390000Y-105600000D03*
X142390000Y-105600000D03*
X100200000Y-115890000D03*
X98200000Y-115890000D03*
X126510000Y-96670000D03*
X124510000Y-96670000D03*
X167600000Y-112780000D03*
X165600000Y-112780000D03*
D15*
X119220000Y-108630000D03*
X121120000Y-108630000D03*
D16*
X124240000Y-109820000D03*
X124240000Y-111720000D03*
X116860000Y-110200000D03*
X116860000Y-108300000D03*
X116880000Y-113510000D03*
X116880000Y-111610000D03*
D15*
X102330000Y-110420000D03*
X104230000Y-110420000D03*
X109870000Y-113180000D03*
X111770000Y-113180000D03*
X98000000Y-113360000D03*
X99900000Y-113360000D03*
D17*
X122340000Y-104170000D03*
X122340000Y-105070000D03*
X122340000Y-105970000D03*
X122340000Y-106870000D03*
X121140000Y-104170000D03*
X121140000Y-105070000D03*
X121140000Y-105970000D03*
X121140000Y-106870000D03*
D18*
X103460000Y-104800000D03*
D19*
X103460000Y-89000000D03*
D20*
X103070000Y-114730000D03*
D21*
X107570000Y-115730000D03*
X107570000Y-113730000D03*
D22*
X141410000Y-124210000D03*
X133610000Y-124210000D03*
X133610000Y-128710000D03*
X141410000Y-128710000D03*
D23*
X142280000Y-100980000D03*
X141330000Y-100980000D03*
X140380000Y-100980000D03*
X140380000Y-103180000D03*
X142280000Y-103180000D03*
D24*
X138930000Y-107565000D03*
X138930000Y-108835000D03*
X138930000Y-110105000D03*
X138930000Y-111375000D03*
X138930000Y-112645000D03*
X138930000Y-113915000D03*
X138930000Y-115185000D03*
X138930000Y-116455000D03*
X144330000Y-116455000D03*
X144330000Y-115185000D03*
X144330000Y-113915000D03*
X144330000Y-112645000D03*
X144330000Y-111375000D03*
X144330000Y-110105000D03*
X144330000Y-108835000D03*
X144330000Y-107565000D03*
D25*
X125250000Y-89500000D03*
D26*
X125250000Y-91400000D03*
D16*
X113850000Y-90750000D03*
X113850000Y-88850000D03*
D14*
X119410000Y-106530000D03*
X117410000Y-106530000D03*
D16*
X126300000Y-109820000D03*
X126300000Y-111720000D03*
D25*
X121820000Y-111220000D03*
D27*
X119920000Y-111220000D03*
D28*
X100750760Y-110110000D03*
X100750760Y-108210000D03*
X98751780Y-109160000D03*
D25*
X118240000Y-101500000D03*
D26*
X118240000Y-103400000D03*
D28*
X108779240Y-104280000D03*
X108779240Y-106180000D03*
X110778220Y-105230000D03*
D16*
X122000000Y-101730000D03*
X122000000Y-99830000D03*
D15*
X108030000Y-108140000D03*
X109930000Y-108140000D03*
X106820000Y-110240000D03*
X108720000Y-110240000D03*
D29*
X138190000Y-91335000D03*
X135190000Y-91335000D03*
X133690000Y-91335000D03*
D30*
X139590000Y-88485000D03*
X132290000Y-88485000D03*
X132290000Y-90685000D03*
X139590000Y-90685000D03*
M02*
