M48
; DRILL file {KiCad (5.1.8-0-10_14)} date Thursday, December 10, 2020 at 05:12:59 PM
; FORMAT={-:-/ absolute / inch / decimal}
; #@! TF.CreationDate,2020-12-10T17:12:59-05:00
; #@! TF.GenerationSoftware,Kicad,Pcbnew,(5.1.8-0-10_14)
; #@! TF.FileFunction,NonPlated,1,2,NPTH
FMAT,2
INCH
T1C0.0197
T2C0.0394
T3C0.0512
%
G90
G05
T1
X5.9913Y-3.8602
X5.9913Y-3.8961
X5.9913Y-3.9417
X5.9913Y-3.978
X5.9913Y-4.024
X5.9913Y-4.0606
X5.9913Y-4.0976
X5.9913Y-4.1461
X5.9913Y-4.1819
X5.9913Y-4.2283
X5.9913Y-4.2654
X5.9913Y-4.302
X5.9913Y-4.3492
X5.9913Y-4.3858
X5.9913Y-4.4319
X5.9913Y-4.6339
X5.9913Y-4.4681
X5.9913Y-4.5043
X5.9913Y-4.5524
X5.9913Y-4.5886
X5.9913Y-4.6693
X5.9913Y-4.7043
T2
X4.0732Y-3.9657
T3
X4.0732Y-3.6705
T0
M30
