G04 #@! TF.GenerationSoftware,KiCad,Pcbnew,(5.1.8-0-10_14)*
G04 #@! TF.CreationDate,2020-12-09T11:06:43-05:00*
G04 #@! TF.ProjectId,Arducon,41726475-636f-46e2-9e6b-696361645f70,rev?*
G04 #@! TF.SameCoordinates,Original*
G04 #@! TF.FileFunction,Soldermask,Bot*
G04 #@! TF.FilePolarity,Negative*
%FSLAX46Y46*%
G04 Gerber Fmt 4.6, Leading zero omitted, Abs format (unit mm)*
G04 Created by KiCad (PCBNEW (5.1.8-0-10_14)) date 2020-12-09 11:06:43*
%MOMM*%
%LPD*%
G01*
G04 APERTURE LIST*
%ADD10C,0.100000*%
%ADD11R,1.727200X2.032000*%
%ADD12O,1.727200X2.032000*%
%ADD13C,2.235200*%
%ADD14R,3.100000X1.000000*%
%ADD15O,3.100000X1.000000*%
%ADD16C,5.000000*%
%ADD17O,2.032000X1.727200*%
%ADD18R,2.032000X1.727200*%
%ADD19C,0.500000*%
%ADD20R,6.350000X4.500000*%
%ADD21C,1.000000*%
%ADD22C,1.300000*%
%ADD23R,5.080000X1.778000*%
%ADD24R,3.500120X3.500120*%
%ADD25C,3.500120*%
G04 APERTURE END LIST*
D10*
G36*
X166250000Y-106400000D02*
G01*
X166225000Y-111625000D01*
X160875000Y-111625000D01*
X160900000Y-106375000D01*
X166250000Y-106400000D01*
G37*
X166250000Y-106400000D02*
X166225000Y-111625000D01*
X160875000Y-111625000D01*
X160900000Y-106375000D01*
X166250000Y-106400000D01*
D11*
X92020000Y-119920000D03*
D12*
X94560000Y-119920000D03*
X97100000Y-119920000D03*
X99640000Y-119920000D03*
D13*
X160080000Y-104550000D03*
X166130000Y-104550000D03*
D14*
X117600000Y-101110000D03*
D15*
X125540000Y-101110000D03*
X117600000Y-98570000D03*
X125540000Y-98570000D03*
X117600000Y-96030000D03*
X125540000Y-96030000D03*
D16*
X93300000Y-127000000D03*
X147500000Y-127000000D03*
X147500000Y-90000000D03*
X93300000Y-90000000D03*
D17*
X126430000Y-113630000D03*
X126430000Y-116170000D03*
X126430000Y-106010000D03*
X126430000Y-103470000D03*
X129350000Y-122520000D03*
X129350000Y-119980000D03*
X114095100Y-122520000D03*
X114095100Y-119980000D03*
X129350000Y-117440000D03*
X129350000Y-114900000D03*
X129350000Y-112360000D03*
X129350000Y-109820000D03*
X129350000Y-107280000D03*
X129350000Y-104740000D03*
X129350000Y-102200000D03*
X129350000Y-99660000D03*
D18*
X129350000Y-97120000D03*
D17*
X129340000Y-94580000D03*
X114095100Y-117465400D03*
X114095100Y-114925400D03*
X114095100Y-112385400D03*
X114095100Y-109845400D03*
X114095100Y-107305400D03*
X114095100Y-104765400D03*
D18*
X114095100Y-102225400D03*
D17*
X114095100Y-99685400D03*
X114095100Y-97145400D03*
X114100000Y-94605400D03*
D12*
X125472850Y-92065150D03*
X122932850Y-92065150D03*
D19*
X152180000Y-98050000D03*
X152180000Y-98960000D03*
X152180000Y-100120000D03*
X152180000Y-101040000D03*
X152180000Y-102210000D03*
X152180000Y-103140000D03*
X152180000Y-104080000D03*
X152180000Y-105310000D03*
X152180000Y-106220000D03*
X152180000Y-107400000D03*
X152180000Y-108340000D03*
X152180000Y-109270000D03*
X152180000Y-110470000D03*
X152180000Y-111400000D03*
X152180000Y-112570000D03*
X152180000Y-117700000D03*
X152180000Y-113490000D03*
X152180000Y-114410000D03*
X152180000Y-115630000D03*
X152180000Y-116550000D03*
X152180000Y-118600000D03*
X152180000Y-119490000D03*
D20*
X163070000Y-117570000D03*
X163070000Y-99400000D03*
D21*
X103460000Y-100730000D03*
D22*
X103460000Y-93230000D03*
D23*
X91940000Y-112691000D03*
X91940000Y-109897000D03*
X91940000Y-107103000D03*
X91940000Y-104309000D03*
D24*
X104580000Y-127500000D03*
D25*
X99500000Y-127500000D03*
D10*
G36*
X98068000Y-111784000D02*
G01*
X100092000Y-111784000D01*
X99592000Y-113308000D01*
X98568000Y-113308000D01*
X98068000Y-111784000D01*
G37*
G36*
X100080570Y-111464570D02*
G01*
X98079430Y-111464570D01*
X98579430Y-109963430D01*
X99580570Y-109963430D01*
X100080570Y-111464570D01*
G37*
G36*
X141454570Y-105239430D02*
G01*
X141454570Y-107240570D01*
X139953430Y-106740570D01*
X139953430Y-105739430D01*
X141454570Y-105239430D01*
G37*
G36*
X141774000Y-107252000D02*
G01*
X141774000Y-105228000D01*
X143298000Y-105728000D01*
X143298000Y-106752000D01*
X141774000Y-107252000D01*
G37*
G36*
X141774000Y-109564000D02*
G01*
X141774000Y-107540000D01*
X143298000Y-108040000D01*
X143298000Y-109064000D01*
X141774000Y-109564000D01*
G37*
G36*
X141454570Y-107551430D02*
G01*
X141454570Y-109552570D01*
X139953430Y-109052570D01*
X139953430Y-108051430D01*
X141454570Y-107551430D01*
G37*
G36*
X141454570Y-109863430D02*
G01*
X141454570Y-111864570D01*
X139953430Y-111364570D01*
X139953430Y-110363430D01*
X141454570Y-109863430D01*
G37*
G36*
X141774000Y-111876000D02*
G01*
X141774000Y-109852000D01*
X143298000Y-110352000D01*
X143298000Y-111376000D01*
X141774000Y-111876000D01*
G37*
G36*
X141774000Y-114188000D02*
G01*
X141774000Y-112164000D01*
X143298000Y-112664000D01*
X143298000Y-113688000D01*
X141774000Y-114188000D01*
G37*
G36*
X141454570Y-112175430D02*
G01*
X141454570Y-114176570D01*
X139953430Y-113676570D01*
X139953430Y-112675430D01*
X141454570Y-112175430D01*
G37*
G36*
X141454570Y-114487430D02*
G01*
X141454570Y-116488570D01*
X139953430Y-115988570D01*
X139953430Y-114987430D01*
X141454570Y-114487430D01*
G37*
G36*
X141774000Y-116500000D02*
G01*
X141774000Y-114476000D01*
X143298000Y-114976000D01*
X143298000Y-116000000D01*
X141774000Y-116500000D01*
G37*
G36*
X141774000Y-118812000D02*
G01*
X141774000Y-116788000D01*
X143298000Y-117288000D01*
X143298000Y-118312000D01*
X141774000Y-118812000D01*
G37*
G36*
X141454570Y-116799430D02*
G01*
X141454570Y-118800570D01*
X139953430Y-118300570D01*
X139953430Y-117299430D01*
X141454570Y-116799430D01*
G37*
D18*
X149520000Y-99640000D03*
D17*
X149520000Y-102180000D03*
X149520000Y-104720000D03*
X149520000Y-107260000D03*
X149520000Y-109800000D03*
X149520000Y-112340000D03*
X149520000Y-114880000D03*
X149520000Y-117420000D03*
X154710000Y-117420000D03*
X154710000Y-114880000D03*
X154710000Y-112340000D03*
X154710000Y-109800000D03*
X154710000Y-107260000D03*
X154710000Y-104720000D03*
X154710000Y-102180000D03*
D18*
X154710000Y-99640000D03*
D24*
X114430000Y-127450000D03*
D25*
X109350000Y-127450000D03*
M02*
