%FSLAX45Y45*%
G04 Gerber Fmt 4.5, Leading zero omitted, Abs format (unit mm)*
G04 Created by KiCad (PCBNEW (5.1.9-0-10_14)) date 2021-05-05 17:50:19*
%MOMM*%
%LPD*%
G01*
G04 APERTURE LIST*
%TA.AperFunction,Profile*%
%ADD10C,0.100000*%
%TD*%
%ADD11C,0.200000*%
%ADD12C,0.300000*%
G04 APERTURE END LIST*
D10*
X16950000Y-12150000D02*
X15200000Y-12150000D01*
X16950000Y-13100000D02*
X16950000Y-12150000D01*
X17250000Y-9700000D02*
X17250000Y-12000000D01*
X15200000Y-12000000D02*
X17250000Y-12000000D01*
X15200000Y-9700000D02*
X17250000Y-9700000D01*
X15200000Y-9700000D02*
X15200000Y-8600000D01*
X15200000Y-12150000D02*
X15200000Y-12000000D01*
X15200000Y-8600000D02*
X8900000Y-8600000D01*
X8900000Y-13100000D02*
X16950000Y-13100000D01*
X8900000Y-8600000D02*
X8900000Y-13100000D01*
D11*
X15192000Y-12174000D02*
X15242000Y-12224000D01*
X15242000Y-12174000D02*
X15192000Y-12224000D01*
X15192000Y-12265000D02*
X15242000Y-12315000D01*
X15242000Y-12265000D02*
X15192000Y-12315000D01*
X15192000Y-12356000D02*
X15242000Y-12406000D01*
X15242000Y-12356000D02*
X15192000Y-12406000D01*
X15192000Y-12449000D02*
X15242000Y-12499000D01*
X15242000Y-12449000D02*
X15192000Y-12499000D01*
X15192000Y-12726000D02*
X15242000Y-12776000D01*
X15242000Y-12726000D02*
X15192000Y-12776000D01*
X15192000Y-12916000D02*
X15242000Y-12966000D01*
X15242000Y-12916000D02*
X15192000Y-12966000D01*
X15193000Y-9780000D02*
X15243000Y-9830000D01*
X15243000Y-9780000D02*
X15193000Y-9830000D01*
X15193000Y-9871000D02*
X15243000Y-9921000D01*
X15243000Y-9871000D02*
X15193000Y-9921000D01*
X15193000Y-9987000D02*
X15243000Y-10037000D01*
X15243000Y-9987000D02*
X15193000Y-10037000D01*
X15193000Y-10079000D02*
X15243000Y-10129000D01*
X15243000Y-10079000D02*
X15193000Y-10129000D01*
X15193000Y-10196000D02*
X15243000Y-10246000D01*
X15243000Y-10196000D02*
X15193000Y-10246000D01*
X15193000Y-10289000D02*
X15243000Y-10339000D01*
X15243000Y-10289000D02*
X15193000Y-10339000D01*
X15193000Y-10383000D02*
X15243000Y-10433000D01*
X15243000Y-10383000D02*
X15193000Y-10433000D01*
X15193000Y-10506000D02*
X15243000Y-10556000D01*
X15243000Y-10506000D02*
X15193000Y-10556000D01*
X15193000Y-10597000D02*
X15243000Y-10647000D01*
X15243000Y-10597000D02*
X15193000Y-10647000D01*
X15193000Y-10715000D02*
X15243000Y-10765000D01*
X15243000Y-10715000D02*
X15193000Y-10765000D01*
X15193000Y-10809000D02*
X15243000Y-10859000D01*
X15243000Y-10809000D02*
X15193000Y-10859000D01*
X15193000Y-10902000D02*
X15243000Y-10952000D01*
X15243000Y-10902000D02*
X15193000Y-10952000D01*
X15193000Y-11022000D02*
X15243000Y-11072000D01*
X15243000Y-11022000D02*
X15193000Y-11072000D01*
X15193000Y-11115000D02*
X15243000Y-11165000D01*
X15243000Y-11115000D02*
X15193000Y-11165000D01*
X15193000Y-11232000D02*
X15243000Y-11282000D01*
X15243000Y-11232000D02*
X15193000Y-11282000D01*
X15193000Y-11324000D02*
X15243000Y-11374000D01*
X15243000Y-11324000D02*
X15193000Y-11374000D01*
X15193000Y-11416000D02*
X15243000Y-11466000D01*
X15243000Y-11416000D02*
X15193000Y-11466000D01*
X15193000Y-11538000D02*
X15243000Y-11588000D01*
X15243000Y-11538000D02*
X15193000Y-11588000D01*
X15193000Y-11630000D02*
X15243000Y-11680000D01*
X15243000Y-11630000D02*
X15193000Y-11680000D01*
X15193000Y-11745000D02*
X15243000Y-11795000D01*
X15243000Y-11745000D02*
X15193000Y-11795000D01*
X15193000Y-11835000D02*
X15243000Y-11885000D01*
X15243000Y-11835000D02*
X15193000Y-11885000D01*
X15193000Y-11924000D02*
X15243000Y-11974000D01*
X15243000Y-11924000D02*
X15193000Y-11974000D01*
X15193000Y-12540000D02*
X15243000Y-12590000D01*
X15243000Y-12540000D02*
X15193000Y-12590000D01*
X15193000Y-12632000D02*
X15243000Y-12682000D01*
X15243000Y-12632000D02*
X15193000Y-12682000D01*
X15194000Y-12817000D02*
X15244000Y-12867000D01*
X15244000Y-12817000D02*
X15194000Y-12867000D01*
X15194000Y-13013000D02*
X15244000Y-13063000D01*
X15244000Y-13013000D02*
X15194000Y-13063000D01*
X13489000Y-8958500D02*
G75*
G03*
X13489000Y-8958500I-45000J0D01*
G01*
X13789000Y-8958500D02*
G75*
G03*
X13789000Y-8958500I-45000J0D01*
G01*
X10456000Y-10004000D02*
X10456000Y-10104000D01*
X10406000Y-10054000D02*
X10506000Y-10054000D01*
X10501962Y-9349962D02*
X10501962Y-9258038D01*
X10410038Y-9258038D01*
X10410038Y-9349962D01*
X10501962Y-9349962D01*
D12*
X9181428Y-13570714D02*
X9181428Y-13270714D01*
X9252857Y-13270714D01*
X9295714Y-13285000D01*
X9324286Y-13313571D01*
X9338571Y-13342143D01*
X9352857Y-13399286D01*
X9352857Y-13442143D01*
X9338571Y-13499286D01*
X9324286Y-13527857D01*
X9295714Y-13556429D01*
X9252857Y-13570714D01*
X9181428Y-13570714D01*
X9481428Y-13570714D02*
X9481428Y-13370714D01*
X9481428Y-13427857D02*
X9495714Y-13399286D01*
X9510000Y-13385000D01*
X9538571Y-13370714D01*
X9567143Y-13370714D01*
X9667143Y-13570714D02*
X9667143Y-13370714D01*
X9667143Y-13270714D02*
X9652857Y-13285000D01*
X9667143Y-13299286D01*
X9681428Y-13285000D01*
X9667143Y-13270714D01*
X9667143Y-13299286D01*
X9852857Y-13570714D02*
X9824286Y-13556429D01*
X9810000Y-13527857D01*
X9810000Y-13270714D01*
X10010000Y-13570714D02*
X9981428Y-13556429D01*
X9967143Y-13527857D01*
X9967143Y-13270714D01*
X10352857Y-13570714D02*
X10352857Y-13270714D01*
X10452857Y-13485000D01*
X10552857Y-13270714D01*
X10552857Y-13570714D01*
X10824286Y-13570714D02*
X10824286Y-13413571D01*
X10810000Y-13385000D01*
X10781428Y-13370714D01*
X10724286Y-13370714D01*
X10695714Y-13385000D01*
X10824286Y-13556429D02*
X10795714Y-13570714D01*
X10724286Y-13570714D01*
X10695714Y-13556429D01*
X10681428Y-13527857D01*
X10681428Y-13499286D01*
X10695714Y-13470714D01*
X10724286Y-13456429D01*
X10795714Y-13456429D01*
X10824286Y-13442143D01*
X10967143Y-13370714D02*
X10967143Y-13670714D01*
X10967143Y-13385000D02*
X10995714Y-13370714D01*
X11052857Y-13370714D01*
X11081428Y-13385000D01*
X11095714Y-13399286D01*
X11110000Y-13427857D01*
X11110000Y-13513571D01*
X11095714Y-13542143D01*
X11081428Y-13556429D01*
X11052857Y-13570714D01*
X10995714Y-13570714D01*
X10967143Y-13556429D01*
X11238571Y-13542143D02*
X11252857Y-13556429D01*
X11238571Y-13570714D01*
X11224286Y-13556429D01*
X11238571Y-13542143D01*
X11238571Y-13570714D01*
X11238571Y-13385000D02*
X11252857Y-13399286D01*
X11238571Y-13413571D01*
X11224286Y-13399286D01*
X11238571Y-13385000D01*
X11238571Y-13413571D01*
X8845000Y-14040000D02*
X8895000Y-14090000D01*
X8895000Y-14040000D02*
X8845000Y-14090000D01*
X9238571Y-13900714D02*
X9267143Y-13900714D01*
X9295714Y-13915000D01*
X9310000Y-13929286D01*
X9324286Y-13957857D01*
X9338571Y-14015000D01*
X9338571Y-14086429D01*
X9324286Y-14143571D01*
X9310000Y-14172143D01*
X9295714Y-14186429D01*
X9267143Y-14200714D01*
X9238571Y-14200714D01*
X9210000Y-14186429D01*
X9195714Y-14172143D01*
X9181428Y-14143571D01*
X9167143Y-14086429D01*
X9167143Y-14015000D01*
X9181428Y-13957857D01*
X9195714Y-13929286D01*
X9210000Y-13915000D01*
X9238571Y-13900714D01*
X9467143Y-14172143D02*
X9481428Y-14186429D01*
X9467143Y-14200714D01*
X9452857Y-14186429D01*
X9467143Y-14172143D01*
X9467143Y-14200714D01*
X9752857Y-13900714D02*
X9610000Y-13900714D01*
X9595714Y-14043571D01*
X9610000Y-14029286D01*
X9638571Y-14015000D01*
X9710000Y-14015000D01*
X9738571Y-14029286D01*
X9752857Y-14043571D01*
X9767143Y-14072143D01*
X9767143Y-14143571D01*
X9752857Y-14172143D01*
X9738571Y-14186429D01*
X9710000Y-14200714D01*
X9638571Y-14200714D01*
X9610000Y-14186429D01*
X9595714Y-14172143D01*
X9952857Y-13900714D02*
X9981428Y-13900714D01*
X10010000Y-13915000D01*
X10024286Y-13929286D01*
X10038571Y-13957857D01*
X10052857Y-14015000D01*
X10052857Y-14086429D01*
X10038571Y-14143571D01*
X10024286Y-14172143D01*
X10010000Y-14186429D01*
X9981428Y-14200714D01*
X9952857Y-14200714D01*
X9924286Y-14186429D01*
X9910000Y-14172143D01*
X9895714Y-14143571D01*
X9881428Y-14086429D01*
X9881428Y-14015000D01*
X9895714Y-13957857D01*
X9910000Y-13929286D01*
X9924286Y-13915000D01*
X9952857Y-13900714D01*
X10181428Y-14200714D02*
X10181428Y-14000714D01*
X10181428Y-14029286D02*
X10195714Y-14015000D01*
X10224286Y-14000714D01*
X10267143Y-14000714D01*
X10295714Y-14015000D01*
X10310000Y-14043571D01*
X10310000Y-14200714D01*
X10310000Y-14043571D02*
X10324286Y-14015000D01*
X10352857Y-14000714D01*
X10395714Y-14000714D01*
X10424286Y-14015000D01*
X10438571Y-14043571D01*
X10438571Y-14200714D01*
X10581428Y-14200714D02*
X10581428Y-14000714D01*
X10581428Y-14029286D02*
X10595714Y-14015000D01*
X10624286Y-14000714D01*
X10667143Y-14000714D01*
X10695714Y-14015000D01*
X10710000Y-14043571D01*
X10710000Y-14200714D01*
X10710000Y-14043571D02*
X10724286Y-14015000D01*
X10752857Y-14000714D01*
X10795714Y-14000714D01*
X10824286Y-14015000D01*
X10838571Y-14043571D01*
X10838571Y-14200714D01*
X11424286Y-13886429D02*
X11167143Y-14272143D01*
X11810000Y-13900714D02*
X11838571Y-13900714D01*
X11867143Y-13915000D01*
X11881428Y-13929286D01*
X11895714Y-13957857D01*
X11910000Y-14015000D01*
X11910000Y-14086429D01*
X11895714Y-14143571D01*
X11881428Y-14172143D01*
X11867143Y-14186429D01*
X11838571Y-14200714D01*
X11810000Y-14200714D01*
X11781428Y-14186429D01*
X11767143Y-14172143D01*
X11752857Y-14143571D01*
X11738571Y-14086429D01*
X11738571Y-14015000D01*
X11752857Y-13957857D01*
X11767143Y-13929286D01*
X11781428Y-13915000D01*
X11810000Y-13900714D01*
X12038571Y-14172143D02*
X12052857Y-14186429D01*
X12038571Y-14200714D01*
X12024286Y-14186429D01*
X12038571Y-14172143D01*
X12038571Y-14200714D01*
X12238571Y-13900714D02*
X12267143Y-13900714D01*
X12295714Y-13915000D01*
X12310000Y-13929286D01*
X12324286Y-13957857D01*
X12338571Y-14015000D01*
X12338571Y-14086429D01*
X12324286Y-14143571D01*
X12310000Y-14172143D01*
X12295714Y-14186429D01*
X12267143Y-14200714D01*
X12238571Y-14200714D01*
X12210000Y-14186429D01*
X12195714Y-14172143D01*
X12181428Y-14143571D01*
X12167143Y-14086429D01*
X12167143Y-14015000D01*
X12181428Y-13957857D01*
X12195714Y-13929286D01*
X12210000Y-13915000D01*
X12238571Y-13900714D01*
X12452857Y-13929286D02*
X12467143Y-13915000D01*
X12495714Y-13900714D01*
X12567143Y-13900714D01*
X12595714Y-13915000D01*
X12610000Y-13929286D01*
X12624286Y-13957857D01*
X12624286Y-13986429D01*
X12610000Y-14029286D01*
X12438571Y-14200714D01*
X12624286Y-14200714D01*
X12810000Y-13900714D02*
X12838571Y-13900714D01*
X12867143Y-13915000D01*
X12881428Y-13929286D01*
X12895714Y-13957857D01*
X12910000Y-14015000D01*
X12910000Y-14086429D01*
X12895714Y-14143571D01*
X12881428Y-14172143D01*
X12867143Y-14186429D01*
X12838571Y-14200714D01*
X12810000Y-14200714D01*
X12781428Y-14186429D01*
X12767143Y-14172143D01*
X12752857Y-14143571D01*
X12738571Y-14086429D01*
X12738571Y-14015000D01*
X12752857Y-13957857D01*
X12767143Y-13929286D01*
X12781428Y-13915000D01*
X12810000Y-13900714D01*
X13024286Y-13900714D02*
X13024286Y-13957857D01*
X13138571Y-13900714D02*
X13138571Y-13957857D01*
X13581428Y-14315000D02*
X13567143Y-14300714D01*
X13538571Y-14257857D01*
X13524286Y-14229286D01*
X13510000Y-14186429D01*
X13495714Y-14115000D01*
X13495714Y-14057857D01*
X13510000Y-13986429D01*
X13524286Y-13943571D01*
X13538571Y-13915000D01*
X13567143Y-13872143D01*
X13581428Y-13857857D01*
X13667143Y-13900714D02*
X13852857Y-13900714D01*
X13752857Y-14015000D01*
X13795714Y-14015000D01*
X13824286Y-14029286D01*
X13838571Y-14043571D01*
X13852857Y-14072143D01*
X13852857Y-14143571D01*
X13838571Y-14172143D01*
X13824286Y-14186429D01*
X13795714Y-14200714D01*
X13710000Y-14200714D01*
X13681428Y-14186429D01*
X13667143Y-14172143D01*
X13967143Y-13929286D02*
X13981428Y-13915000D01*
X14010000Y-13900714D01*
X14081428Y-13900714D01*
X14110000Y-13915000D01*
X14124286Y-13929286D01*
X14138571Y-13957857D01*
X14138571Y-13986429D01*
X14124286Y-14029286D01*
X13952857Y-14200714D01*
X14138571Y-14200714D01*
X14495714Y-14200714D02*
X14495714Y-13900714D01*
X14624286Y-14200714D02*
X14624286Y-14043571D01*
X14610000Y-14015000D01*
X14581428Y-14000714D01*
X14538571Y-14000714D01*
X14510000Y-14015000D01*
X14495714Y-14029286D01*
X14810000Y-14200714D02*
X14781428Y-14186429D01*
X14767143Y-14172143D01*
X14752857Y-14143571D01*
X14752857Y-14057857D01*
X14767143Y-14029286D01*
X14781428Y-14015000D01*
X14810000Y-14000714D01*
X14852857Y-14000714D01*
X14881428Y-14015000D01*
X14895714Y-14029286D01*
X14910000Y-14057857D01*
X14910000Y-14143571D01*
X14895714Y-14172143D01*
X14881428Y-14186429D01*
X14852857Y-14200714D01*
X14810000Y-14200714D01*
X15081428Y-14200714D02*
X15052857Y-14186429D01*
X15038571Y-14157857D01*
X15038571Y-13900714D01*
X15310000Y-14186429D02*
X15281428Y-14200714D01*
X15224286Y-14200714D01*
X15195714Y-14186429D01*
X15181428Y-14157857D01*
X15181428Y-14043571D01*
X15195714Y-14015000D01*
X15224286Y-14000714D01*
X15281428Y-14000714D01*
X15310000Y-14015000D01*
X15324286Y-14043571D01*
X15324286Y-14072143D01*
X15181428Y-14100714D01*
X15438571Y-14186429D02*
X15467143Y-14200714D01*
X15524286Y-14200714D01*
X15552857Y-14186429D01*
X15567143Y-14157857D01*
X15567143Y-14143571D01*
X15552857Y-14115000D01*
X15524286Y-14100714D01*
X15481428Y-14100714D01*
X15452857Y-14086429D01*
X15438571Y-14057857D01*
X15438571Y-14043571D01*
X15452857Y-14015000D01*
X15481428Y-14000714D01*
X15524286Y-14000714D01*
X15552857Y-14015000D01*
X15667143Y-14315000D02*
X15681428Y-14300714D01*
X15710000Y-14257857D01*
X15724286Y-14229286D01*
X15738571Y-14186429D01*
X15752857Y-14115000D01*
X15752857Y-14057857D01*
X15738571Y-13986429D01*
X15724286Y-13943571D01*
X15710000Y-13915000D01*
X15681428Y-13872143D01*
X15667143Y-13857857D01*
X16210000Y-14315000D02*
X16195714Y-14300714D01*
X16167143Y-14257857D01*
X16152857Y-14229286D01*
X16138571Y-14186429D01*
X16124286Y-14115000D01*
X16124286Y-14057857D01*
X16138571Y-13986429D01*
X16152857Y-13943571D01*
X16167143Y-13915000D01*
X16195714Y-13872143D01*
X16210000Y-13857857D01*
X16324286Y-14000714D02*
X16324286Y-14200714D01*
X16324286Y-14029286D02*
X16338571Y-14015000D01*
X16367143Y-14000714D01*
X16410000Y-14000714D01*
X16438571Y-14015000D01*
X16452857Y-14043571D01*
X16452857Y-14200714D01*
X16638571Y-14200714D02*
X16610000Y-14186429D01*
X16595714Y-14172143D01*
X16581428Y-14143571D01*
X16581428Y-14057857D01*
X16595714Y-14029286D01*
X16610000Y-14015000D01*
X16638571Y-14000714D01*
X16681428Y-14000714D01*
X16710000Y-14015000D01*
X16724286Y-14029286D01*
X16738571Y-14057857D01*
X16738571Y-14143571D01*
X16724286Y-14172143D01*
X16710000Y-14186429D01*
X16681428Y-14200714D01*
X16638571Y-14200714D01*
X16824286Y-14000714D02*
X16938571Y-14000714D01*
X16867143Y-13900714D02*
X16867143Y-14157857D01*
X16881428Y-14186429D01*
X16910000Y-14200714D01*
X16938571Y-14200714D01*
X17267143Y-14000714D02*
X17267143Y-14300714D01*
X17267143Y-14015000D02*
X17295714Y-14000714D01*
X17352857Y-14000714D01*
X17381428Y-14015000D01*
X17395714Y-14029286D01*
X17410000Y-14057857D01*
X17410000Y-14143571D01*
X17395714Y-14172143D01*
X17381428Y-14186429D01*
X17352857Y-14200714D01*
X17295714Y-14200714D01*
X17267143Y-14186429D01*
X17581428Y-14200714D02*
X17552857Y-14186429D01*
X17538571Y-14157857D01*
X17538571Y-13900714D01*
X17824286Y-14200714D02*
X17824286Y-14043571D01*
X17810000Y-14015000D01*
X17781428Y-14000714D01*
X17724286Y-14000714D01*
X17695714Y-14015000D01*
X17824286Y-14186429D02*
X17795714Y-14200714D01*
X17724286Y-14200714D01*
X17695714Y-14186429D01*
X17681428Y-14157857D01*
X17681428Y-14129286D01*
X17695714Y-14100714D01*
X17724286Y-14086429D01*
X17795714Y-14086429D01*
X17824286Y-14072143D01*
X17924286Y-14000714D02*
X18038571Y-14000714D01*
X17967143Y-13900714D02*
X17967143Y-14157857D01*
X17981428Y-14186429D01*
X18010000Y-14200714D01*
X18038571Y-14200714D01*
X18252857Y-14186429D02*
X18224286Y-14200714D01*
X18167143Y-14200714D01*
X18138571Y-14186429D01*
X18124286Y-14157857D01*
X18124286Y-14043571D01*
X18138571Y-14015000D01*
X18167143Y-14000714D01*
X18224286Y-14000714D01*
X18252857Y-14015000D01*
X18267143Y-14043571D01*
X18267143Y-14072143D01*
X18124286Y-14100714D01*
X18524286Y-14200714D02*
X18524286Y-13900714D01*
X18524286Y-14186429D02*
X18495714Y-14200714D01*
X18438571Y-14200714D01*
X18410000Y-14186429D01*
X18395714Y-14172143D01*
X18381428Y-14143571D01*
X18381428Y-14057857D01*
X18395714Y-14029286D01*
X18410000Y-14015000D01*
X18438571Y-14000714D01*
X18495714Y-14000714D01*
X18524286Y-14015000D01*
X18638571Y-14315000D02*
X18652857Y-14300714D01*
X18681428Y-14257857D01*
X18695714Y-14229286D01*
X18710000Y-14186429D01*
X18724286Y-14115000D01*
X18724286Y-14057857D01*
X18710000Y-13986429D01*
X18695714Y-13943571D01*
X18681428Y-13915000D01*
X18652857Y-13872143D01*
X18638571Y-13857857D01*
X8895000Y-14461000D02*
G75*
G03*
X8895000Y-14461000I-45000J0D01*
G01*
X9238571Y-14296714D02*
X9267143Y-14296714D01*
X9295714Y-14311000D01*
X9310000Y-14325286D01*
X9324286Y-14353857D01*
X9338571Y-14411000D01*
X9338571Y-14482429D01*
X9324286Y-14539571D01*
X9310000Y-14568143D01*
X9295714Y-14582429D01*
X9267143Y-14596714D01*
X9238571Y-14596714D01*
X9210000Y-14582429D01*
X9195714Y-14568143D01*
X9181428Y-14539571D01*
X9167143Y-14482429D01*
X9167143Y-14411000D01*
X9181428Y-14353857D01*
X9195714Y-14325286D01*
X9210000Y-14311000D01*
X9238571Y-14296714D01*
X9467143Y-14568143D02*
X9481428Y-14582429D01*
X9467143Y-14596714D01*
X9452857Y-14582429D01*
X9467143Y-14568143D01*
X9467143Y-14596714D01*
X9624286Y-14596714D02*
X9681428Y-14596714D01*
X9710000Y-14582429D01*
X9724286Y-14568143D01*
X9752857Y-14525286D01*
X9767143Y-14468143D01*
X9767143Y-14353857D01*
X9752857Y-14325286D01*
X9738571Y-14311000D01*
X9710000Y-14296714D01*
X9652857Y-14296714D01*
X9624286Y-14311000D01*
X9610000Y-14325286D01*
X9595714Y-14353857D01*
X9595714Y-14425286D01*
X9610000Y-14453857D01*
X9624286Y-14468143D01*
X9652857Y-14482429D01*
X9710000Y-14482429D01*
X9738571Y-14468143D01*
X9752857Y-14453857D01*
X9767143Y-14425286D01*
X9952857Y-14296714D02*
X9981428Y-14296714D01*
X10010000Y-14311000D01*
X10024286Y-14325286D01*
X10038571Y-14353857D01*
X10052857Y-14411000D01*
X10052857Y-14482429D01*
X10038571Y-14539571D01*
X10024286Y-14568143D01*
X10010000Y-14582429D01*
X9981428Y-14596714D01*
X9952857Y-14596714D01*
X9924286Y-14582429D01*
X9910000Y-14568143D01*
X9895714Y-14539571D01*
X9881428Y-14482429D01*
X9881428Y-14411000D01*
X9895714Y-14353857D01*
X9910000Y-14325286D01*
X9924286Y-14311000D01*
X9952857Y-14296714D01*
X10181428Y-14596714D02*
X10181428Y-14396714D01*
X10181428Y-14425286D02*
X10195714Y-14411000D01*
X10224286Y-14396714D01*
X10267143Y-14396714D01*
X10295714Y-14411000D01*
X10310000Y-14439571D01*
X10310000Y-14596714D01*
X10310000Y-14439571D02*
X10324286Y-14411000D01*
X10352857Y-14396714D01*
X10395714Y-14396714D01*
X10424286Y-14411000D01*
X10438571Y-14439571D01*
X10438571Y-14596714D01*
X10581428Y-14596714D02*
X10581428Y-14396714D01*
X10581428Y-14425286D02*
X10595714Y-14411000D01*
X10624286Y-14396714D01*
X10667143Y-14396714D01*
X10695714Y-14411000D01*
X10710000Y-14439571D01*
X10710000Y-14596714D01*
X10710000Y-14439571D02*
X10724286Y-14411000D01*
X10752857Y-14396714D01*
X10795714Y-14396714D01*
X10824286Y-14411000D01*
X10838571Y-14439571D01*
X10838571Y-14596714D01*
X11424286Y-14282429D02*
X11167143Y-14668143D01*
X11810000Y-14296714D02*
X11838571Y-14296714D01*
X11867143Y-14311000D01*
X11881428Y-14325286D01*
X11895714Y-14353857D01*
X11910000Y-14411000D01*
X11910000Y-14482429D01*
X11895714Y-14539571D01*
X11881428Y-14568143D01*
X11867143Y-14582429D01*
X11838571Y-14596714D01*
X11810000Y-14596714D01*
X11781428Y-14582429D01*
X11767143Y-14568143D01*
X11752857Y-14539571D01*
X11738571Y-14482429D01*
X11738571Y-14411000D01*
X11752857Y-14353857D01*
X11767143Y-14325286D01*
X11781428Y-14311000D01*
X11810000Y-14296714D01*
X12038571Y-14568143D02*
X12052857Y-14582429D01*
X12038571Y-14596714D01*
X12024286Y-14582429D01*
X12038571Y-14568143D01*
X12038571Y-14596714D01*
X12238571Y-14296714D02*
X12267143Y-14296714D01*
X12295714Y-14311000D01*
X12310000Y-14325286D01*
X12324286Y-14353857D01*
X12338571Y-14411000D01*
X12338571Y-14482429D01*
X12324286Y-14539571D01*
X12310000Y-14568143D01*
X12295714Y-14582429D01*
X12267143Y-14596714D01*
X12238571Y-14596714D01*
X12210000Y-14582429D01*
X12195714Y-14568143D01*
X12181428Y-14539571D01*
X12167143Y-14482429D01*
X12167143Y-14411000D01*
X12181428Y-14353857D01*
X12195714Y-14325286D01*
X12210000Y-14311000D01*
X12238571Y-14296714D01*
X12438571Y-14296714D02*
X12624286Y-14296714D01*
X12524286Y-14411000D01*
X12567143Y-14411000D01*
X12595714Y-14425286D01*
X12610000Y-14439571D01*
X12624286Y-14468143D01*
X12624286Y-14539571D01*
X12610000Y-14568143D01*
X12595714Y-14582429D01*
X12567143Y-14596714D01*
X12481428Y-14596714D01*
X12452857Y-14582429D01*
X12438571Y-14568143D01*
X12895714Y-14296714D02*
X12752857Y-14296714D01*
X12738571Y-14439571D01*
X12752857Y-14425286D01*
X12781428Y-14411000D01*
X12852857Y-14411000D01*
X12881428Y-14425286D01*
X12895714Y-14439571D01*
X12910000Y-14468143D01*
X12910000Y-14539571D01*
X12895714Y-14568143D01*
X12881428Y-14582429D01*
X12852857Y-14596714D01*
X12781428Y-14596714D01*
X12752857Y-14582429D01*
X12738571Y-14568143D01*
X13024286Y-14296714D02*
X13024286Y-14353857D01*
X13138571Y-14296714D02*
X13138571Y-14353857D01*
X13581428Y-14711000D02*
X13567143Y-14696714D01*
X13538571Y-14653857D01*
X13524286Y-14625286D01*
X13510000Y-14582429D01*
X13495714Y-14511000D01*
X13495714Y-14453857D01*
X13510000Y-14382429D01*
X13524286Y-14339571D01*
X13538571Y-14311000D01*
X13567143Y-14268143D01*
X13581428Y-14253857D01*
X13681428Y-14325286D02*
X13695714Y-14311000D01*
X13724286Y-14296714D01*
X13795714Y-14296714D01*
X13824286Y-14311000D01*
X13838571Y-14325286D01*
X13852857Y-14353857D01*
X13852857Y-14382429D01*
X13838571Y-14425286D01*
X13667143Y-14596714D01*
X13852857Y-14596714D01*
X14210000Y-14596714D02*
X14210000Y-14296714D01*
X14338571Y-14596714D02*
X14338571Y-14439571D01*
X14324286Y-14411000D01*
X14295714Y-14396714D01*
X14252857Y-14396714D01*
X14224286Y-14411000D01*
X14210000Y-14425286D01*
X14524286Y-14596714D02*
X14495714Y-14582429D01*
X14481428Y-14568143D01*
X14467143Y-14539571D01*
X14467143Y-14453857D01*
X14481428Y-14425286D01*
X14495714Y-14411000D01*
X14524286Y-14396714D01*
X14567143Y-14396714D01*
X14595714Y-14411000D01*
X14610000Y-14425286D01*
X14624286Y-14453857D01*
X14624286Y-14539571D01*
X14610000Y-14568143D01*
X14595714Y-14582429D01*
X14567143Y-14596714D01*
X14524286Y-14596714D01*
X14795714Y-14596714D02*
X14767143Y-14582429D01*
X14752857Y-14553857D01*
X14752857Y-14296714D01*
X15024286Y-14582429D02*
X14995714Y-14596714D01*
X14938571Y-14596714D01*
X14910000Y-14582429D01*
X14895714Y-14553857D01*
X14895714Y-14439571D01*
X14910000Y-14411000D01*
X14938571Y-14396714D01*
X14995714Y-14396714D01*
X15024286Y-14411000D01*
X15038571Y-14439571D01*
X15038571Y-14468143D01*
X14895714Y-14496714D01*
X15152857Y-14582429D02*
X15181428Y-14596714D01*
X15238571Y-14596714D01*
X15267143Y-14582429D01*
X15281428Y-14553857D01*
X15281428Y-14539571D01*
X15267143Y-14511000D01*
X15238571Y-14496714D01*
X15195714Y-14496714D01*
X15167143Y-14482429D01*
X15152857Y-14453857D01*
X15152857Y-14439571D01*
X15167143Y-14411000D01*
X15195714Y-14396714D01*
X15238571Y-14396714D01*
X15267143Y-14411000D01*
X15381428Y-14711000D02*
X15395714Y-14696714D01*
X15424286Y-14653857D01*
X15438571Y-14625286D01*
X15452857Y-14582429D01*
X15467143Y-14511000D01*
X15467143Y-14453857D01*
X15452857Y-14382429D01*
X15438571Y-14339571D01*
X15424286Y-14311000D01*
X15395714Y-14268143D01*
X15381428Y-14253857D01*
X15924286Y-14711000D02*
X15910000Y-14696714D01*
X15881428Y-14653857D01*
X15867143Y-14625286D01*
X15852857Y-14582429D01*
X15838571Y-14511000D01*
X15838571Y-14453857D01*
X15852857Y-14382429D01*
X15867143Y-14339571D01*
X15881428Y-14311000D01*
X15910000Y-14268143D01*
X15924286Y-14253857D01*
X16038571Y-14396714D02*
X16038571Y-14596714D01*
X16038571Y-14425286D02*
X16052857Y-14411000D01*
X16081428Y-14396714D01*
X16124286Y-14396714D01*
X16152857Y-14411000D01*
X16167143Y-14439571D01*
X16167143Y-14596714D01*
X16352857Y-14596714D02*
X16324286Y-14582429D01*
X16310000Y-14568143D01*
X16295714Y-14539571D01*
X16295714Y-14453857D01*
X16310000Y-14425286D01*
X16324286Y-14411000D01*
X16352857Y-14396714D01*
X16395714Y-14396714D01*
X16424286Y-14411000D01*
X16438571Y-14425286D01*
X16452857Y-14453857D01*
X16452857Y-14539571D01*
X16438571Y-14568143D01*
X16424286Y-14582429D01*
X16395714Y-14596714D01*
X16352857Y-14596714D01*
X16538571Y-14396714D02*
X16652857Y-14396714D01*
X16581428Y-14296714D02*
X16581428Y-14553857D01*
X16595714Y-14582429D01*
X16624286Y-14596714D01*
X16652857Y-14596714D01*
X16981428Y-14396714D02*
X16981428Y-14696714D01*
X16981428Y-14411000D02*
X17010000Y-14396714D01*
X17067143Y-14396714D01*
X17095714Y-14411000D01*
X17110000Y-14425286D01*
X17124286Y-14453857D01*
X17124286Y-14539571D01*
X17110000Y-14568143D01*
X17095714Y-14582429D01*
X17067143Y-14596714D01*
X17010000Y-14596714D01*
X16981428Y-14582429D01*
X17295714Y-14596714D02*
X17267143Y-14582429D01*
X17252857Y-14553857D01*
X17252857Y-14296714D01*
X17538571Y-14596714D02*
X17538571Y-14439571D01*
X17524286Y-14411000D01*
X17495714Y-14396714D01*
X17438571Y-14396714D01*
X17410000Y-14411000D01*
X17538571Y-14582429D02*
X17510000Y-14596714D01*
X17438571Y-14596714D01*
X17410000Y-14582429D01*
X17395714Y-14553857D01*
X17395714Y-14525286D01*
X17410000Y-14496714D01*
X17438571Y-14482429D01*
X17510000Y-14482429D01*
X17538571Y-14468143D01*
X17638571Y-14396714D02*
X17752857Y-14396714D01*
X17681428Y-14296714D02*
X17681428Y-14553857D01*
X17695714Y-14582429D01*
X17724286Y-14596714D01*
X17752857Y-14596714D01*
X17967143Y-14582429D02*
X17938571Y-14596714D01*
X17881428Y-14596714D01*
X17852857Y-14582429D01*
X17838571Y-14553857D01*
X17838571Y-14439571D01*
X17852857Y-14411000D01*
X17881428Y-14396714D01*
X17938571Y-14396714D01*
X17967143Y-14411000D01*
X17981428Y-14439571D01*
X17981428Y-14468143D01*
X17838571Y-14496714D01*
X18238571Y-14596714D02*
X18238571Y-14296714D01*
X18238571Y-14582429D02*
X18210000Y-14596714D01*
X18152857Y-14596714D01*
X18124286Y-14582429D01*
X18110000Y-14568143D01*
X18095714Y-14539571D01*
X18095714Y-14453857D01*
X18110000Y-14425286D01*
X18124286Y-14411000D01*
X18152857Y-14396714D01*
X18210000Y-14396714D01*
X18238571Y-14411000D01*
X18352857Y-14711000D02*
X18367143Y-14696714D01*
X18395714Y-14653857D01*
X18410000Y-14625286D01*
X18424286Y-14582429D01*
X18438571Y-14511000D01*
X18438571Y-14453857D01*
X18424286Y-14382429D01*
X18410000Y-14339571D01*
X18395714Y-14311000D01*
X18367143Y-14268143D01*
X18352857Y-14253857D01*
X8845000Y-14807000D02*
X8845000Y-14907000D01*
X8795000Y-14857000D02*
X8895000Y-14857000D01*
X9338571Y-14992714D02*
X9167143Y-14992714D01*
X9252857Y-14992714D02*
X9252857Y-14692714D01*
X9224286Y-14735571D01*
X9195714Y-14764143D01*
X9167143Y-14778429D01*
X9467143Y-14964143D02*
X9481428Y-14978429D01*
X9467143Y-14992714D01*
X9452857Y-14978429D01*
X9467143Y-14964143D01*
X9467143Y-14992714D01*
X9667143Y-14692714D02*
X9695714Y-14692714D01*
X9724286Y-14707000D01*
X9738571Y-14721286D01*
X9752857Y-14749857D01*
X9767143Y-14807000D01*
X9767143Y-14878429D01*
X9752857Y-14935571D01*
X9738571Y-14964143D01*
X9724286Y-14978429D01*
X9695714Y-14992714D01*
X9667143Y-14992714D01*
X9638571Y-14978429D01*
X9624286Y-14964143D01*
X9610000Y-14935571D01*
X9595714Y-14878429D01*
X9595714Y-14807000D01*
X9610000Y-14749857D01*
X9624286Y-14721286D01*
X9638571Y-14707000D01*
X9667143Y-14692714D01*
X9952857Y-14692714D02*
X9981428Y-14692714D01*
X10010000Y-14707000D01*
X10024286Y-14721286D01*
X10038571Y-14749857D01*
X10052857Y-14807000D01*
X10052857Y-14878429D01*
X10038571Y-14935571D01*
X10024286Y-14964143D01*
X10010000Y-14978429D01*
X9981428Y-14992714D01*
X9952857Y-14992714D01*
X9924286Y-14978429D01*
X9910000Y-14964143D01*
X9895714Y-14935571D01*
X9881428Y-14878429D01*
X9881428Y-14807000D01*
X9895714Y-14749857D01*
X9910000Y-14721286D01*
X9924286Y-14707000D01*
X9952857Y-14692714D01*
X10181428Y-14992714D02*
X10181428Y-14792714D01*
X10181428Y-14821286D02*
X10195714Y-14807000D01*
X10224286Y-14792714D01*
X10267143Y-14792714D01*
X10295714Y-14807000D01*
X10310000Y-14835571D01*
X10310000Y-14992714D01*
X10310000Y-14835571D02*
X10324286Y-14807000D01*
X10352857Y-14792714D01*
X10395714Y-14792714D01*
X10424286Y-14807000D01*
X10438571Y-14835571D01*
X10438571Y-14992714D01*
X10581428Y-14992714D02*
X10581428Y-14792714D01*
X10581428Y-14821286D02*
X10595714Y-14807000D01*
X10624286Y-14792714D01*
X10667143Y-14792714D01*
X10695714Y-14807000D01*
X10710000Y-14835571D01*
X10710000Y-14992714D01*
X10710000Y-14835571D02*
X10724286Y-14807000D01*
X10752857Y-14792714D01*
X10795714Y-14792714D01*
X10824286Y-14807000D01*
X10838571Y-14835571D01*
X10838571Y-14992714D01*
X11424286Y-14678429D02*
X11167143Y-15064143D01*
X11810000Y-14692714D02*
X11838571Y-14692714D01*
X11867143Y-14707000D01*
X11881428Y-14721286D01*
X11895714Y-14749857D01*
X11910000Y-14807000D01*
X11910000Y-14878429D01*
X11895714Y-14935571D01*
X11881428Y-14964143D01*
X11867143Y-14978429D01*
X11838571Y-14992714D01*
X11810000Y-14992714D01*
X11781428Y-14978429D01*
X11767143Y-14964143D01*
X11752857Y-14935571D01*
X11738571Y-14878429D01*
X11738571Y-14807000D01*
X11752857Y-14749857D01*
X11767143Y-14721286D01*
X11781428Y-14707000D01*
X11810000Y-14692714D01*
X12038571Y-14964143D02*
X12052857Y-14978429D01*
X12038571Y-14992714D01*
X12024286Y-14978429D01*
X12038571Y-14964143D01*
X12038571Y-14992714D01*
X12238571Y-14692714D02*
X12267143Y-14692714D01*
X12295714Y-14707000D01*
X12310000Y-14721286D01*
X12324286Y-14749857D01*
X12338571Y-14807000D01*
X12338571Y-14878429D01*
X12324286Y-14935571D01*
X12310000Y-14964143D01*
X12295714Y-14978429D01*
X12267143Y-14992714D01*
X12238571Y-14992714D01*
X12210000Y-14978429D01*
X12195714Y-14964143D01*
X12181428Y-14935571D01*
X12167143Y-14878429D01*
X12167143Y-14807000D01*
X12181428Y-14749857D01*
X12195714Y-14721286D01*
X12210000Y-14707000D01*
X12238571Y-14692714D01*
X12438571Y-14692714D02*
X12624286Y-14692714D01*
X12524286Y-14807000D01*
X12567143Y-14807000D01*
X12595714Y-14821286D01*
X12610000Y-14835571D01*
X12624286Y-14864143D01*
X12624286Y-14935571D01*
X12610000Y-14964143D01*
X12595714Y-14978429D01*
X12567143Y-14992714D01*
X12481428Y-14992714D01*
X12452857Y-14978429D01*
X12438571Y-14964143D01*
X12767143Y-14992714D02*
X12824286Y-14992714D01*
X12852857Y-14978429D01*
X12867143Y-14964143D01*
X12895714Y-14921286D01*
X12910000Y-14864143D01*
X12910000Y-14749857D01*
X12895714Y-14721286D01*
X12881428Y-14707000D01*
X12852857Y-14692714D01*
X12795714Y-14692714D01*
X12767143Y-14707000D01*
X12752857Y-14721286D01*
X12738571Y-14749857D01*
X12738571Y-14821286D01*
X12752857Y-14849857D01*
X12767143Y-14864143D01*
X12795714Y-14878429D01*
X12852857Y-14878429D01*
X12881428Y-14864143D01*
X12895714Y-14849857D01*
X12910000Y-14821286D01*
X13024286Y-14692714D02*
X13024286Y-14749857D01*
X13138571Y-14692714D02*
X13138571Y-14749857D01*
X13581428Y-15107000D02*
X13567143Y-15092714D01*
X13538571Y-15049857D01*
X13524286Y-15021286D01*
X13510000Y-14978429D01*
X13495714Y-14907000D01*
X13495714Y-14849857D01*
X13510000Y-14778429D01*
X13524286Y-14735571D01*
X13538571Y-14707000D01*
X13567143Y-14664143D01*
X13581428Y-14649857D01*
X13852857Y-14992714D02*
X13681428Y-14992714D01*
X13767143Y-14992714D02*
X13767143Y-14692714D01*
X13738571Y-14735571D01*
X13710000Y-14764143D01*
X13681428Y-14778429D01*
X14210000Y-14992714D02*
X14210000Y-14692714D01*
X14338571Y-14992714D02*
X14338571Y-14835571D01*
X14324286Y-14807000D01*
X14295714Y-14792714D01*
X14252857Y-14792714D01*
X14224286Y-14807000D01*
X14210000Y-14821286D01*
X14524286Y-14992714D02*
X14495714Y-14978429D01*
X14481428Y-14964143D01*
X14467143Y-14935571D01*
X14467143Y-14849857D01*
X14481428Y-14821286D01*
X14495714Y-14807000D01*
X14524286Y-14792714D01*
X14567143Y-14792714D01*
X14595714Y-14807000D01*
X14610000Y-14821286D01*
X14624286Y-14849857D01*
X14624286Y-14935571D01*
X14610000Y-14964143D01*
X14595714Y-14978429D01*
X14567143Y-14992714D01*
X14524286Y-14992714D01*
X14795714Y-14992714D02*
X14767143Y-14978429D01*
X14752857Y-14949857D01*
X14752857Y-14692714D01*
X15024286Y-14978429D02*
X14995714Y-14992714D01*
X14938571Y-14992714D01*
X14910000Y-14978429D01*
X14895714Y-14949857D01*
X14895714Y-14835571D01*
X14910000Y-14807000D01*
X14938571Y-14792714D01*
X14995714Y-14792714D01*
X15024286Y-14807000D01*
X15038571Y-14835571D01*
X15038571Y-14864143D01*
X14895714Y-14892714D01*
X15138571Y-15107000D02*
X15152857Y-15092714D01*
X15181428Y-15049857D01*
X15195714Y-15021286D01*
X15210000Y-14978429D01*
X15224286Y-14907000D01*
X15224286Y-14849857D01*
X15210000Y-14778429D01*
X15195714Y-14735571D01*
X15181428Y-14707000D01*
X15152857Y-14664143D01*
X15138571Y-14649857D01*
X15681428Y-15107000D02*
X15667143Y-15092714D01*
X15638571Y-15049857D01*
X15624286Y-15021286D01*
X15610000Y-14978429D01*
X15595714Y-14907000D01*
X15595714Y-14849857D01*
X15610000Y-14778429D01*
X15624286Y-14735571D01*
X15638571Y-14707000D01*
X15667143Y-14664143D01*
X15681428Y-14649857D01*
X15795714Y-14792714D02*
X15795714Y-14992714D01*
X15795714Y-14821286D02*
X15810000Y-14807000D01*
X15838571Y-14792714D01*
X15881428Y-14792714D01*
X15910000Y-14807000D01*
X15924286Y-14835571D01*
X15924286Y-14992714D01*
X16110000Y-14992714D02*
X16081428Y-14978429D01*
X16067143Y-14964143D01*
X16052857Y-14935571D01*
X16052857Y-14849857D01*
X16067143Y-14821286D01*
X16081428Y-14807000D01*
X16110000Y-14792714D01*
X16152857Y-14792714D01*
X16181428Y-14807000D01*
X16195714Y-14821286D01*
X16210000Y-14849857D01*
X16210000Y-14935571D01*
X16195714Y-14964143D01*
X16181428Y-14978429D01*
X16152857Y-14992714D01*
X16110000Y-14992714D01*
X16295714Y-14792714D02*
X16410000Y-14792714D01*
X16338571Y-14692714D02*
X16338571Y-14949857D01*
X16352857Y-14978429D01*
X16381428Y-14992714D01*
X16410000Y-14992714D01*
X16738571Y-14792714D02*
X16738571Y-15092714D01*
X16738571Y-14807000D02*
X16767143Y-14792714D01*
X16824286Y-14792714D01*
X16852857Y-14807000D01*
X16867143Y-14821286D01*
X16881428Y-14849857D01*
X16881428Y-14935571D01*
X16867143Y-14964143D01*
X16852857Y-14978429D01*
X16824286Y-14992714D01*
X16767143Y-14992714D01*
X16738571Y-14978429D01*
X17052857Y-14992714D02*
X17024286Y-14978429D01*
X17010000Y-14949857D01*
X17010000Y-14692714D01*
X17295714Y-14992714D02*
X17295714Y-14835571D01*
X17281428Y-14807000D01*
X17252857Y-14792714D01*
X17195714Y-14792714D01*
X17167143Y-14807000D01*
X17295714Y-14978429D02*
X17267143Y-14992714D01*
X17195714Y-14992714D01*
X17167143Y-14978429D01*
X17152857Y-14949857D01*
X17152857Y-14921286D01*
X17167143Y-14892714D01*
X17195714Y-14878429D01*
X17267143Y-14878429D01*
X17295714Y-14864143D01*
X17395714Y-14792714D02*
X17510000Y-14792714D01*
X17438571Y-14692714D02*
X17438571Y-14949857D01*
X17452857Y-14978429D01*
X17481428Y-14992714D01*
X17510000Y-14992714D01*
X17724286Y-14978429D02*
X17695714Y-14992714D01*
X17638571Y-14992714D01*
X17610000Y-14978429D01*
X17595714Y-14949857D01*
X17595714Y-14835571D01*
X17610000Y-14807000D01*
X17638571Y-14792714D01*
X17695714Y-14792714D01*
X17724286Y-14807000D01*
X17738571Y-14835571D01*
X17738571Y-14864143D01*
X17595714Y-14892714D01*
X17995714Y-14992714D02*
X17995714Y-14692714D01*
X17995714Y-14978429D02*
X17967143Y-14992714D01*
X17910000Y-14992714D01*
X17881428Y-14978429D01*
X17867143Y-14964143D01*
X17852857Y-14935571D01*
X17852857Y-14849857D01*
X17867143Y-14821286D01*
X17881428Y-14807000D01*
X17910000Y-14792714D01*
X17967143Y-14792714D01*
X17995714Y-14807000D01*
X18110000Y-15107000D02*
X18124286Y-15092714D01*
X18152857Y-15049857D01*
X18167143Y-15021286D01*
X18181428Y-14978429D01*
X18195714Y-14907000D01*
X18195714Y-14849857D01*
X18181428Y-14778429D01*
X18167143Y-14735571D01*
X18152857Y-14707000D01*
X18124286Y-14664143D01*
X18110000Y-14649857D01*
X8875962Y-15298962D02*
X8875962Y-15207038D01*
X8784038Y-15207038D01*
X8784038Y-15298962D01*
X8875962Y-15298962D01*
X9338571Y-15388714D02*
X9167143Y-15388714D01*
X9252857Y-15388714D02*
X9252857Y-15088714D01*
X9224286Y-15131571D01*
X9195714Y-15160143D01*
X9167143Y-15174429D01*
X9467143Y-15360143D02*
X9481428Y-15374429D01*
X9467143Y-15388714D01*
X9452857Y-15374429D01*
X9467143Y-15360143D01*
X9467143Y-15388714D01*
X9581428Y-15088714D02*
X9767143Y-15088714D01*
X9667143Y-15203000D01*
X9710000Y-15203000D01*
X9738571Y-15217286D01*
X9752857Y-15231571D01*
X9767143Y-15260143D01*
X9767143Y-15331571D01*
X9752857Y-15360143D01*
X9738571Y-15374429D01*
X9710000Y-15388714D01*
X9624286Y-15388714D01*
X9595714Y-15374429D01*
X9581428Y-15360143D01*
X9952857Y-15088714D02*
X9981428Y-15088714D01*
X10010000Y-15103000D01*
X10024286Y-15117286D01*
X10038571Y-15145857D01*
X10052857Y-15203000D01*
X10052857Y-15274429D01*
X10038571Y-15331571D01*
X10024286Y-15360143D01*
X10010000Y-15374429D01*
X9981428Y-15388714D01*
X9952857Y-15388714D01*
X9924286Y-15374429D01*
X9910000Y-15360143D01*
X9895714Y-15331571D01*
X9881428Y-15274429D01*
X9881428Y-15203000D01*
X9895714Y-15145857D01*
X9910000Y-15117286D01*
X9924286Y-15103000D01*
X9952857Y-15088714D01*
X10181428Y-15388714D02*
X10181428Y-15188714D01*
X10181428Y-15217286D02*
X10195714Y-15203000D01*
X10224286Y-15188714D01*
X10267143Y-15188714D01*
X10295714Y-15203000D01*
X10310000Y-15231571D01*
X10310000Y-15388714D01*
X10310000Y-15231571D02*
X10324286Y-15203000D01*
X10352857Y-15188714D01*
X10395714Y-15188714D01*
X10424286Y-15203000D01*
X10438571Y-15231571D01*
X10438571Y-15388714D01*
X10581428Y-15388714D02*
X10581428Y-15188714D01*
X10581428Y-15217286D02*
X10595714Y-15203000D01*
X10624286Y-15188714D01*
X10667143Y-15188714D01*
X10695714Y-15203000D01*
X10710000Y-15231571D01*
X10710000Y-15388714D01*
X10710000Y-15231571D02*
X10724286Y-15203000D01*
X10752857Y-15188714D01*
X10795714Y-15188714D01*
X10824286Y-15203000D01*
X10838571Y-15231571D01*
X10838571Y-15388714D01*
X11424286Y-15074429D02*
X11167143Y-15460143D01*
X11810000Y-15088714D02*
X11838571Y-15088714D01*
X11867143Y-15103000D01*
X11881428Y-15117286D01*
X11895714Y-15145857D01*
X11910000Y-15203000D01*
X11910000Y-15274429D01*
X11895714Y-15331571D01*
X11881428Y-15360143D01*
X11867143Y-15374429D01*
X11838571Y-15388714D01*
X11810000Y-15388714D01*
X11781428Y-15374429D01*
X11767143Y-15360143D01*
X11752857Y-15331571D01*
X11738571Y-15274429D01*
X11738571Y-15203000D01*
X11752857Y-15145857D01*
X11767143Y-15117286D01*
X11781428Y-15103000D01*
X11810000Y-15088714D01*
X12038571Y-15360143D02*
X12052857Y-15374429D01*
X12038571Y-15388714D01*
X12024286Y-15374429D01*
X12038571Y-15360143D01*
X12038571Y-15388714D01*
X12238571Y-15088714D02*
X12267143Y-15088714D01*
X12295714Y-15103000D01*
X12310000Y-15117286D01*
X12324286Y-15145857D01*
X12338571Y-15203000D01*
X12338571Y-15274429D01*
X12324286Y-15331571D01*
X12310000Y-15360143D01*
X12295714Y-15374429D01*
X12267143Y-15388714D01*
X12238571Y-15388714D01*
X12210000Y-15374429D01*
X12195714Y-15360143D01*
X12181428Y-15331571D01*
X12167143Y-15274429D01*
X12167143Y-15203000D01*
X12181428Y-15145857D01*
X12195714Y-15117286D01*
X12210000Y-15103000D01*
X12238571Y-15088714D01*
X12610000Y-15088714D02*
X12467143Y-15088714D01*
X12452857Y-15231571D01*
X12467143Y-15217286D01*
X12495714Y-15203000D01*
X12567143Y-15203000D01*
X12595714Y-15217286D01*
X12610000Y-15231571D01*
X12624286Y-15260143D01*
X12624286Y-15331571D01*
X12610000Y-15360143D01*
X12595714Y-15374429D01*
X12567143Y-15388714D01*
X12495714Y-15388714D01*
X12467143Y-15374429D01*
X12452857Y-15360143D01*
X12910000Y-15388714D02*
X12738571Y-15388714D01*
X12824286Y-15388714D02*
X12824286Y-15088714D01*
X12795714Y-15131571D01*
X12767143Y-15160143D01*
X12738571Y-15174429D01*
X13024286Y-15088714D02*
X13024286Y-15145857D01*
X13138571Y-15088714D02*
X13138571Y-15145857D01*
X13581428Y-15503000D02*
X13567143Y-15488714D01*
X13538571Y-15445857D01*
X13524286Y-15417286D01*
X13510000Y-15374429D01*
X13495714Y-15303000D01*
X13495714Y-15245857D01*
X13510000Y-15174429D01*
X13524286Y-15131571D01*
X13538571Y-15103000D01*
X13567143Y-15060143D01*
X13581428Y-15045857D01*
X13852857Y-15388714D02*
X13681428Y-15388714D01*
X13767143Y-15388714D02*
X13767143Y-15088714D01*
X13738571Y-15131571D01*
X13710000Y-15160143D01*
X13681428Y-15174429D01*
X14210000Y-15388714D02*
X14210000Y-15088714D01*
X14338571Y-15388714D02*
X14338571Y-15231571D01*
X14324286Y-15203000D01*
X14295714Y-15188714D01*
X14252857Y-15188714D01*
X14224286Y-15203000D01*
X14210000Y-15217286D01*
X14524286Y-15388714D02*
X14495714Y-15374429D01*
X14481428Y-15360143D01*
X14467143Y-15331571D01*
X14467143Y-15245857D01*
X14481428Y-15217286D01*
X14495714Y-15203000D01*
X14524286Y-15188714D01*
X14567143Y-15188714D01*
X14595714Y-15203000D01*
X14610000Y-15217286D01*
X14624286Y-15245857D01*
X14624286Y-15331571D01*
X14610000Y-15360143D01*
X14595714Y-15374429D01*
X14567143Y-15388714D01*
X14524286Y-15388714D01*
X14795714Y-15388714D02*
X14767143Y-15374429D01*
X14752857Y-15345857D01*
X14752857Y-15088714D01*
X15024286Y-15374429D02*
X14995714Y-15388714D01*
X14938571Y-15388714D01*
X14910000Y-15374429D01*
X14895714Y-15345857D01*
X14895714Y-15231571D01*
X14910000Y-15203000D01*
X14938571Y-15188714D01*
X14995714Y-15188714D01*
X15024286Y-15203000D01*
X15038571Y-15231571D01*
X15038571Y-15260143D01*
X14895714Y-15288714D01*
X15138571Y-15503000D02*
X15152857Y-15488714D01*
X15181428Y-15445857D01*
X15195714Y-15417286D01*
X15210000Y-15374429D01*
X15224286Y-15303000D01*
X15224286Y-15245857D01*
X15210000Y-15174429D01*
X15195714Y-15131571D01*
X15181428Y-15103000D01*
X15152857Y-15060143D01*
X15138571Y-15045857D01*
X15681428Y-15503000D02*
X15667143Y-15488714D01*
X15638571Y-15445857D01*
X15624286Y-15417286D01*
X15610000Y-15374429D01*
X15595714Y-15303000D01*
X15595714Y-15245857D01*
X15610000Y-15174429D01*
X15624286Y-15131571D01*
X15638571Y-15103000D01*
X15667143Y-15060143D01*
X15681428Y-15045857D01*
X15795714Y-15188714D02*
X15795714Y-15388714D01*
X15795714Y-15217286D02*
X15810000Y-15203000D01*
X15838571Y-15188714D01*
X15881428Y-15188714D01*
X15910000Y-15203000D01*
X15924286Y-15231571D01*
X15924286Y-15388714D01*
X16110000Y-15388714D02*
X16081428Y-15374429D01*
X16067143Y-15360143D01*
X16052857Y-15331571D01*
X16052857Y-15245857D01*
X16067143Y-15217286D01*
X16081428Y-15203000D01*
X16110000Y-15188714D01*
X16152857Y-15188714D01*
X16181428Y-15203000D01*
X16195714Y-15217286D01*
X16210000Y-15245857D01*
X16210000Y-15331571D01*
X16195714Y-15360143D01*
X16181428Y-15374429D01*
X16152857Y-15388714D01*
X16110000Y-15388714D01*
X16295714Y-15188714D02*
X16410000Y-15188714D01*
X16338571Y-15088714D02*
X16338571Y-15345857D01*
X16352857Y-15374429D01*
X16381428Y-15388714D01*
X16410000Y-15388714D01*
X16738571Y-15188714D02*
X16738571Y-15488714D01*
X16738571Y-15203000D02*
X16767143Y-15188714D01*
X16824286Y-15188714D01*
X16852857Y-15203000D01*
X16867143Y-15217286D01*
X16881428Y-15245857D01*
X16881428Y-15331571D01*
X16867143Y-15360143D01*
X16852857Y-15374429D01*
X16824286Y-15388714D01*
X16767143Y-15388714D01*
X16738571Y-15374429D01*
X17052857Y-15388714D02*
X17024286Y-15374429D01*
X17010000Y-15345857D01*
X17010000Y-15088714D01*
X17295714Y-15388714D02*
X17295714Y-15231571D01*
X17281428Y-15203000D01*
X17252857Y-15188714D01*
X17195714Y-15188714D01*
X17167143Y-15203000D01*
X17295714Y-15374429D02*
X17267143Y-15388714D01*
X17195714Y-15388714D01*
X17167143Y-15374429D01*
X17152857Y-15345857D01*
X17152857Y-15317286D01*
X17167143Y-15288714D01*
X17195714Y-15274429D01*
X17267143Y-15274429D01*
X17295714Y-15260143D01*
X17395714Y-15188714D02*
X17510000Y-15188714D01*
X17438571Y-15088714D02*
X17438571Y-15345857D01*
X17452857Y-15374429D01*
X17481428Y-15388714D01*
X17510000Y-15388714D01*
X17724286Y-15374429D02*
X17695714Y-15388714D01*
X17638571Y-15388714D01*
X17610000Y-15374429D01*
X17595714Y-15345857D01*
X17595714Y-15231571D01*
X17610000Y-15203000D01*
X17638571Y-15188714D01*
X17695714Y-15188714D01*
X17724286Y-15203000D01*
X17738571Y-15231571D01*
X17738571Y-15260143D01*
X17595714Y-15288714D01*
X17995714Y-15388714D02*
X17995714Y-15088714D01*
X17995714Y-15374429D02*
X17967143Y-15388714D01*
X17910000Y-15388714D01*
X17881428Y-15374429D01*
X17867143Y-15360143D01*
X17852857Y-15331571D01*
X17852857Y-15245857D01*
X17867143Y-15217286D01*
X17881428Y-15203000D01*
X17910000Y-15188714D01*
X17967143Y-15188714D01*
X17995714Y-15203000D01*
X18110000Y-15503000D02*
X18124286Y-15488714D01*
X18152857Y-15445857D01*
X18167143Y-15417286D01*
X18181428Y-15374429D01*
X18195714Y-15303000D01*
X18195714Y-15245857D01*
X18181428Y-15174429D01*
X18167143Y-15131571D01*
X18152857Y-15103000D01*
X18124286Y-15060143D01*
X18110000Y-15045857D01*
M02*
