G04 #@! TF.GenerationSoftware,KiCad,Pcbnew,(5.1.8-0-10_14)*
G04 #@! TF.CreationDate,2020-12-09T11:06:43-05:00*
G04 #@! TF.ProjectId,Arducon,41726475-636f-46e2-9e6b-696361645f70,rev?*
G04 #@! TF.SameCoordinates,Original*
G04 #@! TF.FileFunction,Legend,Top*
G04 #@! TF.FilePolarity,Positive*
%FSLAX46Y46*%
G04 Gerber Fmt 4.6, Leading zero omitted, Abs format (unit mm)*
G04 Created by KiCad (PCBNEW (5.1.8-0-10_14)) date 2020-12-09 11:06:43*
%MOMM*%
%LPD*%
G01*
G04 APERTURE LIST*
%ADD10C,0.150000*%
%ADD11C,0.175000*%
%ADD12C,0.250000*%
%ADD13C,0.100000*%
%ADD14C,0.200000*%
%ADD15C,0.076200*%
G04 APERTURE END LIST*
D10*
X152125000Y-119700000D02*
X152125000Y-97250000D01*
X93075000Y-117541666D02*
X93475000Y-117541666D01*
X93275000Y-118241666D02*
X93275000Y-117541666D01*
X93841666Y-117541666D02*
X93975000Y-117541666D01*
X94041666Y-117575000D01*
X94108333Y-117641666D01*
X94141666Y-117775000D01*
X94141666Y-118008333D01*
X94108333Y-118141666D01*
X94041666Y-118208333D01*
X93975000Y-118241666D01*
X93841666Y-118241666D01*
X93775000Y-118208333D01*
X93708333Y-118141666D01*
X93675000Y-118008333D01*
X93675000Y-117775000D01*
X93708333Y-117641666D01*
X93775000Y-117575000D01*
X93841666Y-117541666D01*
X94441666Y-118241666D02*
X94441666Y-117541666D01*
X94841666Y-118241666D01*
X94841666Y-117541666D01*
X95175000Y-117875000D02*
X95408333Y-117875000D01*
X95508333Y-118241666D02*
X95175000Y-118241666D01*
X95175000Y-117541666D01*
X95508333Y-117541666D01*
X96150000Y-118241666D02*
X96150000Y-117541666D01*
X96550000Y-118241666D02*
X96250000Y-117841666D01*
X96550000Y-117541666D02*
X96150000Y-117941666D01*
X96850000Y-117875000D02*
X97083333Y-117875000D01*
X97183333Y-118241666D02*
X96850000Y-118241666D01*
X96850000Y-117541666D01*
X97183333Y-117541666D01*
X97616666Y-117908333D02*
X97616666Y-118241666D01*
X97383333Y-117541666D02*
X97616666Y-117908333D01*
X97850000Y-117541666D01*
X98933333Y-118291666D02*
X98933333Y-117591666D01*
X99200000Y-117591666D01*
X99266666Y-117625000D01*
X99300000Y-117658333D01*
X99333333Y-117725000D01*
X99333333Y-117825000D01*
X99300000Y-117891666D01*
X99266666Y-117925000D01*
X99200000Y-117958333D01*
X98933333Y-117958333D01*
X99533333Y-117591666D02*
X99933333Y-117591666D01*
X99733333Y-118291666D02*
X99733333Y-117591666D01*
X100066666Y-117591666D02*
X100466666Y-117591666D01*
X100266666Y-118291666D02*
X100266666Y-117591666D01*
X117025000Y-124900000D02*
X117050000Y-130375000D01*
X106950000Y-124900000D02*
X117025000Y-124900000D01*
X106950000Y-124900000D02*
X106950000Y-130375000D01*
X96775000Y-124875000D02*
X106950000Y-124900000D01*
X96750000Y-130375000D02*
X96775000Y-124875000D01*
D11*
X97983333Y-130458333D02*
X98083333Y-130491666D01*
X98250000Y-130491666D01*
X98316666Y-130458333D01*
X98350000Y-130425000D01*
X98383333Y-130358333D01*
X98383333Y-130291666D01*
X98350000Y-130225000D01*
X98316666Y-130191666D01*
X98250000Y-130158333D01*
X98116666Y-130125000D01*
X98050000Y-130091666D01*
X98016666Y-130058333D01*
X97983333Y-129991666D01*
X97983333Y-129925000D01*
X98016666Y-129858333D01*
X98050000Y-129825000D01*
X98116666Y-129791666D01*
X98283333Y-129791666D01*
X98383333Y-129825000D01*
X98616666Y-129791666D02*
X98783333Y-130491666D01*
X98916666Y-129991666D01*
X99050000Y-130491666D01*
X99216666Y-129791666D01*
X99483333Y-130491666D02*
X99483333Y-129791666D01*
X99716666Y-129791666D02*
X100116666Y-129791666D01*
X99916666Y-130491666D02*
X99916666Y-129791666D01*
X100750000Y-130425000D02*
X100716666Y-130458333D01*
X100616666Y-130491666D01*
X100550000Y-130491666D01*
X100450000Y-130458333D01*
X100383333Y-130391666D01*
X100350000Y-130325000D01*
X100316666Y-130191666D01*
X100316666Y-130091666D01*
X100350000Y-129958333D01*
X100383333Y-129891666D01*
X100450000Y-129825000D01*
X100550000Y-129791666D01*
X100616666Y-129791666D01*
X100716666Y-129825000D01*
X100750000Y-129858333D01*
X101050000Y-130491666D02*
X101050000Y-129791666D01*
X101050000Y-130125000D02*
X101450000Y-130125000D01*
X101450000Y-130491666D02*
X101450000Y-129791666D01*
X101783333Y-130125000D02*
X102016666Y-130125000D01*
X102116666Y-130491666D02*
X101783333Y-130491666D01*
X101783333Y-129791666D01*
X102116666Y-129791666D01*
X102416666Y-130491666D02*
X102416666Y-129791666D01*
X102583333Y-129791666D01*
X102683333Y-129825000D01*
X102750000Y-129891666D01*
X102783333Y-129958333D01*
X102816666Y-130091666D01*
X102816666Y-130191666D01*
X102783333Y-130325000D01*
X102750000Y-130391666D01*
X102683333Y-130458333D01*
X102583333Y-130491666D01*
X102416666Y-130491666D01*
X103883333Y-130125000D02*
X103983333Y-130158333D01*
X104016666Y-130191666D01*
X104050000Y-130258333D01*
X104050000Y-130358333D01*
X104016666Y-130425000D01*
X103983333Y-130458333D01*
X103916666Y-130491666D01*
X103650000Y-130491666D01*
X103650000Y-129791666D01*
X103883333Y-129791666D01*
X103950000Y-129825000D01*
X103983333Y-129858333D01*
X104016666Y-129925000D01*
X104016666Y-129991666D01*
X103983333Y-130058333D01*
X103950000Y-130091666D01*
X103883333Y-130125000D01*
X103650000Y-130125000D01*
X104316666Y-130291666D02*
X104650000Y-130291666D01*
X104250000Y-130491666D02*
X104483333Y-129791666D01*
X104716666Y-130491666D01*
X104850000Y-129791666D02*
X105250000Y-129791666D01*
X105050000Y-130491666D02*
X105050000Y-129791666D01*
X105483333Y-130425000D02*
X105516666Y-130458333D01*
X105483333Y-130491666D01*
X105450000Y-130458333D01*
X105483333Y-130425000D01*
X105483333Y-130491666D01*
X109950000Y-130125000D02*
X110183333Y-130125000D01*
X110283333Y-130491666D02*
X109950000Y-130491666D01*
X109950000Y-129791666D01*
X110283333Y-129791666D01*
X110516666Y-129791666D02*
X110983333Y-130491666D01*
X110983333Y-129791666D02*
X110516666Y-130491666D01*
X111150000Y-129791666D02*
X111550000Y-129791666D01*
X111350000Y-130491666D02*
X111350000Y-129791666D01*
X112550000Y-130125000D02*
X112650000Y-130158333D01*
X112683333Y-130191666D01*
X112716666Y-130258333D01*
X112716666Y-130358333D01*
X112683333Y-130425000D01*
X112650000Y-130458333D01*
X112583333Y-130491666D01*
X112316666Y-130491666D01*
X112316666Y-129791666D01*
X112550000Y-129791666D01*
X112616666Y-129825000D01*
X112650000Y-129858333D01*
X112683333Y-129925000D01*
X112683333Y-129991666D01*
X112650000Y-130058333D01*
X112616666Y-130091666D01*
X112550000Y-130125000D01*
X112316666Y-130125000D01*
X112983333Y-130291666D02*
X113316666Y-130291666D01*
X112916666Y-130491666D02*
X113150000Y-129791666D01*
X113383333Y-130491666D01*
X113516666Y-129791666D02*
X113916666Y-129791666D01*
X113716666Y-130491666D02*
X113716666Y-129791666D01*
X114150000Y-130425000D02*
X114183333Y-130458333D01*
X114150000Y-130491666D01*
X114116666Y-130458333D01*
X114150000Y-130425000D01*
X114150000Y-130491666D01*
D12*
X96874761Y-89507142D02*
X96827142Y-89554761D01*
X96684285Y-89602380D01*
X96589047Y-89602380D01*
X96446190Y-89554761D01*
X96350952Y-89459523D01*
X96303333Y-89364285D01*
X96255714Y-89173809D01*
X96255714Y-89030952D01*
X96303333Y-88840476D01*
X96350952Y-88745238D01*
X96446190Y-88650000D01*
X96589047Y-88602380D01*
X96684285Y-88602380D01*
X96827142Y-88650000D01*
X96874761Y-88697619D01*
X97874761Y-89602380D02*
X97541428Y-89126190D01*
X97303333Y-89602380D02*
X97303333Y-88602380D01*
X97684285Y-88602380D01*
X97779523Y-88650000D01*
X97827142Y-88697619D01*
X97874761Y-88792857D01*
X97874761Y-88935714D01*
X97827142Y-89030952D01*
X97779523Y-89078571D01*
X97684285Y-89126190D01*
X97303333Y-89126190D01*
X98827142Y-89602380D02*
X98255714Y-89602380D01*
X98541428Y-89602380D02*
X98541428Y-88602380D01*
X98446190Y-88745238D01*
X98350952Y-88840476D01*
X98255714Y-88888095D01*
X99208095Y-88697619D02*
X99255714Y-88650000D01*
X99350952Y-88602380D01*
X99589047Y-88602380D01*
X99684285Y-88650000D01*
X99731904Y-88697619D01*
X99779523Y-88792857D01*
X99779523Y-88888095D01*
X99731904Y-89030952D01*
X99160476Y-89602380D01*
X99779523Y-89602380D01*
X100160476Y-88697619D02*
X100208095Y-88650000D01*
X100303333Y-88602380D01*
X100541428Y-88602380D01*
X100636666Y-88650000D01*
X100684285Y-88697619D01*
X100731904Y-88792857D01*
X100731904Y-88888095D01*
X100684285Y-89030952D01*
X100112857Y-89602380D01*
X100731904Y-89602380D01*
X101350952Y-88602380D02*
X101446190Y-88602380D01*
X101541428Y-88650000D01*
X101589047Y-88697619D01*
X101636666Y-88792857D01*
X101684285Y-88983333D01*
X101684285Y-89221428D01*
X101636666Y-89411904D01*
X101589047Y-89507142D01*
X101541428Y-89554761D01*
X101446190Y-89602380D01*
X101350952Y-89602380D01*
X101255714Y-89554761D01*
X101208095Y-89507142D01*
X101160476Y-89411904D01*
X101112857Y-89221428D01*
X101112857Y-88983333D01*
X101160476Y-88792857D01*
X101208095Y-88697619D01*
X101255714Y-88650000D01*
X101350952Y-88602380D01*
D11*
X95373333Y-105520000D02*
X95373333Y-105986666D01*
X95206666Y-105253333D02*
X95040000Y-105753333D01*
X95473333Y-105753333D01*
X94976666Y-108026666D02*
X95410000Y-108026666D01*
X95176666Y-108293333D01*
X95276666Y-108293333D01*
X95343333Y-108326666D01*
X95376666Y-108360000D01*
X95410000Y-108426666D01*
X95410000Y-108593333D01*
X95376666Y-108660000D01*
X95343333Y-108693333D01*
X95276666Y-108726666D01*
X95076666Y-108726666D01*
X95010000Y-108693333D01*
X94976666Y-108660000D01*
X94990000Y-110933333D02*
X95023333Y-110900000D01*
X95090000Y-110866666D01*
X95256666Y-110866666D01*
X95323333Y-110900000D01*
X95356666Y-110933333D01*
X95390000Y-111000000D01*
X95390000Y-111066666D01*
X95356666Y-111166666D01*
X94956666Y-111566666D01*
X95390000Y-111566666D01*
X95286666Y-102466666D02*
X94953333Y-102466666D01*
X94920000Y-102800000D01*
X94953333Y-102766666D01*
X95020000Y-102733333D01*
X95186666Y-102733333D01*
X95253333Y-102766666D01*
X95286666Y-102800000D01*
X95320000Y-102866666D01*
X95320000Y-103033333D01*
X95286666Y-103100000D01*
X95253333Y-103133333D01*
X95186666Y-103166666D01*
X95020000Y-103166666D01*
X94953333Y-103133333D01*
X94920000Y-103100000D01*
X95430000Y-114686666D02*
X95030000Y-114686666D01*
X95230000Y-114686666D02*
X95230000Y-113986666D01*
X95163333Y-114086666D01*
X95096666Y-114153333D01*
X95030000Y-114186666D01*
D10*
X161420000Y-106820000D02*
X162195000Y-106820000D01*
X165720000Y-111120000D02*
X164945000Y-111120000D01*
X165720000Y-106820000D02*
X164945000Y-106820000D01*
X161420000Y-111120000D02*
X161420000Y-110345000D01*
X165720000Y-111120000D02*
X165720000Y-110345000D01*
X165720000Y-106820000D02*
X165720000Y-107595000D01*
X161420000Y-106820000D02*
X161420000Y-107595000D01*
X93290000Y-121190000D02*
X100910000Y-121190000D01*
X93290000Y-118650000D02*
X100910000Y-118650000D01*
X90470000Y-118370000D02*
X92020000Y-118370000D01*
X100910000Y-121190000D02*
X100910000Y-118650000D01*
X93290000Y-118650000D02*
X93290000Y-121190000D01*
X92020000Y-121470000D02*
X90470000Y-121470000D01*
X90470000Y-121470000D02*
X90470000Y-118370000D01*
D13*
X123770000Y-112450000D02*
X122770000Y-112450000D01*
X122770000Y-114150000D02*
X123770000Y-114150000D01*
X118680000Y-105420000D02*
X117680000Y-105420000D01*
X117680000Y-107120000D02*
X118680000Y-107120000D01*
X96500000Y-105190000D02*
X97500000Y-105190000D01*
X97500000Y-103490000D02*
X96500000Y-103490000D01*
X124980000Y-95340000D02*
X125980000Y-95340000D01*
X125980000Y-93640000D02*
X124980000Y-93640000D01*
X140770000Y-100120000D02*
X141770000Y-100120000D01*
X141770000Y-98420000D02*
X140770000Y-98420000D01*
X141890000Y-104750000D02*
X140890000Y-104750000D01*
X140890000Y-106450000D02*
X141890000Y-106450000D01*
X98700000Y-116740000D02*
X99700000Y-116740000D01*
X99700000Y-115040000D02*
X98700000Y-115040000D01*
X118680000Y-103390000D02*
X117680000Y-103390000D01*
X117680000Y-105090000D02*
X118680000Y-105090000D01*
X125010000Y-97520000D02*
X126010000Y-97520000D01*
X126010000Y-95820000D02*
X125010000Y-95820000D01*
X166100000Y-113630000D02*
X167100000Y-113630000D01*
X167100000Y-111930000D02*
X166100000Y-111930000D01*
X119640000Y-107605000D02*
X120840000Y-107605000D01*
X120840000Y-109355000D02*
X119640000Y-109355000D01*
X124935000Y-109980000D02*
X124935000Y-111180000D01*
X123185000Y-111180000D02*
X123185000Y-109980000D01*
X118265000Y-108500000D02*
X118265000Y-109700000D01*
X116515000Y-109700000D02*
X116515000Y-108500000D01*
X118265000Y-111740000D02*
X118265000Y-112940000D01*
X116515000Y-112940000D02*
X116515000Y-111740000D01*
X116275000Y-119260000D02*
X116275000Y-118060000D01*
X118025000Y-118060000D02*
X118025000Y-119260000D01*
X102205000Y-110480000D02*
X102205000Y-109280000D01*
X103955000Y-109280000D02*
X103955000Y-110480000D01*
X103615000Y-120570000D02*
X103615000Y-119370000D01*
X105365000Y-119370000D02*
X105365000Y-120570000D01*
X99550000Y-114235000D02*
X98350000Y-114235000D01*
X98350000Y-112485000D02*
X99550000Y-112485000D01*
X125245000Y-111180000D02*
X125245000Y-109980000D01*
X126995000Y-109980000D02*
X126995000Y-111180000D01*
D12*
X111590000Y-124580000D02*
X131850000Y-124580000D01*
X111590000Y-90050000D02*
X131850000Y-90050000D01*
X131850000Y-90050000D02*
X131850000Y-124580000D01*
X111590000Y-90050000D02*
X111590000Y-124580000D01*
D10*
X115365100Y-95875400D02*
X115365100Y-123790000D01*
X115365100Y-123815400D02*
X112825100Y-123815400D01*
X112825100Y-123790000D02*
X112825100Y-95875400D01*
X115645100Y-93055400D02*
X115645100Y-94605400D01*
X115365100Y-95875400D02*
X112825100Y-95875400D01*
X112545100Y-94605400D02*
X112545100Y-93055400D01*
X112545100Y-93055400D02*
X115645100Y-93055400D01*
X130620000Y-95850000D02*
X130620000Y-123790000D01*
X130620000Y-123790000D02*
X128080000Y-123790000D01*
X128080000Y-123790000D02*
X128080000Y-95850000D01*
X130900000Y-93030000D02*
X130900000Y-94580000D01*
X130620000Y-95850000D02*
X128080000Y-95850000D01*
X127800000Y-94580000D02*
X127800000Y-93030000D01*
X127800000Y-93030000D02*
X130900000Y-93030000D01*
X159620000Y-114220000D02*
X166520000Y-114170000D01*
X166546000Y-114167000D02*
X166546000Y-119720000D01*
X159594000Y-119820000D02*
X159594000Y-114217000D01*
X166520000Y-102750000D02*
X159620000Y-102800000D01*
X159594000Y-102803000D02*
X159594000Y-97250000D01*
X166546000Y-97150000D02*
X166546000Y-102753000D01*
D12*
X123060711Y-107320000D02*
G75*
G03*
X123060711Y-107320000I-70711J0D01*
G01*
D14*
X110755190Y-97280800D02*
G75*
G03*
X110755190Y-97280800I-7244390J0D01*
G01*
D10*
X123240000Y-128130000D02*
X120540000Y-128130000D01*
X123240000Y-129630000D02*
X120540000Y-129630000D01*
X121740000Y-128730000D02*
X121740000Y-128980000D01*
X121740000Y-128980000D02*
X121890000Y-128830000D01*
X121990000Y-129230000D02*
X121990000Y-128530000D01*
X121640000Y-128880000D02*
X121290000Y-128880000D01*
X121990000Y-128880000D02*
X121640000Y-129230000D01*
X121640000Y-129230000D02*
X121640000Y-128530000D01*
X121640000Y-128530000D02*
X121990000Y-128880000D01*
X77335000Y-117009000D02*
X77335000Y-99864000D01*
X88130000Y-99229000D02*
X88130000Y-117644000D01*
X88130000Y-98594000D02*
X88130000Y-99229000D01*
X84955000Y-98594000D02*
X84955000Y-118279000D01*
X84955000Y-92879000D02*
X84955000Y-98594000D01*
X83685000Y-123994000D02*
X83685000Y-92879000D01*
X83685000Y-99864000D02*
X77335000Y-99864000D01*
X84955000Y-92879000D02*
X83685000Y-92879000D01*
X88130000Y-98594000D02*
X84955000Y-98594000D01*
X89400000Y-101134000D02*
X89400000Y-99229000D01*
X89400000Y-99229000D02*
X88130000Y-99229000D01*
X83685000Y-117009000D02*
X77335000Y-117009000D01*
X84955000Y-118279000D02*
X84955000Y-123994000D01*
X84955000Y-123994000D02*
X83685000Y-123994000D01*
X88130000Y-117644000D02*
X88130000Y-118279000D01*
X88130000Y-118279000D02*
X84955000Y-118279000D01*
X89400000Y-115739000D02*
X89400000Y-117644000D01*
X89400000Y-117644000D02*
X88130000Y-117644000D01*
X99139760Y-107870840D02*
X99139760Y-107919100D01*
X99840800Y-110669820D02*
X99139760Y-110669820D01*
X99139760Y-110669820D02*
X99139760Y-110420900D01*
X99139760Y-107870840D02*
X99139760Y-107670180D01*
X99139760Y-107670180D02*
X99840800Y-107670180D01*
D15*
X106630000Y-124549160D02*
X106929720Y-124249440D01*
X106330280Y-124549160D02*
X106330280Y-122750840D01*
X106330280Y-122750840D02*
X106929720Y-122750840D01*
X106929720Y-122750840D02*
X106929720Y-124549160D01*
X106929720Y-124549160D02*
X106330280Y-124549160D01*
D10*
X139010000Y-126460000D02*
G75*
G03*
X139010000Y-126460000I-1500000J0D01*
G01*
X139410000Y-126460000D02*
G75*
G03*
X139410000Y-126460000I-1900000J0D01*
G01*
X134260000Y-129710000D02*
X140760000Y-129710000D01*
X140760000Y-123210000D02*
X134260000Y-123210000D01*
X140760000Y-125260000D02*
X140760000Y-127660000D01*
X134260000Y-125260000D02*
X134260000Y-127660000D01*
X134260000Y-123210000D02*
X134260000Y-123410000D01*
X134260000Y-129710000D02*
X134260000Y-129510000D01*
X140760000Y-129710000D02*
X140760000Y-129510000D01*
X140760000Y-123210000D02*
X140760000Y-123410000D01*
X143130000Y-101780000D02*
G75*
G03*
X143130000Y-101780000I-100000J0D01*
G01*
X142780000Y-102330000D02*
X142780000Y-101830000D01*
X139880000Y-102330000D02*
X142780000Y-102330000D01*
X139880000Y-101830000D02*
X139880000Y-102330000D01*
X142780000Y-101830000D02*
X139880000Y-101830000D01*
X139555000Y-106935000D02*
X139555000Y-107040000D01*
X143705000Y-106935000D02*
X143705000Y-107040000D01*
X143705000Y-117085000D02*
X143705000Y-116980000D01*
X139555000Y-117085000D02*
X139555000Y-116980000D01*
X139555000Y-106935000D02*
X143705000Y-106935000D01*
X139555000Y-117085000D02*
X143705000Y-117085000D01*
X139555000Y-107040000D02*
X138180000Y-107040000D01*
X131300000Y-92765300D02*
X127550000Y-92765300D01*
X127550000Y-90389300D02*
X131300000Y-90389300D01*
X128600000Y-90789300D02*
X128600000Y-90389300D01*
X128450000Y-90789300D02*
X128600000Y-90789300D01*
X128450000Y-90389300D02*
X128450000Y-90789300D01*
X128600000Y-92365300D02*
X128600000Y-92765300D01*
X128450000Y-92365300D02*
X128600000Y-92365300D01*
X128450000Y-92765300D02*
X128450000Y-92365300D01*
X131300000Y-90389300D02*
X131300000Y-90789300D01*
X131300000Y-92765300D02*
X131300000Y-92365300D01*
X127550000Y-92765300D02*
X127550000Y-92365300D01*
X127550000Y-90389300D02*
X127550000Y-90789300D01*
X147970000Y-98090000D02*
X151070000Y-98090000D01*
X147970000Y-99640000D02*
X147970000Y-98090000D01*
X150790000Y-100910000D02*
X148250000Y-100910000D01*
X151070000Y-98090000D02*
X151070000Y-99640000D01*
X148250000Y-118690000D02*
X148250000Y-100910000D01*
X150790000Y-118690000D02*
X148250000Y-118690000D01*
X150790000Y-100910000D02*
X150790000Y-118690000D01*
X155980000Y-100910000D02*
X155980000Y-118690000D01*
X155980000Y-118690000D02*
X153440000Y-118690000D01*
X153440000Y-118690000D02*
X153440000Y-100910000D01*
X156260000Y-98090000D02*
X156260000Y-99640000D01*
X155980000Y-100910000D02*
X153440000Y-100910000D01*
X153160000Y-99640000D02*
X153160000Y-98090000D01*
X153160000Y-98090000D02*
X156260000Y-98090000D01*
D13*
X97125000Y-106070000D02*
X97925000Y-106070000D01*
X97125000Y-106730000D02*
X97925000Y-106730000D01*
X107875000Y-89955000D02*
X108675000Y-89955000D01*
X107875000Y-89295000D02*
X108675000Y-89295000D01*
X94930000Y-121825000D02*
X94930000Y-122625000D01*
X94270000Y-121825000D02*
X94270000Y-122625000D01*
X96745000Y-121850000D02*
X96745000Y-122650000D01*
X97405000Y-121850000D02*
X97405000Y-122650000D01*
X100030000Y-121875000D02*
X100030000Y-122675000D01*
X99370000Y-121875000D02*
X99370000Y-122675000D01*
X117650000Y-91025000D02*
X116450000Y-91025000D01*
X116450000Y-89275000D02*
X117650000Y-89275000D01*
D10*
X159692380Y-110684285D02*
X160501904Y-110684285D01*
X160597142Y-110636666D01*
X160644761Y-110589047D01*
X160692380Y-110493809D01*
X160692380Y-110303333D01*
X160644761Y-110208095D01*
X160597142Y-110160476D01*
X160501904Y-110112857D01*
X159692380Y-110112857D01*
X160692380Y-109112857D02*
X160692380Y-109684285D01*
X160692380Y-109398571D02*
X159692380Y-109398571D01*
X159835238Y-109493809D01*
X159930476Y-109589047D01*
X159978095Y-109684285D01*
X159692380Y-108493809D02*
X159692380Y-108398571D01*
X159740000Y-108303333D01*
X159787619Y-108255714D01*
X159882857Y-108208095D01*
X160073333Y-108160476D01*
X160311428Y-108160476D01*
X160501904Y-108208095D01*
X160597142Y-108255714D01*
X160644761Y-108303333D01*
X160692380Y-108398571D01*
X160692380Y-108493809D01*
X160644761Y-108589047D01*
X160597142Y-108636666D01*
X160501904Y-108684285D01*
X160311428Y-108731904D01*
X160073333Y-108731904D01*
X159882857Y-108684285D01*
X159787619Y-108636666D01*
X159740000Y-108589047D01*
X159692380Y-108493809D01*
X160025714Y-107303333D02*
X160692380Y-107303333D01*
X159644761Y-107541428D02*
X160359047Y-107779523D01*
X160359047Y-107160476D01*
D13*
X123412857Y-113747619D02*
X123431904Y-113766666D01*
X123450952Y-113823809D01*
X123450952Y-113861904D01*
X123431904Y-113919047D01*
X123393809Y-113957142D01*
X123355714Y-113976190D01*
X123279523Y-113995238D01*
X123222380Y-113995238D01*
X123146190Y-113976190D01*
X123108095Y-113957142D01*
X123070000Y-113919047D01*
X123050952Y-113861904D01*
X123050952Y-113823809D01*
X123070000Y-113766666D01*
X123089047Y-113747619D01*
X123450952Y-113366666D02*
X123450952Y-113595238D01*
X123450952Y-113480952D02*
X123050952Y-113480952D01*
X123108095Y-113519047D01*
X123146190Y-113557142D01*
X123165238Y-113595238D01*
X123050952Y-113119047D02*
X123050952Y-113080952D01*
X123070000Y-113042857D01*
X123089047Y-113023809D01*
X123127142Y-113004761D01*
X123203333Y-112985714D01*
X123298571Y-112985714D01*
X123374761Y-113004761D01*
X123412857Y-113023809D01*
X123431904Y-113042857D01*
X123450952Y-113080952D01*
X123450952Y-113119047D01*
X123431904Y-113157142D01*
X123412857Y-113176190D01*
X123374761Y-113195238D01*
X123298571Y-113214285D01*
X123203333Y-113214285D01*
X123127142Y-113195238D01*
X123089047Y-113176190D01*
X123070000Y-113157142D01*
X123050952Y-113119047D01*
X123450952Y-112795238D02*
X123450952Y-112719047D01*
X123431904Y-112680952D01*
X123412857Y-112661904D01*
X123355714Y-112623809D01*
X123279523Y-112604761D01*
X123127142Y-112604761D01*
X123089047Y-112623809D01*
X123070000Y-112642857D01*
X123050952Y-112680952D01*
X123050952Y-112757142D01*
X123070000Y-112795238D01*
X123089047Y-112814285D01*
X123127142Y-112833333D01*
X123222380Y-112833333D01*
X123260476Y-112814285D01*
X123279523Y-112795238D01*
X123298571Y-112757142D01*
X123298571Y-112680952D01*
X123279523Y-112642857D01*
X123260476Y-112623809D01*
X123222380Y-112604761D01*
X118322857Y-106717619D02*
X118341904Y-106736666D01*
X118360952Y-106793809D01*
X118360952Y-106831904D01*
X118341904Y-106889047D01*
X118303809Y-106927142D01*
X118265714Y-106946190D01*
X118189523Y-106965238D01*
X118132380Y-106965238D01*
X118056190Y-106946190D01*
X118018095Y-106927142D01*
X117980000Y-106889047D01*
X117960952Y-106831904D01*
X117960952Y-106793809D01*
X117980000Y-106736666D01*
X117999047Y-106717619D01*
X118360952Y-106336666D02*
X118360952Y-106565238D01*
X118360952Y-106450952D02*
X117960952Y-106450952D01*
X118018095Y-106489047D01*
X118056190Y-106527142D01*
X118075238Y-106565238D01*
X117960952Y-106089047D02*
X117960952Y-106050952D01*
X117980000Y-106012857D01*
X117999047Y-105993809D01*
X118037142Y-105974761D01*
X118113333Y-105955714D01*
X118208571Y-105955714D01*
X118284761Y-105974761D01*
X118322857Y-105993809D01*
X118341904Y-106012857D01*
X118360952Y-106050952D01*
X118360952Y-106089047D01*
X118341904Y-106127142D01*
X118322857Y-106146190D01*
X118284761Y-106165238D01*
X118208571Y-106184285D01*
X118113333Y-106184285D01*
X118037142Y-106165238D01*
X117999047Y-106146190D01*
X117980000Y-106127142D01*
X117960952Y-106089047D01*
X118094285Y-105612857D02*
X118360952Y-105612857D01*
X117941904Y-105708095D02*
X118227619Y-105803333D01*
X118227619Y-105555714D01*
X97142857Y-104787619D02*
X97161904Y-104806666D01*
X97180952Y-104863809D01*
X97180952Y-104901904D01*
X97161904Y-104959047D01*
X97123809Y-104997142D01*
X97085714Y-105016190D01*
X97009523Y-105035238D01*
X96952380Y-105035238D01*
X96876190Y-105016190D01*
X96838095Y-104997142D01*
X96800000Y-104959047D01*
X96780952Y-104901904D01*
X96780952Y-104863809D01*
X96800000Y-104806666D01*
X96819047Y-104787619D01*
X97180952Y-104406666D02*
X97180952Y-104635238D01*
X97180952Y-104520952D02*
X96780952Y-104520952D01*
X96838095Y-104559047D01*
X96876190Y-104597142D01*
X96895238Y-104635238D01*
X96780952Y-104159047D02*
X96780952Y-104120952D01*
X96800000Y-104082857D01*
X96819047Y-104063809D01*
X96857142Y-104044761D01*
X96933333Y-104025714D01*
X97028571Y-104025714D01*
X97104761Y-104044761D01*
X97142857Y-104063809D01*
X97161904Y-104082857D01*
X97180952Y-104120952D01*
X97180952Y-104159047D01*
X97161904Y-104197142D01*
X97142857Y-104216190D01*
X97104761Y-104235238D01*
X97028571Y-104254285D01*
X96933333Y-104254285D01*
X96857142Y-104235238D01*
X96819047Y-104216190D01*
X96800000Y-104197142D01*
X96780952Y-104159047D01*
X96952380Y-103797142D02*
X96933333Y-103835238D01*
X96914285Y-103854285D01*
X96876190Y-103873333D01*
X96857142Y-103873333D01*
X96819047Y-103854285D01*
X96800000Y-103835238D01*
X96780952Y-103797142D01*
X96780952Y-103720952D01*
X96800000Y-103682857D01*
X96819047Y-103663809D01*
X96857142Y-103644761D01*
X96876190Y-103644761D01*
X96914285Y-103663809D01*
X96933333Y-103682857D01*
X96952380Y-103720952D01*
X96952380Y-103797142D01*
X96971428Y-103835238D01*
X96990476Y-103854285D01*
X97028571Y-103873333D01*
X97104761Y-103873333D01*
X97142857Y-103854285D01*
X97161904Y-103835238D01*
X97180952Y-103797142D01*
X97180952Y-103720952D01*
X97161904Y-103682857D01*
X97142857Y-103663809D01*
X97104761Y-103644761D01*
X97028571Y-103644761D01*
X96990476Y-103663809D01*
X96971428Y-103682857D01*
X96952380Y-103720952D01*
X125622857Y-94937619D02*
X125641904Y-94956666D01*
X125660952Y-95013809D01*
X125660952Y-95051904D01*
X125641904Y-95109047D01*
X125603809Y-95147142D01*
X125565714Y-95166190D01*
X125489523Y-95185238D01*
X125432380Y-95185238D01*
X125356190Y-95166190D01*
X125318095Y-95147142D01*
X125280000Y-95109047D01*
X125260952Y-95051904D01*
X125260952Y-95013809D01*
X125280000Y-94956666D01*
X125299047Y-94937619D01*
X125660952Y-94556666D02*
X125660952Y-94785238D01*
X125660952Y-94670952D02*
X125260952Y-94670952D01*
X125318095Y-94709047D01*
X125356190Y-94747142D01*
X125375238Y-94785238D01*
X125260952Y-94309047D02*
X125260952Y-94270952D01*
X125280000Y-94232857D01*
X125299047Y-94213809D01*
X125337142Y-94194761D01*
X125413333Y-94175714D01*
X125508571Y-94175714D01*
X125584761Y-94194761D01*
X125622857Y-94213809D01*
X125641904Y-94232857D01*
X125660952Y-94270952D01*
X125660952Y-94309047D01*
X125641904Y-94347142D01*
X125622857Y-94366190D01*
X125584761Y-94385238D01*
X125508571Y-94404285D01*
X125413333Y-94404285D01*
X125337142Y-94385238D01*
X125299047Y-94366190D01*
X125280000Y-94347142D01*
X125260952Y-94309047D01*
X125260952Y-93832857D02*
X125260952Y-93909047D01*
X125280000Y-93947142D01*
X125299047Y-93966190D01*
X125356190Y-94004285D01*
X125432380Y-94023333D01*
X125584761Y-94023333D01*
X125622857Y-94004285D01*
X125641904Y-93985238D01*
X125660952Y-93947142D01*
X125660952Y-93870952D01*
X125641904Y-93832857D01*
X125622857Y-93813809D01*
X125584761Y-93794761D01*
X125489523Y-93794761D01*
X125451428Y-93813809D01*
X125432380Y-93832857D01*
X125413333Y-93870952D01*
X125413333Y-93947142D01*
X125432380Y-93985238D01*
X125451428Y-94004285D01*
X125489523Y-94023333D01*
X141412857Y-99717619D02*
X141431904Y-99736666D01*
X141450952Y-99793809D01*
X141450952Y-99831904D01*
X141431904Y-99889047D01*
X141393809Y-99927142D01*
X141355714Y-99946190D01*
X141279523Y-99965238D01*
X141222380Y-99965238D01*
X141146190Y-99946190D01*
X141108095Y-99927142D01*
X141070000Y-99889047D01*
X141050952Y-99831904D01*
X141050952Y-99793809D01*
X141070000Y-99736666D01*
X141089047Y-99717619D01*
X141450952Y-99336666D02*
X141450952Y-99565238D01*
X141450952Y-99450952D02*
X141050952Y-99450952D01*
X141108095Y-99489047D01*
X141146190Y-99527142D01*
X141165238Y-99565238D01*
X141050952Y-99089047D02*
X141050952Y-99050952D01*
X141070000Y-99012857D01*
X141089047Y-98993809D01*
X141127142Y-98974761D01*
X141203333Y-98955714D01*
X141298571Y-98955714D01*
X141374761Y-98974761D01*
X141412857Y-98993809D01*
X141431904Y-99012857D01*
X141450952Y-99050952D01*
X141450952Y-99089047D01*
X141431904Y-99127142D01*
X141412857Y-99146190D01*
X141374761Y-99165238D01*
X141298571Y-99184285D01*
X141203333Y-99184285D01*
X141127142Y-99165238D01*
X141089047Y-99146190D01*
X141070000Y-99127142D01*
X141050952Y-99089047D01*
X141450952Y-98574761D02*
X141450952Y-98803333D01*
X141450952Y-98689047D02*
X141050952Y-98689047D01*
X141108095Y-98727142D01*
X141146190Y-98765238D01*
X141165238Y-98803333D01*
X141532857Y-106047619D02*
X141551904Y-106066666D01*
X141570952Y-106123809D01*
X141570952Y-106161904D01*
X141551904Y-106219047D01*
X141513809Y-106257142D01*
X141475714Y-106276190D01*
X141399523Y-106295238D01*
X141342380Y-106295238D01*
X141266190Y-106276190D01*
X141228095Y-106257142D01*
X141190000Y-106219047D01*
X141170952Y-106161904D01*
X141170952Y-106123809D01*
X141190000Y-106066666D01*
X141209047Y-106047619D01*
X141570952Y-105666666D02*
X141570952Y-105895238D01*
X141570952Y-105780952D02*
X141170952Y-105780952D01*
X141228095Y-105819047D01*
X141266190Y-105857142D01*
X141285238Y-105895238D01*
X141170952Y-105419047D02*
X141170952Y-105380952D01*
X141190000Y-105342857D01*
X141209047Y-105323809D01*
X141247142Y-105304761D01*
X141323333Y-105285714D01*
X141418571Y-105285714D01*
X141494761Y-105304761D01*
X141532857Y-105323809D01*
X141551904Y-105342857D01*
X141570952Y-105380952D01*
X141570952Y-105419047D01*
X141551904Y-105457142D01*
X141532857Y-105476190D01*
X141494761Y-105495238D01*
X141418571Y-105514285D01*
X141323333Y-105514285D01*
X141247142Y-105495238D01*
X141209047Y-105476190D01*
X141190000Y-105457142D01*
X141170952Y-105419047D01*
X141209047Y-105133333D02*
X141190000Y-105114285D01*
X141170952Y-105076190D01*
X141170952Y-104980952D01*
X141190000Y-104942857D01*
X141209047Y-104923809D01*
X141247142Y-104904761D01*
X141285238Y-104904761D01*
X141342380Y-104923809D01*
X141570952Y-105152380D01*
X141570952Y-104904761D01*
X99342857Y-116337619D02*
X99361904Y-116356666D01*
X99380952Y-116413809D01*
X99380952Y-116451904D01*
X99361904Y-116509047D01*
X99323809Y-116547142D01*
X99285714Y-116566190D01*
X99209523Y-116585238D01*
X99152380Y-116585238D01*
X99076190Y-116566190D01*
X99038095Y-116547142D01*
X99000000Y-116509047D01*
X98980952Y-116451904D01*
X98980952Y-116413809D01*
X99000000Y-116356666D01*
X99019047Y-116337619D01*
X99380952Y-115956666D02*
X99380952Y-116185238D01*
X99380952Y-116070952D02*
X98980952Y-116070952D01*
X99038095Y-116109047D01*
X99076190Y-116147142D01*
X99095238Y-116185238D01*
X98980952Y-115709047D02*
X98980952Y-115670952D01*
X99000000Y-115632857D01*
X99019047Y-115613809D01*
X99057142Y-115594761D01*
X99133333Y-115575714D01*
X99228571Y-115575714D01*
X99304761Y-115594761D01*
X99342857Y-115613809D01*
X99361904Y-115632857D01*
X99380952Y-115670952D01*
X99380952Y-115709047D01*
X99361904Y-115747142D01*
X99342857Y-115766190D01*
X99304761Y-115785238D01*
X99228571Y-115804285D01*
X99133333Y-115804285D01*
X99057142Y-115785238D01*
X99019047Y-115766190D01*
X99000000Y-115747142D01*
X98980952Y-115709047D01*
X98980952Y-115442380D02*
X98980952Y-115194761D01*
X99133333Y-115328095D01*
X99133333Y-115270952D01*
X99152380Y-115232857D01*
X99171428Y-115213809D01*
X99209523Y-115194761D01*
X99304761Y-115194761D01*
X99342857Y-115213809D01*
X99361904Y-115232857D01*
X99380952Y-115270952D01*
X99380952Y-115385238D01*
X99361904Y-115423333D01*
X99342857Y-115442380D01*
X118322857Y-104687619D02*
X118341904Y-104706666D01*
X118360952Y-104763809D01*
X118360952Y-104801904D01*
X118341904Y-104859047D01*
X118303809Y-104897142D01*
X118265714Y-104916190D01*
X118189523Y-104935238D01*
X118132380Y-104935238D01*
X118056190Y-104916190D01*
X118018095Y-104897142D01*
X117980000Y-104859047D01*
X117960952Y-104801904D01*
X117960952Y-104763809D01*
X117980000Y-104706666D01*
X117999047Y-104687619D01*
X118360952Y-104306666D02*
X118360952Y-104535238D01*
X118360952Y-104420952D02*
X117960952Y-104420952D01*
X118018095Y-104459047D01*
X118056190Y-104497142D01*
X118075238Y-104535238D01*
X117960952Y-104059047D02*
X117960952Y-104020952D01*
X117980000Y-103982857D01*
X117999047Y-103963809D01*
X118037142Y-103944761D01*
X118113333Y-103925714D01*
X118208571Y-103925714D01*
X118284761Y-103944761D01*
X118322857Y-103963809D01*
X118341904Y-103982857D01*
X118360952Y-104020952D01*
X118360952Y-104059047D01*
X118341904Y-104097142D01*
X118322857Y-104116190D01*
X118284761Y-104135238D01*
X118208571Y-104154285D01*
X118113333Y-104154285D01*
X118037142Y-104135238D01*
X117999047Y-104116190D01*
X117980000Y-104097142D01*
X117960952Y-104059047D01*
X117960952Y-103563809D02*
X117960952Y-103754285D01*
X118151428Y-103773333D01*
X118132380Y-103754285D01*
X118113333Y-103716190D01*
X118113333Y-103620952D01*
X118132380Y-103582857D01*
X118151428Y-103563809D01*
X118189523Y-103544761D01*
X118284761Y-103544761D01*
X118322857Y-103563809D01*
X118341904Y-103582857D01*
X118360952Y-103620952D01*
X118360952Y-103716190D01*
X118341904Y-103754285D01*
X118322857Y-103773333D01*
X125652857Y-97117619D02*
X125671904Y-97136666D01*
X125690952Y-97193809D01*
X125690952Y-97231904D01*
X125671904Y-97289047D01*
X125633809Y-97327142D01*
X125595714Y-97346190D01*
X125519523Y-97365238D01*
X125462380Y-97365238D01*
X125386190Y-97346190D01*
X125348095Y-97327142D01*
X125310000Y-97289047D01*
X125290952Y-97231904D01*
X125290952Y-97193809D01*
X125310000Y-97136666D01*
X125329047Y-97117619D01*
X125690952Y-96736666D02*
X125690952Y-96965238D01*
X125690952Y-96850952D02*
X125290952Y-96850952D01*
X125348095Y-96889047D01*
X125386190Y-96927142D01*
X125405238Y-96965238D01*
X125290952Y-96489047D02*
X125290952Y-96450952D01*
X125310000Y-96412857D01*
X125329047Y-96393809D01*
X125367142Y-96374761D01*
X125443333Y-96355714D01*
X125538571Y-96355714D01*
X125614761Y-96374761D01*
X125652857Y-96393809D01*
X125671904Y-96412857D01*
X125690952Y-96450952D01*
X125690952Y-96489047D01*
X125671904Y-96527142D01*
X125652857Y-96546190D01*
X125614761Y-96565238D01*
X125538571Y-96584285D01*
X125443333Y-96584285D01*
X125367142Y-96565238D01*
X125329047Y-96546190D01*
X125310000Y-96527142D01*
X125290952Y-96489047D01*
X125290952Y-96222380D02*
X125290952Y-95955714D01*
X125690952Y-96127142D01*
X166742857Y-113227619D02*
X166761904Y-113246666D01*
X166780952Y-113303809D01*
X166780952Y-113341904D01*
X166761904Y-113399047D01*
X166723809Y-113437142D01*
X166685714Y-113456190D01*
X166609523Y-113475238D01*
X166552380Y-113475238D01*
X166476190Y-113456190D01*
X166438095Y-113437142D01*
X166400000Y-113399047D01*
X166380952Y-113341904D01*
X166380952Y-113303809D01*
X166400000Y-113246666D01*
X166419047Y-113227619D01*
X166780952Y-112846666D02*
X166780952Y-113075238D01*
X166780952Y-112960952D02*
X166380952Y-112960952D01*
X166438095Y-112999047D01*
X166476190Y-113037142D01*
X166495238Y-113075238D01*
X166780952Y-112465714D02*
X166780952Y-112694285D01*
X166780952Y-112580000D02*
X166380952Y-112580000D01*
X166438095Y-112618095D01*
X166476190Y-112656190D01*
X166495238Y-112694285D01*
X166380952Y-112218095D02*
X166380952Y-112180000D01*
X166400000Y-112141904D01*
X166419047Y-112122857D01*
X166457142Y-112103809D01*
X166533333Y-112084761D01*
X166628571Y-112084761D01*
X166704761Y-112103809D01*
X166742857Y-112122857D01*
X166761904Y-112141904D01*
X166780952Y-112180000D01*
X166780952Y-112218095D01*
X166761904Y-112256190D01*
X166742857Y-112275238D01*
X166704761Y-112294285D01*
X166628571Y-112313333D01*
X166533333Y-112313333D01*
X166457142Y-112294285D01*
X166419047Y-112275238D01*
X166400000Y-112256190D01*
X166380952Y-112218095D01*
X120420952Y-108927619D02*
X120230476Y-109060952D01*
X120420952Y-109156190D02*
X120020952Y-109156190D01*
X120020952Y-109003809D01*
X120040000Y-108965714D01*
X120059047Y-108946666D01*
X120097142Y-108927619D01*
X120154285Y-108927619D01*
X120192380Y-108946666D01*
X120211428Y-108965714D01*
X120230476Y-109003809D01*
X120230476Y-109156190D01*
X120420952Y-108546666D02*
X120420952Y-108775238D01*
X120420952Y-108660952D02*
X120020952Y-108660952D01*
X120078095Y-108699047D01*
X120116190Y-108737142D01*
X120135238Y-108775238D01*
X120020952Y-108299047D02*
X120020952Y-108260952D01*
X120040000Y-108222857D01*
X120059047Y-108203809D01*
X120097142Y-108184761D01*
X120173333Y-108165714D01*
X120268571Y-108165714D01*
X120344761Y-108184761D01*
X120382857Y-108203809D01*
X120401904Y-108222857D01*
X120420952Y-108260952D01*
X120420952Y-108299047D01*
X120401904Y-108337142D01*
X120382857Y-108356190D01*
X120344761Y-108375238D01*
X120268571Y-108394285D01*
X120173333Y-108394285D01*
X120097142Y-108375238D01*
X120059047Y-108356190D01*
X120040000Y-108337142D01*
X120020952Y-108299047D01*
X120020952Y-108032380D02*
X120020952Y-107784761D01*
X120173333Y-107918095D01*
X120173333Y-107860952D01*
X120192380Y-107822857D01*
X120211428Y-107803809D01*
X120249523Y-107784761D01*
X120344761Y-107784761D01*
X120382857Y-107803809D01*
X120401904Y-107822857D01*
X120420952Y-107860952D01*
X120420952Y-107975238D01*
X120401904Y-108013333D01*
X120382857Y-108032380D01*
X123612380Y-110760952D02*
X123479047Y-110570476D01*
X123383809Y-110760952D02*
X123383809Y-110360952D01*
X123536190Y-110360952D01*
X123574285Y-110380000D01*
X123593333Y-110399047D01*
X123612380Y-110437142D01*
X123612380Y-110494285D01*
X123593333Y-110532380D01*
X123574285Y-110551428D01*
X123536190Y-110570476D01*
X123383809Y-110570476D01*
X123993333Y-110760952D02*
X123764761Y-110760952D01*
X123879047Y-110760952D02*
X123879047Y-110360952D01*
X123840952Y-110418095D01*
X123802857Y-110456190D01*
X123764761Y-110475238D01*
X124240952Y-110360952D02*
X124279047Y-110360952D01*
X124317142Y-110380000D01*
X124336190Y-110399047D01*
X124355238Y-110437142D01*
X124374285Y-110513333D01*
X124374285Y-110608571D01*
X124355238Y-110684761D01*
X124336190Y-110722857D01*
X124317142Y-110741904D01*
X124279047Y-110760952D01*
X124240952Y-110760952D01*
X124202857Y-110741904D01*
X124183809Y-110722857D01*
X124164761Y-110684761D01*
X124145714Y-110608571D01*
X124145714Y-110513333D01*
X124164761Y-110437142D01*
X124183809Y-110399047D01*
X124202857Y-110380000D01*
X124240952Y-110360952D01*
X124507619Y-110360952D02*
X124774285Y-110360952D01*
X124602857Y-110760952D01*
X116942380Y-109280952D02*
X116809047Y-109090476D01*
X116713809Y-109280952D02*
X116713809Y-108880952D01*
X116866190Y-108880952D01*
X116904285Y-108900000D01*
X116923333Y-108919047D01*
X116942380Y-108957142D01*
X116942380Y-109014285D01*
X116923333Y-109052380D01*
X116904285Y-109071428D01*
X116866190Y-109090476D01*
X116713809Y-109090476D01*
X117323333Y-109280952D02*
X117094761Y-109280952D01*
X117209047Y-109280952D02*
X117209047Y-108880952D01*
X117170952Y-108938095D01*
X117132857Y-108976190D01*
X117094761Y-108995238D01*
X117570952Y-108880952D02*
X117609047Y-108880952D01*
X117647142Y-108900000D01*
X117666190Y-108919047D01*
X117685238Y-108957142D01*
X117704285Y-109033333D01*
X117704285Y-109128571D01*
X117685238Y-109204761D01*
X117666190Y-109242857D01*
X117647142Y-109261904D01*
X117609047Y-109280952D01*
X117570952Y-109280952D01*
X117532857Y-109261904D01*
X117513809Y-109242857D01*
X117494761Y-109204761D01*
X117475714Y-109128571D01*
X117475714Y-109033333D01*
X117494761Y-108957142D01*
X117513809Y-108919047D01*
X117532857Y-108900000D01*
X117570952Y-108880952D01*
X118066190Y-108880952D02*
X117875714Y-108880952D01*
X117856666Y-109071428D01*
X117875714Y-109052380D01*
X117913809Y-109033333D01*
X118009047Y-109033333D01*
X118047142Y-109052380D01*
X118066190Y-109071428D01*
X118085238Y-109109523D01*
X118085238Y-109204761D01*
X118066190Y-109242857D01*
X118047142Y-109261904D01*
X118009047Y-109280952D01*
X117913809Y-109280952D01*
X117875714Y-109261904D01*
X117856666Y-109242857D01*
X116942380Y-112520952D02*
X116809047Y-112330476D01*
X116713809Y-112520952D02*
X116713809Y-112120952D01*
X116866190Y-112120952D01*
X116904285Y-112140000D01*
X116923333Y-112159047D01*
X116942380Y-112197142D01*
X116942380Y-112254285D01*
X116923333Y-112292380D01*
X116904285Y-112311428D01*
X116866190Y-112330476D01*
X116713809Y-112330476D01*
X117323333Y-112520952D02*
X117094761Y-112520952D01*
X117209047Y-112520952D02*
X117209047Y-112120952D01*
X117170952Y-112178095D01*
X117132857Y-112216190D01*
X117094761Y-112235238D01*
X117570952Y-112120952D02*
X117609047Y-112120952D01*
X117647142Y-112140000D01*
X117666190Y-112159047D01*
X117685238Y-112197142D01*
X117704285Y-112273333D01*
X117704285Y-112368571D01*
X117685238Y-112444761D01*
X117666190Y-112482857D01*
X117647142Y-112501904D01*
X117609047Y-112520952D01*
X117570952Y-112520952D01*
X117532857Y-112501904D01*
X117513809Y-112482857D01*
X117494761Y-112444761D01*
X117475714Y-112368571D01*
X117475714Y-112273333D01*
X117494761Y-112197142D01*
X117513809Y-112159047D01*
X117532857Y-112140000D01*
X117570952Y-112120952D01*
X118047142Y-112120952D02*
X117970952Y-112120952D01*
X117932857Y-112140000D01*
X117913809Y-112159047D01*
X117875714Y-112216190D01*
X117856666Y-112292380D01*
X117856666Y-112444761D01*
X117875714Y-112482857D01*
X117894761Y-112501904D01*
X117932857Y-112520952D01*
X118009047Y-112520952D01*
X118047142Y-112501904D01*
X118066190Y-112482857D01*
X118085238Y-112444761D01*
X118085238Y-112349523D01*
X118066190Y-112311428D01*
X118047142Y-112292380D01*
X118009047Y-112273333D01*
X117932857Y-112273333D01*
X117894761Y-112292380D01*
X117875714Y-112311428D01*
X117856666Y-112349523D01*
X116702380Y-118840952D02*
X116569047Y-118650476D01*
X116473809Y-118840952D02*
X116473809Y-118440952D01*
X116626190Y-118440952D01*
X116664285Y-118460000D01*
X116683333Y-118479047D01*
X116702380Y-118517142D01*
X116702380Y-118574285D01*
X116683333Y-118612380D01*
X116664285Y-118631428D01*
X116626190Y-118650476D01*
X116473809Y-118650476D01*
X117083333Y-118840952D02*
X116854761Y-118840952D01*
X116969047Y-118840952D02*
X116969047Y-118440952D01*
X116930952Y-118498095D01*
X116892857Y-118536190D01*
X116854761Y-118555238D01*
X117330952Y-118440952D02*
X117369047Y-118440952D01*
X117407142Y-118460000D01*
X117426190Y-118479047D01*
X117445238Y-118517142D01*
X117464285Y-118593333D01*
X117464285Y-118688571D01*
X117445238Y-118764761D01*
X117426190Y-118802857D01*
X117407142Y-118821904D01*
X117369047Y-118840952D01*
X117330952Y-118840952D01*
X117292857Y-118821904D01*
X117273809Y-118802857D01*
X117254761Y-118764761D01*
X117235714Y-118688571D01*
X117235714Y-118593333D01*
X117254761Y-118517142D01*
X117273809Y-118479047D01*
X117292857Y-118460000D01*
X117330952Y-118440952D01*
X117654761Y-118840952D02*
X117730952Y-118840952D01*
X117769047Y-118821904D01*
X117788095Y-118802857D01*
X117826190Y-118745714D01*
X117845238Y-118669523D01*
X117845238Y-118517142D01*
X117826190Y-118479047D01*
X117807142Y-118460000D01*
X117769047Y-118440952D01*
X117692857Y-118440952D01*
X117654761Y-118460000D01*
X117635714Y-118479047D01*
X117616666Y-118517142D01*
X117616666Y-118612380D01*
X117635714Y-118650476D01*
X117654761Y-118669523D01*
X117692857Y-118688571D01*
X117769047Y-118688571D01*
X117807142Y-118669523D01*
X117826190Y-118650476D01*
X117845238Y-118612380D01*
X102632380Y-110060952D02*
X102499047Y-109870476D01*
X102403809Y-110060952D02*
X102403809Y-109660952D01*
X102556190Y-109660952D01*
X102594285Y-109680000D01*
X102613333Y-109699047D01*
X102632380Y-109737142D01*
X102632380Y-109794285D01*
X102613333Y-109832380D01*
X102594285Y-109851428D01*
X102556190Y-109870476D01*
X102403809Y-109870476D01*
X103013333Y-110060952D02*
X102784761Y-110060952D01*
X102899047Y-110060952D02*
X102899047Y-109660952D01*
X102860952Y-109718095D01*
X102822857Y-109756190D01*
X102784761Y-109775238D01*
X103260952Y-109660952D02*
X103299047Y-109660952D01*
X103337142Y-109680000D01*
X103356190Y-109699047D01*
X103375238Y-109737142D01*
X103394285Y-109813333D01*
X103394285Y-109908571D01*
X103375238Y-109984761D01*
X103356190Y-110022857D01*
X103337142Y-110041904D01*
X103299047Y-110060952D01*
X103260952Y-110060952D01*
X103222857Y-110041904D01*
X103203809Y-110022857D01*
X103184761Y-109984761D01*
X103165714Y-109908571D01*
X103165714Y-109813333D01*
X103184761Y-109737142D01*
X103203809Y-109699047D01*
X103222857Y-109680000D01*
X103260952Y-109660952D01*
X103737142Y-109794285D02*
X103737142Y-110060952D01*
X103641904Y-109641904D02*
X103546666Y-109927619D01*
X103794285Y-109927619D01*
X104042380Y-120150952D02*
X103909047Y-119960476D01*
X103813809Y-120150952D02*
X103813809Y-119750952D01*
X103966190Y-119750952D01*
X104004285Y-119770000D01*
X104023333Y-119789047D01*
X104042380Y-119827142D01*
X104042380Y-119884285D01*
X104023333Y-119922380D01*
X104004285Y-119941428D01*
X103966190Y-119960476D01*
X103813809Y-119960476D01*
X104423333Y-120150952D02*
X104194761Y-120150952D01*
X104309047Y-120150952D02*
X104309047Y-119750952D01*
X104270952Y-119808095D01*
X104232857Y-119846190D01*
X104194761Y-119865238D01*
X104670952Y-119750952D02*
X104709047Y-119750952D01*
X104747142Y-119770000D01*
X104766190Y-119789047D01*
X104785238Y-119827142D01*
X104804285Y-119903333D01*
X104804285Y-119998571D01*
X104785238Y-120074761D01*
X104766190Y-120112857D01*
X104747142Y-120131904D01*
X104709047Y-120150952D01*
X104670952Y-120150952D01*
X104632857Y-120131904D01*
X104613809Y-120112857D01*
X104594761Y-120074761D01*
X104575714Y-119998571D01*
X104575714Y-119903333D01*
X104594761Y-119827142D01*
X104613809Y-119789047D01*
X104632857Y-119770000D01*
X104670952Y-119750952D01*
X105185238Y-120150952D02*
X104956666Y-120150952D01*
X105070952Y-120150952D02*
X105070952Y-119750952D01*
X105032857Y-119808095D01*
X104994761Y-119846190D01*
X104956666Y-119865238D01*
X99130952Y-113807619D02*
X98940476Y-113940952D01*
X99130952Y-114036190D02*
X98730952Y-114036190D01*
X98730952Y-113883809D01*
X98750000Y-113845714D01*
X98769047Y-113826666D01*
X98807142Y-113807619D01*
X98864285Y-113807619D01*
X98902380Y-113826666D01*
X98921428Y-113845714D01*
X98940476Y-113883809D01*
X98940476Y-114036190D01*
X99130952Y-113426666D02*
X99130952Y-113655238D01*
X99130952Y-113540952D02*
X98730952Y-113540952D01*
X98788095Y-113579047D01*
X98826190Y-113617142D01*
X98845238Y-113655238D01*
X98730952Y-113179047D02*
X98730952Y-113140952D01*
X98750000Y-113102857D01*
X98769047Y-113083809D01*
X98807142Y-113064761D01*
X98883333Y-113045714D01*
X98978571Y-113045714D01*
X99054761Y-113064761D01*
X99092857Y-113083809D01*
X99111904Y-113102857D01*
X99130952Y-113140952D01*
X99130952Y-113179047D01*
X99111904Y-113217142D01*
X99092857Y-113236190D01*
X99054761Y-113255238D01*
X98978571Y-113274285D01*
X98883333Y-113274285D01*
X98807142Y-113255238D01*
X98769047Y-113236190D01*
X98750000Y-113217142D01*
X98730952Y-113179047D01*
X98769047Y-112893333D02*
X98750000Y-112874285D01*
X98730952Y-112836190D01*
X98730952Y-112740952D01*
X98750000Y-112702857D01*
X98769047Y-112683809D01*
X98807142Y-112664761D01*
X98845238Y-112664761D01*
X98902380Y-112683809D01*
X99130952Y-112912380D01*
X99130952Y-112664761D01*
X125672380Y-110760952D02*
X125539047Y-110570476D01*
X125443809Y-110760952D02*
X125443809Y-110360952D01*
X125596190Y-110360952D01*
X125634285Y-110380000D01*
X125653333Y-110399047D01*
X125672380Y-110437142D01*
X125672380Y-110494285D01*
X125653333Y-110532380D01*
X125634285Y-110551428D01*
X125596190Y-110570476D01*
X125443809Y-110570476D01*
X126053333Y-110760952D02*
X125824761Y-110760952D01*
X125939047Y-110760952D02*
X125939047Y-110360952D01*
X125900952Y-110418095D01*
X125862857Y-110456190D01*
X125824761Y-110475238D01*
X126300952Y-110360952D02*
X126339047Y-110360952D01*
X126377142Y-110380000D01*
X126396190Y-110399047D01*
X126415238Y-110437142D01*
X126434285Y-110513333D01*
X126434285Y-110608571D01*
X126415238Y-110684761D01*
X126396190Y-110722857D01*
X126377142Y-110741904D01*
X126339047Y-110760952D01*
X126300952Y-110760952D01*
X126262857Y-110741904D01*
X126243809Y-110722857D01*
X126224761Y-110684761D01*
X126205714Y-110608571D01*
X126205714Y-110513333D01*
X126224761Y-110437142D01*
X126243809Y-110399047D01*
X126262857Y-110380000D01*
X126300952Y-110360952D01*
X126662857Y-110532380D02*
X126624761Y-110513333D01*
X126605714Y-110494285D01*
X126586666Y-110456190D01*
X126586666Y-110437142D01*
X126605714Y-110399047D01*
X126624761Y-110380000D01*
X126662857Y-110360952D01*
X126739047Y-110360952D01*
X126777142Y-110380000D01*
X126796190Y-110399047D01*
X126815238Y-110437142D01*
X126815238Y-110456190D01*
X126796190Y-110494285D01*
X126777142Y-110513333D01*
X126739047Y-110532380D01*
X126662857Y-110532380D01*
X126624761Y-110551428D01*
X126605714Y-110570476D01*
X126586666Y-110608571D01*
X126586666Y-110684761D01*
X126605714Y-110722857D01*
X126624761Y-110741904D01*
X126662857Y-110760952D01*
X126739047Y-110760952D01*
X126777142Y-110741904D01*
X126796190Y-110722857D01*
X126815238Y-110684761D01*
X126815238Y-110608571D01*
X126796190Y-110570476D01*
X126777142Y-110551428D01*
X126739047Y-110532380D01*
D10*
X119144285Y-98762380D02*
X119144285Y-97762380D01*
X119477619Y-98476666D01*
X119810952Y-97762380D01*
X119810952Y-98762380D01*
X120477619Y-97762380D02*
X120668095Y-97762380D01*
X120763333Y-97810000D01*
X120858571Y-97905238D01*
X120906190Y-98095714D01*
X120906190Y-98429047D01*
X120858571Y-98619523D01*
X120763333Y-98714761D01*
X120668095Y-98762380D01*
X120477619Y-98762380D01*
X120382380Y-98714761D01*
X120287142Y-98619523D01*
X120239523Y-98429047D01*
X120239523Y-98095714D01*
X120287142Y-97905238D01*
X120382380Y-97810000D01*
X120477619Y-97762380D01*
X121334761Y-98762380D02*
X121334761Y-97762380D01*
X121572857Y-97762380D01*
X121715714Y-97810000D01*
X121810952Y-97905238D01*
X121858571Y-98000476D01*
X121906190Y-98190952D01*
X121906190Y-98333809D01*
X121858571Y-98524285D01*
X121810952Y-98619523D01*
X121715714Y-98714761D01*
X121572857Y-98762380D01*
X121334761Y-98762380D01*
X122858571Y-98762380D02*
X122287142Y-98762380D01*
X122572857Y-98762380D02*
X122572857Y-97762380D01*
X122477619Y-97905238D01*
X122382380Y-98000476D01*
X122287142Y-98048095D01*
X123477619Y-97762380D02*
X123572857Y-97762380D01*
X123668095Y-97810000D01*
X123715714Y-97857619D01*
X123763333Y-97952857D01*
X123810952Y-98143333D01*
X123810952Y-98381428D01*
X123763333Y-98571904D01*
X123715714Y-98667142D01*
X123668095Y-98714761D01*
X123572857Y-98762380D01*
X123477619Y-98762380D01*
X123382380Y-98714761D01*
X123334761Y-98667142D01*
X123287142Y-98571904D01*
X123239523Y-98381428D01*
X123239523Y-98143333D01*
X123287142Y-97952857D01*
X123334761Y-97857619D01*
X123382380Y-97810000D01*
X123477619Y-97762380D01*
X124763333Y-98762380D02*
X124191904Y-98762380D01*
X124477619Y-98762380D02*
X124477619Y-97762380D01*
X124382380Y-97905238D01*
X124287142Y-98000476D01*
X124191904Y-98048095D01*
X158292380Y-118135714D02*
X159006666Y-118135714D01*
X159149523Y-118183333D01*
X159244761Y-118278571D01*
X159292380Y-118421428D01*
X159292380Y-118516666D01*
X159292380Y-117135714D02*
X159292380Y-117707142D01*
X159292380Y-117421428D02*
X158292380Y-117421428D01*
X158435238Y-117516666D01*
X158530476Y-117611904D01*
X158578095Y-117707142D01*
X158292380Y-116516666D02*
X158292380Y-116421428D01*
X158340000Y-116326190D01*
X158387619Y-116278571D01*
X158482857Y-116230952D01*
X158673333Y-116183333D01*
X158911428Y-116183333D01*
X159101904Y-116230952D01*
X159197142Y-116278571D01*
X159244761Y-116326190D01*
X159292380Y-116421428D01*
X159292380Y-116516666D01*
X159244761Y-116611904D01*
X159197142Y-116659523D01*
X159101904Y-116707142D01*
X158911428Y-116754761D01*
X158673333Y-116754761D01*
X158482857Y-116707142D01*
X158387619Y-116659523D01*
X158340000Y-116611904D01*
X158292380Y-116516666D01*
X159292380Y-115230952D02*
X159292380Y-115802380D01*
X159292380Y-115516666D02*
X158292380Y-115516666D01*
X158435238Y-115611904D01*
X158530476Y-115707142D01*
X158578095Y-115802380D01*
X158332380Y-101295714D02*
X159046666Y-101295714D01*
X159189523Y-101343333D01*
X159284761Y-101438571D01*
X159332380Y-101581428D01*
X159332380Y-101676666D01*
X159332380Y-100295714D02*
X159332380Y-100867142D01*
X159332380Y-100581428D02*
X158332380Y-100581428D01*
X158475238Y-100676666D01*
X158570476Y-100771904D01*
X158618095Y-100867142D01*
X158332380Y-99676666D02*
X158332380Y-99581428D01*
X158380000Y-99486190D01*
X158427619Y-99438571D01*
X158522857Y-99390952D01*
X158713333Y-99343333D01*
X158951428Y-99343333D01*
X159141904Y-99390952D01*
X159237142Y-99438571D01*
X159284761Y-99486190D01*
X159332380Y-99581428D01*
X159332380Y-99676666D01*
X159284761Y-99771904D01*
X159237142Y-99819523D01*
X159141904Y-99867142D01*
X158951428Y-99914761D01*
X158713333Y-99914761D01*
X158522857Y-99867142D01*
X158427619Y-99819523D01*
X158380000Y-99771904D01*
X158332380Y-99676666D01*
X158332380Y-99010000D02*
X158332380Y-98390952D01*
X158713333Y-98724285D01*
X158713333Y-98581428D01*
X158760952Y-98486190D01*
X158808571Y-98438571D01*
X158903809Y-98390952D01*
X159141904Y-98390952D01*
X159237142Y-98438571D01*
X159284761Y-98486190D01*
X159332380Y-98581428D01*
X159332380Y-98867142D01*
X159284761Y-98962380D01*
X159237142Y-99010000D01*
X123406666Y-106830000D02*
X123973333Y-106830000D01*
X124040000Y-106796666D01*
X124073333Y-106763333D01*
X124106666Y-106696666D01*
X124106666Y-106563333D01*
X124073333Y-106496666D01*
X124040000Y-106463333D01*
X123973333Y-106430000D01*
X123406666Y-106430000D01*
X124106666Y-105730000D02*
X124106666Y-106130000D01*
X124106666Y-105930000D02*
X123406666Y-105930000D01*
X123506666Y-105996666D01*
X123573333Y-106063333D01*
X123606666Y-106130000D01*
X123406666Y-105296666D02*
X123406666Y-105230000D01*
X123440000Y-105163333D01*
X123473333Y-105130000D01*
X123540000Y-105096666D01*
X123673333Y-105063333D01*
X123840000Y-105063333D01*
X123973333Y-105096666D01*
X124040000Y-105130000D01*
X124073333Y-105163333D01*
X124106666Y-105230000D01*
X124106666Y-105296666D01*
X124073333Y-105363333D01*
X124040000Y-105396666D01*
X123973333Y-105430000D01*
X123840000Y-105463333D01*
X123673333Y-105463333D01*
X123540000Y-105430000D01*
X123473333Y-105396666D01*
X123440000Y-105363333D01*
X123406666Y-105296666D01*
X123406666Y-104830000D02*
X123406666Y-104396666D01*
X123673333Y-104630000D01*
X123673333Y-104530000D01*
X123706666Y-104463333D01*
X123740000Y-104430000D01*
X123806666Y-104396666D01*
X123973333Y-104396666D01*
X124040000Y-104430000D01*
X124073333Y-104463333D01*
X124106666Y-104530000D01*
X124106666Y-104730000D01*
X124073333Y-104796666D01*
X124040000Y-104830000D01*
X95208571Y-98598095D02*
X95256190Y-98455238D01*
X95303809Y-98407619D01*
X95399047Y-98360000D01*
X95541904Y-98360000D01*
X95637142Y-98407619D01*
X95684761Y-98455238D01*
X95732380Y-98550476D01*
X95732380Y-98931428D01*
X94732380Y-98931428D01*
X94732380Y-98598095D01*
X94780000Y-98502857D01*
X94827619Y-98455238D01*
X94922857Y-98407619D01*
X95018095Y-98407619D01*
X95113333Y-98455238D01*
X95160952Y-98502857D01*
X95208571Y-98598095D01*
X95208571Y-98931428D01*
X94732380Y-98074285D02*
X94732380Y-97502857D01*
X95732380Y-97788571D02*
X94732380Y-97788571D01*
X95732380Y-96645714D02*
X95732380Y-97217142D01*
X95732380Y-96931428D02*
X94732380Y-96931428D01*
X94875238Y-97026666D01*
X94970476Y-97121904D01*
X95018095Y-97217142D01*
X94732380Y-96026666D02*
X94732380Y-95931428D01*
X94780000Y-95836190D01*
X94827619Y-95788571D01*
X94922857Y-95740952D01*
X95113333Y-95693333D01*
X95351428Y-95693333D01*
X95541904Y-95740952D01*
X95637142Y-95788571D01*
X95684761Y-95836190D01*
X95732380Y-95931428D01*
X95732380Y-96026666D01*
X95684761Y-96121904D01*
X95637142Y-96169523D01*
X95541904Y-96217142D01*
X95351428Y-96264761D01*
X95113333Y-96264761D01*
X94922857Y-96217142D01*
X94827619Y-96169523D01*
X94780000Y-96121904D01*
X94732380Y-96026666D01*
X95732380Y-94740952D02*
X95732380Y-95312380D01*
X95732380Y-95026666D02*
X94732380Y-95026666D01*
X94875238Y-95121904D01*
X94970476Y-95217142D01*
X95018095Y-95312380D01*
X105652328Y-106272352D02*
X105652328Y-105510447D01*
X105868228Y-88365352D02*
X105868228Y-87603447D01*
X106249180Y-87984400D02*
X105487276Y-87984400D01*
X120526666Y-127506666D02*
X120526666Y-126806666D01*
X120693333Y-126806666D01*
X120793333Y-126840000D01*
X120860000Y-126906666D01*
X120893333Y-126973333D01*
X120926666Y-127106666D01*
X120926666Y-127206666D01*
X120893333Y-127340000D01*
X120860000Y-127406666D01*
X120793333Y-127473333D01*
X120693333Y-127506666D01*
X120526666Y-127506666D01*
X121593333Y-127506666D02*
X121193333Y-127506666D01*
X121393333Y-127506666D02*
X121393333Y-126806666D01*
X121326666Y-126906666D01*
X121260000Y-126973333D01*
X121193333Y-127006666D01*
X122026666Y-126806666D02*
X122093333Y-126806666D01*
X122160000Y-126840000D01*
X122193333Y-126873333D01*
X122226666Y-126940000D01*
X122260000Y-127073333D01*
X122260000Y-127240000D01*
X122226666Y-127373333D01*
X122193333Y-127440000D01*
X122160000Y-127473333D01*
X122093333Y-127506666D01*
X122026666Y-127506666D01*
X121960000Y-127473333D01*
X121926666Y-127440000D01*
X121893333Y-127373333D01*
X121860000Y-127240000D01*
X121860000Y-127073333D01*
X121893333Y-126940000D01*
X121926666Y-126873333D01*
X121960000Y-126840000D01*
X122026666Y-126806666D01*
X122526666Y-126873333D02*
X122560000Y-126840000D01*
X122626666Y-126806666D01*
X122793333Y-126806666D01*
X122860000Y-126840000D01*
X122893333Y-126873333D01*
X122926666Y-126940000D01*
X122926666Y-127006666D01*
X122893333Y-127106666D01*
X122493333Y-127506666D01*
X122926666Y-127506666D01*
X79708380Y-109785714D02*
X80422666Y-109785714D01*
X80565523Y-109833333D01*
X80660761Y-109928571D01*
X80708380Y-110071428D01*
X80708380Y-110166666D01*
X80708380Y-108785714D02*
X80708380Y-109357142D01*
X80708380Y-109071428D02*
X79708380Y-109071428D01*
X79851238Y-109166666D01*
X79946476Y-109261904D01*
X79994095Y-109357142D01*
X79708380Y-108166666D02*
X79708380Y-108071428D01*
X79756000Y-107976190D01*
X79803619Y-107928571D01*
X79898857Y-107880952D01*
X80089333Y-107833333D01*
X80327428Y-107833333D01*
X80517904Y-107880952D01*
X80613142Y-107928571D01*
X80660761Y-107976190D01*
X80708380Y-108071428D01*
X80708380Y-108166666D01*
X80660761Y-108261904D01*
X80613142Y-108309523D01*
X80517904Y-108357142D01*
X80327428Y-108404761D01*
X80089333Y-108404761D01*
X79898857Y-108357142D01*
X79803619Y-108309523D01*
X79756000Y-108261904D01*
X79708380Y-108166666D01*
X79803619Y-107452380D02*
X79756000Y-107404761D01*
X79708380Y-107309523D01*
X79708380Y-107071428D01*
X79756000Y-106976190D01*
X79803619Y-106928571D01*
X79898857Y-106880952D01*
X79994095Y-106880952D01*
X80136952Y-106928571D01*
X80708380Y-107500000D01*
X80708380Y-106880952D01*
X97923333Y-109903333D02*
X97890000Y-109970000D01*
X97823333Y-110036666D01*
X97723333Y-110136666D01*
X97690000Y-110203333D01*
X97690000Y-110270000D01*
X97856666Y-110236666D02*
X97823333Y-110303333D01*
X97756666Y-110370000D01*
X97623333Y-110403333D01*
X97390000Y-110403333D01*
X97256666Y-110370000D01*
X97190000Y-110303333D01*
X97156666Y-110236666D01*
X97156666Y-110103333D01*
X97190000Y-110036666D01*
X97256666Y-109970000D01*
X97390000Y-109936666D01*
X97623333Y-109936666D01*
X97756666Y-109970000D01*
X97823333Y-110036666D01*
X97856666Y-110103333D01*
X97856666Y-110236666D01*
X97856666Y-109270000D02*
X97856666Y-109670000D01*
X97856666Y-109470000D02*
X97156666Y-109470000D01*
X97256666Y-109536666D01*
X97323333Y-109603333D01*
X97356666Y-109670000D01*
X97156666Y-108836666D02*
X97156666Y-108770000D01*
X97190000Y-108703333D01*
X97223333Y-108670000D01*
X97290000Y-108636666D01*
X97423333Y-108603333D01*
X97590000Y-108603333D01*
X97723333Y-108636666D01*
X97790000Y-108670000D01*
X97823333Y-108703333D01*
X97856666Y-108770000D01*
X97856666Y-108836666D01*
X97823333Y-108903333D01*
X97790000Y-108936666D01*
X97723333Y-108970000D01*
X97590000Y-109003333D01*
X97423333Y-109003333D01*
X97290000Y-108970000D01*
X97223333Y-108936666D01*
X97190000Y-108903333D01*
X97156666Y-108836666D01*
X97856666Y-107936666D02*
X97856666Y-108336666D01*
X97856666Y-108136666D02*
X97156666Y-108136666D01*
X97256666Y-108203333D01*
X97323333Y-108270000D01*
X97356666Y-108336666D01*
D15*
X106097809Y-122627710D02*
X106049428Y-122603520D01*
X106001047Y-122555139D01*
X105928476Y-122482567D01*
X105880095Y-122458377D01*
X105831714Y-122458377D01*
X105855904Y-122579329D02*
X105807523Y-122555139D01*
X105759142Y-122506758D01*
X105734952Y-122409996D01*
X105734952Y-122240662D01*
X105759142Y-122143900D01*
X105807523Y-122095520D01*
X105855904Y-122071329D01*
X105952666Y-122071329D01*
X106001047Y-122095520D01*
X106049428Y-122143900D01*
X106073619Y-122240662D01*
X106073619Y-122409996D01*
X106049428Y-122506758D01*
X106001047Y-122555139D01*
X105952666Y-122579329D01*
X105855904Y-122579329D01*
X106557428Y-122579329D02*
X106267142Y-122579329D01*
X106412285Y-122579329D02*
X106412285Y-122071329D01*
X106363904Y-122143900D01*
X106315523Y-122192281D01*
X106267142Y-122216472D01*
X106871904Y-122071329D02*
X106920285Y-122071329D01*
X106968666Y-122095520D01*
X106992857Y-122119710D01*
X107017047Y-122168091D01*
X107041238Y-122264853D01*
X107041238Y-122385805D01*
X107017047Y-122482567D01*
X106992857Y-122530948D01*
X106968666Y-122555139D01*
X106920285Y-122579329D01*
X106871904Y-122579329D01*
X106823523Y-122555139D01*
X106799333Y-122530948D01*
X106775142Y-122482567D01*
X106750952Y-122385805D01*
X106750952Y-122264853D01*
X106775142Y-122168091D01*
X106799333Y-122119710D01*
X106823523Y-122095520D01*
X106871904Y-122071329D01*
X107234761Y-122119710D02*
X107258952Y-122095520D01*
X107307333Y-122071329D01*
X107428285Y-122071329D01*
X107476666Y-122095520D01*
X107500857Y-122119710D01*
X107525047Y-122168091D01*
X107525047Y-122216472D01*
X107500857Y-122289043D01*
X107210571Y-122579329D01*
X107525047Y-122579329D01*
D10*
X103296666Y-113286666D02*
X103063333Y-112953333D01*
X102896666Y-113286666D02*
X102896666Y-112586666D01*
X103163333Y-112586666D01*
X103230000Y-112620000D01*
X103263333Y-112653333D01*
X103296666Y-112720000D01*
X103296666Y-112820000D01*
X103263333Y-112886666D01*
X103230000Y-112920000D01*
X103163333Y-112953333D01*
X102896666Y-112953333D01*
X103496666Y-112586666D02*
X103730000Y-113286666D01*
X103963333Y-112586666D01*
X104563333Y-113286666D02*
X104163333Y-113286666D01*
X104363333Y-113286666D02*
X104363333Y-112586666D01*
X104296666Y-112686666D01*
X104230000Y-112753333D01*
X104163333Y-112786666D01*
X104996666Y-112586666D02*
X105063333Y-112586666D01*
X105130000Y-112620000D01*
X105163333Y-112653333D01*
X105196666Y-112720000D01*
X105230000Y-112853333D01*
X105230000Y-113020000D01*
X105196666Y-113153333D01*
X105163333Y-113220000D01*
X105130000Y-113253333D01*
X105063333Y-113286666D01*
X104996666Y-113286666D01*
X104930000Y-113253333D01*
X104896666Y-113220000D01*
X104863333Y-113153333D01*
X104830000Y-113020000D01*
X104830000Y-112853333D01*
X104863333Y-112720000D01*
X104896666Y-112653333D01*
X104930000Y-112620000D01*
X104996666Y-112586666D01*
X105896666Y-113286666D02*
X105496666Y-113286666D01*
X105696666Y-113286666D02*
X105696666Y-112586666D01*
X105630000Y-112686666D01*
X105563333Y-112753333D01*
X105496666Y-112786666D01*
X145708333Y-100066666D02*
X145741666Y-99966666D01*
X145741666Y-99800000D01*
X145708333Y-99733333D01*
X145675000Y-99700000D01*
X145608333Y-99666666D01*
X145541666Y-99666666D01*
X145475000Y-99700000D01*
X145441666Y-99733333D01*
X145408333Y-99800000D01*
X145375000Y-99933333D01*
X145341666Y-100000000D01*
X145308333Y-100033333D01*
X145241666Y-100066666D01*
X145175000Y-100066666D01*
X145108333Y-100033333D01*
X145075000Y-100000000D01*
X145041666Y-99933333D01*
X145041666Y-99766666D01*
X145075000Y-99666666D01*
X145041666Y-99166666D02*
X145541666Y-99166666D01*
X145641666Y-99200000D01*
X145708333Y-99266666D01*
X145741666Y-99366666D01*
X145741666Y-99433333D01*
X145741666Y-98466666D02*
X145741666Y-98866666D01*
X145741666Y-98666666D02*
X145041666Y-98666666D01*
X145141666Y-98733333D01*
X145208333Y-98800000D01*
X145241666Y-98866666D01*
X145041666Y-98033333D02*
X145041666Y-97966666D01*
X145075000Y-97900000D01*
X145108333Y-97866666D01*
X145175000Y-97833333D01*
X145308333Y-97800000D01*
X145475000Y-97800000D01*
X145608333Y-97833333D01*
X145675000Y-97866666D01*
X145708333Y-97900000D01*
X145741666Y-97966666D01*
X145741666Y-98033333D01*
X145708333Y-98100000D01*
X145675000Y-98133333D01*
X145608333Y-98166666D01*
X145475000Y-98200000D01*
X145308333Y-98200000D01*
X145175000Y-98166666D01*
X145108333Y-98133333D01*
X145075000Y-98100000D01*
X145041666Y-98033333D01*
X145741666Y-97133333D02*
X145741666Y-97533333D01*
X145741666Y-97333333D02*
X145041666Y-97333333D01*
X145141666Y-97400000D01*
X145208333Y-97466666D01*
X145241666Y-97533333D01*
X135344285Y-122754761D02*
X135487142Y-122802380D01*
X135725238Y-122802380D01*
X135820476Y-122754761D01*
X135868095Y-122707142D01*
X135915714Y-122611904D01*
X135915714Y-122516666D01*
X135868095Y-122421428D01*
X135820476Y-122373809D01*
X135725238Y-122326190D01*
X135534761Y-122278571D01*
X135439523Y-122230952D01*
X135391904Y-122183333D01*
X135344285Y-122088095D01*
X135344285Y-121992857D01*
X135391904Y-121897619D01*
X135439523Y-121850000D01*
X135534761Y-121802380D01*
X135772857Y-121802380D01*
X135915714Y-121850000D01*
X136249047Y-121802380D02*
X136487142Y-122802380D01*
X136677619Y-122088095D01*
X136868095Y-122802380D01*
X137106190Y-121802380D01*
X138010952Y-122802380D02*
X137439523Y-122802380D01*
X137725238Y-122802380D02*
X137725238Y-121802380D01*
X137630000Y-121945238D01*
X137534761Y-122040476D01*
X137439523Y-122088095D01*
X138630000Y-121802380D02*
X138725238Y-121802380D01*
X138820476Y-121850000D01*
X138868095Y-121897619D01*
X138915714Y-121992857D01*
X138963333Y-122183333D01*
X138963333Y-122421428D01*
X138915714Y-122611904D01*
X138868095Y-122707142D01*
X138820476Y-122754761D01*
X138725238Y-122802380D01*
X138630000Y-122802380D01*
X138534761Y-122754761D01*
X138487142Y-122707142D01*
X138439523Y-122611904D01*
X138391904Y-122421428D01*
X138391904Y-122183333D01*
X138439523Y-121992857D01*
X138487142Y-121897619D01*
X138534761Y-121850000D01*
X138630000Y-121802380D01*
X139915714Y-122802380D02*
X139344285Y-122802380D01*
X139630000Y-122802380D02*
X139630000Y-121802380D01*
X139534761Y-121945238D01*
X139439523Y-122040476D01*
X139344285Y-122088095D01*
X138152380Y-103764285D02*
X138961904Y-103764285D01*
X139057142Y-103716666D01*
X139104761Y-103669047D01*
X139152380Y-103573809D01*
X139152380Y-103383333D01*
X139104761Y-103288095D01*
X139057142Y-103240476D01*
X138961904Y-103192857D01*
X138152380Y-103192857D01*
X139152380Y-102192857D02*
X139152380Y-102764285D01*
X139152380Y-102478571D02*
X138152380Y-102478571D01*
X138295238Y-102573809D01*
X138390476Y-102669047D01*
X138438095Y-102764285D01*
X138152380Y-101573809D02*
X138152380Y-101478571D01*
X138200000Y-101383333D01*
X138247619Y-101335714D01*
X138342857Y-101288095D01*
X138533333Y-101240476D01*
X138771428Y-101240476D01*
X138961904Y-101288095D01*
X139057142Y-101335714D01*
X139104761Y-101383333D01*
X139152380Y-101478571D01*
X139152380Y-101573809D01*
X139104761Y-101669047D01*
X139057142Y-101716666D01*
X138961904Y-101764285D01*
X138771428Y-101811904D01*
X138533333Y-101811904D01*
X138342857Y-101764285D01*
X138247619Y-101716666D01*
X138200000Y-101669047D01*
X138152380Y-101573809D01*
X139152380Y-100288095D02*
X139152380Y-100859523D01*
X139152380Y-100573809D02*
X138152380Y-100573809D01*
X138295238Y-100669047D01*
X138390476Y-100764285D01*
X138438095Y-100859523D01*
X139925714Y-117682380D02*
X139925714Y-118491904D01*
X139973333Y-118587142D01*
X140020952Y-118634761D01*
X140116190Y-118682380D01*
X140306666Y-118682380D01*
X140401904Y-118634761D01*
X140449523Y-118587142D01*
X140497142Y-118491904D01*
X140497142Y-117682380D01*
X141497142Y-118682380D02*
X140925714Y-118682380D01*
X141211428Y-118682380D02*
X141211428Y-117682380D01*
X141116190Y-117825238D01*
X141020952Y-117920476D01*
X140925714Y-117968095D01*
X142116190Y-117682380D02*
X142211428Y-117682380D01*
X142306666Y-117730000D01*
X142354285Y-117777619D01*
X142401904Y-117872857D01*
X142449523Y-118063333D01*
X142449523Y-118301428D01*
X142401904Y-118491904D01*
X142354285Y-118587142D01*
X142306666Y-118634761D01*
X142211428Y-118682380D01*
X142116190Y-118682380D01*
X142020952Y-118634761D01*
X141973333Y-118587142D01*
X141925714Y-118491904D01*
X141878095Y-118301428D01*
X141878095Y-118063333D01*
X141925714Y-117872857D01*
X141973333Y-117777619D01*
X142020952Y-117730000D01*
X142116190Y-117682380D01*
X142830476Y-117777619D02*
X142878095Y-117730000D01*
X142973333Y-117682380D01*
X143211428Y-117682380D01*
X143306666Y-117730000D01*
X143354285Y-117777619D01*
X143401904Y-117872857D01*
X143401904Y-117968095D01*
X143354285Y-118110952D01*
X142782857Y-118682380D01*
X143401904Y-118682380D01*
X128416666Y-89676666D02*
X128416666Y-88976666D01*
X128583333Y-88976666D01*
X128683333Y-89010000D01*
X128750000Y-89076666D01*
X128783333Y-89143333D01*
X128816666Y-89276666D01*
X128816666Y-89376666D01*
X128783333Y-89510000D01*
X128750000Y-89576666D01*
X128683333Y-89643333D01*
X128583333Y-89676666D01*
X128416666Y-89676666D01*
X129483333Y-89676666D02*
X129083333Y-89676666D01*
X129283333Y-89676666D02*
X129283333Y-88976666D01*
X129216666Y-89076666D01*
X129150000Y-89143333D01*
X129083333Y-89176666D01*
X129916666Y-88976666D02*
X129983333Y-88976666D01*
X130050000Y-89010000D01*
X130083333Y-89043333D01*
X130116666Y-89110000D01*
X130150000Y-89243333D01*
X130150000Y-89410000D01*
X130116666Y-89543333D01*
X130083333Y-89610000D01*
X130050000Y-89643333D01*
X129983333Y-89676666D01*
X129916666Y-89676666D01*
X129850000Y-89643333D01*
X129816666Y-89610000D01*
X129783333Y-89543333D01*
X129750000Y-89410000D01*
X129750000Y-89243333D01*
X129783333Y-89110000D01*
X129816666Y-89043333D01*
X129850000Y-89010000D01*
X129916666Y-88976666D01*
X130816666Y-89676666D02*
X130416666Y-89676666D01*
X130616666Y-89676666D02*
X130616666Y-88976666D01*
X130550000Y-89076666D01*
X130483333Y-89143333D01*
X130416666Y-89176666D01*
X147789284Y-96397379D02*
X147789284Y-97111665D01*
X147741665Y-97254522D01*
X147646427Y-97349760D01*
X147503570Y-97397379D01*
X147408332Y-97397379D01*
X148789284Y-97397379D02*
X148217856Y-97397379D01*
X148503570Y-97397379D02*
X148503570Y-96397379D01*
X148408332Y-96540237D01*
X148313094Y-96635475D01*
X148217856Y-96683094D01*
X149408332Y-96397379D02*
X149503570Y-96397379D01*
X149598808Y-96444999D01*
X149646427Y-96492618D01*
X149694046Y-96587856D01*
X149741665Y-96778332D01*
X149741665Y-97016427D01*
X149694046Y-97206903D01*
X149646427Y-97302141D01*
X149598808Y-97349760D01*
X149503570Y-97397379D01*
X149408332Y-97397379D01*
X149313094Y-97349760D01*
X149265475Y-97302141D01*
X149217856Y-97206903D01*
X149170237Y-97016427D01*
X149170237Y-96778332D01*
X149217856Y-96587856D01*
X149265475Y-96492618D01*
X149313094Y-96444999D01*
X149408332Y-96397379D01*
X150598808Y-96730713D02*
X150598808Y-97397379D01*
X150360713Y-96349760D02*
X150122618Y-97064046D01*
X150741665Y-97064046D01*
X156362380Y-109705714D02*
X157076666Y-109705714D01*
X157219523Y-109753333D01*
X157314761Y-109848571D01*
X157362380Y-109991428D01*
X157362380Y-110086666D01*
X157362380Y-108705714D02*
X157362380Y-109277142D01*
X157362380Y-108991428D02*
X156362380Y-108991428D01*
X156505238Y-109086666D01*
X156600476Y-109181904D01*
X156648095Y-109277142D01*
X156362380Y-108086666D02*
X156362380Y-107991428D01*
X156410000Y-107896190D01*
X156457619Y-107848571D01*
X156552857Y-107800952D01*
X156743333Y-107753333D01*
X156981428Y-107753333D01*
X157171904Y-107800952D01*
X157267142Y-107848571D01*
X157314761Y-107896190D01*
X157362380Y-107991428D01*
X157362380Y-108086666D01*
X157314761Y-108181904D01*
X157267142Y-108229523D01*
X157171904Y-108277142D01*
X156981428Y-108324761D01*
X156743333Y-108324761D01*
X156552857Y-108277142D01*
X156457619Y-108229523D01*
X156410000Y-108181904D01*
X156362380Y-108086666D01*
X156362380Y-106848571D02*
X156362380Y-107324761D01*
X156838571Y-107372380D01*
X156790952Y-107324761D01*
X156743333Y-107229523D01*
X156743333Y-106991428D01*
X156790952Y-106896190D01*
X156838571Y-106848571D01*
X156933809Y-106800952D01*
X157171904Y-106800952D01*
X157267142Y-106848571D01*
X157314761Y-106896190D01*
X157362380Y-106991428D01*
X157362380Y-107229523D01*
X157314761Y-107324761D01*
X157267142Y-107372380D01*
D13*
X97473809Y-107280952D02*
X97473809Y-106880952D01*
X97569047Y-106880952D01*
X97626190Y-106900000D01*
X97664285Y-106938095D01*
X97683333Y-106976190D01*
X97702380Y-107052380D01*
X97702380Y-107109523D01*
X97683333Y-107185714D01*
X97664285Y-107223809D01*
X97626190Y-107261904D01*
X97569047Y-107280952D01*
X97473809Y-107280952D01*
X98083333Y-107280952D02*
X97854761Y-107280952D01*
X97969047Y-107280952D02*
X97969047Y-106880952D01*
X97930952Y-106938095D01*
X97892857Y-106976190D01*
X97854761Y-106995238D01*
X98330952Y-106880952D02*
X98369047Y-106880952D01*
X98407142Y-106900000D01*
X98426190Y-106919047D01*
X98445238Y-106957142D01*
X98464285Y-107033333D01*
X98464285Y-107128571D01*
X98445238Y-107204761D01*
X98426190Y-107242857D01*
X98407142Y-107261904D01*
X98369047Y-107280952D01*
X98330952Y-107280952D01*
X98292857Y-107261904D01*
X98273809Y-107242857D01*
X98254761Y-107204761D01*
X98235714Y-107128571D01*
X98235714Y-107033333D01*
X98254761Y-106957142D01*
X98273809Y-106919047D01*
X98292857Y-106900000D01*
X98330952Y-106880952D01*
X98597619Y-106880952D02*
X98845238Y-106880952D01*
X98711904Y-107033333D01*
X98769047Y-107033333D01*
X98807142Y-107052380D01*
X98826190Y-107071428D01*
X98845238Y-107109523D01*
X98845238Y-107204761D01*
X98826190Y-107242857D01*
X98807142Y-107261904D01*
X98769047Y-107280952D01*
X98654761Y-107280952D01*
X98616666Y-107261904D01*
X98597619Y-107242857D01*
X107623809Y-88955952D02*
X107623809Y-88555952D01*
X107719047Y-88555952D01*
X107776190Y-88575000D01*
X107814285Y-88613095D01*
X107833333Y-88651190D01*
X107852380Y-88727380D01*
X107852380Y-88784523D01*
X107833333Y-88860714D01*
X107814285Y-88898809D01*
X107776190Y-88936904D01*
X107719047Y-88955952D01*
X107623809Y-88955952D01*
X108233333Y-88955952D02*
X108004761Y-88955952D01*
X108119047Y-88955952D02*
X108119047Y-88555952D01*
X108080952Y-88613095D01*
X108042857Y-88651190D01*
X108004761Y-88670238D01*
X108480952Y-88555952D02*
X108519047Y-88555952D01*
X108557142Y-88575000D01*
X108576190Y-88594047D01*
X108595238Y-88632142D01*
X108614285Y-88708333D01*
X108614285Y-88803571D01*
X108595238Y-88879761D01*
X108576190Y-88917857D01*
X108557142Y-88936904D01*
X108519047Y-88955952D01*
X108480952Y-88955952D01*
X108442857Y-88936904D01*
X108423809Y-88917857D01*
X108404761Y-88879761D01*
X108385714Y-88803571D01*
X108385714Y-88708333D01*
X108404761Y-88632142D01*
X108423809Y-88594047D01*
X108442857Y-88575000D01*
X108480952Y-88555952D01*
X108957142Y-88689285D02*
X108957142Y-88955952D01*
X108861904Y-88536904D02*
X108766666Y-88822619D01*
X109014285Y-88822619D01*
X94105952Y-122801190D02*
X93705952Y-122801190D01*
X93705952Y-122705952D01*
X93725000Y-122648809D01*
X93763095Y-122610714D01*
X93801190Y-122591666D01*
X93877380Y-122572619D01*
X93934523Y-122572619D01*
X94010714Y-122591666D01*
X94048809Y-122610714D01*
X94086904Y-122648809D01*
X94105952Y-122705952D01*
X94105952Y-122801190D01*
X94105952Y-122191666D02*
X94105952Y-122420238D01*
X94105952Y-122305952D02*
X93705952Y-122305952D01*
X93763095Y-122344047D01*
X93801190Y-122382142D01*
X93820238Y-122420238D01*
X93705952Y-121944047D02*
X93705952Y-121905952D01*
X93725000Y-121867857D01*
X93744047Y-121848809D01*
X93782142Y-121829761D01*
X93858333Y-121810714D01*
X93953571Y-121810714D01*
X94029761Y-121829761D01*
X94067857Y-121848809D01*
X94086904Y-121867857D01*
X94105952Y-121905952D01*
X94105952Y-121944047D01*
X94086904Y-121982142D01*
X94067857Y-122001190D01*
X94029761Y-122020238D01*
X93953571Y-122039285D01*
X93858333Y-122039285D01*
X93782142Y-122020238D01*
X93744047Y-122001190D01*
X93725000Y-121982142D01*
X93705952Y-121944047D01*
X93705952Y-121448809D02*
X93705952Y-121639285D01*
X93896428Y-121658333D01*
X93877380Y-121639285D01*
X93858333Y-121601190D01*
X93858333Y-121505952D01*
X93877380Y-121467857D01*
X93896428Y-121448809D01*
X93934523Y-121429761D01*
X94029761Y-121429761D01*
X94067857Y-121448809D01*
X94086904Y-121467857D01*
X94105952Y-121505952D01*
X94105952Y-121601190D01*
X94086904Y-121639285D01*
X94067857Y-121658333D01*
X96580952Y-122776190D02*
X96180952Y-122776190D01*
X96180952Y-122680952D01*
X96200000Y-122623809D01*
X96238095Y-122585714D01*
X96276190Y-122566666D01*
X96352380Y-122547619D01*
X96409523Y-122547619D01*
X96485714Y-122566666D01*
X96523809Y-122585714D01*
X96561904Y-122623809D01*
X96580952Y-122680952D01*
X96580952Y-122776190D01*
X96580952Y-122166666D02*
X96580952Y-122395238D01*
X96580952Y-122280952D02*
X96180952Y-122280952D01*
X96238095Y-122319047D01*
X96276190Y-122357142D01*
X96295238Y-122395238D01*
X96180952Y-121919047D02*
X96180952Y-121880952D01*
X96200000Y-121842857D01*
X96219047Y-121823809D01*
X96257142Y-121804761D01*
X96333333Y-121785714D01*
X96428571Y-121785714D01*
X96504761Y-121804761D01*
X96542857Y-121823809D01*
X96561904Y-121842857D01*
X96580952Y-121880952D01*
X96580952Y-121919047D01*
X96561904Y-121957142D01*
X96542857Y-121976190D01*
X96504761Y-121995238D01*
X96428571Y-122014285D01*
X96333333Y-122014285D01*
X96257142Y-121995238D01*
X96219047Y-121976190D01*
X96200000Y-121957142D01*
X96180952Y-121919047D01*
X96180952Y-121442857D02*
X96180952Y-121519047D01*
X96200000Y-121557142D01*
X96219047Y-121576190D01*
X96276190Y-121614285D01*
X96352380Y-121633333D01*
X96504761Y-121633333D01*
X96542857Y-121614285D01*
X96561904Y-121595238D01*
X96580952Y-121557142D01*
X96580952Y-121480952D01*
X96561904Y-121442857D01*
X96542857Y-121423809D01*
X96504761Y-121404761D01*
X96409523Y-121404761D01*
X96371428Y-121423809D01*
X96352380Y-121442857D01*
X96333333Y-121480952D01*
X96333333Y-121557142D01*
X96352380Y-121595238D01*
X96371428Y-121614285D01*
X96409523Y-121633333D01*
X99205952Y-122801190D02*
X98805952Y-122801190D01*
X98805952Y-122705952D01*
X98825000Y-122648809D01*
X98863095Y-122610714D01*
X98901190Y-122591666D01*
X98977380Y-122572619D01*
X99034523Y-122572619D01*
X99110714Y-122591666D01*
X99148809Y-122610714D01*
X99186904Y-122648809D01*
X99205952Y-122705952D01*
X99205952Y-122801190D01*
X99205952Y-122191666D02*
X99205952Y-122420238D01*
X99205952Y-122305952D02*
X98805952Y-122305952D01*
X98863095Y-122344047D01*
X98901190Y-122382142D01*
X98920238Y-122420238D01*
X98805952Y-121944047D02*
X98805952Y-121905952D01*
X98825000Y-121867857D01*
X98844047Y-121848809D01*
X98882142Y-121829761D01*
X98958333Y-121810714D01*
X99053571Y-121810714D01*
X99129761Y-121829761D01*
X99167857Y-121848809D01*
X99186904Y-121867857D01*
X99205952Y-121905952D01*
X99205952Y-121944047D01*
X99186904Y-121982142D01*
X99167857Y-122001190D01*
X99129761Y-122020238D01*
X99053571Y-122039285D01*
X98958333Y-122039285D01*
X98882142Y-122020238D01*
X98844047Y-122001190D01*
X98825000Y-121982142D01*
X98805952Y-121944047D01*
X98805952Y-121677380D02*
X98805952Y-121410714D01*
X99205952Y-121582142D01*
X116602380Y-89180952D02*
X116469047Y-88990476D01*
X116373809Y-89180952D02*
X116373809Y-88780952D01*
X116526190Y-88780952D01*
X116564285Y-88800000D01*
X116583333Y-88819047D01*
X116602380Y-88857142D01*
X116602380Y-88914285D01*
X116583333Y-88952380D01*
X116564285Y-88971428D01*
X116526190Y-88990476D01*
X116373809Y-88990476D01*
X116983333Y-89180952D02*
X116754761Y-89180952D01*
X116869047Y-89180952D02*
X116869047Y-88780952D01*
X116830952Y-88838095D01*
X116792857Y-88876190D01*
X116754761Y-88895238D01*
X117364285Y-89180952D02*
X117135714Y-89180952D01*
X117250000Y-89180952D02*
X117250000Y-88780952D01*
X117211904Y-88838095D01*
X117173809Y-88876190D01*
X117135714Y-88895238D01*
X117611904Y-88780952D02*
X117650000Y-88780952D01*
X117688095Y-88800000D01*
X117707142Y-88819047D01*
X117726190Y-88857142D01*
X117745238Y-88933333D01*
X117745238Y-89028571D01*
X117726190Y-89104761D01*
X117707142Y-89142857D01*
X117688095Y-89161904D01*
X117650000Y-89180952D01*
X117611904Y-89180952D01*
X117573809Y-89161904D01*
X117554761Y-89142857D01*
X117535714Y-89104761D01*
X117516666Y-89028571D01*
X117516666Y-88933333D01*
X117535714Y-88857142D01*
X117554761Y-88819047D01*
X117573809Y-88800000D01*
X117611904Y-88780952D01*
M02*
