M48
; DRILL file {KiCad (5.1.9-0-10_14)} date Friday, October 29, 2021 at 10:09:28 PM
; FORMAT={-:-/ absolute / metric / decimal}
; #@! TF.CreationDate,2021-10-29T22:09:28-04:00
; #@! TF.GenerationSoftware,Kicad,Pcbnew,(5.1.9-0-10_14)
; #@! TF.FileFunction,Plated,1,2,PTH
FMAT,2
METRIC
T1C0.300
T2C0.400
T3C1.016
T4C1.501
T5C4.000
%
G90
G05
T1
X160.61Y-107.45
X160.61Y-108.307
X160.61Y-109.163
X160.61Y-110.02
X161.03Y-107.89
X161.03Y-108.74
X161.03Y-109.6
X161.443Y-107.45
X161.443Y-108.307
X161.443Y-109.163
X161.443Y-110.02
X161.86Y-107.88
X161.86Y-108.74
X161.86Y-109.59
X162.11Y-99.11
X162.12Y-98.33
X162.12Y-99.84
X162.13Y-100.55
X162.14Y-101.27
X162.15Y-115.68
X162.16Y-116.39
X162.16Y-117.12
X162.16Y-117.8
X162.16Y-118.5
X162.277Y-107.45
X162.277Y-108.307
X162.277Y-109.163
X162.277Y-110.02
X162.5Y-102.13
X162.5Y-102.79
X162.5Y-103.45
X162.5Y-104.12
X162.5Y-104.78
X162.5Y-105.44
X162.5Y-112.03
X162.5Y-112.65
X162.5Y-113.27
X162.5Y-113.89
X162.5Y-114.51
X162.69Y-107.87
X162.69Y-108.74
X162.7Y-109.61
X163.11Y-107.45
X163.11Y-108.307
X163.11Y-109.163
X163.11Y-110.02
X163.64Y-102.29
X163.64Y-102.96
X163.64Y-103.62
X163.64Y-104.77
X163.64Y-112.03
X163.64Y-112.65
X163.64Y-113.27
X163.64Y-113.89
X163.65Y-105.43
X163.65Y-114.52
X163.98Y-98.34
X163.98Y-99.1
X163.98Y-99.82
X163.98Y-100.55
X163.99Y-101.27
X164.03Y-115.69
X164.03Y-116.392
X164.03Y-117.095
X164.03Y-117.797
X164.03Y-118.5
X164.3Y-103.62
X164.3Y-104.77
X164.96Y-103.62
X164.96Y-104.77
X165.62Y-103.62
X165.62Y-104.77
X166.28Y-103.62
X166.28Y-104.78
X166.94Y-103.62
X166.94Y-104.78
X168.32Y-103.27
X168.36Y-105.12
X169.03Y-103.26
X169.07Y-105.11
X169.71Y-103.26
X169.75Y-105.11
X170.43Y-103.26
X170.47Y-105.11
X171.13Y-103.24
X171.17Y-105.09
T2
X90.51Y-115.577
X90.51Y-116.81
X90.51Y-118.09
X92.28Y-115.577
X94.24Y-115.577
X95.247Y-113.579
X95.703Y-110.298
X95.77Y-107.3
X95.8Y-112.64
X95.97Y-114.27
X96.83Y-113.74
X96.95Y-110.43
X97.018Y-111.88
X97.07Y-106.89
X97.27Y-105.91
X98.32Y-106.99
X98.92Y-117.32
X99.239Y-107.394
X99.24Y-114.69
X99.634Y-106.251
X99.856Y-109.267
X99.912Y-103.922
X100.276Y-105.609
X100.54Y-107.08
X102.02Y-107.24
X102.02Y-108.44
X102.711Y-117.691
X103.047Y-108.083
X103.549Y-97.54
X103.98Y-111.83
X104.277Y-107.227
X104.28Y-116.13
X104.64Y-95.99
X105.288Y-108.272
X105.35Y-111.78
X105.42Y-117.38
X106.04Y-98.67
X106.083Y-109.067
X106.31Y-95.69
X106.42Y-117.0
X106.64Y-89.08
X106.88Y-112.585
X107.11Y-118.06
X107.31Y-96.79
X107.31Y-100.01
X107.545Y-106.86
X107.93Y-116.93
X108.33Y-112.585
X109.47Y-116.75
X110.698Y-103.663
X110.94Y-109.09
X111.0Y-88.66
X111.23Y-117.91
X111.51Y-98.06
X116.42Y-104.74
X117.31Y-119.78
X117.5Y-90.065
X117.61Y-92.83
X117.71Y-99.83
X117.75Y-122.55
X118.09Y-89.13
X118.17Y-110.91
X118.75Y-105.23
X119.15Y-92.81
X119.4Y-107.875
X119.47Y-109.325
X119.54Y-102.04
X119.79Y-104.55
X120.8Y-92.83
X120.87Y-109.55
X121.672Y-100.97
X121.96Y-98.7
X122.282Y-110.202
X122.54Y-90.87
X122.58Y-100.55
X122.825Y-89.1
X122.95Y-115.445
X122.996Y-109.352
X123.08Y-118.34
X123.1Y-98.9
X123.11Y-107.12
X123.29Y-101.38
X123.83Y-124.25
X124.15Y-99.735
X124.24Y-112.67
X124.31Y-93.23
X125.643Y-110.77
X125.79Y-94.03
X125.9Y-127.78
X126.68Y-118.78
X127.58Y-108.95
X127.59Y-112.21
X127.61Y-99.33
X127.75Y-100.66
X128.22Y-113.66
X130.46Y-89.49
X130.625Y-101.03
X131.35Y-103.2
X131.525Y-93.545
X131.964Y-95.047
X132.02Y-119.96
X132.142Y-92.722
X132.347Y-104.637
X132.88Y-122.7
X133.072Y-108.242
X133.15Y-106.23
X133.205Y-101.689
X133.38Y-110.42
X133.67Y-114.13
X133.67Y-118.04
X133.69Y-112.77
X133.71Y-115.59
X133.71Y-116.82
X134.28Y-109.32
X134.37Y-92.99
X134.45Y-119.56
X134.52Y-100.48
X135.2Y-113.25
X135.25Y-117.98
X135.51Y-98.76
X135.54Y-108.14
X135.93Y-89.32
X135.99Y-99.87
X136.06Y-116.61
X136.45Y-110.59
X136.63Y-90.63
X136.63Y-103.66
X136.67Y-91.89
X136.74Y-108.38
X137.11Y-101.02
X137.19Y-115.55
X137.19Y-120.44
X137.27Y-99.17
X138.56Y-89.3
X139.55Y-91.78
X139.73Y-97.61
X140.78Y-93.43
X140.88Y-97.8
X143.96Y-117.8
X144.27Y-92.24
X144.67Y-104.63
X145.17Y-105.496
X145.17Y-119.03
X145.89Y-106.24
X145.89Y-109.58
X146.715Y-107.755
X147.44Y-109.8
X147.69Y-108.36
X148.29Y-111.04
X148.33Y-113.62
X150.52Y-119.84
X150.7Y-111.04
X150.72Y-108.52
X150.79Y-105.96
X150.82Y-103.43
X150.84Y-100.99
X153.1Y-97.95
X153.22Y-101.1
X153.36Y-113.55
X153.36Y-116.05
X153.36Y-118.73
X153.43Y-111.01
X153.45Y-103.44
X153.47Y-105.96
X153.47Y-108.52
X154.25Y-97.95
X154.44Y-118.92
X155.26Y-97.95
X155.67Y-118.92
X156.07Y-108.5
X156.54Y-98.14
X156.64Y-117.7
X156.77Y-118.89
X156.799Y-116.509
X156.82Y-115.34
X157.23Y-114.22
X157.83Y-98.11
X157.86Y-118.89
X158.2Y-106.18
X158.323Y-111.308
X158.42Y-103.77
X158.48Y-105.1
X158.9Y-114.53
X158.92Y-115.66
X158.92Y-116.78
X158.98Y-117.77
X159.08Y-98.11
X159.08Y-118.93
X159.18Y-100.52
X159.562Y-113.78
X159.687Y-105.083
X159.71Y-102.56
X161.26Y-102.67
X161.52Y-105.12
X161.66Y-113.78
X161.67Y-112.65
X164.51Y-112.2
X164.83Y-102.63
X165.27Y-105.54
X165.52Y-109.18
X165.52Y-110.43
X165.54Y-106.64
X165.54Y-107.93
X165.54Y-111.61
X166.05Y-102.6
X166.45Y-114.4
X167.14Y-99.2
X167.14Y-100.52
X167.17Y-97.86
X167.21Y-101.74
X167.24Y-115.43
X167.3Y-116.71
X167.32Y-105.47
X167.32Y-106.58
X167.34Y-117.84
X167.37Y-107.77
X167.4Y-118.96
X168.6Y-108.14
X168.76Y-97.86
X168.78Y-118.94
X170.21Y-108.09
X170.27Y-97.87
X170.32Y-118.98
X171.696Y-110.713
X171.71Y-111.84
X171.71Y-108.27
X171.71Y-109.53
X171.74Y-114.33
X171.74Y-116.87
X171.74Y-118.03
X171.74Y-119.02
X171.76Y-97.88
X171.77Y-113.14
X171.77Y-115.55
X171.83Y-99.07
X171.86Y-100.26
T3
X91.9Y-120.0
X94.44Y-120.0
X96.98Y-120.0
X99.52Y-120.0
X102.06Y-120.0
X104.6Y-120.0
X107.14Y-120.0
X109.68Y-120.0
X114.095Y-97.145
X114.095Y-99.685
X114.095Y-102.225
X114.095Y-104.765
X114.095Y-107.305
X114.095Y-109.845
X114.095Y-112.385
X114.095Y-114.925
X114.095Y-117.465
X114.095Y-119.98
X114.095Y-122.52
X114.1Y-94.605
X115.427Y-92.065
X121.72Y-122.52
X124.27Y-122.52
X126.43Y-103.47
X126.43Y-106.01
X126.43Y-113.63
X126.43Y-116.17
X126.81Y-122.52
X128.013Y-92.065
X129.34Y-94.58
X129.35Y-97.12
X129.35Y-99.66
X129.35Y-102.2
X129.35Y-104.74
X129.35Y-107.28
X129.35Y-109.82
X129.35Y-112.36
X129.35Y-114.9
X129.35Y-117.44
X129.35Y-119.98
X129.35Y-122.52
X135.02Y-95.81
X137.56Y-95.81
X140.1Y-95.81
X142.64Y-95.81
X149.52Y-99.64
X149.52Y-102.18
X149.52Y-104.72
X149.52Y-107.26
X149.52Y-109.8
X149.52Y-112.34
X149.52Y-114.88
X149.52Y-117.42
X154.71Y-99.64
X154.71Y-102.18
X154.71Y-104.72
X154.71Y-107.26
X154.71Y-109.8
X154.71Y-112.34
X154.71Y-114.88
X154.71Y-117.42
X154.86Y-123.15
X157.4Y-123.15
X159.94Y-123.15
X162.48Y-123.15
X165.02Y-123.15
X167.56Y-123.15
T4
X99.5Y-127.5
X104.58Y-127.5
X109.35Y-127.45
X114.43Y-127.45
T5
X93.3Y-90.0
X93.3Y-127.0
X147.5Y-90.0
X147.5Y-127.0
T0
M30
