M48
; DRILL file {KiCad (5.1.9-0-10_14)} date Tuesday, March 16, 2021 at 11:40:37 AM
; FORMAT={-:-/ absolute / inch / decimal}
; #@! TF.CreationDate,2021-03-16T11:40:37-04:00
; #@! TF.GenerationSoftware,Kicad,Pcbnew,(5.1.9-0-10_14)
; #@! TF.FileFunction,NonPlated,1,2,NPTH
FMAT,2
INCH
T1C0.0197
T2C0.0354
T3C0.0394
T4C0.0512
%
G90
G05
T1
X5.9909Y-4.8028
X5.9909Y-4.8386
X5.9909Y-4.8744
X5.9909Y-4.911
X5.9909Y-5.0201
X5.9909Y-5.0949
X5.9913Y-3.8602
X5.9913Y-3.8961
X5.9913Y-3.9417
X5.9913Y-3.978
X5.9913Y-4.024
X5.9913Y-4.0606
X5.9913Y-4.0976
X5.9913Y-4.1461
X5.9913Y-4.1819
X5.9913Y-4.2283
X5.9913Y-4.2654
X5.9913Y-4.302
X5.9913Y-4.3492
X5.9913Y-4.3858
X5.9913Y-4.4319
X5.9913Y-4.4681
X5.9913Y-4.5043
X5.9913Y-4.5524
X5.9913Y-4.5886
X5.9913Y-4.6339
X5.9913Y-4.6693
X5.9913Y-4.7043
X5.9913Y-4.9469
X5.9913Y-4.9831
X5.9917Y-5.0559
X5.9917Y-5.1331
T2
X5.2929Y-3.527
X5.411Y-3.527
T3
X4.0732Y-3.9657
T4
X4.0732Y-3.6705
T0
M30
