G04 #@! TF.GenerationSoftware,KiCad,Pcbnew,(5.1.9-0-10_14)*
G04 #@! TF.CreationDate,2021-03-05T10:11:07-05:00*
G04 #@! TF.ProjectId,Arducon,41726475-636f-46e2-9e6b-696361645f70,rev?*
G04 #@! TF.SameCoordinates,Original*
G04 #@! TF.FileFunction,Soldermask,Top*
G04 #@! TF.FilePolarity,Negative*
%FSLAX46Y46*%
G04 Gerber Fmt 4.6, Leading zero omitted, Abs format (unit mm)*
G04 Created by KiCad (PCBNEW (5.1.9-0-10_14)) date 2021-03-05 10:11:07*
%MOMM*%
%LPD*%
G01*
G04 APERTURE LIST*
%ADD10C,0.100000*%
%ADD11O,2.032000X1.727200*%
%ADD12R,2.032000X1.727200*%
%ADD13O,1.727200X2.032000*%
%ADD14R,0.900000X0.500000*%
%ADD15R,0.500000X0.900000*%
%ADD16R,0.551180X0.299720*%
%ADD17R,1.250000X1.250000*%
%ADD18R,1.000000X1.250000*%
%ADD19R,0.700000X1.300000*%
%ADD20R,1.300000X0.700000*%
%ADD21C,5.000000*%
%ADD22C,0.500000*%
%ADD23R,0.812800X4.500000*%
%ADD24R,0.760000X4.500000*%
%ADD25R,2.600000X3.660000*%
%ADD26R,2.600000X3.540000*%
%ADD27C,1.000000*%
%ADD28C,1.300000*%
%ADD29R,5.080000X1.778000*%
%ADD30R,3.500120X3.500120*%
%ADD31C,3.500120*%
%ADD32R,2.700000X1.600000*%
%ADD33R,2.500000X1.200000*%
%ADD34C,0.150000*%
%ADD35R,1.750000X1.300000*%
%ADD36R,0.650000X1.060000*%
%ADD37R,1.500000X0.600000*%
%ADD38R,0.800000X0.800000*%
%ADD39R,1.100000X2.000000*%
%ADD40R,2.000000X1.100000*%
%ADD41R,0.800100X0.800100*%
%ADD42R,1.727200X2.032000*%
%ADD43C,0.900000*%
%ADD44R,0.700000X1.500000*%
%ADD45R,1.000000X0.800000*%
%ADD46C,0.254000*%
G04 APERTURE END LIST*
D10*
G36*
X164820000Y-107720000D02*
G01*
X164820000Y-110220000D01*
X162320000Y-110220000D01*
X162320000Y-107710000D01*
X164820000Y-107720000D01*
G37*
X164820000Y-107720000D02*
X164820000Y-110220000D01*
X162320000Y-110220000D01*
X162320000Y-107710000D01*
X164820000Y-107720000D01*
D11*
X126430000Y-113630000D03*
X126430000Y-116170000D03*
X126430000Y-106010000D03*
X126430000Y-103470000D03*
X129350000Y-122520000D03*
X129350000Y-119980000D03*
X114095100Y-122520000D03*
X114095100Y-119980000D03*
X129350000Y-117440000D03*
X129350000Y-114900000D03*
X129350000Y-112360000D03*
X129350000Y-109820000D03*
X129350000Y-107280000D03*
X129350000Y-104740000D03*
X129350000Y-102200000D03*
X129350000Y-99660000D03*
D12*
X129350000Y-97120000D03*
D11*
X129340000Y-94580000D03*
X114095100Y-117465400D03*
X114095100Y-114925400D03*
X114095100Y-112385400D03*
X114095100Y-109845400D03*
X114095100Y-107305400D03*
X114095100Y-104765400D03*
D12*
X114095100Y-102225400D03*
D11*
X114095100Y-99685400D03*
X114095100Y-97145400D03*
X114100000Y-94605400D03*
D13*
X128012850Y-92065150D03*
G36*
G01*
X110800000Y-88820000D02*
X109900000Y-88820000D01*
G75*
G02*
X109840000Y-88760000I0J60000D01*
G01*
X109840000Y-88260000D01*
G75*
G02*
X109900000Y-88200000I60000J0D01*
G01*
X110800000Y-88200000D01*
G75*
G02*
X110860000Y-88260000I0J-60000D01*
G01*
X110860000Y-88760000D01*
G75*
G02*
X110800000Y-88820000I-60000J0D01*
G01*
G37*
D14*
X110350000Y-90010000D03*
D15*
X99750000Y-122620000D03*
X101250000Y-122620000D03*
G36*
G01*
X110130000Y-116380000D02*
X111030000Y-116380000D01*
G75*
G02*
X111090000Y-116440000I0J-60000D01*
G01*
X111090000Y-116940000D01*
G75*
G02*
X111030000Y-117000000I-60000J0D01*
G01*
X110130000Y-117000000D01*
G75*
G02*
X110070000Y-116940000I0J60000D01*
G01*
X110070000Y-116440000D01*
G75*
G02*
X110130000Y-116380000I60000J0D01*
G01*
G37*
D14*
X110580000Y-115190000D03*
D15*
X94430000Y-122480000D03*
X92930000Y-122480000D03*
G36*
G01*
X97450000Y-105780000D02*
X97450000Y-106680000D01*
G75*
G02*
X97390000Y-106740000I-60000J0D01*
G01*
X96890000Y-106740000D01*
G75*
G02*
X96830000Y-106680000I0J60000D01*
G01*
X96830000Y-105780000D01*
G75*
G02*
X96890000Y-105720000I60000J0D01*
G01*
X97390000Y-105720000D01*
G75*
G02*
X97450000Y-105780000I0J-60000D01*
G01*
G37*
X98640000Y-106230000D03*
G36*
G01*
X107624410Y-124510240D02*
X107073230Y-124510240D01*
G75*
G02*
X107013230Y-124450240I0J60000D01*
G01*
X107013230Y-124150520D01*
G75*
G02*
X107073230Y-124090520I60000J0D01*
G01*
X107624410Y-124090520D01*
G75*
G02*
X107684410Y-124150520I0J-60000D01*
G01*
X107684410Y-124450240D01*
G75*
G02*
X107624410Y-124510240I-60000J0D01*
G01*
G37*
G36*
G01*
X107624410Y-123859860D02*
X107073230Y-123859860D01*
G75*
G02*
X107013230Y-123799860I0J60000D01*
G01*
X107013230Y-123500140D01*
G75*
G02*
X107073230Y-123440140I60000J0D01*
G01*
X107624410Y-123440140D01*
G75*
G02*
X107684410Y-123500140I0J-60000D01*
G01*
X107684410Y-123799860D01*
G75*
G02*
X107624410Y-123859860I-60000J0D01*
G01*
G37*
G36*
G01*
X107624410Y-123209480D02*
X107073230Y-123209480D01*
G75*
G02*
X107013230Y-123149480I0J60000D01*
G01*
X107013230Y-122849760D01*
G75*
G02*
X107073230Y-122789760I60000J0D01*
G01*
X107624410Y-122789760D01*
G75*
G02*
X107684410Y-122849760I0J-60000D01*
G01*
X107684410Y-123149480D01*
G75*
G02*
X107624410Y-123209480I-60000J0D01*
G01*
G37*
D16*
X105911180Y-122999620D03*
G36*
G01*
X106186770Y-123859860D02*
X105635590Y-123859860D01*
G75*
G02*
X105575590Y-123799860I0J60000D01*
G01*
X105575590Y-123500140D01*
G75*
G02*
X105635590Y-123440140I60000J0D01*
G01*
X106186770Y-123440140D01*
G75*
G02*
X106246770Y-123500140I0J-60000D01*
G01*
X106246770Y-123799860D01*
G75*
G02*
X106186770Y-123859860I-60000J0D01*
G01*
G37*
G36*
G01*
X106186770Y-124510240D02*
X105635590Y-124510240D01*
G75*
G02*
X105575590Y-124450240I0J60000D01*
G01*
X105575590Y-124150520D01*
G75*
G02*
X105635590Y-124090520I60000J0D01*
G01*
X106186770Y-124090520D01*
G75*
G02*
X106246770Y-124150520I0J-60000D01*
G01*
X106246770Y-124450240D01*
G75*
G02*
X106186770Y-124510240I-60000J0D01*
G01*
G37*
G36*
G01*
X162675000Y-111360000D02*
X162465000Y-111360000D01*
G75*
G02*
X162360000Y-111255000I0J105000D01*
G01*
X162360000Y-110615000D01*
G75*
G02*
X162465000Y-110510000I105000J0D01*
G01*
X162675000Y-110510000D01*
G75*
G02*
X162780000Y-110615000I0J-105000D01*
G01*
X162780000Y-111255000D01*
G75*
G02*
X162675000Y-111360000I-105000J0D01*
G01*
G37*
G36*
G01*
X163175000Y-111360000D02*
X162965000Y-111360000D01*
G75*
G02*
X162860000Y-111255000I0J105000D01*
G01*
X162860000Y-110615000D01*
G75*
G02*
X162965000Y-110510000I105000J0D01*
G01*
X163175000Y-110510000D01*
G75*
G02*
X163280000Y-110615000I0J-105000D01*
G01*
X163280000Y-111255000D01*
G75*
G02*
X163175000Y-111360000I-105000J0D01*
G01*
G37*
G36*
G01*
X163675000Y-111360000D02*
X163465000Y-111360000D01*
G75*
G02*
X163360000Y-111255000I0J105000D01*
G01*
X163360000Y-110615000D01*
G75*
G02*
X163465000Y-110510000I105000J0D01*
G01*
X163675000Y-110510000D01*
G75*
G02*
X163780000Y-110615000I0J-105000D01*
G01*
X163780000Y-111255000D01*
G75*
G02*
X163675000Y-111360000I-105000J0D01*
G01*
G37*
G36*
G01*
X164175000Y-111360000D02*
X163965000Y-111360000D01*
G75*
G02*
X163860000Y-111255000I0J105000D01*
G01*
X163860000Y-110615000D01*
G75*
G02*
X163965000Y-110510000I105000J0D01*
G01*
X164175000Y-110510000D01*
G75*
G02*
X164280000Y-110615000I0J-105000D01*
G01*
X164280000Y-111255000D01*
G75*
G02*
X164175000Y-111360000I-105000J0D01*
G01*
G37*
G36*
G01*
X164675000Y-111360000D02*
X164465000Y-111360000D01*
G75*
G02*
X164360000Y-111255000I0J105000D01*
G01*
X164360000Y-110615000D01*
G75*
G02*
X164465000Y-110510000I105000J0D01*
G01*
X164675000Y-110510000D01*
G75*
G02*
X164780000Y-110615000I0J-105000D01*
G01*
X164780000Y-111255000D01*
G75*
G02*
X164675000Y-111360000I-105000J0D01*
G01*
G37*
G36*
G01*
X165960000Y-109865000D02*
X165960000Y-110075000D01*
G75*
G02*
X165855000Y-110180000I-105000J0D01*
G01*
X165215000Y-110180000D01*
G75*
G02*
X165110000Y-110075000I0J105000D01*
G01*
X165110000Y-109865000D01*
G75*
G02*
X165215000Y-109760000I105000J0D01*
G01*
X165855000Y-109760000D01*
G75*
G02*
X165960000Y-109865000I0J-105000D01*
G01*
G37*
G36*
G01*
X165960000Y-109365000D02*
X165960000Y-109575000D01*
G75*
G02*
X165855000Y-109680000I-105000J0D01*
G01*
X165215000Y-109680000D01*
G75*
G02*
X165110000Y-109575000I0J105000D01*
G01*
X165110000Y-109365000D01*
G75*
G02*
X165215000Y-109260000I105000J0D01*
G01*
X165855000Y-109260000D01*
G75*
G02*
X165960000Y-109365000I0J-105000D01*
G01*
G37*
G36*
G01*
X165960000Y-108865000D02*
X165960000Y-109075000D01*
G75*
G02*
X165855000Y-109180000I-105000J0D01*
G01*
X165215000Y-109180000D01*
G75*
G02*
X165110000Y-109075000I0J105000D01*
G01*
X165110000Y-108865000D01*
G75*
G02*
X165215000Y-108760000I105000J0D01*
G01*
X165855000Y-108760000D01*
G75*
G02*
X165960000Y-108865000I0J-105000D01*
G01*
G37*
G36*
G01*
X165960000Y-108365000D02*
X165960000Y-108575000D01*
G75*
G02*
X165855000Y-108680000I-105000J0D01*
G01*
X165215000Y-108680000D01*
G75*
G02*
X165110000Y-108575000I0J105000D01*
G01*
X165110000Y-108365000D01*
G75*
G02*
X165215000Y-108260000I105000J0D01*
G01*
X165855000Y-108260000D01*
G75*
G02*
X165960000Y-108365000I0J-105000D01*
G01*
G37*
G36*
G01*
X165960000Y-107865000D02*
X165960000Y-108075000D01*
G75*
G02*
X165855000Y-108180000I-105000J0D01*
G01*
X165215000Y-108180000D01*
G75*
G02*
X165110000Y-108075000I0J105000D01*
G01*
X165110000Y-107865000D01*
G75*
G02*
X165215000Y-107760000I105000J0D01*
G01*
X165855000Y-107760000D01*
G75*
G02*
X165960000Y-107865000I0J-105000D01*
G01*
G37*
G36*
G01*
X164675000Y-107430000D02*
X164465000Y-107430000D01*
G75*
G02*
X164360000Y-107325000I0J105000D01*
G01*
X164360000Y-106685000D01*
G75*
G02*
X164465000Y-106580000I105000J0D01*
G01*
X164675000Y-106580000D01*
G75*
G02*
X164780000Y-106685000I0J-105000D01*
G01*
X164780000Y-107325000D01*
G75*
G02*
X164675000Y-107430000I-105000J0D01*
G01*
G37*
G36*
G01*
X164175000Y-107430000D02*
X163965000Y-107430000D01*
G75*
G02*
X163860000Y-107325000I0J105000D01*
G01*
X163860000Y-106685000D01*
G75*
G02*
X163965000Y-106580000I105000J0D01*
G01*
X164175000Y-106580000D01*
G75*
G02*
X164280000Y-106685000I0J-105000D01*
G01*
X164280000Y-107325000D01*
G75*
G02*
X164175000Y-107430000I-105000J0D01*
G01*
G37*
G36*
G01*
X163675000Y-107430000D02*
X163465000Y-107430000D01*
G75*
G02*
X163360000Y-107325000I0J105000D01*
G01*
X163360000Y-106685000D01*
G75*
G02*
X163465000Y-106580000I105000J0D01*
G01*
X163675000Y-106580000D01*
G75*
G02*
X163780000Y-106685000I0J-105000D01*
G01*
X163780000Y-107325000D01*
G75*
G02*
X163675000Y-107430000I-105000J0D01*
G01*
G37*
G36*
G01*
X163175000Y-107430000D02*
X162965000Y-107430000D01*
G75*
G02*
X162860000Y-107325000I0J105000D01*
G01*
X162860000Y-106685000D01*
G75*
G02*
X162965000Y-106580000I105000J0D01*
G01*
X163175000Y-106580000D01*
G75*
G02*
X163280000Y-106685000I0J-105000D01*
G01*
X163280000Y-107325000D01*
G75*
G02*
X163175000Y-107430000I-105000J0D01*
G01*
G37*
G36*
G01*
X162675000Y-107430000D02*
X162465000Y-107430000D01*
G75*
G02*
X162360000Y-107325000I0J105000D01*
G01*
X162360000Y-106685000D01*
G75*
G02*
X162465000Y-106580000I105000J0D01*
G01*
X162675000Y-106580000D01*
G75*
G02*
X162780000Y-106685000I0J-105000D01*
G01*
X162780000Y-107325000D01*
G75*
G02*
X162675000Y-107430000I-105000J0D01*
G01*
G37*
G36*
G01*
X162030000Y-107865000D02*
X162030000Y-108075000D01*
G75*
G02*
X161925000Y-108180000I-105000J0D01*
G01*
X161285000Y-108180000D01*
G75*
G02*
X161180000Y-108075000I0J105000D01*
G01*
X161180000Y-107865000D01*
G75*
G02*
X161285000Y-107760000I105000J0D01*
G01*
X161925000Y-107760000D01*
G75*
G02*
X162030000Y-107865000I0J-105000D01*
G01*
G37*
G36*
G01*
X162030000Y-108365000D02*
X162030000Y-108575000D01*
G75*
G02*
X161925000Y-108680000I-105000J0D01*
G01*
X161285000Y-108680000D01*
G75*
G02*
X161180000Y-108575000I0J105000D01*
G01*
X161180000Y-108365000D01*
G75*
G02*
X161285000Y-108260000I105000J0D01*
G01*
X161925000Y-108260000D01*
G75*
G02*
X162030000Y-108365000I0J-105000D01*
G01*
G37*
G36*
G01*
X162030000Y-108865000D02*
X162030000Y-109075000D01*
G75*
G02*
X161925000Y-109180000I-105000J0D01*
G01*
X161285000Y-109180000D01*
G75*
G02*
X161180000Y-109075000I0J105000D01*
G01*
X161180000Y-108865000D01*
G75*
G02*
X161285000Y-108760000I105000J0D01*
G01*
X161925000Y-108760000D01*
G75*
G02*
X162030000Y-108865000I0J-105000D01*
G01*
G37*
G36*
G01*
X162030000Y-109365000D02*
X162030000Y-109575000D01*
G75*
G02*
X161925000Y-109680000I-105000J0D01*
G01*
X161285000Y-109680000D01*
G75*
G02*
X161180000Y-109575000I0J105000D01*
G01*
X161180000Y-109365000D01*
G75*
G02*
X161285000Y-109260000I105000J0D01*
G01*
X161925000Y-109260000D01*
G75*
G02*
X162030000Y-109365000I0J-105000D01*
G01*
G37*
G36*
G01*
X162030000Y-109865000D02*
X162030000Y-110075000D01*
G75*
G02*
X161925000Y-110180000I-105000J0D01*
G01*
X161285000Y-110180000D01*
G75*
G02*
X161180000Y-110075000I0J105000D01*
G01*
X161180000Y-109865000D01*
G75*
G02*
X161285000Y-109760000I105000J0D01*
G01*
X161925000Y-109760000D01*
G75*
G02*
X162030000Y-109865000I0J-105000D01*
G01*
G37*
D17*
X164195000Y-108345000D03*
X162945000Y-108345000D03*
X164195000Y-109595000D03*
X162945000Y-109595000D03*
D18*
X122350000Y-114000000D03*
X124350000Y-114000000D03*
X98000000Y-104340000D03*
X96000000Y-104340000D03*
X126480000Y-94490000D03*
X124480000Y-94490000D03*
X142270000Y-99270000D03*
X140270000Y-99270000D03*
X140390000Y-105600000D03*
X142390000Y-105600000D03*
X100200000Y-115890000D03*
X98200000Y-115890000D03*
X126510000Y-96670000D03*
X124510000Y-96670000D03*
X167600000Y-112780000D03*
X165600000Y-112780000D03*
D19*
X119220000Y-108630000D03*
X121120000Y-108630000D03*
D20*
X124240000Y-109820000D03*
X124240000Y-111720000D03*
X116860000Y-110200000D03*
X116860000Y-108300000D03*
X116880000Y-113510000D03*
X116880000Y-111610000D03*
D19*
X102330000Y-110420000D03*
X104230000Y-110420000D03*
X109870000Y-113180000D03*
X111770000Y-113180000D03*
X98000000Y-113360000D03*
X99900000Y-113360000D03*
D21*
X93300000Y-127000000D03*
X147500000Y-127000000D03*
X147500000Y-90000000D03*
X93300000Y-90000000D03*
D22*
X152180000Y-98050000D03*
X152180000Y-98960000D03*
X152180000Y-100120000D03*
X152180000Y-101040000D03*
X152180000Y-102210000D03*
X152180000Y-103140000D03*
X152180000Y-104080000D03*
X152180000Y-105310000D03*
X152180000Y-106220000D03*
X152180000Y-107400000D03*
X152180000Y-108340000D03*
X152180000Y-109270000D03*
X152180000Y-110470000D03*
X152180000Y-111400000D03*
X152180000Y-112570000D03*
X152180000Y-117700000D03*
X152180000Y-113490000D03*
X152180000Y-114410000D03*
X152180000Y-115630000D03*
X152180000Y-116550000D03*
X152180000Y-118600000D03*
X152180000Y-119490000D03*
D23*
X160300000Y-117570000D03*
D24*
X163070000Y-117570000D03*
D23*
X165840000Y-117570000D03*
X165840000Y-99400000D03*
D24*
X163070000Y-99400000D03*
D23*
X160300000Y-99400000D03*
G36*
G01*
X122740000Y-104480000D02*
X121940000Y-104480000D01*
G75*
G02*
X121880000Y-104420000I0J60000D01*
G01*
X121880000Y-103920000D01*
G75*
G02*
X121940000Y-103860000I60000J0D01*
G01*
X122740000Y-103860000D01*
G75*
G02*
X122800000Y-103920000I0J-60000D01*
G01*
X122800000Y-104420000D01*
G75*
G02*
X122740000Y-104480000I-60000J0D01*
G01*
G37*
G36*
G01*
X122740000Y-105380000D02*
X121940000Y-105380000D01*
G75*
G02*
X121880000Y-105320000I0J60000D01*
G01*
X121880000Y-104820000D01*
G75*
G02*
X121940000Y-104760000I60000J0D01*
G01*
X122740000Y-104760000D01*
G75*
G02*
X122800000Y-104820000I0J-60000D01*
G01*
X122800000Y-105320000D01*
G75*
G02*
X122740000Y-105380000I-60000J0D01*
G01*
G37*
G36*
G01*
X122740000Y-106280000D02*
X121940000Y-106280000D01*
G75*
G02*
X121880000Y-106220000I0J60000D01*
G01*
X121880000Y-105720000D01*
G75*
G02*
X121940000Y-105660000I60000J0D01*
G01*
X122740000Y-105660000D01*
G75*
G02*
X122800000Y-105720000I0J-60000D01*
G01*
X122800000Y-106220000D01*
G75*
G02*
X122740000Y-106280000I-60000J0D01*
G01*
G37*
G36*
G01*
X122740000Y-107180000D02*
X121940000Y-107180000D01*
G75*
G02*
X121880000Y-107120000I0J60000D01*
G01*
X121880000Y-106620000D01*
G75*
G02*
X121940000Y-106560000I60000J0D01*
G01*
X122740000Y-106560000D01*
G75*
G02*
X122800000Y-106620000I0J-60000D01*
G01*
X122800000Y-107120000D01*
G75*
G02*
X122740000Y-107180000I-60000J0D01*
G01*
G37*
G36*
G01*
X121540000Y-104480000D02*
X120740000Y-104480000D01*
G75*
G02*
X120680000Y-104420000I0J60000D01*
G01*
X120680000Y-103920000D01*
G75*
G02*
X120740000Y-103860000I60000J0D01*
G01*
X121540000Y-103860000D01*
G75*
G02*
X121600000Y-103920000I0J-60000D01*
G01*
X121600000Y-104420000D01*
G75*
G02*
X121540000Y-104480000I-60000J0D01*
G01*
G37*
G36*
G01*
X121540000Y-105380000D02*
X120740000Y-105380000D01*
G75*
G02*
X120680000Y-105320000I0J60000D01*
G01*
X120680000Y-104820000D01*
G75*
G02*
X120740000Y-104760000I60000J0D01*
G01*
X121540000Y-104760000D01*
G75*
G02*
X121600000Y-104820000I0J-60000D01*
G01*
X121600000Y-105320000D01*
G75*
G02*
X121540000Y-105380000I-60000J0D01*
G01*
G37*
G36*
G01*
X121540000Y-106280000D02*
X120740000Y-106280000D01*
G75*
G02*
X120680000Y-106220000I0J60000D01*
G01*
X120680000Y-105720000D01*
G75*
G02*
X120740000Y-105660000I60000J0D01*
G01*
X121540000Y-105660000D01*
G75*
G02*
X121600000Y-105720000I0J-60000D01*
G01*
X121600000Y-106220000D01*
G75*
G02*
X121540000Y-106280000I-60000J0D01*
G01*
G37*
G36*
G01*
X121540000Y-107180000D02*
X120740000Y-107180000D01*
G75*
G02*
X120680000Y-107120000I0J60000D01*
G01*
X120680000Y-106620000D01*
G75*
G02*
X120740000Y-106560000I60000J0D01*
G01*
X121540000Y-106560000D01*
G75*
G02*
X121600000Y-106620000I0J-60000D01*
G01*
X121600000Y-107120000D01*
G75*
G02*
X121540000Y-107180000I-60000J0D01*
G01*
G37*
D25*
X103460000Y-104800000D03*
D26*
X103460000Y-89000000D03*
D27*
X103460000Y-100730000D03*
D28*
X103460000Y-93230000D03*
D29*
X91940000Y-105706000D03*
X91940000Y-108500000D03*
X91940000Y-111294000D03*
X91940000Y-114088000D03*
X91940000Y-102912000D03*
D30*
X104580000Y-127500000D03*
D31*
X99500000Y-127500000D03*
D32*
X103070000Y-114730000D03*
D33*
X107570000Y-115730000D03*
X107570000Y-113730000D03*
D34*
G36*
X146380570Y-101844570D02*
G01*
X144379430Y-101844570D01*
X144879430Y-100343430D01*
X145880570Y-100343430D01*
X146380570Y-101844570D01*
G37*
G36*
X144368000Y-102164000D02*
G01*
X146392000Y-102164000D01*
X145892000Y-103688000D01*
X144868000Y-103688000D01*
X144368000Y-102164000D01*
G37*
D35*
X141410000Y-124210000D03*
X133610000Y-124210000D03*
X133610000Y-128710000D03*
X141410000Y-128710000D03*
D36*
X142280000Y-100980000D03*
X141330000Y-100980000D03*
X140380000Y-100980000D03*
X140380000Y-103180000D03*
X142280000Y-103180000D03*
D37*
X138930000Y-107565000D03*
X138930000Y-108835000D03*
X138930000Y-110105000D03*
X138930000Y-111375000D03*
X138930000Y-112645000D03*
X138930000Y-113915000D03*
X138930000Y-115185000D03*
X138930000Y-116455000D03*
X144330000Y-116455000D03*
X144330000Y-115185000D03*
X144330000Y-113915000D03*
X144330000Y-112645000D03*
X144330000Y-111375000D03*
X144330000Y-110105000D03*
X144330000Y-108835000D03*
X144330000Y-107565000D03*
D38*
X125250000Y-89500000D03*
D39*
X125250000Y-91400000D03*
D12*
X149520000Y-99640000D03*
D11*
X149520000Y-102180000D03*
X149520000Y-104720000D03*
X149520000Y-107260000D03*
X149520000Y-109800000D03*
X149520000Y-112340000D03*
X149520000Y-114880000D03*
X149520000Y-117420000D03*
X154710000Y-117420000D03*
X154710000Y-114880000D03*
X154710000Y-112340000D03*
X154710000Y-109800000D03*
X154710000Y-107260000D03*
X154710000Y-104720000D03*
X154710000Y-102180000D03*
D12*
X154710000Y-99640000D03*
D30*
X114430000Y-127450000D03*
D31*
X109350000Y-127450000D03*
D20*
X113850000Y-90750000D03*
X113850000Y-88850000D03*
G36*
G01*
X119970000Y-105905000D02*
X119970000Y-107155000D01*
G75*
G02*
X119910000Y-107215000I-60000J0D01*
G01*
X118910000Y-107215000D01*
G75*
G02*
X118850000Y-107155000I0J60000D01*
G01*
X118850000Y-105905000D01*
G75*
G02*
X118910000Y-105845000I60000J0D01*
G01*
X119910000Y-105845000D01*
G75*
G02*
X119970000Y-105905000I0J-60000D01*
G01*
G37*
D18*
X117410000Y-106530000D03*
D20*
X126300000Y-109820000D03*
X126300000Y-111720000D03*
D38*
X121820000Y-111220000D03*
D40*
X119920000Y-111220000D03*
D41*
X100750760Y-110110000D03*
X100750760Y-108210000D03*
X98751780Y-109160000D03*
D38*
X118240000Y-101500000D03*
D39*
X118240000Y-103400000D03*
D41*
X108779240Y-104280000D03*
X108779240Y-106180000D03*
X110778220Y-105230000D03*
D20*
X122000000Y-101730000D03*
X122000000Y-99830000D03*
D19*
X108030000Y-108140000D03*
X109930000Y-108140000D03*
X106820000Y-110240000D03*
X108720000Y-110240000D03*
D42*
X91950000Y-120010000D03*
D13*
X94490000Y-120010000D03*
X97030000Y-120010000D03*
X99570000Y-120010000D03*
D43*
X137440000Y-89585000D03*
X134440000Y-89585000D03*
D44*
X138190000Y-91335000D03*
X135190000Y-91335000D03*
X133690000Y-91335000D03*
D45*
X139590000Y-88485000D03*
X132290000Y-88485000D03*
X132290000Y-90685000D03*
X139590000Y-90685000D03*
D46*
X146215875Y-102071618D02*
X144527000Y-102054296D01*
X144527000Y-101957000D01*
X146209679Y-101957000D01*
X146215875Y-102071618D01*
D34*
G36*
X146215875Y-102071618D02*
G01*
X144527000Y-102054296D01*
X144527000Y-101957000D01*
X146209679Y-101957000D01*
X146215875Y-102071618D01*
G37*
M02*
