%FSLAX45Y45*%
G04 Gerber Fmt 4.5, Leading zero omitted, Abs format (unit mm)*
G04 Created by KiCad (PCBNEW (5.1.9-0-10_14)) date 2021-05-05 17:50:19*
%MOMM*%
%LPD*%
G01*
G04 APERTURE LIST*
%TA.AperFunction,Profile*%
%ADD10C,0.100000*%
%TD*%
%ADD11C,0.200000*%
%ADD12C,0.300000*%
G04 APERTURE END LIST*
D10*
X16950000Y-12150000D02*
X15200000Y-12150000D01*
X16950000Y-13100000D02*
X16950000Y-12150000D01*
X17250000Y-9700000D02*
X17250000Y-12000000D01*
X15200000Y-12000000D02*
X17250000Y-12000000D01*
X15200000Y-9700000D02*
X17250000Y-9700000D01*
X15200000Y-9700000D02*
X15200000Y-8600000D01*
X15200000Y-12150000D02*
X15200000Y-12000000D01*
X15200000Y-8600000D02*
X8900000Y-8600000D01*
X8900000Y-13100000D02*
X16950000Y-13100000D01*
X8900000Y-8600000D02*
X8900000Y-13100000D01*
D11*
X16202000Y-11485000D02*
X16232000Y-11515000D01*
X16232000Y-11485000D02*
X16202000Y-11515000D01*
X16235000Y-10198000D02*
X16265000Y-10228000D01*
X16265000Y-10198000D02*
X16235000Y-10228000D01*
X16235000Y-10264000D02*
X16265000Y-10294000D01*
X16265000Y-10264000D02*
X16235000Y-10294000D01*
X16235000Y-10330000D02*
X16265000Y-10360000D01*
X16265000Y-10330000D02*
X16235000Y-10360000D01*
X16235000Y-10397000D02*
X16265000Y-10427000D01*
X16265000Y-10397000D02*
X16235000Y-10427000D01*
X16235000Y-10463000D02*
X16265000Y-10493000D01*
X16265000Y-10463000D02*
X16235000Y-10493000D01*
X16235000Y-10529000D02*
X16265000Y-10559000D01*
X16265000Y-10529000D02*
X16235000Y-10559000D01*
X16235000Y-11188000D02*
X16265000Y-11218000D01*
X16265000Y-11188000D02*
X16235000Y-11218000D01*
X16235000Y-11250000D02*
X16265000Y-11280000D01*
X16265000Y-11250000D02*
X16235000Y-11280000D01*
X16235000Y-11312000D02*
X16265000Y-11342000D01*
X16265000Y-11312000D02*
X16235000Y-11342000D01*
X16235000Y-11374000D02*
X16265000Y-11404000D01*
X16265000Y-11374000D02*
X16235000Y-11404000D01*
X16235000Y-11436000D02*
X16265000Y-11466000D01*
X16265000Y-11436000D02*
X16235000Y-11466000D01*
X16253000Y-10794000D02*
X16283000Y-10824000D01*
X16283000Y-10794000D02*
X16253000Y-10824000D01*
X16253000Y-10970000D02*
X16283000Y-11000000D01*
X16283000Y-10970000D02*
X16253000Y-11000000D01*
X16255000Y-10881000D02*
X16285000Y-10911000D01*
X16285000Y-10881000D02*
X16255000Y-10911000D01*
X16343000Y-10793000D02*
X16373000Y-10823000D01*
X16373000Y-10793000D02*
X16343000Y-10823000D01*
X16343000Y-10882000D02*
X16373000Y-10912000D01*
X16373000Y-10882000D02*
X16343000Y-10912000D01*
X16344000Y-10971000D02*
X16374000Y-11001000D01*
X16374000Y-10971000D02*
X16344000Y-11001000D01*
X16349000Y-10214000D02*
X16379000Y-10244000D01*
X16379000Y-10214000D02*
X16349000Y-10244000D01*
X16349000Y-10281000D02*
X16379000Y-10311000D01*
X16379000Y-10281000D02*
X16349000Y-10311000D01*
X16349000Y-10347000D02*
X16379000Y-10377000D01*
X16379000Y-10347000D02*
X16349000Y-10377000D01*
X16349000Y-10462000D02*
X16379000Y-10492000D01*
X16379000Y-10462000D02*
X16349000Y-10492000D01*
X16349000Y-11188000D02*
X16379000Y-11218000D01*
X16379000Y-11188000D02*
X16349000Y-11218000D01*
X16349000Y-11250000D02*
X16379000Y-11280000D01*
X16379000Y-11250000D02*
X16349000Y-11280000D01*
X16349000Y-11312000D02*
X16379000Y-11342000D01*
X16379000Y-11312000D02*
X16349000Y-11342000D01*
X16349000Y-11374000D02*
X16379000Y-11404000D01*
X16379000Y-11374000D02*
X16349000Y-11404000D01*
X16350000Y-10528000D02*
X16380000Y-10558000D01*
X16380000Y-10528000D02*
X16350000Y-10558000D01*
X16350000Y-11437000D02*
X16380000Y-11467000D01*
X16380000Y-11437000D02*
X16350000Y-11467000D01*
X16386000Y-11485000D02*
X16416000Y-11515000D01*
X16416000Y-11485000D02*
X16386000Y-11515000D01*
X16397000Y-10577000D02*
X16427000Y-10607000D01*
X16427000Y-10577000D02*
X16397000Y-10607000D01*
X16415000Y-10347000D02*
X16445000Y-10377000D01*
X16445000Y-10347000D02*
X16415000Y-10377000D01*
X16415000Y-10462000D02*
X16445000Y-10492000D01*
X16445000Y-10462000D02*
X16415000Y-10492000D01*
X16430000Y-10971000D02*
X16460000Y-11001000D01*
X16460000Y-10971000D02*
X16430000Y-11001000D01*
X16431000Y-10883000D02*
X16461000Y-10913000D01*
X16461000Y-10883000D02*
X16431000Y-10913000D01*
X16432000Y-10793000D02*
X16462000Y-10823000D01*
X16462000Y-10793000D02*
X16432000Y-10823000D01*
X16481000Y-10347000D02*
X16511000Y-10377000D01*
X16511000Y-10347000D02*
X16481000Y-10377000D01*
X16481000Y-10462000D02*
X16511000Y-10492000D01*
X16511000Y-10462000D02*
X16481000Y-10492000D01*
X16547000Y-10347000D02*
X16577000Y-10377000D01*
X16577000Y-10347000D02*
X16547000Y-10377000D01*
X16547000Y-10462000D02*
X16577000Y-10492000D01*
X16577000Y-10462000D02*
X16547000Y-10492000D01*
X16613000Y-10347000D02*
X16643000Y-10377000D01*
X16643000Y-10347000D02*
X16613000Y-10377000D01*
X16613000Y-10463000D02*
X16643000Y-10493000D01*
X16643000Y-10463000D02*
X16613000Y-10493000D01*
X16679000Y-10347000D02*
X16709000Y-10377000D01*
X16709000Y-10347000D02*
X16679000Y-10377000D01*
X16679000Y-10463000D02*
X16709000Y-10493000D01*
X16709000Y-10463000D02*
X16679000Y-10493000D01*
X9071000Y-11557700D02*
G75*
G03*
X9071000Y-11557700I-20000J0D01*
G01*
X9071000Y-11681000D02*
G75*
G03*
X9071000Y-11681000I-20000J0D01*
G01*
X9071000Y-11809000D02*
G75*
G03*
X9071000Y-11809000I-20000J0D01*
G01*
X9248000Y-11557700D02*
G75*
G03*
X9248000Y-11557700I-20000J0D01*
G01*
X9444000Y-11557700D02*
G75*
G03*
X9444000Y-11557700I-20000J0D01*
G01*
X9544673Y-11357943D02*
G75*
G03*
X9544673Y-11357943I-20000J0D01*
G01*
X9590299Y-11029808D02*
G75*
G03*
X9590299Y-11029808I-20000J0D01*
G01*
X9600000Y-11264000D02*
G75*
G03*
X9600000Y-11264000I-20000J0D01*
G01*
X9617000Y-11427000D02*
G75*
G03*
X9617000Y-11427000I-20000J0D01*
G01*
X9649000Y-10678000D02*
G75*
G03*
X9649000Y-10678000I-20000J0D01*
G01*
X9703000Y-11374000D02*
G75*
G03*
X9703000Y-11374000I-20000J0D01*
G01*
X9715000Y-11043001D02*
G75*
G03*
X9715000Y-11043001I-20000J0D01*
G01*
X9721798Y-11188002D02*
G75*
G03*
X9721798Y-11188002I-20000J0D01*
G01*
X9747000Y-10591000D02*
G75*
G03*
X9747000Y-10591000I-20000J0D01*
G01*
X9793000Y-10709000D02*
G75*
G03*
X9793000Y-10709000I-20000J0D01*
G01*
X9881132Y-10779846D02*
G75*
G03*
X9881132Y-10779846I-20000J0D01*
G01*
X9944000Y-11469000D02*
G75*
G03*
X9944000Y-11469000I-20000J0D01*
G01*
X9983386Y-10625146D02*
G75*
G03*
X9983386Y-10625146I-20000J0D01*
G01*
X9992000Y-10822000D02*
G75*
G03*
X9992000Y-10822000I-20000J0D01*
G01*
X10006002Y-10921015D02*
G75*
G03*
X10006002Y-10921015I-20000J0D01*
G01*
X10011234Y-10392234D02*
G75*
G03*
X10011234Y-10392234I-20000J0D01*
G01*
X10047609Y-10560923D02*
G75*
G03*
X10047609Y-10560923I-20000J0D01*
G01*
X10185000Y-11927000D02*
G75*
G03*
X10185000Y-11927000I-20000J0D01*
G01*
X10222000Y-10724000D02*
G75*
G03*
X10222000Y-10724000I-20000J0D01*
G01*
X10222000Y-10844000D02*
G75*
G03*
X10222000Y-10844000I-20000J0D01*
G01*
X10324735Y-10808265D02*
G75*
G03*
X10324735Y-10808265I-20000J0D01*
G01*
X10418000Y-11183000D02*
G75*
G03*
X10418000Y-11183000I-20000J0D01*
G01*
X10447735Y-10722735D02*
G75*
G03*
X10447735Y-10722735I-20000J0D01*
G01*
X10451000Y-11624000D02*
G75*
G03*
X10451000Y-11624000I-20000J0D01*
G01*
X10548765Y-10827235D02*
G75*
G03*
X10548765Y-10827235I-20000J0D01*
G01*
X10555000Y-11178000D02*
G75*
G03*
X10555000Y-11178000I-20000J0D01*
G01*
X10628265Y-10906735D02*
G75*
G03*
X10628265Y-10906735I-20000J0D01*
G01*
X10662000Y-11700000D02*
G75*
G03*
X10662000Y-11700000I-20000J0D01*
G01*
X10708000Y-11258500D02*
G75*
G03*
X10708000Y-11258500I-20000J0D01*
G01*
X10752000Y-9547000D02*
G75*
G03*
X10752000Y-9547000I-20000J0D01*
G01*
X10774500Y-10686000D02*
G75*
G03*
X10774500Y-10686000I-20000J0D01*
G01*
X10813000Y-11693000D02*
G75*
G03*
X10813000Y-11693000I-20000J0D01*
G01*
X10836000Y-8902000D02*
G75*
G03*
X10836000Y-8902000I-20000J0D01*
G01*
X10853000Y-11258500D02*
G75*
G03*
X10853000Y-11258500I-20000J0D01*
G01*
X10949000Y-10155000D02*
G75*
G03*
X10949000Y-10155000I-20000J0D01*
G01*
X10997932Y-10601000D02*
G75*
G03*
X10997932Y-10601000I-20000J0D01*
G01*
X11018001Y-10438110D02*
G75*
G03*
X11018001Y-10438110I-20000J0D01*
G01*
X11079000Y-11593500D02*
G75*
G03*
X11079000Y-11593500I-20000J0D01*
G01*
X11079000Y-11806000D02*
G75*
G03*
X11079000Y-11806000I-20000J0D01*
G01*
X11114000Y-10909000D02*
G75*
G03*
X11114000Y-10909000I-20000J0D01*
G01*
X11184000Y-10424500D02*
G75*
G03*
X11184000Y-10424500I-20000J0D01*
G01*
X11556000Y-11116000D02*
G75*
G03*
X11556000Y-11116000I-20000J0D01*
G01*
X11774000Y-12106000D02*
G75*
G03*
X11774000Y-12106000I-20000J0D01*
G01*
X11837000Y-10517000D02*
G75*
G03*
X11837000Y-10517000I-20000J0D01*
G01*
X11914000Y-11998000D02*
G75*
G03*
X11914000Y-11998000I-20000J0D01*
G01*
X11959000Y-9964000D02*
G75*
G03*
X11959000Y-9964000I-20000J0D01*
G01*
X12034408Y-10238060D02*
G75*
G03*
X12034408Y-10238060I-20000J0D01*
G01*
X12054000Y-10040500D02*
G75*
G03*
X12054000Y-10040500I-20000J0D01*
G01*
X12081000Y-9931500D02*
G75*
G03*
X12081000Y-9931500I-20000J0D01*
G01*
X12107582Y-11007000D02*
G75*
G03*
X12107582Y-11007000I-20000J0D01*
G01*
X12168000Y-10329500D02*
G75*
G03*
X12168000Y-10329500I-20000J0D01*
G01*
X12241831Y-10783090D02*
G75*
G03*
X12241831Y-10783090I-20000J0D01*
G01*
X12293000Y-10968000D02*
G75*
G03*
X12293000Y-10968000I-20000J0D01*
G01*
X12302000Y-9203000D02*
G75*
G03*
X12302000Y-9203000I-20000J0D01*
G01*
X12345649Y-10207854D02*
G75*
G03*
X12345649Y-10207854I-20000J0D01*
G01*
X12354846Y-10842514D02*
G75*
G03*
X12354846Y-10842514I-20000J0D01*
G01*
X12371000Y-11920000D02*
G75*
G03*
X12371000Y-11920000I-20000J0D01*
G01*
X12384338Y-10288000D02*
G75*
G03*
X12384338Y-10288000I-20000J0D01*
G01*
X12403000Y-12425000D02*
G75*
G03*
X12403000Y-12425000I-20000J0D01*
G01*
X12405000Y-10756000D02*
G75*
G03*
X12405000Y-10756000I-20000J0D01*
G01*
X12430000Y-10639000D02*
G75*
G03*
X12430000Y-10639000I-20000J0D01*
G01*
X12560000Y-11081000D02*
G75*
G03*
X12560000Y-11081000I-20000J0D01*
G01*
X12673265Y-10898265D02*
G75*
G03*
X12673265Y-10898265I-20000J0D01*
G01*
X12688000Y-11878000D02*
G75*
G03*
X12688000Y-11878000I-20000J0D01*
G01*
X12750000Y-9992000D02*
G75*
G03*
X12750000Y-9992000I-20000J0D01*
G01*
X13082500Y-10103000D02*
G75*
G03*
X13082500Y-10103000I-20000J0D01*
G01*
X13155000Y-10320000D02*
G75*
G03*
X13155000Y-10320000I-20000J0D01*
G01*
X13222000Y-11996000D02*
G75*
G03*
X13222000Y-11996000I-20000J0D01*
G01*
X13254734Y-10463734D02*
G75*
G03*
X13254734Y-10463734I-20000J0D01*
G01*
X13308000Y-12270000D02*
G75*
G03*
X13308000Y-12270000I-20000J0D01*
G01*
X13327235Y-10824235D02*
G75*
G03*
X13327235Y-10824235I-20000J0D01*
G01*
X13335000Y-10623000D02*
G75*
G03*
X13335000Y-10623000I-20000J0D01*
G01*
X13358000Y-11042000D02*
G75*
G03*
X13358000Y-11042000I-20000J0D01*
G01*
X13387000Y-11413000D02*
G75*
G03*
X13387000Y-11413000I-20000J0D01*
G01*
X13387000Y-11804000D02*
G75*
G03*
X13387000Y-11804000I-20000J0D01*
G01*
X13389000Y-11277000D02*
G75*
G03*
X13389000Y-11277000I-20000J0D01*
G01*
X13391000Y-11559000D02*
G75*
G03*
X13391000Y-11559000I-20000J0D01*
G01*
X13391000Y-11682000D02*
G75*
G03*
X13391000Y-11682000I-20000J0D01*
G01*
X13448000Y-10932000D02*
G75*
G03*
X13448000Y-10932000I-20000J0D01*
G01*
X13457000Y-9299000D02*
G75*
G03*
X13457000Y-9299000I-20000J0D01*
G01*
X13465000Y-11956000D02*
G75*
G03*
X13465000Y-11956000I-20000J0D01*
G01*
X13540000Y-11325000D02*
G75*
G03*
X13540000Y-11325000I-20000J0D01*
G01*
X13545000Y-11798000D02*
G75*
G03*
X13545000Y-11798000I-20000J0D01*
G01*
X13571000Y-9876000D02*
G75*
G03*
X13571000Y-9876000I-20000J0D01*
G01*
X13574000Y-10814000D02*
G75*
G03*
X13574000Y-10814000I-20000J0D01*
G01*
X13626000Y-11661000D02*
G75*
G03*
X13626000Y-11661000I-20000J0D01*
G01*
X13665000Y-11059000D02*
G75*
G03*
X13665000Y-11059000I-20000J0D01*
G01*
X13683000Y-10366000D02*
G75*
G03*
X13683000Y-10366000I-20000J0D01*
G01*
X13694000Y-10838000D02*
G75*
G03*
X13694000Y-10838000I-20000J0D01*
G01*
X13731000Y-10102000D02*
G75*
G03*
X13731000Y-10102000I-20000J0D01*
G01*
X13739000Y-11555000D02*
G75*
G03*
X13739000Y-11555000I-20000J0D01*
G01*
X13739000Y-12044000D02*
G75*
G03*
X13739000Y-12044000I-20000J0D01*
G01*
X13903000Y-9808000D02*
G75*
G03*
X13903000Y-9808000I-20000J0D01*
G01*
X14416000Y-11780000D02*
G75*
G03*
X14416000Y-11780000I-20000J0D01*
G01*
X14487000Y-10463000D02*
G75*
G03*
X14487000Y-10463000I-20000J0D01*
G01*
X14536957Y-10549628D02*
G75*
G03*
X14536957Y-10549628I-20000J0D01*
G01*
X14537000Y-11903000D02*
G75*
G03*
X14537000Y-11903000I-20000J0D01*
G01*
X14609000Y-10624000D02*
G75*
G03*
X14609000Y-10624000I-20000J0D01*
G01*
X14609000Y-10958000D02*
G75*
G03*
X14609000Y-10958000I-20000J0D01*
G01*
X14691500Y-10775500D02*
G75*
G03*
X14691500Y-10775500I-20000J0D01*
G01*
X14764000Y-10980000D02*
G75*
G03*
X14764000Y-10980000I-20000J0D01*
G01*
X14789000Y-10836000D02*
G75*
G03*
X14789000Y-10836000I-20000J0D01*
G01*
X14849000Y-11104000D02*
G75*
G03*
X14849000Y-11104000I-20000J0D01*
G01*
X14853000Y-11362000D02*
G75*
G03*
X14853000Y-11362000I-20000J0D01*
G01*
X15072000Y-11984000D02*
G75*
G03*
X15072000Y-11984000I-20000J0D01*
G01*
X15090000Y-11104000D02*
G75*
G03*
X15090000Y-11104000I-20000J0D01*
G01*
X15092000Y-10852000D02*
G75*
G03*
X15092000Y-10852000I-20000J0D01*
G01*
X15099000Y-10596000D02*
G75*
G03*
X15099000Y-10596000I-20000J0D01*
G01*
X15102000Y-10343000D02*
G75*
G03*
X15102000Y-10343000I-20000J0D01*
G01*
X15104000Y-10099000D02*
G75*
G03*
X15104000Y-10099000I-20000J0D01*
G01*
X15330000Y-9795000D02*
G75*
G03*
X15330000Y-9795000I-20000J0D01*
G01*
X15342000Y-10110000D02*
G75*
G03*
X15342000Y-10110000I-20000J0D01*
G01*
X15348000Y-10840000D02*
G75*
G03*
X15348000Y-10840000I-20000J0D01*
G01*
X15356000Y-11355000D02*
G75*
G03*
X15356000Y-11355000I-20000J0D01*
G01*
X15356000Y-11605000D02*
G75*
G03*
X15356000Y-11605000I-20000J0D01*
G01*
X15356000Y-11873000D02*
G75*
G03*
X15356000Y-11873000I-20000J0D01*
G01*
X15363000Y-11101000D02*
G75*
G03*
X15363000Y-11101000I-20000J0D01*
G01*
X15371000Y-10594000D02*
G75*
G03*
X15371000Y-10594000I-20000J0D01*
G01*
X15374861Y-10336861D02*
G75*
G03*
X15374861Y-10336861I-20000J0D01*
G01*
X15445000Y-9795000D02*
G75*
G03*
X15445000Y-9795000I-20000J0D01*
G01*
X15464000Y-11892000D02*
G75*
G03*
X15464000Y-11892000I-20000J0D01*
G01*
X15546000Y-9795000D02*
G75*
G03*
X15546000Y-9795000I-20000J0D01*
G01*
X15587000Y-11892000D02*
G75*
G03*
X15587000Y-11892000I-20000J0D01*
G01*
X15674000Y-9814000D02*
G75*
G03*
X15674000Y-9814000I-20000J0D01*
G01*
X15684000Y-11770000D02*
G75*
G03*
X15684000Y-11770000I-20000J0D01*
G01*
X15697000Y-11889000D02*
G75*
G03*
X15697000Y-11889000I-20000J0D01*
G01*
X15699885Y-11650885D02*
G75*
G03*
X15699885Y-11650885I-20000J0D01*
G01*
X15703000Y-11422000D02*
G75*
G03*
X15703000Y-11422000I-20000J0D01*
G01*
X15800000Y-11321000D02*
G75*
G03*
X15800000Y-11321000I-20000J0D01*
G01*
X15803000Y-9811000D02*
G75*
G03*
X15803000Y-9811000I-20000J0D01*
G01*
X15806000Y-11889000D02*
G75*
G03*
X15806000Y-11889000I-20000J0D01*
G01*
X15912000Y-11566000D02*
G75*
G03*
X15912000Y-11566000I-20000J0D01*
G01*
X15912000Y-11678000D02*
G75*
G03*
X15912000Y-11678000I-20000J0D01*
G01*
X15917000Y-10443000D02*
G75*
G03*
X15917000Y-10443000I-20000J0D01*
G01*
X15918000Y-11777000D02*
G75*
G03*
X15918000Y-11777000I-20000J0D01*
G01*
X15928000Y-9811000D02*
G75*
G03*
X15928000Y-9811000I-20000J0D01*
G01*
X15928000Y-11893000D02*
G75*
G03*
X15928000Y-11893000I-20000J0D01*
G01*
X15938000Y-10052000D02*
G75*
G03*
X15938000Y-10052000I-20000J0D01*
G01*
X15961764Y-10934764D02*
G75*
G03*
X15961764Y-10934764I-20000J0D01*
G01*
X15975000Y-11303000D02*
G75*
G03*
X15975000Y-11303000I-20000J0D01*
G01*
X15978000Y-11463000D02*
G75*
G03*
X15978000Y-11463000I-20000J0D01*
G01*
X15991000Y-10256000D02*
G75*
G03*
X15991000Y-10256000I-20000J0D01*
G01*
X16077000Y-11155000D02*
G75*
G03*
X16077000Y-11155000I-20000J0D01*
G01*
X16085000Y-11267500D02*
G75*
G03*
X16085000Y-11267500I-20000J0D01*
G01*
X16110000Y-11467000D02*
G75*
G03*
X16110000Y-11467000I-20000J0D01*
G01*
X16113000Y-11374000D02*
G75*
G03*
X16113000Y-11374000I-20000J0D01*
G01*
X16146000Y-10267000D02*
G75*
G03*
X16146000Y-10267000I-20000J0D01*
G01*
X16160000Y-11080000D02*
G75*
G03*
X16160000Y-11080000I-20000J0D01*
G01*
X16503000Y-10263000D02*
G75*
G03*
X16503000Y-10263000I-20000J0D01*
G01*
X16549000Y-11437000D02*
G75*
G03*
X16549000Y-11437000I-20000J0D01*
G01*
X16572000Y-10712000D02*
G75*
G03*
X16572000Y-10712000I-20000J0D01*
G01*
X16625000Y-10260000D02*
G75*
G03*
X16625000Y-10260000I-20000J0D01*
G01*
X16665000Y-11440000D02*
G75*
G03*
X16665000Y-11440000I-20000J0D01*
G01*
X16671994Y-11066383D02*
G75*
G03*
X16671994Y-11066383I-20000J0D01*
G01*
X16673000Y-10851000D02*
G75*
G03*
X16673000Y-10851000I-20000J0D01*
G01*
X16673000Y-10965000D02*
G75*
G03*
X16673000Y-10965000I-20000J0D01*
G01*
X16697000Y-10722000D02*
G75*
G03*
X16697000Y-10722000I-20000J0D01*
G01*
X16734000Y-9920000D02*
G75*
G03*
X16734000Y-9920000I-20000J0D01*
G01*
X16734000Y-10052000D02*
G75*
G03*
X16734000Y-10052000I-20000J0D01*
G01*
X16737000Y-9786000D02*
G75*
G03*
X16737000Y-9786000I-20000J0D01*
G01*
X16741000Y-10174000D02*
G75*
G03*
X16741000Y-10174000I-20000J0D01*
G01*
X16744000Y-11543000D02*
G75*
G03*
X16744000Y-11543000I-20000J0D01*
G01*
X16750000Y-11671000D02*
G75*
G03*
X16750000Y-11671000I-20000J0D01*
G01*
X16754000Y-11784000D02*
G75*
G03*
X16754000Y-11784000I-20000J0D01*
G01*
X16760000Y-11896000D02*
G75*
G03*
X16760000Y-11896000I-20000J0D01*
G01*
X16896000Y-9786000D02*
G75*
G03*
X16896000Y-9786000I-20000J0D01*
G01*
X16898000Y-11894000D02*
G75*
G03*
X16898000Y-11894000I-20000J0D01*
G01*
X16900000Y-11178000D02*
G75*
G03*
X16900000Y-11178000I-20000J0D01*
G01*
X17047000Y-9787000D02*
G75*
G03*
X17047000Y-9787000I-20000J0D01*
G01*
X17052000Y-11898000D02*
G75*
G03*
X17052000Y-11898000I-20000J0D01*
G01*
X17189573Y-11071306D02*
G75*
G03*
X17189573Y-11071306I-20000J0D01*
G01*
X17191000Y-11184000D02*
G75*
G03*
X17191000Y-11184000I-20000J0D01*
G01*
X17191000Y-10827000D02*
G75*
G03*
X17191000Y-10827000I-20000J0D01*
G01*
X17191000Y-10953000D02*
G75*
G03*
X17191000Y-10953000I-20000J0D01*
G01*
X17194000Y-11433000D02*
G75*
G03*
X17194000Y-11433000I-20000J0D01*
G01*
X17194000Y-11687000D02*
G75*
G03*
X17194000Y-11687000I-20000J0D01*
G01*
X17194000Y-11803000D02*
G75*
G03*
X17194000Y-11803000I-20000J0D01*
G01*
X17194000Y-11902000D02*
G75*
G03*
X17194000Y-11902000I-20000J0D01*
G01*
X17196000Y-9788000D02*
G75*
G03*
X17196000Y-9788000I-20000J0D01*
G01*
X17197000Y-11314000D02*
G75*
G03*
X17197000Y-11314000I-20000J0D01*
G01*
X17197000Y-11555000D02*
G75*
G03*
X17197000Y-11555000I-20000J0D01*
G01*
X17203000Y-9907000D02*
G75*
G03*
X17203000Y-9907000I-20000J0D01*
G01*
X17206000Y-10026000D02*
G75*
G03*
X17206000Y-10026000I-20000J0D01*
G01*
X9195000Y-11950200D02*
X9195000Y-12051800D01*
X9144200Y-12001000D02*
X9245800Y-12001000D01*
X9449000Y-11950200D02*
X9449000Y-12051800D01*
X9398200Y-12001000D02*
X9499800Y-12001000D01*
X9703000Y-11950200D02*
X9703000Y-12051800D01*
X9652200Y-12001000D02*
X9753800Y-12001000D01*
X9957000Y-11950200D02*
X9957000Y-12051800D01*
X9906200Y-12001000D02*
X10007800Y-12001000D01*
X11409510Y-9663740D02*
X11409510Y-9765340D01*
X11358710Y-9714540D02*
X11460310Y-9714540D01*
X11409510Y-9917740D02*
X11409510Y-10019340D01*
X11358710Y-9968540D02*
X11460310Y-9968540D01*
X11409510Y-10171740D02*
X11409510Y-10273340D01*
X11358710Y-10222540D02*
X11460310Y-10222540D01*
X11409510Y-10425740D02*
X11409510Y-10527340D01*
X11358710Y-10476540D02*
X11460310Y-10476540D01*
X11409510Y-10679740D02*
X11409510Y-10781340D01*
X11358710Y-10730540D02*
X11460310Y-10730540D01*
X11409510Y-10933740D02*
X11409510Y-11035340D01*
X11358710Y-10984540D02*
X11460310Y-10984540D01*
X11409510Y-11187740D02*
X11409510Y-11289340D01*
X11358710Y-11238540D02*
X11460310Y-11238540D01*
X11409510Y-11441740D02*
X11409510Y-11543340D01*
X11358710Y-11492540D02*
X11460310Y-11492540D01*
X11409510Y-11695740D02*
X11409510Y-11797340D01*
X11358710Y-11746540D02*
X11460310Y-11746540D01*
X11409510Y-11947200D02*
X11409510Y-12048800D01*
X11358710Y-11998000D02*
X11460310Y-11998000D01*
X11409510Y-12201200D02*
X11409510Y-12302800D01*
X11358710Y-12252000D02*
X11460310Y-12252000D01*
X11410000Y-9409740D02*
X11410000Y-9511340D01*
X11359200Y-9460540D02*
X11460800Y-9460540D01*
X11542685Y-9155715D02*
X11542685Y-9257315D01*
X11491885Y-9206515D02*
X11593485Y-9206515D01*
X12172000Y-12201200D02*
X12172000Y-12302800D01*
X12121200Y-12252000D02*
X12222800Y-12252000D01*
X12427000Y-12201200D02*
X12427000Y-12302800D01*
X12376200Y-12252000D02*
X12477800Y-12252000D01*
X12643000Y-10296200D02*
X12643000Y-10397800D01*
X12592200Y-10347000D02*
X12693800Y-10347000D01*
X12643000Y-10550200D02*
X12643000Y-10651800D01*
X12592200Y-10601000D02*
X12693800Y-10601000D01*
X12643000Y-11312200D02*
X12643000Y-11413800D01*
X12592200Y-11363000D02*
X12693800Y-11363000D01*
X12643000Y-11566200D02*
X12643000Y-11667800D01*
X12592200Y-11617000D02*
X12693800Y-11617000D01*
X12681000Y-12201200D02*
X12681000Y-12302800D01*
X12630200Y-12252000D02*
X12731800Y-12252000D01*
X12801285Y-9155715D02*
X12801285Y-9257315D01*
X12750485Y-9206515D02*
X12852085Y-9206515D01*
X12934000Y-9407200D02*
X12934000Y-9508800D01*
X12883200Y-9458000D02*
X12984800Y-9458000D01*
X12935000Y-9661200D02*
X12935000Y-9762800D01*
X12884200Y-9712000D02*
X12985800Y-9712000D01*
X12935000Y-9915200D02*
X12935000Y-10016800D01*
X12884200Y-9966000D02*
X12985800Y-9966000D01*
X12935000Y-10169200D02*
X12935000Y-10270800D01*
X12884200Y-10220000D02*
X12985800Y-10220000D01*
X12935000Y-10423200D02*
X12935000Y-10524800D01*
X12884200Y-10474000D02*
X12985800Y-10474000D01*
X12935000Y-10677200D02*
X12935000Y-10778800D01*
X12884200Y-10728000D02*
X12985800Y-10728000D01*
X12935000Y-10931200D02*
X12935000Y-11032800D01*
X12884200Y-10982000D02*
X12985800Y-10982000D01*
X12935000Y-11185200D02*
X12935000Y-11286800D01*
X12884200Y-11236000D02*
X12985800Y-11236000D01*
X12935000Y-11439200D02*
X12935000Y-11540800D01*
X12884200Y-11490000D02*
X12985800Y-11490000D01*
X12935000Y-11693200D02*
X12935000Y-11794800D01*
X12884200Y-11744000D02*
X12985800Y-11744000D01*
X12935000Y-11947200D02*
X12935000Y-12048800D01*
X12884200Y-11998000D02*
X12985800Y-11998000D01*
X12935000Y-12201200D02*
X12935000Y-12302800D01*
X12884200Y-12252000D02*
X12985800Y-12252000D01*
X13502000Y-9530200D02*
X13502000Y-9631800D01*
X13451200Y-9581000D02*
X13552800Y-9581000D01*
X13756000Y-9530200D02*
X13756000Y-9631800D01*
X13705200Y-9581000D02*
X13806800Y-9581000D01*
X14010000Y-9530200D02*
X14010000Y-9631800D01*
X13959200Y-9581000D02*
X14060800Y-9581000D01*
X14264000Y-9530200D02*
X14264000Y-9631800D01*
X14213200Y-9581000D02*
X14314800Y-9581000D01*
X14952000Y-9913200D02*
X14952000Y-10014800D01*
X14901200Y-9964000D02*
X15002800Y-9964000D01*
X14952000Y-10167200D02*
X14952000Y-10268800D01*
X14901200Y-10218000D02*
X15002800Y-10218000D01*
X14952000Y-10421200D02*
X14952000Y-10522800D01*
X14901200Y-10472000D02*
X15002800Y-10472000D01*
X14952000Y-10675200D02*
X14952000Y-10776800D01*
X14901200Y-10726000D02*
X15002800Y-10726000D01*
X14952000Y-10929200D02*
X14952000Y-11030800D01*
X14901200Y-10980000D02*
X15002800Y-10980000D01*
X14952000Y-11183200D02*
X14952000Y-11284800D01*
X14901200Y-11234000D02*
X15002800Y-11234000D01*
X14952000Y-11437200D02*
X14952000Y-11538800D01*
X14901200Y-11488000D02*
X15002800Y-11488000D01*
X14952000Y-11691200D02*
X14952000Y-11792800D01*
X14901200Y-11742000D02*
X15002800Y-11742000D01*
X15471000Y-9913200D02*
X15471000Y-10014800D01*
X15420200Y-9964000D02*
X15521800Y-9964000D01*
X15471000Y-10167200D02*
X15471000Y-10268800D01*
X15420200Y-10218000D02*
X15521800Y-10218000D01*
X15471000Y-10421200D02*
X15471000Y-10522800D01*
X15420200Y-10472000D02*
X15521800Y-10472000D01*
X15471000Y-10675200D02*
X15471000Y-10776800D01*
X15420200Y-10726000D02*
X15521800Y-10726000D01*
X15471000Y-10929200D02*
X15471000Y-11030800D01*
X15420200Y-10980000D02*
X15521800Y-10980000D01*
X15471000Y-11183200D02*
X15471000Y-11284800D01*
X15420200Y-11234000D02*
X15521800Y-11234000D01*
X15471000Y-11437200D02*
X15471000Y-11538800D01*
X15420200Y-11488000D02*
X15521800Y-11488000D01*
X15471000Y-11691200D02*
X15471000Y-11792800D01*
X15420200Y-11742000D02*
X15521800Y-11742000D01*
X15486000Y-12264200D02*
X15486000Y-12365800D01*
X15435200Y-12315000D02*
X15536800Y-12315000D01*
X15740000Y-12264200D02*
X15740000Y-12365800D01*
X15689200Y-12315000D02*
X15790800Y-12315000D01*
X15994000Y-12264200D02*
X15994000Y-12365800D01*
X15943200Y-12315000D02*
X16044800Y-12315000D01*
X16248000Y-12264200D02*
X16248000Y-12365800D01*
X16197200Y-12315000D02*
X16298800Y-12315000D01*
X16502000Y-12264200D02*
X16502000Y-12365800D01*
X16451200Y-12315000D02*
X16552800Y-12315000D01*
X16756000Y-12264200D02*
X16756000Y-12365800D01*
X16705200Y-12315000D02*
X16806800Y-12315000D01*
X10003074Y-12803074D02*
X10003074Y-12696926D01*
X9896926Y-12696926D01*
X9896926Y-12803074D01*
X10003074Y-12803074D01*
X10511074Y-12803074D02*
X10511074Y-12696926D01*
X10404926Y-12696926D01*
X10404926Y-12803074D01*
X10511074Y-12803074D01*
X10988074Y-12798074D02*
X10988074Y-12691926D01*
X10881926Y-12691926D01*
X10881926Y-12798074D01*
X10988074Y-12798074D01*
X11496074Y-12798074D02*
X11496074Y-12691926D01*
X11389926Y-12691926D01*
X11389926Y-12798074D01*
X11496074Y-12798074D01*
X9330000Y-9200000D02*
X9530000Y-9000000D01*
X9330000Y-8800000D01*
X9130000Y-9000000D01*
X9330000Y-9200000D01*
X9330000Y-12900000D02*
X9530000Y-12700000D01*
X9330000Y-12500000D01*
X9130000Y-12700000D01*
X9330000Y-12900000D01*
X14750000Y-9200000D02*
X14950000Y-9000000D01*
X14750000Y-8800000D01*
X14550000Y-9000000D01*
X14750000Y-9200000D01*
X14750000Y-12900000D02*
X14950000Y-12700000D01*
X14750000Y-12500000D01*
X14550000Y-12700000D01*
X14750000Y-12900000D01*
D12*
X9181428Y-13570714D02*
X9181428Y-13270714D01*
X9252857Y-13270714D01*
X9295714Y-13285000D01*
X9324286Y-13313571D01*
X9338571Y-13342143D01*
X9352857Y-13399286D01*
X9352857Y-13442143D01*
X9338571Y-13499286D01*
X9324286Y-13527857D01*
X9295714Y-13556429D01*
X9252857Y-13570714D01*
X9181428Y-13570714D01*
X9481428Y-13570714D02*
X9481428Y-13370714D01*
X9481428Y-13427857D02*
X9495714Y-13399286D01*
X9510000Y-13385000D01*
X9538571Y-13370714D01*
X9567143Y-13370714D01*
X9667143Y-13570714D02*
X9667143Y-13370714D01*
X9667143Y-13270714D02*
X9652857Y-13285000D01*
X9667143Y-13299286D01*
X9681428Y-13285000D01*
X9667143Y-13270714D01*
X9667143Y-13299286D01*
X9852857Y-13570714D02*
X9824286Y-13556429D01*
X9810000Y-13527857D01*
X9810000Y-13270714D01*
X10010000Y-13570714D02*
X9981428Y-13556429D01*
X9967143Y-13527857D01*
X9967143Y-13270714D01*
X10352857Y-13570714D02*
X10352857Y-13270714D01*
X10452857Y-13485000D01*
X10552857Y-13270714D01*
X10552857Y-13570714D01*
X10824286Y-13570714D02*
X10824286Y-13413571D01*
X10810000Y-13385000D01*
X10781428Y-13370714D01*
X10724286Y-13370714D01*
X10695714Y-13385000D01*
X10824286Y-13556429D02*
X10795714Y-13570714D01*
X10724286Y-13570714D01*
X10695714Y-13556429D01*
X10681428Y-13527857D01*
X10681428Y-13499286D01*
X10695714Y-13470714D01*
X10724286Y-13456429D01*
X10795714Y-13456429D01*
X10824286Y-13442143D01*
X10967143Y-13370714D02*
X10967143Y-13670714D01*
X10967143Y-13385000D02*
X10995714Y-13370714D01*
X11052857Y-13370714D01*
X11081428Y-13385000D01*
X11095714Y-13399286D01*
X11110000Y-13427857D01*
X11110000Y-13513571D01*
X11095714Y-13542143D01*
X11081428Y-13556429D01*
X11052857Y-13570714D01*
X10995714Y-13570714D01*
X10967143Y-13556429D01*
X11238571Y-13542143D02*
X11252857Y-13556429D01*
X11238571Y-13570714D01*
X11224286Y-13556429D01*
X11238571Y-13542143D01*
X11238571Y-13570714D01*
X11238571Y-13385000D02*
X11252857Y-13399286D01*
X11238571Y-13413571D01*
X11224286Y-13399286D01*
X11238571Y-13385000D01*
X11238571Y-13413571D01*
X8865000Y-14050000D02*
X8895000Y-14080000D01*
X8895000Y-14050000D02*
X8865000Y-14080000D01*
X9238571Y-13900714D02*
X9267143Y-13900714D01*
X9295714Y-13915000D01*
X9310000Y-13929286D01*
X9324286Y-13957857D01*
X9338571Y-14015000D01*
X9338571Y-14086429D01*
X9324286Y-14143571D01*
X9310000Y-14172143D01*
X9295714Y-14186429D01*
X9267143Y-14200714D01*
X9238571Y-14200714D01*
X9210000Y-14186429D01*
X9195714Y-14172143D01*
X9181428Y-14143571D01*
X9167143Y-14086429D01*
X9167143Y-14015000D01*
X9181428Y-13957857D01*
X9195714Y-13929286D01*
X9210000Y-13915000D01*
X9238571Y-13900714D01*
X9467143Y-14172143D02*
X9481428Y-14186429D01*
X9467143Y-14200714D01*
X9452857Y-14186429D01*
X9467143Y-14172143D01*
X9467143Y-14200714D01*
X9581428Y-13900714D02*
X9767143Y-13900714D01*
X9667143Y-14015000D01*
X9710000Y-14015000D01*
X9738571Y-14029286D01*
X9752857Y-14043571D01*
X9767143Y-14072143D01*
X9767143Y-14143571D01*
X9752857Y-14172143D01*
X9738571Y-14186429D01*
X9710000Y-14200714D01*
X9624286Y-14200714D01*
X9595714Y-14186429D01*
X9581428Y-14172143D01*
X9952857Y-13900714D02*
X9981428Y-13900714D01*
X10010000Y-13915000D01*
X10024286Y-13929286D01*
X10038571Y-13957857D01*
X10052857Y-14015000D01*
X10052857Y-14086429D01*
X10038571Y-14143571D01*
X10024286Y-14172143D01*
X10010000Y-14186429D01*
X9981428Y-14200714D01*
X9952857Y-14200714D01*
X9924286Y-14186429D01*
X9910000Y-14172143D01*
X9895714Y-14143571D01*
X9881428Y-14086429D01*
X9881428Y-14015000D01*
X9895714Y-13957857D01*
X9910000Y-13929286D01*
X9924286Y-13915000D01*
X9952857Y-13900714D01*
X10181428Y-14200714D02*
X10181428Y-14000714D01*
X10181428Y-14029286D02*
X10195714Y-14015000D01*
X10224286Y-14000714D01*
X10267143Y-14000714D01*
X10295714Y-14015000D01*
X10310000Y-14043571D01*
X10310000Y-14200714D01*
X10310000Y-14043571D02*
X10324286Y-14015000D01*
X10352857Y-14000714D01*
X10395714Y-14000714D01*
X10424286Y-14015000D01*
X10438571Y-14043571D01*
X10438571Y-14200714D01*
X10581428Y-14200714D02*
X10581428Y-14000714D01*
X10581428Y-14029286D02*
X10595714Y-14015000D01*
X10624286Y-14000714D01*
X10667143Y-14000714D01*
X10695714Y-14015000D01*
X10710000Y-14043571D01*
X10710000Y-14200714D01*
X10710000Y-14043571D02*
X10724286Y-14015000D01*
X10752857Y-14000714D01*
X10795714Y-14000714D01*
X10824286Y-14015000D01*
X10838571Y-14043571D01*
X10838571Y-14200714D01*
X11424286Y-13886429D02*
X11167143Y-14272143D01*
X11810000Y-13900714D02*
X11838571Y-13900714D01*
X11867143Y-13915000D01*
X11881428Y-13929286D01*
X11895714Y-13957857D01*
X11910000Y-14015000D01*
X11910000Y-14086429D01*
X11895714Y-14143571D01*
X11881428Y-14172143D01*
X11867143Y-14186429D01*
X11838571Y-14200714D01*
X11810000Y-14200714D01*
X11781428Y-14186429D01*
X11767143Y-14172143D01*
X11752857Y-14143571D01*
X11738571Y-14086429D01*
X11738571Y-14015000D01*
X11752857Y-13957857D01*
X11767143Y-13929286D01*
X11781428Y-13915000D01*
X11810000Y-13900714D01*
X12038571Y-14172143D02*
X12052857Y-14186429D01*
X12038571Y-14200714D01*
X12024286Y-14186429D01*
X12038571Y-14172143D01*
X12038571Y-14200714D01*
X12238571Y-13900714D02*
X12267143Y-13900714D01*
X12295714Y-13915000D01*
X12310000Y-13929286D01*
X12324286Y-13957857D01*
X12338571Y-14015000D01*
X12338571Y-14086429D01*
X12324286Y-14143571D01*
X12310000Y-14172143D01*
X12295714Y-14186429D01*
X12267143Y-14200714D01*
X12238571Y-14200714D01*
X12210000Y-14186429D01*
X12195714Y-14172143D01*
X12181428Y-14143571D01*
X12167143Y-14086429D01*
X12167143Y-14015000D01*
X12181428Y-13957857D01*
X12195714Y-13929286D01*
X12210000Y-13915000D01*
X12238571Y-13900714D01*
X12624286Y-14200714D02*
X12452857Y-14200714D01*
X12538571Y-14200714D02*
X12538571Y-13900714D01*
X12510000Y-13943571D01*
X12481428Y-13972143D01*
X12452857Y-13986429D01*
X12738571Y-13929286D02*
X12752857Y-13915000D01*
X12781428Y-13900714D01*
X12852857Y-13900714D01*
X12881428Y-13915000D01*
X12895714Y-13929286D01*
X12910000Y-13957857D01*
X12910000Y-13986429D01*
X12895714Y-14029286D01*
X12724286Y-14200714D01*
X12910000Y-14200714D01*
X13024286Y-13900714D02*
X13024286Y-13957857D01*
X13138571Y-13900714D02*
X13138571Y-13957857D01*
X13581428Y-14315000D02*
X13567143Y-14300714D01*
X13538571Y-14257857D01*
X13524286Y-14229286D01*
X13510000Y-14186429D01*
X13495714Y-14115000D01*
X13495714Y-14057857D01*
X13510000Y-13986429D01*
X13524286Y-13943571D01*
X13538571Y-13915000D01*
X13567143Y-13872143D01*
X13581428Y-13857857D01*
X13824286Y-14000714D02*
X13824286Y-14200714D01*
X13752857Y-13886429D02*
X13681428Y-14100714D01*
X13867143Y-14100714D01*
X13952857Y-13900714D02*
X14138571Y-13900714D01*
X14038571Y-14015000D01*
X14081428Y-14015000D01*
X14110000Y-14029286D01*
X14124286Y-14043571D01*
X14138571Y-14072143D01*
X14138571Y-14143571D01*
X14124286Y-14172143D01*
X14110000Y-14186429D01*
X14081428Y-14200714D01*
X13995714Y-14200714D01*
X13967143Y-14186429D01*
X13952857Y-14172143D01*
X14495714Y-14200714D02*
X14495714Y-13900714D01*
X14624286Y-14200714D02*
X14624286Y-14043571D01*
X14610000Y-14015000D01*
X14581428Y-14000714D01*
X14538571Y-14000714D01*
X14510000Y-14015000D01*
X14495714Y-14029286D01*
X14810000Y-14200714D02*
X14781428Y-14186429D01*
X14767143Y-14172143D01*
X14752857Y-14143571D01*
X14752857Y-14057857D01*
X14767143Y-14029286D01*
X14781428Y-14015000D01*
X14810000Y-14000714D01*
X14852857Y-14000714D01*
X14881428Y-14015000D01*
X14895714Y-14029286D01*
X14910000Y-14057857D01*
X14910000Y-14143571D01*
X14895714Y-14172143D01*
X14881428Y-14186429D01*
X14852857Y-14200714D01*
X14810000Y-14200714D01*
X15081428Y-14200714D02*
X15052857Y-14186429D01*
X15038571Y-14157857D01*
X15038571Y-13900714D01*
X15310000Y-14186429D02*
X15281428Y-14200714D01*
X15224286Y-14200714D01*
X15195714Y-14186429D01*
X15181428Y-14157857D01*
X15181428Y-14043571D01*
X15195714Y-14015000D01*
X15224286Y-14000714D01*
X15281428Y-14000714D01*
X15310000Y-14015000D01*
X15324286Y-14043571D01*
X15324286Y-14072143D01*
X15181428Y-14100714D01*
X15438571Y-14186429D02*
X15467143Y-14200714D01*
X15524286Y-14200714D01*
X15552857Y-14186429D01*
X15567143Y-14157857D01*
X15567143Y-14143571D01*
X15552857Y-14115000D01*
X15524286Y-14100714D01*
X15481428Y-14100714D01*
X15452857Y-14086429D01*
X15438571Y-14057857D01*
X15438571Y-14043571D01*
X15452857Y-14015000D01*
X15481428Y-14000714D01*
X15524286Y-14000714D01*
X15552857Y-14015000D01*
X15667143Y-14315000D02*
X15681428Y-14300714D01*
X15710000Y-14257857D01*
X15724286Y-14229286D01*
X15738571Y-14186429D01*
X15752857Y-14115000D01*
X15752857Y-14057857D01*
X15738571Y-13986429D01*
X15724286Y-13943571D01*
X15710000Y-13915000D01*
X15681428Y-13872143D01*
X15667143Y-13857857D01*
X8895000Y-14461000D02*
G75*
G03*
X8895000Y-14461000I-20000J0D01*
G01*
X9238571Y-14296714D02*
X9267143Y-14296714D01*
X9295714Y-14311000D01*
X9310000Y-14325286D01*
X9324286Y-14353857D01*
X9338571Y-14411000D01*
X9338571Y-14482429D01*
X9324286Y-14539571D01*
X9310000Y-14568143D01*
X9295714Y-14582429D01*
X9267143Y-14596714D01*
X9238571Y-14596714D01*
X9210000Y-14582429D01*
X9195714Y-14568143D01*
X9181428Y-14539571D01*
X9167143Y-14482429D01*
X9167143Y-14411000D01*
X9181428Y-14353857D01*
X9195714Y-14325286D01*
X9210000Y-14311000D01*
X9238571Y-14296714D01*
X9467143Y-14568143D02*
X9481428Y-14582429D01*
X9467143Y-14596714D01*
X9452857Y-14582429D01*
X9467143Y-14568143D01*
X9467143Y-14596714D01*
X9738571Y-14396714D02*
X9738571Y-14596714D01*
X9667143Y-14282429D02*
X9595714Y-14496714D01*
X9781428Y-14496714D01*
X9952857Y-14296714D02*
X9981428Y-14296714D01*
X10010000Y-14311000D01*
X10024286Y-14325286D01*
X10038571Y-14353857D01*
X10052857Y-14411000D01*
X10052857Y-14482429D01*
X10038571Y-14539571D01*
X10024286Y-14568143D01*
X10010000Y-14582429D01*
X9981428Y-14596714D01*
X9952857Y-14596714D01*
X9924286Y-14582429D01*
X9910000Y-14568143D01*
X9895714Y-14539571D01*
X9881428Y-14482429D01*
X9881428Y-14411000D01*
X9895714Y-14353857D01*
X9910000Y-14325286D01*
X9924286Y-14311000D01*
X9952857Y-14296714D01*
X10181428Y-14596714D02*
X10181428Y-14396714D01*
X10181428Y-14425286D02*
X10195714Y-14411000D01*
X10224286Y-14396714D01*
X10267143Y-14396714D01*
X10295714Y-14411000D01*
X10310000Y-14439571D01*
X10310000Y-14596714D01*
X10310000Y-14439571D02*
X10324286Y-14411000D01*
X10352857Y-14396714D01*
X10395714Y-14396714D01*
X10424286Y-14411000D01*
X10438571Y-14439571D01*
X10438571Y-14596714D01*
X10581428Y-14596714D02*
X10581428Y-14396714D01*
X10581428Y-14425286D02*
X10595714Y-14411000D01*
X10624286Y-14396714D01*
X10667143Y-14396714D01*
X10695714Y-14411000D01*
X10710000Y-14439571D01*
X10710000Y-14596714D01*
X10710000Y-14439571D02*
X10724286Y-14411000D01*
X10752857Y-14396714D01*
X10795714Y-14396714D01*
X10824286Y-14411000D01*
X10838571Y-14439571D01*
X10838571Y-14596714D01*
X11424286Y-14282429D02*
X11167143Y-14668143D01*
X11810000Y-14296714D02*
X11838571Y-14296714D01*
X11867143Y-14311000D01*
X11881428Y-14325286D01*
X11895714Y-14353857D01*
X11910000Y-14411000D01*
X11910000Y-14482429D01*
X11895714Y-14539571D01*
X11881428Y-14568143D01*
X11867143Y-14582429D01*
X11838571Y-14596714D01*
X11810000Y-14596714D01*
X11781428Y-14582429D01*
X11767143Y-14568143D01*
X11752857Y-14539571D01*
X11738571Y-14482429D01*
X11738571Y-14411000D01*
X11752857Y-14353857D01*
X11767143Y-14325286D01*
X11781428Y-14311000D01*
X11810000Y-14296714D01*
X12038571Y-14568143D02*
X12052857Y-14582429D01*
X12038571Y-14596714D01*
X12024286Y-14582429D01*
X12038571Y-14568143D01*
X12038571Y-14596714D01*
X12238571Y-14296714D02*
X12267143Y-14296714D01*
X12295714Y-14311000D01*
X12310000Y-14325286D01*
X12324286Y-14353857D01*
X12338571Y-14411000D01*
X12338571Y-14482429D01*
X12324286Y-14539571D01*
X12310000Y-14568143D01*
X12295714Y-14582429D01*
X12267143Y-14596714D01*
X12238571Y-14596714D01*
X12210000Y-14582429D01*
X12195714Y-14568143D01*
X12181428Y-14539571D01*
X12167143Y-14482429D01*
X12167143Y-14411000D01*
X12181428Y-14353857D01*
X12195714Y-14325286D01*
X12210000Y-14311000D01*
X12238571Y-14296714D01*
X12624286Y-14596714D02*
X12452857Y-14596714D01*
X12538571Y-14596714D02*
X12538571Y-14296714D01*
X12510000Y-14339571D01*
X12481428Y-14368143D01*
X12452857Y-14382429D01*
X12881428Y-14296714D02*
X12824286Y-14296714D01*
X12795714Y-14311000D01*
X12781428Y-14325286D01*
X12752857Y-14368143D01*
X12738571Y-14425286D01*
X12738571Y-14539571D01*
X12752857Y-14568143D01*
X12767143Y-14582429D01*
X12795714Y-14596714D01*
X12852857Y-14596714D01*
X12881428Y-14582429D01*
X12895714Y-14568143D01*
X12910000Y-14539571D01*
X12910000Y-14468143D01*
X12895714Y-14439571D01*
X12881428Y-14425286D01*
X12852857Y-14411000D01*
X12795714Y-14411000D01*
X12767143Y-14425286D01*
X12752857Y-14439571D01*
X12738571Y-14468143D01*
X13024286Y-14296714D02*
X13024286Y-14353857D01*
X13138571Y-14296714D02*
X13138571Y-14353857D01*
X13581428Y-14711000D02*
X13567143Y-14696714D01*
X13538571Y-14653857D01*
X13524286Y-14625286D01*
X13510000Y-14582429D01*
X13495714Y-14511000D01*
X13495714Y-14453857D01*
X13510000Y-14382429D01*
X13524286Y-14339571D01*
X13538571Y-14311000D01*
X13567143Y-14268143D01*
X13581428Y-14253857D01*
X13852857Y-14596714D02*
X13681428Y-14596714D01*
X13767143Y-14596714D02*
X13767143Y-14296714D01*
X13738571Y-14339571D01*
X13710000Y-14368143D01*
X13681428Y-14382429D01*
X14024286Y-14425286D02*
X13995714Y-14411000D01*
X13981428Y-14396714D01*
X13967143Y-14368143D01*
X13967143Y-14353857D01*
X13981428Y-14325286D01*
X13995714Y-14311000D01*
X14024286Y-14296714D01*
X14081428Y-14296714D01*
X14110000Y-14311000D01*
X14124286Y-14325286D01*
X14138571Y-14353857D01*
X14138571Y-14368143D01*
X14124286Y-14396714D01*
X14110000Y-14411000D01*
X14081428Y-14425286D01*
X14024286Y-14425286D01*
X13995714Y-14439571D01*
X13981428Y-14453857D01*
X13967143Y-14482429D01*
X13967143Y-14539571D01*
X13981428Y-14568143D01*
X13995714Y-14582429D01*
X14024286Y-14596714D01*
X14081428Y-14596714D01*
X14110000Y-14582429D01*
X14124286Y-14568143D01*
X14138571Y-14539571D01*
X14138571Y-14482429D01*
X14124286Y-14453857D01*
X14110000Y-14439571D01*
X14081428Y-14425286D01*
X14310000Y-14425286D02*
X14281428Y-14411000D01*
X14267143Y-14396714D01*
X14252857Y-14368143D01*
X14252857Y-14353857D01*
X14267143Y-14325286D01*
X14281428Y-14311000D01*
X14310000Y-14296714D01*
X14367143Y-14296714D01*
X14395714Y-14311000D01*
X14410000Y-14325286D01*
X14424286Y-14353857D01*
X14424286Y-14368143D01*
X14410000Y-14396714D01*
X14395714Y-14411000D01*
X14367143Y-14425286D01*
X14310000Y-14425286D01*
X14281428Y-14439571D01*
X14267143Y-14453857D01*
X14252857Y-14482429D01*
X14252857Y-14539571D01*
X14267143Y-14568143D01*
X14281428Y-14582429D01*
X14310000Y-14596714D01*
X14367143Y-14596714D01*
X14395714Y-14582429D01*
X14410000Y-14568143D01*
X14424286Y-14539571D01*
X14424286Y-14482429D01*
X14410000Y-14453857D01*
X14395714Y-14439571D01*
X14367143Y-14425286D01*
X14781428Y-14596714D02*
X14781428Y-14296714D01*
X14910000Y-14596714D02*
X14910000Y-14439571D01*
X14895714Y-14411000D01*
X14867143Y-14396714D01*
X14824286Y-14396714D01*
X14795714Y-14411000D01*
X14781428Y-14425286D01*
X15095714Y-14596714D02*
X15067143Y-14582429D01*
X15052857Y-14568143D01*
X15038571Y-14539571D01*
X15038571Y-14453857D01*
X15052857Y-14425286D01*
X15067143Y-14411000D01*
X15095714Y-14396714D01*
X15138571Y-14396714D01*
X15167143Y-14411000D01*
X15181428Y-14425286D01*
X15195714Y-14453857D01*
X15195714Y-14539571D01*
X15181428Y-14568143D01*
X15167143Y-14582429D01*
X15138571Y-14596714D01*
X15095714Y-14596714D01*
X15367143Y-14596714D02*
X15338571Y-14582429D01*
X15324286Y-14553857D01*
X15324286Y-14296714D01*
X15595714Y-14582429D02*
X15567143Y-14596714D01*
X15510000Y-14596714D01*
X15481428Y-14582429D01*
X15467143Y-14553857D01*
X15467143Y-14439571D01*
X15481428Y-14411000D01*
X15510000Y-14396714D01*
X15567143Y-14396714D01*
X15595714Y-14411000D01*
X15610000Y-14439571D01*
X15610000Y-14468143D01*
X15467143Y-14496714D01*
X15724286Y-14582429D02*
X15752857Y-14596714D01*
X15810000Y-14596714D01*
X15838571Y-14582429D01*
X15852857Y-14553857D01*
X15852857Y-14539571D01*
X15838571Y-14511000D01*
X15810000Y-14496714D01*
X15767143Y-14496714D01*
X15738571Y-14482429D01*
X15724286Y-14453857D01*
X15724286Y-14439571D01*
X15738571Y-14411000D01*
X15767143Y-14396714D01*
X15810000Y-14396714D01*
X15838571Y-14411000D01*
X15952857Y-14711000D02*
X15967143Y-14696714D01*
X15995714Y-14653857D01*
X16010000Y-14625286D01*
X16024286Y-14582429D01*
X16038571Y-14511000D01*
X16038571Y-14453857D01*
X16024286Y-14382429D01*
X16010000Y-14339571D01*
X15995714Y-14311000D01*
X15967143Y-14268143D01*
X15952857Y-14253857D01*
X8844200Y-14806200D02*
X8844200Y-14907800D01*
X8793400Y-14857000D02*
X8895000Y-14857000D01*
X9338571Y-14992714D02*
X9167143Y-14992714D01*
X9252857Y-14992714D02*
X9252857Y-14692714D01*
X9224286Y-14735571D01*
X9195714Y-14764143D01*
X9167143Y-14778429D01*
X9467143Y-14964143D02*
X9481428Y-14978429D01*
X9467143Y-14992714D01*
X9452857Y-14978429D01*
X9467143Y-14964143D01*
X9467143Y-14992714D01*
X9667143Y-14692714D02*
X9695714Y-14692714D01*
X9724286Y-14707000D01*
X9738571Y-14721286D01*
X9752857Y-14749857D01*
X9767143Y-14807000D01*
X9767143Y-14878429D01*
X9752857Y-14935571D01*
X9738571Y-14964143D01*
X9724286Y-14978429D01*
X9695714Y-14992714D01*
X9667143Y-14992714D01*
X9638571Y-14978429D01*
X9624286Y-14964143D01*
X9610000Y-14935571D01*
X9595714Y-14878429D01*
X9595714Y-14807000D01*
X9610000Y-14749857D01*
X9624286Y-14721286D01*
X9638571Y-14707000D01*
X9667143Y-14692714D01*
X9881428Y-14721286D02*
X9895714Y-14707000D01*
X9924286Y-14692714D01*
X9995714Y-14692714D01*
X10024286Y-14707000D01*
X10038571Y-14721286D01*
X10052857Y-14749857D01*
X10052857Y-14778429D01*
X10038571Y-14821286D01*
X9867143Y-14992714D01*
X10052857Y-14992714D01*
X10181428Y-14992714D02*
X10181428Y-14792714D01*
X10181428Y-14821286D02*
X10195714Y-14807000D01*
X10224286Y-14792714D01*
X10267143Y-14792714D01*
X10295714Y-14807000D01*
X10310000Y-14835571D01*
X10310000Y-14992714D01*
X10310000Y-14835571D02*
X10324286Y-14807000D01*
X10352857Y-14792714D01*
X10395714Y-14792714D01*
X10424286Y-14807000D01*
X10438571Y-14835571D01*
X10438571Y-14992714D01*
X10581428Y-14992714D02*
X10581428Y-14792714D01*
X10581428Y-14821286D02*
X10595714Y-14807000D01*
X10624286Y-14792714D01*
X10667143Y-14792714D01*
X10695714Y-14807000D01*
X10710000Y-14835571D01*
X10710000Y-14992714D01*
X10710000Y-14835571D02*
X10724286Y-14807000D01*
X10752857Y-14792714D01*
X10795714Y-14792714D01*
X10824286Y-14807000D01*
X10838571Y-14835571D01*
X10838571Y-14992714D01*
X11424286Y-14678429D02*
X11167143Y-15064143D01*
X11810000Y-14692714D02*
X11838571Y-14692714D01*
X11867143Y-14707000D01*
X11881428Y-14721286D01*
X11895714Y-14749857D01*
X11910000Y-14807000D01*
X11910000Y-14878429D01*
X11895714Y-14935571D01*
X11881428Y-14964143D01*
X11867143Y-14978429D01*
X11838571Y-14992714D01*
X11810000Y-14992714D01*
X11781428Y-14978429D01*
X11767143Y-14964143D01*
X11752857Y-14935571D01*
X11738571Y-14878429D01*
X11738571Y-14807000D01*
X11752857Y-14749857D01*
X11767143Y-14721286D01*
X11781428Y-14707000D01*
X11810000Y-14692714D01*
X12038571Y-14964143D02*
X12052857Y-14978429D01*
X12038571Y-14992714D01*
X12024286Y-14978429D01*
X12038571Y-14964143D01*
X12038571Y-14992714D01*
X12238571Y-14692714D02*
X12267143Y-14692714D01*
X12295714Y-14707000D01*
X12310000Y-14721286D01*
X12324286Y-14749857D01*
X12338571Y-14807000D01*
X12338571Y-14878429D01*
X12324286Y-14935571D01*
X12310000Y-14964143D01*
X12295714Y-14978429D01*
X12267143Y-14992714D01*
X12238571Y-14992714D01*
X12210000Y-14978429D01*
X12195714Y-14964143D01*
X12181428Y-14935571D01*
X12167143Y-14878429D01*
X12167143Y-14807000D01*
X12181428Y-14749857D01*
X12195714Y-14721286D01*
X12210000Y-14707000D01*
X12238571Y-14692714D01*
X12595714Y-14792714D02*
X12595714Y-14992714D01*
X12524286Y-14678429D02*
X12452857Y-14892714D01*
X12638571Y-14892714D01*
X12810000Y-14692714D02*
X12838571Y-14692714D01*
X12867143Y-14707000D01*
X12881428Y-14721286D01*
X12895714Y-14749857D01*
X12910000Y-14807000D01*
X12910000Y-14878429D01*
X12895714Y-14935571D01*
X12881428Y-14964143D01*
X12867143Y-14978429D01*
X12838571Y-14992714D01*
X12810000Y-14992714D01*
X12781428Y-14978429D01*
X12767143Y-14964143D01*
X12752857Y-14935571D01*
X12738571Y-14878429D01*
X12738571Y-14807000D01*
X12752857Y-14749857D01*
X12767143Y-14721286D01*
X12781428Y-14707000D01*
X12810000Y-14692714D01*
X13024286Y-14692714D02*
X13024286Y-14749857D01*
X13138571Y-14692714D02*
X13138571Y-14749857D01*
X13581428Y-15107000D02*
X13567143Y-15092714D01*
X13538571Y-15049857D01*
X13524286Y-15021286D01*
X13510000Y-14978429D01*
X13495714Y-14907000D01*
X13495714Y-14849857D01*
X13510000Y-14778429D01*
X13524286Y-14735571D01*
X13538571Y-14707000D01*
X13567143Y-14664143D01*
X13581428Y-14649857D01*
X13824286Y-14692714D02*
X13767143Y-14692714D01*
X13738571Y-14707000D01*
X13724286Y-14721286D01*
X13695714Y-14764143D01*
X13681428Y-14821286D01*
X13681428Y-14935571D01*
X13695714Y-14964143D01*
X13710000Y-14978429D01*
X13738571Y-14992714D01*
X13795714Y-14992714D01*
X13824286Y-14978429D01*
X13838571Y-14964143D01*
X13852857Y-14935571D01*
X13852857Y-14864143D01*
X13838571Y-14835571D01*
X13824286Y-14821286D01*
X13795714Y-14807000D01*
X13738571Y-14807000D01*
X13710000Y-14821286D01*
X13695714Y-14835571D01*
X13681428Y-14864143D01*
X13952857Y-14692714D02*
X14138571Y-14692714D01*
X14038571Y-14807000D01*
X14081428Y-14807000D01*
X14110000Y-14821286D01*
X14124286Y-14835571D01*
X14138571Y-14864143D01*
X14138571Y-14935571D01*
X14124286Y-14964143D01*
X14110000Y-14978429D01*
X14081428Y-14992714D01*
X13995714Y-14992714D01*
X13967143Y-14978429D01*
X13952857Y-14964143D01*
X14495714Y-14992714D02*
X14495714Y-14692714D01*
X14624286Y-14992714D02*
X14624286Y-14835571D01*
X14610000Y-14807000D01*
X14581428Y-14792714D01*
X14538571Y-14792714D01*
X14510000Y-14807000D01*
X14495714Y-14821286D01*
X14810000Y-14992714D02*
X14781428Y-14978429D01*
X14767143Y-14964143D01*
X14752857Y-14935571D01*
X14752857Y-14849857D01*
X14767143Y-14821286D01*
X14781428Y-14807000D01*
X14810000Y-14792714D01*
X14852857Y-14792714D01*
X14881428Y-14807000D01*
X14895714Y-14821286D01*
X14910000Y-14849857D01*
X14910000Y-14935571D01*
X14895714Y-14964143D01*
X14881428Y-14978429D01*
X14852857Y-14992714D01*
X14810000Y-14992714D01*
X15081428Y-14992714D02*
X15052857Y-14978429D01*
X15038571Y-14949857D01*
X15038571Y-14692714D01*
X15310000Y-14978429D02*
X15281428Y-14992714D01*
X15224286Y-14992714D01*
X15195714Y-14978429D01*
X15181428Y-14949857D01*
X15181428Y-14835571D01*
X15195714Y-14807000D01*
X15224286Y-14792714D01*
X15281428Y-14792714D01*
X15310000Y-14807000D01*
X15324286Y-14835571D01*
X15324286Y-14864143D01*
X15181428Y-14892714D01*
X15438571Y-14978429D02*
X15467143Y-14992714D01*
X15524286Y-14992714D01*
X15552857Y-14978429D01*
X15567143Y-14949857D01*
X15567143Y-14935571D01*
X15552857Y-14907000D01*
X15524286Y-14892714D01*
X15481428Y-14892714D01*
X15452857Y-14878429D01*
X15438571Y-14849857D01*
X15438571Y-14835571D01*
X15452857Y-14807000D01*
X15481428Y-14792714D01*
X15524286Y-14792714D01*
X15552857Y-14807000D01*
X15667143Y-15107000D02*
X15681428Y-15092714D01*
X15710000Y-15049857D01*
X15724286Y-15021286D01*
X15738571Y-14978429D01*
X15752857Y-14907000D01*
X15752857Y-14849857D01*
X15738571Y-14778429D01*
X15724286Y-14735571D01*
X15710000Y-14707000D01*
X15681428Y-14664143D01*
X15667143Y-14649857D01*
X8873017Y-15306074D02*
X8873017Y-15199926D01*
X8766869Y-15199926D01*
X8766869Y-15306074D01*
X8873017Y-15306074D01*
X9338571Y-15388714D02*
X9167143Y-15388714D01*
X9252857Y-15388714D02*
X9252857Y-15088714D01*
X9224286Y-15131571D01*
X9195714Y-15160143D01*
X9167143Y-15174429D01*
X9467143Y-15360143D02*
X9481428Y-15374429D01*
X9467143Y-15388714D01*
X9452857Y-15374429D01*
X9467143Y-15360143D01*
X9467143Y-15388714D01*
X9752857Y-15088714D02*
X9610000Y-15088714D01*
X9595714Y-15231571D01*
X9610000Y-15217286D01*
X9638571Y-15203000D01*
X9710000Y-15203000D01*
X9738571Y-15217286D01*
X9752857Y-15231571D01*
X9767143Y-15260143D01*
X9767143Y-15331571D01*
X9752857Y-15360143D01*
X9738571Y-15374429D01*
X9710000Y-15388714D01*
X9638571Y-15388714D01*
X9610000Y-15374429D01*
X9595714Y-15360143D01*
X9952857Y-15088714D02*
X9981428Y-15088714D01*
X10010000Y-15103000D01*
X10024286Y-15117286D01*
X10038571Y-15145857D01*
X10052857Y-15203000D01*
X10052857Y-15274429D01*
X10038571Y-15331571D01*
X10024286Y-15360143D01*
X10010000Y-15374429D01*
X9981428Y-15388714D01*
X9952857Y-15388714D01*
X9924286Y-15374429D01*
X9910000Y-15360143D01*
X9895714Y-15331571D01*
X9881428Y-15274429D01*
X9881428Y-15203000D01*
X9895714Y-15145857D01*
X9910000Y-15117286D01*
X9924286Y-15103000D01*
X9952857Y-15088714D01*
X10181428Y-15388714D02*
X10181428Y-15188714D01*
X10181428Y-15217286D02*
X10195714Y-15203000D01*
X10224286Y-15188714D01*
X10267143Y-15188714D01*
X10295714Y-15203000D01*
X10310000Y-15231571D01*
X10310000Y-15388714D01*
X10310000Y-15231571D02*
X10324286Y-15203000D01*
X10352857Y-15188714D01*
X10395714Y-15188714D01*
X10424286Y-15203000D01*
X10438571Y-15231571D01*
X10438571Y-15388714D01*
X10581428Y-15388714D02*
X10581428Y-15188714D01*
X10581428Y-15217286D02*
X10595714Y-15203000D01*
X10624286Y-15188714D01*
X10667143Y-15188714D01*
X10695714Y-15203000D01*
X10710000Y-15231571D01*
X10710000Y-15388714D01*
X10710000Y-15231571D02*
X10724286Y-15203000D01*
X10752857Y-15188714D01*
X10795714Y-15188714D01*
X10824286Y-15203000D01*
X10838571Y-15231571D01*
X10838571Y-15388714D01*
X11424286Y-15074429D02*
X11167143Y-15460143D01*
X11810000Y-15088714D02*
X11838571Y-15088714D01*
X11867143Y-15103000D01*
X11881428Y-15117286D01*
X11895714Y-15145857D01*
X11910000Y-15203000D01*
X11910000Y-15274429D01*
X11895714Y-15331571D01*
X11881428Y-15360143D01*
X11867143Y-15374429D01*
X11838571Y-15388714D01*
X11810000Y-15388714D01*
X11781428Y-15374429D01*
X11767143Y-15360143D01*
X11752857Y-15331571D01*
X11738571Y-15274429D01*
X11738571Y-15203000D01*
X11752857Y-15145857D01*
X11767143Y-15117286D01*
X11781428Y-15103000D01*
X11810000Y-15088714D01*
X12038571Y-15360143D02*
X12052857Y-15374429D01*
X12038571Y-15388714D01*
X12024286Y-15374429D01*
X12038571Y-15360143D01*
X12038571Y-15388714D01*
X12238571Y-15088714D02*
X12267143Y-15088714D01*
X12295714Y-15103000D01*
X12310000Y-15117286D01*
X12324286Y-15145857D01*
X12338571Y-15203000D01*
X12338571Y-15274429D01*
X12324286Y-15331571D01*
X12310000Y-15360143D01*
X12295714Y-15374429D01*
X12267143Y-15388714D01*
X12238571Y-15388714D01*
X12210000Y-15374429D01*
X12195714Y-15360143D01*
X12181428Y-15331571D01*
X12167143Y-15274429D01*
X12167143Y-15203000D01*
X12181428Y-15145857D01*
X12195714Y-15117286D01*
X12210000Y-15103000D01*
X12238571Y-15088714D01*
X12610000Y-15088714D02*
X12467143Y-15088714D01*
X12452857Y-15231571D01*
X12467143Y-15217286D01*
X12495714Y-15203000D01*
X12567143Y-15203000D01*
X12595714Y-15217286D01*
X12610000Y-15231571D01*
X12624286Y-15260143D01*
X12624286Y-15331571D01*
X12610000Y-15360143D01*
X12595714Y-15374429D01*
X12567143Y-15388714D01*
X12495714Y-15388714D01*
X12467143Y-15374429D01*
X12452857Y-15360143D01*
X12767143Y-15388714D02*
X12824286Y-15388714D01*
X12852857Y-15374429D01*
X12867143Y-15360143D01*
X12895714Y-15317286D01*
X12910000Y-15260143D01*
X12910000Y-15145857D01*
X12895714Y-15117286D01*
X12881428Y-15103000D01*
X12852857Y-15088714D01*
X12795714Y-15088714D01*
X12767143Y-15103000D01*
X12752857Y-15117286D01*
X12738571Y-15145857D01*
X12738571Y-15217286D01*
X12752857Y-15245857D01*
X12767143Y-15260143D01*
X12795714Y-15274429D01*
X12852857Y-15274429D01*
X12881428Y-15260143D01*
X12895714Y-15245857D01*
X12910000Y-15217286D01*
X13024286Y-15088714D02*
X13024286Y-15145857D01*
X13138571Y-15088714D02*
X13138571Y-15145857D01*
X13581428Y-15503000D02*
X13567143Y-15488714D01*
X13538571Y-15445857D01*
X13524286Y-15417286D01*
X13510000Y-15374429D01*
X13495714Y-15303000D01*
X13495714Y-15245857D01*
X13510000Y-15174429D01*
X13524286Y-15131571D01*
X13538571Y-15103000D01*
X13567143Y-15060143D01*
X13581428Y-15045857D01*
X13824286Y-15188714D02*
X13824286Y-15388714D01*
X13752857Y-15074429D02*
X13681428Y-15288714D01*
X13867143Y-15288714D01*
X14210000Y-15388714D02*
X14210000Y-15088714D01*
X14338571Y-15388714D02*
X14338571Y-15231571D01*
X14324286Y-15203000D01*
X14295714Y-15188714D01*
X14252857Y-15188714D01*
X14224286Y-15203000D01*
X14210000Y-15217286D01*
X14524286Y-15388714D02*
X14495714Y-15374429D01*
X14481428Y-15360143D01*
X14467143Y-15331571D01*
X14467143Y-15245857D01*
X14481428Y-15217286D01*
X14495714Y-15203000D01*
X14524286Y-15188714D01*
X14567143Y-15188714D01*
X14595714Y-15203000D01*
X14610000Y-15217286D01*
X14624286Y-15245857D01*
X14624286Y-15331571D01*
X14610000Y-15360143D01*
X14595714Y-15374429D01*
X14567143Y-15388714D01*
X14524286Y-15388714D01*
X14795714Y-15388714D02*
X14767143Y-15374429D01*
X14752857Y-15345857D01*
X14752857Y-15088714D01*
X15024286Y-15374429D02*
X14995714Y-15388714D01*
X14938571Y-15388714D01*
X14910000Y-15374429D01*
X14895714Y-15345857D01*
X14895714Y-15231571D01*
X14910000Y-15203000D01*
X14938571Y-15188714D01*
X14995714Y-15188714D01*
X15024286Y-15203000D01*
X15038571Y-15231571D01*
X15038571Y-15260143D01*
X14895714Y-15288714D01*
X15152857Y-15374429D02*
X15181428Y-15388714D01*
X15238571Y-15388714D01*
X15267143Y-15374429D01*
X15281428Y-15345857D01*
X15281428Y-15331571D01*
X15267143Y-15303000D01*
X15238571Y-15288714D01*
X15195714Y-15288714D01*
X15167143Y-15274429D01*
X15152857Y-15245857D01*
X15152857Y-15231571D01*
X15167143Y-15203000D01*
X15195714Y-15188714D01*
X15238571Y-15188714D01*
X15267143Y-15203000D01*
X15381428Y-15503000D02*
X15395714Y-15488714D01*
X15424286Y-15445857D01*
X15438571Y-15417286D01*
X15452857Y-15374429D01*
X15467143Y-15303000D01*
X15467143Y-15245857D01*
X15452857Y-15174429D01*
X15438571Y-15131571D01*
X15424286Y-15103000D01*
X15395714Y-15060143D01*
X15381428Y-15045857D01*
X8695000Y-15849000D02*
X8895000Y-15649000D01*
X8695000Y-15449000D01*
X8495000Y-15649000D01*
X8695000Y-15849000D01*
X9310000Y-15584714D02*
X9310000Y-15784714D01*
X9238571Y-15470429D02*
X9167143Y-15684714D01*
X9352857Y-15684714D01*
X9467143Y-15756143D02*
X9481428Y-15770429D01*
X9467143Y-15784714D01*
X9452857Y-15770429D01*
X9467143Y-15756143D01*
X9467143Y-15784714D01*
X9667143Y-15484714D02*
X9695714Y-15484714D01*
X9724286Y-15499000D01*
X9738571Y-15513286D01*
X9752857Y-15541857D01*
X9767143Y-15599000D01*
X9767143Y-15670429D01*
X9752857Y-15727571D01*
X9738571Y-15756143D01*
X9724286Y-15770429D01*
X9695714Y-15784714D01*
X9667143Y-15784714D01*
X9638571Y-15770429D01*
X9624286Y-15756143D01*
X9610000Y-15727571D01*
X9595714Y-15670429D01*
X9595714Y-15599000D01*
X9610000Y-15541857D01*
X9624286Y-15513286D01*
X9638571Y-15499000D01*
X9667143Y-15484714D01*
X9952857Y-15484714D02*
X9981428Y-15484714D01*
X10010000Y-15499000D01*
X10024286Y-15513286D01*
X10038571Y-15541857D01*
X10052857Y-15599000D01*
X10052857Y-15670429D01*
X10038571Y-15727571D01*
X10024286Y-15756143D01*
X10010000Y-15770429D01*
X9981428Y-15784714D01*
X9952857Y-15784714D01*
X9924286Y-15770429D01*
X9910000Y-15756143D01*
X9895714Y-15727571D01*
X9881428Y-15670429D01*
X9881428Y-15599000D01*
X9895714Y-15541857D01*
X9910000Y-15513286D01*
X9924286Y-15499000D01*
X9952857Y-15484714D01*
X10181428Y-15784714D02*
X10181428Y-15584714D01*
X10181428Y-15613286D02*
X10195714Y-15599000D01*
X10224286Y-15584714D01*
X10267143Y-15584714D01*
X10295714Y-15599000D01*
X10310000Y-15627571D01*
X10310000Y-15784714D01*
X10310000Y-15627571D02*
X10324286Y-15599000D01*
X10352857Y-15584714D01*
X10395714Y-15584714D01*
X10424286Y-15599000D01*
X10438571Y-15627571D01*
X10438571Y-15784714D01*
X10581428Y-15784714D02*
X10581428Y-15584714D01*
X10581428Y-15613286D02*
X10595714Y-15599000D01*
X10624286Y-15584714D01*
X10667143Y-15584714D01*
X10695714Y-15599000D01*
X10710000Y-15627571D01*
X10710000Y-15784714D01*
X10710000Y-15627571D02*
X10724286Y-15599000D01*
X10752857Y-15584714D01*
X10795714Y-15584714D01*
X10824286Y-15599000D01*
X10838571Y-15627571D01*
X10838571Y-15784714D01*
X11424286Y-15470429D02*
X11167143Y-15856143D01*
X11810000Y-15484714D02*
X11838571Y-15484714D01*
X11867143Y-15499000D01*
X11881428Y-15513286D01*
X11895714Y-15541857D01*
X11910000Y-15599000D01*
X11910000Y-15670429D01*
X11895714Y-15727571D01*
X11881428Y-15756143D01*
X11867143Y-15770429D01*
X11838571Y-15784714D01*
X11810000Y-15784714D01*
X11781428Y-15770429D01*
X11767143Y-15756143D01*
X11752857Y-15727571D01*
X11738571Y-15670429D01*
X11738571Y-15599000D01*
X11752857Y-15541857D01*
X11767143Y-15513286D01*
X11781428Y-15499000D01*
X11810000Y-15484714D01*
X12038571Y-15756143D02*
X12052857Y-15770429D01*
X12038571Y-15784714D01*
X12024286Y-15770429D01*
X12038571Y-15756143D01*
X12038571Y-15784714D01*
X12338571Y-15784714D02*
X12167143Y-15784714D01*
X12252857Y-15784714D02*
X12252857Y-15484714D01*
X12224286Y-15527571D01*
X12195714Y-15556143D01*
X12167143Y-15570429D01*
X12610000Y-15484714D02*
X12467143Y-15484714D01*
X12452857Y-15627571D01*
X12467143Y-15613286D01*
X12495714Y-15599000D01*
X12567143Y-15599000D01*
X12595714Y-15613286D01*
X12610000Y-15627571D01*
X12624286Y-15656143D01*
X12624286Y-15727571D01*
X12610000Y-15756143D01*
X12595714Y-15770429D01*
X12567143Y-15784714D01*
X12495714Y-15784714D01*
X12467143Y-15770429D01*
X12452857Y-15756143D01*
X12724286Y-15484714D02*
X12924286Y-15484714D01*
X12795714Y-15784714D01*
X13024286Y-15484714D02*
X13024286Y-15541857D01*
X13138571Y-15484714D02*
X13138571Y-15541857D01*
X13581428Y-15899000D02*
X13567143Y-15884714D01*
X13538571Y-15841857D01*
X13524286Y-15813286D01*
X13510000Y-15770429D01*
X13495714Y-15699000D01*
X13495714Y-15641857D01*
X13510000Y-15570429D01*
X13524286Y-15527571D01*
X13538571Y-15499000D01*
X13567143Y-15456143D01*
X13581428Y-15441857D01*
X13824286Y-15584714D02*
X13824286Y-15784714D01*
X13752857Y-15470429D02*
X13681428Y-15684714D01*
X13867143Y-15684714D01*
X14210000Y-15784714D02*
X14210000Y-15484714D01*
X14338571Y-15784714D02*
X14338571Y-15627571D01*
X14324286Y-15599000D01*
X14295714Y-15584714D01*
X14252857Y-15584714D01*
X14224286Y-15599000D01*
X14210000Y-15613286D01*
X14524286Y-15784714D02*
X14495714Y-15770429D01*
X14481428Y-15756143D01*
X14467143Y-15727571D01*
X14467143Y-15641857D01*
X14481428Y-15613286D01*
X14495714Y-15599000D01*
X14524286Y-15584714D01*
X14567143Y-15584714D01*
X14595714Y-15599000D01*
X14610000Y-15613286D01*
X14624286Y-15641857D01*
X14624286Y-15727571D01*
X14610000Y-15756143D01*
X14595714Y-15770429D01*
X14567143Y-15784714D01*
X14524286Y-15784714D01*
X14795714Y-15784714D02*
X14767143Y-15770429D01*
X14752857Y-15741857D01*
X14752857Y-15484714D01*
X15024286Y-15770429D02*
X14995714Y-15784714D01*
X14938571Y-15784714D01*
X14910000Y-15770429D01*
X14895714Y-15741857D01*
X14895714Y-15627571D01*
X14910000Y-15599000D01*
X14938571Y-15584714D01*
X14995714Y-15584714D01*
X15024286Y-15599000D01*
X15038571Y-15627571D01*
X15038571Y-15656143D01*
X14895714Y-15684714D01*
X15152857Y-15770429D02*
X15181428Y-15784714D01*
X15238571Y-15784714D01*
X15267143Y-15770429D01*
X15281428Y-15741857D01*
X15281428Y-15727571D01*
X15267143Y-15699000D01*
X15238571Y-15684714D01*
X15195714Y-15684714D01*
X15167143Y-15670429D01*
X15152857Y-15641857D01*
X15152857Y-15627571D01*
X15167143Y-15599000D01*
X15195714Y-15584714D01*
X15238571Y-15584714D01*
X15267143Y-15599000D01*
X15381428Y-15899000D02*
X15395714Y-15884714D01*
X15424286Y-15841857D01*
X15438571Y-15813286D01*
X15452857Y-15770429D01*
X15467143Y-15699000D01*
X15467143Y-15641857D01*
X15452857Y-15570429D01*
X15438571Y-15527571D01*
X15424286Y-15499000D01*
X15395714Y-15456143D01*
X15381428Y-15441857D01*
M02*
