M48
; DRILL file {KiCad (5.1.9-0-10_14)} date Friday, May 07, 2021 at 12:36:45 PM
; FORMAT={-:-/ absolute / metric / decimal}
; #@! TF.CreationDate,2021-05-07T12:36:45-04:00
; #@! TF.GenerationSoftware,Kicad,Pcbnew,(5.1.9-0-10_14)
; #@! TF.FileFunction,Plated,1,2,PTH
FMAT,2
METRIC
T1C0.300
T2C0.400
T3C1.016
T4C1.501
T5C4.000
%
G90
G05
T1
X162.17Y-115.0
X162.5Y-102.13
X162.5Y-102.79
X162.5Y-103.45
X162.5Y-104.12
X162.5Y-104.78
X162.5Y-105.44
X162.5Y-112.03
X162.5Y-112.65
X162.5Y-113.27
X162.5Y-113.89
X162.5Y-114.51
X162.68Y-108.09
X162.68Y-109.85
X162.7Y-108.96
X163.58Y-108.08
X163.58Y-108.97
X163.59Y-109.86
X163.64Y-102.29
X163.64Y-102.96
X163.64Y-103.62
X163.64Y-104.77
X163.64Y-112.03
X163.64Y-112.65
X163.64Y-113.27
X163.64Y-113.89
X163.65Y-105.43
X163.65Y-114.52
X164.01Y-115.0
X164.12Y-105.92
X164.3Y-103.62
X164.3Y-104.77
X164.45Y-109.86
X164.46Y-108.98
X164.47Y-108.08
X164.96Y-103.62
X164.96Y-104.77
X165.62Y-103.62
X165.62Y-104.77
X166.28Y-103.62
X166.28Y-104.78
X166.94Y-103.62
X166.94Y-104.78
T2
X90.51Y-115.577
X90.51Y-116.81
X90.51Y-118.09
X92.28Y-115.577
X94.24Y-115.577
X95.247Y-113.579
X95.703Y-110.298
X95.8Y-112.64
X95.97Y-114.27
X96.69Y-107.73
X96.83Y-113.74
X96.95Y-110.43
X97.018Y-111.88
X97.27Y-105.91
X97.73Y-107.09
X98.921Y-107.881
X99.24Y-114.69
X99.634Y-106.251
X99.72Y-108.22
X99.86Y-109.21
X99.912Y-103.922
X100.276Y-105.609
X101.65Y-119.27
X102.02Y-107.24
X102.02Y-108.44
X103.047Y-108.083
X103.549Y-97.54
X103.98Y-111.83
X104.277Y-107.227
X104.31Y-116.24
X104.64Y-95.99
X105.288Y-108.272
X105.35Y-111.78
X106.04Y-98.67
X106.083Y-109.067
X106.31Y-95.69
X106.42Y-117.0
X106.64Y-89.08
X106.88Y-112.585
X107.31Y-96.79
X107.31Y-100.01
X107.545Y-106.86
X107.93Y-116.93
X108.33Y-112.585
X109.47Y-116.75
X110.59Y-118.06
X110.698Y-103.663
X110.94Y-109.09
X111.0Y-88.66
X111.51Y-98.06
X112.54Y-100.71
X115.36Y-111.16
X116.55Y-103.54
X117.31Y-119.78
X117.48Y-88.285
X117.5Y-90.065
X117.75Y-122.55
X118.75Y-105.23
X119.03Y-88.285
X119.15Y-90.065
X119.4Y-107.875
X119.47Y-109.325
X119.54Y-102.04
X119.79Y-104.55
X120.79Y-88.285
X120.79Y-90.03
X120.87Y-109.55
X121.96Y-98.7
X122.282Y-110.202
X122.34Y-90.01
X122.54Y-88.285
X122.58Y-100.55
X122.944Y-101.481
X122.95Y-115.445
X122.996Y-109.352
X123.08Y-118.34
X123.1Y-98.9
X123.11Y-107.12
X123.83Y-124.25
X124.15Y-99.735
X124.24Y-112.67
X125.643Y-110.77
X126.68Y-118.78
X127.58Y-108.95
X127.59Y-112.21
X127.61Y-99.33
X127.75Y-100.66
X128.22Y-113.66
X130.59Y-90.77
X130.625Y-101.03
X131.03Y-93.05
X131.35Y-103.2
X131.91Y-95.044
X132.02Y-119.96
X132.347Y-104.637
X132.88Y-122.7
X133.072Y-108.242
X133.15Y-106.23
X133.205Y-101.689
X133.38Y-110.42
X133.67Y-114.13
X133.67Y-118.04
X133.69Y-112.77
X133.71Y-115.59
X133.71Y-116.82
X134.28Y-109.32
X134.37Y-92.99
X134.45Y-119.56
X134.52Y-100.48
X135.2Y-113.25
X135.25Y-117.98
X135.51Y-98.76
X135.54Y-108.14
X135.99Y-99.87
X136.06Y-116.61
X136.45Y-110.59
X136.63Y-103.66
X136.74Y-108.38
X137.11Y-101.02
X137.19Y-115.55
X137.19Y-120.44
X137.27Y-99.17
X138.83Y-98.08
X139.73Y-97.61
X140.88Y-97.8
X143.96Y-117.8
X144.67Y-104.63
X145.17Y-105.496
X145.17Y-119.03
X145.89Y-106.24
X145.89Y-109.58
X146.715Y-107.755
X147.44Y-109.8
X147.69Y-108.36
X148.29Y-111.04
X148.33Y-113.62
X150.52Y-119.84
X150.7Y-111.04
X150.72Y-108.52
X150.79Y-105.96
X150.82Y-103.43
X150.84Y-100.99
X153.1Y-97.95
X153.22Y-101.1
X153.28Y-108.4
X153.36Y-113.55
X153.36Y-116.05
X153.36Y-118.73
X153.43Y-111.01
X153.51Y-105.94
X153.549Y-103.369
X154.25Y-97.95
X154.44Y-118.92
X155.26Y-97.95
X155.67Y-118.92
X156.54Y-98.14
X156.64Y-117.7
X156.77Y-118.89
X156.799Y-116.509
X156.83Y-114.22
X157.8Y-113.21
X157.83Y-98.11
X157.86Y-118.89
X158.92Y-115.66
X158.92Y-116.78
X158.97Y-104.43
X158.98Y-117.77
X159.08Y-98.11
X159.08Y-118.93
X159.18Y-100.52
X159.418Y-109.348
X159.55Y-113.03
X159.58Y-114.63
X159.71Y-102.56
X160.57Y-111.55
X160.65Y-112.675
X160.9Y-114.67
X160.93Y-113.74
X161.26Y-102.67
X161.4Y-110.8
X164.83Y-102.63
X165.29Y-114.37
X165.52Y-107.12
X166.05Y-102.6
X166.45Y-114.4
X166.52Y-110.664
X166.53Y-108.51
X166.53Y-109.65
X166.77Y-107.22
X167.14Y-99.2
X167.14Y-100.52
X167.17Y-97.86
X167.21Y-101.74
X167.24Y-115.43
X167.3Y-116.71
X167.34Y-117.84
X167.4Y-118.96
X168.76Y-97.86
X168.78Y-118.94
X168.8Y-111.78
X170.27Y-97.87
X170.32Y-118.98
X171.696Y-110.713
X171.71Y-111.84
X171.71Y-108.27
X171.71Y-109.53
X171.74Y-114.33
X171.74Y-116.87
X171.74Y-118.03
X171.74Y-119.02
X171.76Y-97.88
X171.77Y-113.14
X171.77Y-115.55
X171.83Y-99.07
X171.86Y-100.26
T3
X91.95Y-120.01
X94.49Y-120.01
X97.03Y-120.01
X99.57Y-120.01
X114.095Y-97.145
X114.095Y-99.685
X114.095Y-102.225
X114.095Y-104.765
X114.095Y-107.305
X114.095Y-109.845
X114.095Y-112.385
X114.095Y-114.925
X114.095Y-117.465
X114.095Y-119.98
X114.095Y-122.52
X114.1Y-94.605
X115.427Y-92.065
X121.72Y-122.52
X124.27Y-122.52
X126.43Y-103.47
X126.43Y-106.01
X126.43Y-113.63
X126.43Y-116.17
X126.81Y-122.52
X128.013Y-92.065
X129.34Y-94.58
X129.35Y-97.12
X129.35Y-99.66
X129.35Y-102.2
X129.35Y-104.74
X129.35Y-107.28
X129.35Y-109.82
X129.35Y-112.36
X129.35Y-114.9
X129.35Y-117.44
X129.35Y-119.98
X129.35Y-122.52
X135.02Y-95.81
X137.56Y-95.81
X140.1Y-95.81
X142.64Y-95.81
X149.52Y-99.64
X149.52Y-102.18
X149.52Y-104.72
X149.52Y-107.26
X149.52Y-109.8
X149.52Y-112.34
X149.52Y-114.88
X149.52Y-117.42
X154.71Y-99.64
X154.71Y-102.18
X154.71Y-104.72
X154.71Y-107.26
X154.71Y-109.8
X154.71Y-112.34
X154.71Y-114.88
X154.71Y-117.42
X154.86Y-123.15
X157.4Y-123.15
X159.94Y-123.15
X162.48Y-123.15
X165.02Y-123.15
X167.56Y-123.15
T4
X99.5Y-127.5
X104.58Y-127.5
X109.35Y-127.45
X114.43Y-127.45
T5
X93.3Y-90.0
X93.3Y-127.0
X147.5Y-90.0
X147.5Y-127.0
T0
M30
