M48
; DRILL file {KiCad (5.1.9-0-10_14)} date Sunday, March 07, 2021 at 08:35:08 PM
; FORMAT={-:-/ absolute / inch / decimal}
; #@! TF.CreationDate,2021-03-07T20:35:08-05:00
; #@! TF.GenerationSoftware,Kicad,Pcbnew,(5.1.9-0-10_14)
; #@! TF.FileFunction,Plated,1,2,PTH
FMAT,2
INCH
T1C0.0118
T2C0.0157
T3C0.0400
T4C0.0591
T5C0.1575
%
G90
G05
T1
X6.3791Y-4.528
X6.3961Y-4.0209
X6.3996Y-4.4106
X6.3996Y-4.4362
X6.3996Y-4.4618
X6.3996Y-4.4874
X6.3996Y-4.5122
X6.4008Y-4.0957
X6.4008Y-4.1205
X6.4008Y-4.1453
X6.4008Y-4.1717
X6.4012Y-4.0457
X6.4012Y-4.0705
X6.4047Y-4.2555
X6.4047Y-4.3248
X6.4055Y-4.2898
X6.439Y-4.0949
X6.439Y-4.1197
X6.439Y-4.1453
X6.439Y-4.1717
X6.4394Y-4.0701
X6.4398Y-4.0453
X6.4402Y-4.2551
X6.4402Y-4.2902
X6.4406Y-4.3252
X6.4409Y-4.4106
X6.4409Y-4.4362
X6.4409Y-4.4618
X6.4409Y-4.4874
X6.4409Y-4.513
X6.4461Y-4.0205
X6.4622Y-4.5276
X6.4744Y-4.3252
X6.4748Y-4.2906
X6.4752Y-4.2551
T2
X3.5634Y-4.5503
X3.5634Y-4.5988
X3.5634Y-4.6492
X3.6331Y-4.5503
X3.7102Y-4.5503
X3.7547Y-4.4102
X3.7701Y-4.3488
X3.7867Y-4.4836
X3.7949Y-4.2142
X3.8113Y-4.3266
X3.8113Y-4.4311
X3.8398Y-4.2662
X3.8791Y-4.2449
X3.9071Y-4.5154
X3.9186Y-4.1828
X3.926Y-4.2606
X3.9315Y-4.2996
X3.9354Y-4.1453
X3.9516Y-4.1094
X4.002Y-4.6957
X4.0165Y-4.222
X4.0165Y-4.2693
X4.057Y-4.2552
X4.0937Y-4.4028
X4.1054Y-4.2215
X4.1067Y-4.5764
X4.1452Y-4.2627
X4.1476Y-4.4008
X4.1765Y-4.294
X4.1898Y-4.6063
X4.2079Y-4.4325
X4.222Y-3.6941
X4.2492Y-4.6035
X4.2583Y-3.5047
X4.265Y-4.4325
X4.322Y-4.1736
X4.3539Y-4.5644
X4.3539Y-4.648
X4.3661Y-4.0335
X4.3677Y-4.2949
X4.5417Y-4.3764
X4.6276Y-4.7661
X4.6425Y-4.7228
X4.6524Y-4.1406
X4.7004Y-3.9228
X4.7301Y-4.0307
X4.7378Y-3.953
X4.7484Y-3.91
X4.7589Y-4.3335
X4.7827Y-4.0667
X4.8117Y-4.2453
X4.8319Y-4.3181
X4.8354Y-3.6232
X4.8526Y-4.0188
X4.8562Y-4.2687
X4.8678Y-4.0504
X4.876Y-4.2346
X4.8858Y-4.1886
X4.937Y-4.3626
X4.9816Y-4.2907
X4.9988Y-4.6795
X5.1713Y-4.063
X5.1976Y-4.7228
X5.2105Y-4.1196
X5.2315Y-4.8307
X5.2391Y-4.2615
X5.2421Y-4.1823
X5.2512Y-4.3472
X5.2626Y-4.4933
X5.2626Y-4.6472
X5.2634Y-4.4398
X5.2642Y-4.5508
X5.2642Y-4.5992
X5.2866Y-4.3039
X5.2902Y-3.661
X5.2933Y-4.7071
X5.3228Y-4.4587
X5.3248Y-4.6449
X5.3362Y-4.2575
X5.3567Y-4.5909
X5.372Y-4.3539
X5.3791Y-4.0811
X5.3835Y-4.2669
X5.398Y-3.9772
X5.4012Y-4.5492
X5.4012Y-4.7417
X5.4484Y-3.7909
X5.6677Y-4.6378
X5.6957Y-4.1193
X5.7154Y-4.6862
X5.7437Y-4.1827
X5.7437Y-4.3142
X5.7762Y-4.2423
X5.8047Y-4.3228
X5.8146Y-4.2661
X5.8382Y-4.3717
X5.8398Y-4.4732
X5.926Y-4.7181
X5.9331Y-4.3717
X5.9339Y-4.2724
X5.9366Y-4.1717
X5.9378Y-4.072
X5.9386Y-3.976
X6.0276Y-3.8563
X6.0346Y-4.2677
X6.0362Y-3.9709
X6.0378Y-4.4705
X6.0378Y-4.5689
X6.0378Y-4.6744
X6.0406Y-4.3705
X6.0437Y-4.1709
X6.0452Y-4.0696
X6.0728Y-3.8563
X6.0803Y-4.6819
X6.1126Y-3.8563
X6.1287Y-4.6819
X6.163Y-3.8638
X6.1644Y-4.0808
X6.1654Y-4.1268
X6.1669Y-3.9579
X6.1669Y-4.6339
X6.1669Y-3.9977
X6.172Y-4.6807
X6.1732Y-4.587
X6.1737Y-4.1652
X6.1744Y-4.4969
X6.2126Y-4.4571
X6.2138Y-3.8626
X6.215Y-4.6807
X6.2512Y-4.939
X6.2567Y-4.5535
X6.2567Y-4.5976
X6.2591Y-4.6366
X6.263Y-3.8626
X6.263Y-4.6823
X6.2657Y-3.9106
X6.2669Y-3.9575
X6.2685Y-4.0043
X6.2815Y-4.45
X6.2827Y-4.513
X6.3008Y-4.0421
X6.3217Y-4.3917
X6.3248Y-4.436
X6.3346Y-4.5146
X6.3358Y-4.478
X6.3433Y-4.9689
X6.3488Y-4.0421
X6.3543Y-4.3622
X6.4012Y-4.9547
X6.4894Y-4.0406
X6.5075Y-4.5028
X6.5165Y-4.2173
X6.5374Y-4.0394
X6.5531Y-4.5039
X6.5563Y-4.272
X6.5563Y-4.3169
X6.5566Y-4.3593
X6.5657Y-4.2213
X6.576Y-4.124
X6.5803Y-3.9055
X6.5803Y-3.9575
X6.5815Y-3.8614
X6.5831Y-4.0055
X6.5843Y-4.5445
X6.5866Y-4.5949
X6.5882Y-4.6394
X6.5906Y-4.6835
X6.6323Y-3.8598
X6.635Y-3.9067
X6.6362Y-3.9535
X6.6362Y-4.1642
X6.6374Y-4.0551
X6.6374Y-4.1094
X6.639Y-4.0071
X6.6396Y-4.3552
X6.6402Y-4.3996
X6.6402Y-4.2138
X6.6402Y-4.2591
X6.6402Y-4.3087
X6.6413Y-4.4976
X6.6413Y-4.5976
X6.6413Y-4.6433
X6.6413Y-4.6823
X6.6425Y-4.4508
X6.6425Y-4.5457
T3
X3.6201Y-4.7248
X3.7201Y-4.7248
X3.8201Y-4.7248
X3.9201Y-4.7248
X4.4919Y-3.8246
X4.4919Y-3.9246
X4.4919Y-4.0246
X4.4919Y-4.1246
X4.4919Y-4.2246
X4.4919Y-4.3246
X4.4919Y-4.4246
X4.4919Y-4.5246
X4.4919Y-4.6246
X4.4919Y-4.7236
X4.4919Y-4.8236
X4.4921Y-3.7246
X4.9776Y-4.0736
X4.9776Y-4.1736
X4.9776Y-4.4736
X4.9776Y-4.5736
X5.0399Y-3.6246
X5.0921Y-3.7236
X5.0925Y-3.8236
X5.0925Y-3.9236
X5.0925Y-4.0236
X5.0925Y-4.1236
X5.0925Y-4.2236
X5.0925Y-4.3236
X5.0925Y-4.4236
X5.0925Y-4.5236
X5.0925Y-4.6236
X5.0925Y-4.7236
X5.0925Y-4.8236
X5.8866Y-3.9228
X5.8866Y-4.0228
X5.8866Y-4.1228
X5.8866Y-4.2228
X5.8866Y-4.3228
X5.8866Y-4.4228
X5.8866Y-4.5228
X5.8866Y-4.6228
X6.0909Y-3.9228
X6.0909Y-4.0228
X6.0909Y-4.1228
X6.0909Y-4.2228
X6.0909Y-4.3228
X6.0909Y-4.4228
X6.0909Y-4.5228
X6.0909Y-4.6228
X6.0969Y-4.8484
X6.1969Y-4.8484
X6.2969Y-4.8484
X6.3969Y-4.8484
X6.4969Y-4.8484
X6.5969Y-4.8484
T4
X3.9173Y-5.0197
X4.1173Y-5.0197
X4.3051Y-5.0177
X4.5051Y-5.0177
T5
X3.6732Y-3.5433
X3.6732Y-5.0
X5.8071Y-3.5433
X5.8071Y-5.0
T0
M30
