G04 #@! TF.GenerationSoftware,KiCad,Pcbnew,(5.1.9-0-10_14)*
G04 #@! TF.CreationDate,2021-06-02T08:38:30-04:00*
G04 #@! TF.ProjectId,Arducon,41726475-636f-46e2-9e6b-696361645f70,rev?*
G04 #@! TF.SameCoordinates,Original*
G04 #@! TF.FileFunction,Soldermask,Bot*
G04 #@! TF.FilePolarity,Negative*
%FSLAX46Y46*%
G04 Gerber Fmt 4.6, Leading zero omitted, Abs format (unit mm)*
G04 Created by KiCad (PCBNEW (5.1.9-0-10_14)) date 2021-06-02 08:38:30*
%MOMM*%
%LPD*%
G01*
G04 APERTURE LIST*
%ADD10C,0.100000*%
%ADD11R,1.000000X4.500000*%
%ADD12O,2.032000X1.727200*%
%ADD13R,2.032000X1.727200*%
%ADD14O,1.727200X2.032000*%
%ADD15R,6.350000X4.500000*%
%ADD16R,4.500000X6.350000*%
%ADD17R,1.778000X4.000000*%
%ADD18C,1.300000*%
%ADD19C,1.000000*%
%ADD20R,2.600000X3.540000*%
%ADD21R,2.600000X3.660000*%
%ADD22R,1.727200X2.032000*%
%ADD23C,0.500000*%
%ADD24R,0.800100X0.800100*%
%ADD25R,3.100000X1.000000*%
%ADD26O,3.100000X1.000000*%
%ADD27C,5.000000*%
%ADD28R,5.080000X1.778000*%
%ADD29R,3.500120X3.500120*%
%ADD30C,3.500120*%
%ADD31C,0.150000*%
%ADD32R,2.032000X2.032000*%
%ADD33R,0.700000X1.300000*%
%ADD34C,0.900000*%
%ADD35C,0.254000*%
G04 APERTURE END LIST*
D10*
G36*
X166250000Y-106400000D02*
G01*
X166225000Y-111625000D01*
X160875000Y-111625000D01*
X160900000Y-106375000D01*
X166250000Y-106400000D01*
G37*
X166250000Y-106400000D02*
X166225000Y-111625000D01*
X160875000Y-111625000D01*
X160900000Y-106375000D01*
X166250000Y-106400000D01*
D11*
X160390000Y-117560000D03*
X165740000Y-117560000D03*
D12*
X126430000Y-113630000D03*
X126430000Y-116170000D03*
X126430000Y-106010000D03*
X126430000Y-103470000D03*
X129350000Y-122520000D03*
X129350000Y-119980000D03*
X114095100Y-122520000D03*
X114095100Y-119980000D03*
X129350000Y-117440000D03*
X129350000Y-114900000D03*
X129350000Y-112360000D03*
X129350000Y-109820000D03*
X129350000Y-107280000D03*
X129350000Y-104740000D03*
X129350000Y-102200000D03*
X129350000Y-99660000D03*
D13*
X129350000Y-97120000D03*
D12*
X129340000Y-94580000D03*
X114095100Y-117465400D03*
X114095100Y-114925400D03*
X114095100Y-112385400D03*
X114095100Y-109845400D03*
X114095100Y-107305400D03*
X114095100Y-104765400D03*
D13*
X114095100Y-102225400D03*
D12*
X114095100Y-99685400D03*
X114095100Y-97145400D03*
X114100000Y-94605400D03*
D14*
X128012850Y-92065150D03*
X115426850Y-92065150D03*
X126810000Y-122520000D03*
X124270000Y-122520000D03*
D13*
X121720000Y-122520000D03*
D15*
X163070000Y-99400000D03*
D16*
X170200000Y-104200000D03*
D17*
X156579999Y-128682999D03*
X159373999Y-128682999D03*
X162167999Y-128682999D03*
X164961999Y-128682999D03*
D18*
X104560000Y-93040000D03*
D19*
X104560000Y-100540000D03*
D20*
X104560000Y-88810000D03*
D21*
X104560000Y-104610000D03*
D14*
X167560000Y-123150000D03*
X165020000Y-123150000D03*
X162480000Y-123150000D03*
X159940000Y-123150000D03*
X157400000Y-123150000D03*
D22*
X154860000Y-123150000D03*
D23*
X152190000Y-130380000D03*
X152170000Y-129410000D03*
X152190000Y-128420000D03*
X152170000Y-127510000D03*
X152180000Y-126570000D03*
X152180000Y-125650000D03*
X152170000Y-124740000D03*
X152170000Y-123810000D03*
X152170000Y-122900000D03*
X152170000Y-121990000D03*
D24*
X102621780Y-123090000D03*
X104620760Y-124040000D03*
X104620760Y-122140000D03*
D25*
X125550000Y-96050000D03*
D26*
X117610000Y-96050000D03*
X125550000Y-98590000D03*
X117610000Y-98590000D03*
X125550000Y-101130000D03*
X117610000Y-101130000D03*
D27*
X93300000Y-127000000D03*
X147500000Y-127000000D03*
X147500000Y-90000000D03*
X93300000Y-90000000D03*
D23*
X152180000Y-98050000D03*
X152180000Y-98960000D03*
X152180000Y-100120000D03*
X152180000Y-101040000D03*
X152180000Y-102210000D03*
X152180000Y-103140000D03*
X152180000Y-104080000D03*
X152180000Y-105310000D03*
X152180000Y-106220000D03*
X152180000Y-107400000D03*
X152180000Y-108340000D03*
X152180000Y-109270000D03*
X152180000Y-110470000D03*
X152180000Y-111400000D03*
X152180000Y-112570000D03*
X152180000Y-117700000D03*
X152180000Y-113490000D03*
X152180000Y-114410000D03*
X152180000Y-115630000D03*
X152180000Y-116550000D03*
X152180000Y-118600000D03*
X152180000Y-119490000D03*
D28*
X91940000Y-112691000D03*
X91940000Y-109897000D03*
X91940000Y-107103000D03*
X91940000Y-104309000D03*
D29*
X104580000Y-127500000D03*
D30*
X99500000Y-127500000D03*
D31*
G36*
X98068000Y-111784000D02*
G01*
X100092000Y-111784000D01*
X99592000Y-113308000D01*
X98568000Y-113308000D01*
X98068000Y-111784000D01*
G37*
G36*
X100080570Y-111464570D02*
G01*
X98079430Y-111464570D01*
X98579430Y-109963430D01*
X99580570Y-109963430D01*
X100080570Y-111464570D01*
G37*
G36*
X141454570Y-105239430D02*
G01*
X141454570Y-107240570D01*
X139953430Y-106740570D01*
X139953430Y-105739430D01*
X141454570Y-105239430D01*
G37*
G36*
X141774000Y-107252000D02*
G01*
X141774000Y-105228000D01*
X143298000Y-105728000D01*
X143298000Y-106752000D01*
X141774000Y-107252000D01*
G37*
G36*
X141774000Y-109564000D02*
G01*
X141774000Y-107540000D01*
X143298000Y-108040000D01*
X143298000Y-109064000D01*
X141774000Y-109564000D01*
G37*
G36*
X141454570Y-107551430D02*
G01*
X141454570Y-109552570D01*
X139953430Y-109052570D01*
X139953430Y-108051430D01*
X141454570Y-107551430D01*
G37*
G36*
X141454570Y-109863430D02*
G01*
X141454570Y-111864570D01*
X139953430Y-111364570D01*
X139953430Y-110363430D01*
X141454570Y-109863430D01*
G37*
G36*
X141774000Y-111876000D02*
G01*
X141774000Y-109852000D01*
X143298000Y-110352000D01*
X143298000Y-111376000D01*
X141774000Y-111876000D01*
G37*
G36*
X141774000Y-114188000D02*
G01*
X141774000Y-112164000D01*
X143298000Y-112664000D01*
X143298000Y-113688000D01*
X141774000Y-114188000D01*
G37*
G36*
X141454570Y-112175430D02*
G01*
X141454570Y-114176570D01*
X139953430Y-113676570D01*
X139953430Y-112675430D01*
X141454570Y-112175430D01*
G37*
G36*
X141454570Y-114487430D02*
G01*
X141454570Y-116488570D01*
X139953430Y-115988570D01*
X139953430Y-114987430D01*
X141454570Y-114487430D01*
G37*
G36*
X141774000Y-116500000D02*
G01*
X141774000Y-114476000D01*
X143298000Y-114976000D01*
X143298000Y-116000000D01*
X141774000Y-116500000D01*
G37*
G36*
X141774000Y-118812000D02*
G01*
X141774000Y-116788000D01*
X143298000Y-117288000D01*
X143298000Y-118312000D01*
X141774000Y-118812000D01*
G37*
G36*
X141454570Y-116799430D02*
G01*
X141454570Y-118800570D01*
X139953430Y-118300570D01*
X139953430Y-117299430D01*
X141454570Y-116799430D01*
G37*
D13*
X149520000Y-99640000D03*
D12*
X149520000Y-102180000D03*
X149520000Y-104720000D03*
X149520000Y-107260000D03*
X149520000Y-109800000D03*
X149520000Y-112340000D03*
X149520000Y-114880000D03*
X149520000Y-117420000D03*
X154710000Y-117420000D03*
X154710000Y-114880000D03*
X154710000Y-112340000D03*
X154710000Y-109800000D03*
X154710000Y-107260000D03*
X154710000Y-104720000D03*
X154710000Y-102180000D03*
D13*
X154710000Y-99640000D03*
D29*
X114430000Y-127450000D03*
D30*
X109350000Y-127450000D03*
D31*
G36*
X98487000Y-123742000D02*
G01*
X98487000Y-121718000D01*
X100011000Y-122218000D01*
X100011000Y-123242000D01*
X98487000Y-123742000D01*
G37*
G36*
X95681570Y-121729430D02*
G01*
X95681570Y-123730570D01*
X94180430Y-123230570D01*
X94180430Y-122229430D01*
X95681570Y-121729430D01*
G37*
D32*
X97090000Y-122730000D03*
D33*
X106470000Y-122510000D03*
X108370000Y-122510000D03*
D22*
X91950000Y-120010000D03*
D14*
X94490000Y-120010000D03*
X97030000Y-120010000D03*
X99570000Y-120010000D03*
D34*
X137440000Y-89585000D03*
X134440000Y-89585000D03*
D22*
X142640000Y-95810000D03*
D14*
X140100000Y-95810000D03*
X137560000Y-95810000D03*
X135020000Y-95810000D03*
D35*
X95943000Y-123593000D02*
X95807000Y-123593000D01*
X95807000Y-121863785D01*
X95943000Y-121860298D01*
X95943000Y-123593000D01*
D31*
G36*
X95943000Y-123593000D02*
G01*
X95807000Y-123593000D01*
X95807000Y-121863785D01*
X95943000Y-121860298D01*
X95943000Y-123593000D01*
G37*
D35*
X98353000Y-123619521D02*
X98237000Y-123616386D01*
X98237000Y-121849965D01*
X98353000Y-121843860D01*
X98353000Y-123619521D01*
D31*
G36*
X98353000Y-123619521D02*
G01*
X98237000Y-123616386D01*
X98237000Y-121849965D01*
X98353000Y-121843860D01*
X98353000Y-123619521D01*
G37*
D35*
X99958969Y-111653000D02*
X98201163Y-111653000D01*
X98203292Y-111587000D01*
X99956907Y-111587000D01*
X99958969Y-111653000D01*
D31*
G36*
X99958969Y-111653000D02*
G01*
X98201163Y-111653000D01*
X98203292Y-111587000D01*
X99956907Y-111587000D01*
X99958969Y-111653000D01*
G37*
D35*
X141623631Y-107123000D02*
X141567639Y-107123000D01*
X141576464Y-105367000D01*
X141632367Y-105367000D01*
X141623631Y-107123000D01*
D31*
G36*
X141623631Y-107123000D02*
G01*
X141567639Y-107123000D01*
X141576464Y-105367000D01*
X141632367Y-105367000D01*
X141623631Y-107123000D01*
G37*
D35*
X141623567Y-109455820D02*
X141594908Y-109458890D01*
X141568555Y-107693242D01*
X141632346Y-107691184D01*
X141623567Y-109455820D01*
D31*
G36*
X141623567Y-109455820D02*
G01*
X141594908Y-109458890D01*
X141568555Y-107693242D01*
X141632346Y-107691184D01*
X141623567Y-109455820D01*
G37*
D35*
X141653000Y-111730251D02*
X141565647Y-111735389D01*
X141548051Y-109993316D01*
X141653000Y-109990479D01*
X141653000Y-111730251D01*
D31*
G36*
X141653000Y-111730251D02*
G01*
X141565647Y-111735389D01*
X141548051Y-109993316D01*
X141653000Y-109990479D01*
X141653000Y-111730251D01*
G37*
D35*
X141623634Y-114043000D02*
X141575090Y-114043000D01*
X141548846Y-112310887D01*
X141632321Y-112305502D01*
X141623634Y-114043000D01*
D31*
G36*
X141623634Y-114043000D02*
G01*
X141575090Y-114043000D01*
X141548846Y-112310887D01*
X141632321Y-112305502D01*
X141623634Y-114043000D01*
G37*
D35*
X141634250Y-116346868D02*
X141567670Y-116348948D01*
X141576404Y-114637000D01*
X141651698Y-114637000D01*
X141634250Y-116346868D01*
D31*
G36*
X141634250Y-116346868D02*
G01*
X141567670Y-116348948D01*
X141576404Y-114637000D01*
X141651698Y-114637000D01*
X141634250Y-116346868D01*
G37*
D35*
X141631730Y-118683000D02*
X141567000Y-118683000D01*
X141567000Y-116927000D01*
X141614257Y-116927000D01*
X141631730Y-118683000D01*
D31*
G36*
X141631730Y-118683000D02*
G01*
X141567000Y-118683000D01*
X141567000Y-116927000D01*
X141614257Y-116927000D01*
X141631730Y-118683000D01*
G37*
M02*
