G04 #@! TF.GenerationSoftware,KiCad,Pcbnew,(5.1.8-0-10_14)*
G04 #@! TF.CreationDate,2020-12-09T10:57:28-05:00*
G04 #@! TF.ProjectId,Arducon,41726475-636f-46e2-9e6b-696361645f70,rev?*
G04 #@! TF.SameCoordinates,Original*
G04 #@! TF.FileFunction,Paste,Top*
G04 #@! TF.FilePolarity,Positive*
%FSLAX46Y46*%
G04 Gerber Fmt 4.6, Leading zero omitted, Abs format (unit mm)*
G04 Created by KiCad (PCBNEW (5.1.8-0-10_14)) date 2020-12-09 10:57:28*
%MOMM*%
%LPD*%
G01*
G04 APERTURE LIST*
%ADD10R,0.750000X0.750000*%
%ADD11R,1.000000X1.250000*%
%ADD12R,0.700000X1.300000*%
%ADD13R,1.300000X0.700000*%
%ADD14R,0.812800X4.500000*%
%ADD15R,0.760000X4.500000*%
%ADD16R,0.680000X0.380000*%
%ADD17R,2.600000X3.660000*%
%ADD18R,2.600000X3.540000*%
%ADD19R,1.198880X1.198880*%
%ADD20R,0.800100X0.800100*%
%ADD21R,0.431180X0.179720*%
%ADD22R,2.700000X1.600000*%
%ADD23R,2.500000X1.200000*%
%ADD24C,0.100000*%
%ADD25R,1.750000X1.300000*%
%ADD26R,0.650000X1.060000*%
%ADD27R,1.500000X0.600000*%
%ADD28R,0.800000X0.800000*%
%ADD29R,2.000000X1.100000*%
%ADD30R,0.360000X0.250000*%
%ADD31R,0.250000X0.360000*%
G04 APERTURE END LIST*
G36*
G01*
X162645000Y-111300000D02*
X162495000Y-111300000D01*
G75*
G02*
X162420000Y-111225000I0J75000D01*
G01*
X162420000Y-110645000D01*
G75*
G02*
X162495000Y-110570000I75000J0D01*
G01*
X162645000Y-110570000D01*
G75*
G02*
X162720000Y-110645000I0J-75000D01*
G01*
X162720000Y-111225000D01*
G75*
G02*
X162645000Y-111300000I-75000J0D01*
G01*
G37*
G36*
G01*
X163145000Y-111300000D02*
X162995000Y-111300000D01*
G75*
G02*
X162920000Y-111225000I0J75000D01*
G01*
X162920000Y-110645000D01*
G75*
G02*
X162995000Y-110570000I75000J0D01*
G01*
X163145000Y-110570000D01*
G75*
G02*
X163220000Y-110645000I0J-75000D01*
G01*
X163220000Y-111225000D01*
G75*
G02*
X163145000Y-111300000I-75000J0D01*
G01*
G37*
G36*
G01*
X163645000Y-111300000D02*
X163495000Y-111300000D01*
G75*
G02*
X163420000Y-111225000I0J75000D01*
G01*
X163420000Y-110645000D01*
G75*
G02*
X163495000Y-110570000I75000J0D01*
G01*
X163645000Y-110570000D01*
G75*
G02*
X163720000Y-110645000I0J-75000D01*
G01*
X163720000Y-111225000D01*
G75*
G02*
X163645000Y-111300000I-75000J0D01*
G01*
G37*
G36*
G01*
X164145000Y-111300000D02*
X163995000Y-111300000D01*
G75*
G02*
X163920000Y-111225000I0J75000D01*
G01*
X163920000Y-110645000D01*
G75*
G02*
X163995000Y-110570000I75000J0D01*
G01*
X164145000Y-110570000D01*
G75*
G02*
X164220000Y-110645000I0J-75000D01*
G01*
X164220000Y-111225000D01*
G75*
G02*
X164145000Y-111300000I-75000J0D01*
G01*
G37*
G36*
G01*
X164645000Y-111300000D02*
X164495000Y-111300000D01*
G75*
G02*
X164420000Y-111225000I0J75000D01*
G01*
X164420000Y-110645000D01*
G75*
G02*
X164495000Y-110570000I75000J0D01*
G01*
X164645000Y-110570000D01*
G75*
G02*
X164720000Y-110645000I0J-75000D01*
G01*
X164720000Y-111225000D01*
G75*
G02*
X164645000Y-111300000I-75000J0D01*
G01*
G37*
G36*
G01*
X165900000Y-109895000D02*
X165900000Y-110045000D01*
G75*
G02*
X165825000Y-110120000I-75000J0D01*
G01*
X165245000Y-110120000D01*
G75*
G02*
X165170000Y-110045000I0J75000D01*
G01*
X165170000Y-109895000D01*
G75*
G02*
X165245000Y-109820000I75000J0D01*
G01*
X165825000Y-109820000D01*
G75*
G02*
X165900000Y-109895000I0J-75000D01*
G01*
G37*
G36*
G01*
X165900000Y-109395000D02*
X165900000Y-109545000D01*
G75*
G02*
X165825000Y-109620000I-75000J0D01*
G01*
X165245000Y-109620000D01*
G75*
G02*
X165170000Y-109545000I0J75000D01*
G01*
X165170000Y-109395000D01*
G75*
G02*
X165245000Y-109320000I75000J0D01*
G01*
X165825000Y-109320000D01*
G75*
G02*
X165900000Y-109395000I0J-75000D01*
G01*
G37*
G36*
G01*
X165900000Y-108895000D02*
X165900000Y-109045000D01*
G75*
G02*
X165825000Y-109120000I-75000J0D01*
G01*
X165245000Y-109120000D01*
G75*
G02*
X165170000Y-109045000I0J75000D01*
G01*
X165170000Y-108895000D01*
G75*
G02*
X165245000Y-108820000I75000J0D01*
G01*
X165825000Y-108820000D01*
G75*
G02*
X165900000Y-108895000I0J-75000D01*
G01*
G37*
G36*
G01*
X165900000Y-108395000D02*
X165900000Y-108545000D01*
G75*
G02*
X165825000Y-108620000I-75000J0D01*
G01*
X165245000Y-108620000D01*
G75*
G02*
X165170000Y-108545000I0J75000D01*
G01*
X165170000Y-108395000D01*
G75*
G02*
X165245000Y-108320000I75000J0D01*
G01*
X165825000Y-108320000D01*
G75*
G02*
X165900000Y-108395000I0J-75000D01*
G01*
G37*
G36*
G01*
X165900000Y-107895000D02*
X165900000Y-108045000D01*
G75*
G02*
X165825000Y-108120000I-75000J0D01*
G01*
X165245000Y-108120000D01*
G75*
G02*
X165170000Y-108045000I0J75000D01*
G01*
X165170000Y-107895000D01*
G75*
G02*
X165245000Y-107820000I75000J0D01*
G01*
X165825000Y-107820000D01*
G75*
G02*
X165900000Y-107895000I0J-75000D01*
G01*
G37*
G36*
G01*
X164645000Y-107370000D02*
X164495000Y-107370000D01*
G75*
G02*
X164420000Y-107295000I0J75000D01*
G01*
X164420000Y-106715000D01*
G75*
G02*
X164495000Y-106640000I75000J0D01*
G01*
X164645000Y-106640000D01*
G75*
G02*
X164720000Y-106715000I0J-75000D01*
G01*
X164720000Y-107295000D01*
G75*
G02*
X164645000Y-107370000I-75000J0D01*
G01*
G37*
G36*
G01*
X164145000Y-107370000D02*
X163995000Y-107370000D01*
G75*
G02*
X163920000Y-107295000I0J75000D01*
G01*
X163920000Y-106715000D01*
G75*
G02*
X163995000Y-106640000I75000J0D01*
G01*
X164145000Y-106640000D01*
G75*
G02*
X164220000Y-106715000I0J-75000D01*
G01*
X164220000Y-107295000D01*
G75*
G02*
X164145000Y-107370000I-75000J0D01*
G01*
G37*
G36*
G01*
X163645000Y-107370000D02*
X163495000Y-107370000D01*
G75*
G02*
X163420000Y-107295000I0J75000D01*
G01*
X163420000Y-106715000D01*
G75*
G02*
X163495000Y-106640000I75000J0D01*
G01*
X163645000Y-106640000D01*
G75*
G02*
X163720000Y-106715000I0J-75000D01*
G01*
X163720000Y-107295000D01*
G75*
G02*
X163645000Y-107370000I-75000J0D01*
G01*
G37*
G36*
G01*
X163145000Y-107370000D02*
X162995000Y-107370000D01*
G75*
G02*
X162920000Y-107295000I0J75000D01*
G01*
X162920000Y-106715000D01*
G75*
G02*
X162995000Y-106640000I75000J0D01*
G01*
X163145000Y-106640000D01*
G75*
G02*
X163220000Y-106715000I0J-75000D01*
G01*
X163220000Y-107295000D01*
G75*
G02*
X163145000Y-107370000I-75000J0D01*
G01*
G37*
G36*
G01*
X162645000Y-107370000D02*
X162495000Y-107370000D01*
G75*
G02*
X162420000Y-107295000I0J75000D01*
G01*
X162420000Y-106715000D01*
G75*
G02*
X162495000Y-106640000I75000J0D01*
G01*
X162645000Y-106640000D01*
G75*
G02*
X162720000Y-106715000I0J-75000D01*
G01*
X162720000Y-107295000D01*
G75*
G02*
X162645000Y-107370000I-75000J0D01*
G01*
G37*
G36*
G01*
X161970000Y-107895000D02*
X161970000Y-108045000D01*
G75*
G02*
X161895000Y-108120000I-75000J0D01*
G01*
X161315000Y-108120000D01*
G75*
G02*
X161240000Y-108045000I0J75000D01*
G01*
X161240000Y-107895000D01*
G75*
G02*
X161315000Y-107820000I75000J0D01*
G01*
X161895000Y-107820000D01*
G75*
G02*
X161970000Y-107895000I0J-75000D01*
G01*
G37*
G36*
G01*
X161970000Y-108395000D02*
X161970000Y-108545000D01*
G75*
G02*
X161895000Y-108620000I-75000J0D01*
G01*
X161315000Y-108620000D01*
G75*
G02*
X161240000Y-108545000I0J75000D01*
G01*
X161240000Y-108395000D01*
G75*
G02*
X161315000Y-108320000I75000J0D01*
G01*
X161895000Y-108320000D01*
G75*
G02*
X161970000Y-108395000I0J-75000D01*
G01*
G37*
G36*
G01*
X161970000Y-108895000D02*
X161970000Y-109045000D01*
G75*
G02*
X161895000Y-109120000I-75000J0D01*
G01*
X161315000Y-109120000D01*
G75*
G02*
X161240000Y-109045000I0J75000D01*
G01*
X161240000Y-108895000D01*
G75*
G02*
X161315000Y-108820000I75000J0D01*
G01*
X161895000Y-108820000D01*
G75*
G02*
X161970000Y-108895000I0J-75000D01*
G01*
G37*
G36*
G01*
X161970000Y-109395000D02*
X161970000Y-109545000D01*
G75*
G02*
X161895000Y-109620000I-75000J0D01*
G01*
X161315000Y-109620000D01*
G75*
G02*
X161240000Y-109545000I0J75000D01*
G01*
X161240000Y-109395000D01*
G75*
G02*
X161315000Y-109320000I75000J0D01*
G01*
X161895000Y-109320000D01*
G75*
G02*
X161970000Y-109395000I0J-75000D01*
G01*
G37*
G36*
G01*
X161970000Y-109895000D02*
X161970000Y-110045000D01*
G75*
G02*
X161895000Y-110120000I-75000J0D01*
G01*
X161315000Y-110120000D01*
G75*
G02*
X161240000Y-110045000I0J75000D01*
G01*
X161240000Y-109895000D01*
G75*
G02*
X161315000Y-109820000I75000J0D01*
G01*
X161895000Y-109820000D01*
G75*
G02*
X161970000Y-109895000I0J-75000D01*
G01*
G37*
D10*
X164195000Y-108345000D03*
X162945000Y-108345000D03*
X164195000Y-109595000D03*
X162945000Y-109595000D03*
D11*
X122270000Y-113300000D03*
X124270000Y-113300000D03*
X117180000Y-106270000D03*
X119180000Y-106270000D03*
X98000000Y-104340000D03*
X96000000Y-104340000D03*
X126480000Y-94490000D03*
X124480000Y-94490000D03*
X142270000Y-99270000D03*
X140270000Y-99270000D03*
X140390000Y-105600000D03*
X142390000Y-105600000D03*
X100200000Y-115890000D03*
X98200000Y-115890000D03*
X117180000Y-104240000D03*
X119180000Y-104240000D03*
X126510000Y-96670000D03*
X124510000Y-96670000D03*
X167600000Y-112780000D03*
X165600000Y-112780000D03*
D12*
X121190000Y-108480000D03*
X119290000Y-108480000D03*
D13*
X124060000Y-111530000D03*
X124060000Y-109630000D03*
X117390000Y-110050000D03*
X117390000Y-108150000D03*
X117390000Y-113290000D03*
X117390000Y-111390000D03*
X117150000Y-117710000D03*
X117150000Y-119610000D03*
X103080000Y-108930000D03*
X103080000Y-110830000D03*
X104490000Y-119020000D03*
X104490000Y-120920000D03*
D12*
X98000000Y-113360000D03*
X99900000Y-113360000D03*
D13*
X126120000Y-109630000D03*
X126120000Y-111530000D03*
D14*
X160300000Y-117570000D03*
D15*
X163070000Y-117570000D03*
D14*
X165840000Y-117570000D03*
X165840000Y-99400000D03*
D15*
X163070000Y-99400000D03*
D14*
X160300000Y-99400000D03*
D16*
X122340000Y-104170000D03*
X122340000Y-105070000D03*
X122340000Y-105970000D03*
X122340000Y-106870000D03*
X121140000Y-104170000D03*
X121140000Y-105070000D03*
X121140000Y-105970000D03*
X121140000Y-106870000D03*
D17*
X103460000Y-104800000D03*
D18*
X103460000Y-89000000D03*
D19*
X120590980Y-128880000D03*
X122689020Y-128880000D03*
D20*
X100790760Y-110120000D03*
X100790760Y-108220000D03*
X98791780Y-109170000D03*
D21*
X105911180Y-124150380D03*
X105911180Y-123650000D03*
X105911180Y-123149620D03*
X107348820Y-123149620D03*
X107348820Y-123650000D03*
X107348820Y-124150380D03*
D22*
X103430000Y-114770000D03*
D23*
X107930000Y-115770000D03*
X107930000Y-113770000D03*
D24*
G36*
X146380570Y-101844570D02*
G01*
X144379430Y-101844570D01*
X144879430Y-100343430D01*
X145880570Y-100343430D01*
X146380570Y-101844570D01*
G37*
G36*
X144368000Y-102164000D02*
G01*
X146392000Y-102164000D01*
X145892000Y-103688000D01*
X144868000Y-103688000D01*
X144368000Y-102164000D01*
G37*
D25*
X141410000Y-124210000D03*
X133610000Y-124210000D03*
X133610000Y-128710000D03*
X141410000Y-128710000D03*
D26*
X142280000Y-100980000D03*
X141330000Y-100980000D03*
X140380000Y-100980000D03*
X140380000Y-103180000D03*
X142280000Y-103180000D03*
D27*
X138930000Y-107565000D03*
X138930000Y-108835000D03*
X138930000Y-110105000D03*
X138930000Y-111375000D03*
X138930000Y-112645000D03*
X138930000Y-113915000D03*
X138930000Y-115185000D03*
X138930000Y-116455000D03*
X144330000Y-116455000D03*
X144330000Y-115185000D03*
X144330000Y-113915000D03*
X144330000Y-112645000D03*
X144330000Y-111375000D03*
X144330000Y-110105000D03*
X144330000Y-108835000D03*
X144330000Y-107565000D03*
D28*
X130700000Y-91590000D03*
D29*
X128800000Y-91590000D03*
D30*
X96905000Y-106400000D03*
X97745000Y-106400000D03*
X108495000Y-89625000D03*
X107655000Y-89625000D03*
D31*
X94600000Y-121605000D03*
X94600000Y-122445000D03*
X97075000Y-122470000D03*
X97075000Y-121630000D03*
X99700000Y-121655000D03*
X99700000Y-122495000D03*
D12*
X118000000Y-90150000D03*
X116100000Y-90150000D03*
M02*
