G04 #@! TF.GenerationSoftware,KiCad,Pcbnew,(5.1.9-0-10_14)*
G04 #@! TF.CreationDate,2021-11-02T09:48:23-04:00*
G04 #@! TF.ProjectId,Arducon,41726475-636f-46e2-9e6b-696361645f70,rev?*
G04 #@! TF.SameCoordinates,Original*
G04 #@! TF.FileFunction,Paste,Top*
G04 #@! TF.FilePolarity,Positive*
%FSLAX46Y46*%
G04 Gerber Fmt 4.6, Leading zero omitted, Abs format (unit mm)*
G04 Created by KiCad (PCBNEW (5.1.9-0-10_14)) date 2021-11-02 09:48:23*
%MOMM*%
%LPD*%
G01*
G04 APERTURE LIST*
%ADD10R,0.951000X0.951000*%
%ADD11R,0.600000X0.300000*%
%ADD12R,0.300000X0.600000*%
%ADD13R,0.910000X1.220000*%
%ADD14R,2.000000X1.100000*%
%ADD15R,0.800000X0.800000*%
%ADD16R,1.100000X2.000000*%
%ADD17R,1.198880X1.198880*%
%ADD18R,0.800000X0.500000*%
%ADD19R,1.500000X0.600000*%
%ADD20R,2.400000X0.800000*%
%ADD21R,2.400000X0.700000*%
%ADD22R,0.500000X0.900000*%
%ADD23R,0.551180X0.299720*%
%ADD24R,1.000000X1.250000*%
%ADD25R,0.700000X1.300000*%
%ADD26R,1.300000X0.700000*%
%ADD27R,2.700000X1.600000*%
%ADD28R,2.500000X1.200000*%
%ADD29R,1.750000X1.300000*%
%ADD30R,0.650000X1.060000*%
%ADD31R,1.250000X1.000000*%
%ADD32R,0.800100X0.800100*%
%ADD33R,0.700000X1.500000*%
%ADD34R,1.000000X0.800000*%
%ADD35R,0.900000X0.500000*%
G04 APERTURE END LIST*
D10*
X162598000Y-107942000D03*
D11*
X159420000Y-110470000D03*
X159420000Y-109970000D03*
X159420000Y-109470000D03*
X159420000Y-108970000D03*
X159420000Y-108470000D03*
X159420000Y-107970000D03*
X159420000Y-107470000D03*
X159420000Y-106970000D03*
D12*
X160070000Y-106320000D03*
X160570000Y-106320000D03*
X161070000Y-106320000D03*
X161570000Y-106320000D03*
X162070000Y-106320000D03*
X162570000Y-106320000D03*
X163070000Y-106320000D03*
X163570000Y-106320000D03*
D11*
X164220000Y-106970000D03*
X164220000Y-107470000D03*
X164220000Y-107970000D03*
X164220000Y-108470000D03*
X164220000Y-108970000D03*
X164220000Y-109470000D03*
X164220000Y-109970000D03*
X164220000Y-110470000D03*
D12*
X163570000Y-111120000D03*
X163070000Y-111120000D03*
X162570000Y-111120000D03*
X162070000Y-111120000D03*
X161570000Y-111120000D03*
X161070000Y-111120000D03*
X160570000Y-111120000D03*
X160070000Y-111120000D03*
D10*
X161042000Y-107942000D03*
X161042000Y-109498000D03*
X162598000Y-109498000D03*
D13*
X124735000Y-89490000D03*
X128005000Y-89490000D03*
D14*
X119930000Y-111330000D03*
D15*
X121830000Y-111330000D03*
D16*
X118240000Y-103400000D03*
D15*
X118240000Y-101500000D03*
D17*
X127400980Y-127820000D03*
X129499020Y-127820000D03*
D18*
X120750000Y-107890000D03*
X120750000Y-106990000D03*
X120750000Y-106090000D03*
X120750000Y-105190000D03*
X121950000Y-107890000D03*
X121950000Y-106990000D03*
X121950000Y-106090000D03*
X121950000Y-105190000D03*
D19*
X138930000Y-107565000D03*
X138930000Y-108835000D03*
X138930000Y-110105000D03*
X138930000Y-111375000D03*
X138930000Y-112645000D03*
X138930000Y-113915000D03*
X138930000Y-115185000D03*
X138930000Y-116455000D03*
X144330000Y-116455000D03*
X144330000Y-115185000D03*
X144330000Y-113915000D03*
X144330000Y-112645000D03*
X144330000Y-111375000D03*
X144330000Y-110105000D03*
X144330000Y-108835000D03*
X144330000Y-107565000D03*
D20*
X100620000Y-92015000D03*
D21*
X100620000Y-93335000D03*
X100620000Y-94605000D03*
X100620000Y-95875000D03*
X100620000Y-97145000D03*
X100620000Y-98415000D03*
X100620000Y-99685000D03*
D20*
X100620000Y-101005000D03*
X109420000Y-101005000D03*
D21*
X109420000Y-99685000D03*
X109420000Y-98415000D03*
X109420000Y-97145000D03*
X109420000Y-95875000D03*
X109420000Y-94605000D03*
X109420000Y-93335000D03*
D20*
X109420000Y-92015000D03*
D22*
X96310000Y-104850000D03*
X97810000Y-104850000D03*
D23*
X107348820Y-124300380D03*
X107348820Y-123650000D03*
X107348820Y-122999620D03*
X105911180Y-122999620D03*
X105911180Y-123650000D03*
X105911180Y-124300380D03*
D24*
X122350000Y-114000000D03*
X124350000Y-114000000D03*
X97770000Y-102710000D03*
X95770000Y-102710000D03*
X142270000Y-99270000D03*
X140270000Y-99270000D03*
X140390000Y-105600000D03*
X142390000Y-105600000D03*
X100200000Y-115890000D03*
X98200000Y-115890000D03*
X158570000Y-112760000D03*
X160570000Y-112760000D03*
D25*
X117390000Y-106510000D03*
X119290000Y-106510000D03*
D26*
X124240000Y-109820000D03*
X124240000Y-111720000D03*
X116860000Y-110200000D03*
X116860000Y-108300000D03*
X116840000Y-114590000D03*
X116840000Y-112690000D03*
D25*
X102330000Y-110420000D03*
X104230000Y-110420000D03*
X109870000Y-113180000D03*
X111770000Y-113180000D03*
X98000000Y-113360000D03*
X99900000Y-113360000D03*
D27*
X103070000Y-114730000D03*
D28*
X107570000Y-115730000D03*
X107570000Y-113730000D03*
D29*
X141410000Y-124210000D03*
X133610000Y-124210000D03*
X133610000Y-128710000D03*
X141410000Y-128710000D03*
D30*
X142280000Y-100980000D03*
X141330000Y-100980000D03*
X140380000Y-100980000D03*
X140380000Y-103180000D03*
X142280000Y-103180000D03*
D26*
X113210000Y-90610000D03*
X113210000Y-88710000D03*
D31*
X123660000Y-104950000D03*
X123660000Y-102950000D03*
D26*
X126300000Y-109820000D03*
X126300000Y-111720000D03*
D32*
X100750760Y-110110000D03*
X100750760Y-108210000D03*
X98751780Y-109160000D03*
X108779240Y-104280000D03*
X108779240Y-106180000D03*
X110778220Y-105230000D03*
D26*
X121220000Y-103820000D03*
X121220000Y-101920000D03*
D25*
X106820000Y-110240000D03*
X108720000Y-110240000D03*
D33*
X138190000Y-91335000D03*
X135190000Y-91335000D03*
X133690000Y-91335000D03*
D34*
X139590000Y-88485000D03*
X132290000Y-88485000D03*
X132290000Y-90685000D03*
X139590000Y-90685000D03*
D26*
X125450000Y-124500000D03*
X125450000Y-126400000D03*
D22*
X96650000Y-112660000D03*
X95150000Y-112660000D03*
X95130000Y-108930000D03*
X96630000Y-108930000D03*
D35*
X149530000Y-97220000D03*
X149530000Y-95720000D03*
D22*
X158630000Y-99400000D03*
X157130000Y-99400000D03*
D35*
X146740000Y-103740000D03*
X146740000Y-102240000D03*
D22*
X157080000Y-102480000D03*
X158580000Y-102480000D03*
D31*
X98140000Y-93500000D03*
X98140000Y-95500000D03*
D22*
X116320000Y-88700000D03*
X114820000Y-88700000D03*
X94400000Y-122410000D03*
X92900000Y-122410000D03*
D35*
X110630000Y-115190000D03*
X110630000Y-116690000D03*
D22*
X99770000Y-122430000D03*
X101270000Y-122430000D03*
D15*
X119340000Y-89100000D03*
D14*
X121240000Y-89100000D03*
M02*
