G04 #@! TF.GenerationSoftware,KiCad,Pcbnew,(5.1.9-0-10_14)*
G04 #@! TF.CreationDate,2021-06-02T08:38:30-04:00*
G04 #@! TF.ProjectId,Arducon,41726475-636f-46e2-9e6b-696361645f70,rev?*
G04 #@! TF.SameCoordinates,Original*
G04 #@! TF.FileFunction,Legend,Bot*
G04 #@! TF.FilePolarity,Positive*
%FSLAX46Y46*%
G04 Gerber Fmt 4.6, Leading zero omitted, Abs format (unit mm)*
G04 Created by KiCad (PCBNEW (5.1.9-0-10_14)) date 2021-06-02 08:38:30*
%MOMM*%
%LPD*%
G01*
G04 APERTURE LIST*
%ADD10C,0.175000*%
%ADD11C,0.250000*%
%ADD12C,0.200000*%
%ADD13C,0.150000*%
%ADD14C,0.225000*%
%ADD15C,0.100000*%
%ADD16R,1.000000X4.500000*%
%ADD17O,2.032000X1.727200*%
%ADD18R,2.032000X1.727200*%
%ADD19O,1.727200X2.032000*%
%ADD20R,6.350000X4.500000*%
%ADD21R,4.500000X6.350000*%
%ADD22R,1.778000X4.000000*%
%ADD23C,1.300000*%
%ADD24C,1.000000*%
%ADD25R,2.600000X3.540000*%
%ADD26R,2.600000X3.660000*%
%ADD27R,1.727200X2.032000*%
%ADD28C,0.500000*%
%ADD29R,0.800100X0.800100*%
%ADD30R,3.100000X1.000000*%
%ADD31O,3.100000X1.000000*%
%ADD32C,5.000000*%
%ADD33R,5.080000X1.778000*%
%ADD34R,3.500120X3.500120*%
%ADD35C,3.500120*%
%ADD36R,2.032000X2.032000*%
%ADD37R,0.700000X1.300000*%
%ADD38C,0.900000*%
%ADD39C,0.254000*%
G04 APERTURE END LIST*
D10*
X168546666Y-107866666D02*
X168646666Y-107833333D01*
X168813333Y-107833333D01*
X168880000Y-107866666D01*
X168913333Y-107900000D01*
X168946666Y-107966666D01*
X168946666Y-108033333D01*
X168913333Y-108100000D01*
X168880000Y-108133333D01*
X168813333Y-108166666D01*
X168680000Y-108200000D01*
X168613333Y-108233333D01*
X168580000Y-108266666D01*
X168546666Y-108333333D01*
X168546666Y-108400000D01*
X168580000Y-108466666D01*
X168613333Y-108500000D01*
X168680000Y-108533333D01*
X168846666Y-108533333D01*
X168946666Y-108500000D01*
X169146666Y-108533333D02*
X169546666Y-108533333D01*
X169346666Y-107833333D02*
X169346666Y-108533333D01*
X169780000Y-108533333D02*
X169780000Y-107966666D01*
X169813333Y-107900000D01*
X169846666Y-107866666D01*
X169913333Y-107833333D01*
X170046666Y-107833333D01*
X170113333Y-107866666D01*
X170146666Y-107900000D01*
X170180000Y-107966666D01*
X170180000Y-108533333D01*
X170746666Y-108200000D02*
X170846666Y-108166666D01*
X170880000Y-108133333D01*
X170913333Y-108066666D01*
X170913333Y-107966666D01*
X170880000Y-107900000D01*
X170846666Y-107866666D01*
X170780000Y-107833333D01*
X170513333Y-107833333D01*
X170513333Y-108533333D01*
X170746666Y-108533333D01*
X170813333Y-108500000D01*
X170846666Y-108466666D01*
X170880000Y-108400000D01*
X170880000Y-108333333D01*
X170846666Y-108266666D01*
X170813333Y-108233333D01*
X170746666Y-108200000D01*
X170513333Y-108200000D01*
D11*
X167538095Y-118437619D02*
X168109523Y-118437619D01*
X167823809Y-117437619D02*
X167823809Y-118437619D01*
X168347619Y-118437619D02*
X169014285Y-117437619D01*
X169014285Y-118437619D02*
X168347619Y-117437619D01*
X167639047Y-98643333D02*
X168115238Y-98643333D01*
X167543809Y-98357619D02*
X167877142Y-99357619D01*
X168210476Y-98357619D01*
X168543809Y-98357619D02*
X168543809Y-99357619D01*
X169115238Y-98357619D01*
X169115238Y-99357619D01*
X169448571Y-99357619D02*
X170020000Y-99357619D01*
X169734285Y-98357619D02*
X169734285Y-99357619D01*
X170353333Y-98452857D02*
X170400952Y-98405238D01*
X170353333Y-98357619D01*
X170305714Y-98405238D01*
X170353333Y-98452857D01*
X170353333Y-98357619D01*
D12*
X154180476Y-125640000D02*
X154104285Y-125678095D01*
X153990000Y-125678095D01*
X153875714Y-125640000D01*
X153799523Y-125563809D01*
X153761428Y-125487619D01*
X153723333Y-125335238D01*
X153723333Y-125220952D01*
X153761428Y-125068571D01*
X153799523Y-124992380D01*
X153875714Y-124916190D01*
X153990000Y-124878095D01*
X154066190Y-124878095D01*
X154180476Y-124916190D01*
X154218571Y-124954285D01*
X154218571Y-125220952D01*
X154066190Y-125220952D01*
X154561428Y-124878095D02*
X154561428Y-125678095D01*
X155018571Y-124878095D01*
X155018571Y-125678095D01*
X155399523Y-124878095D02*
X155399523Y-125678095D01*
X155590000Y-125678095D01*
X155704285Y-125640000D01*
X155780476Y-125563809D01*
X155818571Y-125487619D01*
X155856666Y-125335238D01*
X155856666Y-125220952D01*
X155818571Y-125068571D01*
X155780476Y-124992380D01*
X155704285Y-124916190D01*
X155590000Y-124878095D01*
X155399523Y-124878095D01*
X107359047Y-125478571D02*
X108120952Y-125478571D01*
X107740000Y-125097619D02*
X107740000Y-125859523D01*
X97259047Y-125608571D02*
X98020952Y-125608571D01*
X97640000Y-125227619D02*
X97640000Y-125989523D01*
D13*
X156986666Y-99860000D02*
X156920000Y-99893333D01*
X156820000Y-99893333D01*
X156720000Y-99860000D01*
X156653333Y-99793333D01*
X156620000Y-99726666D01*
X156586666Y-99593333D01*
X156586666Y-99493333D01*
X156620000Y-99360000D01*
X156653333Y-99293333D01*
X156720000Y-99226666D01*
X156820000Y-99193333D01*
X156886666Y-99193333D01*
X156986666Y-99226666D01*
X157020000Y-99260000D01*
X157020000Y-99493333D01*
X156886666Y-99493333D01*
X157320000Y-99193333D02*
X157320000Y-99893333D01*
X157720000Y-99193333D01*
X157720000Y-99893333D01*
X158053333Y-99193333D02*
X158053333Y-99893333D01*
X158220000Y-99893333D01*
X158320000Y-99860000D01*
X158386666Y-99793333D01*
X158420000Y-99726666D01*
X158453333Y-99593333D01*
X158453333Y-99493333D01*
X158420000Y-99360000D01*
X158386666Y-99293333D01*
X158320000Y-99226666D01*
X158220000Y-99193333D01*
X158053333Y-99193333D01*
X156886666Y-104153333D02*
X156186666Y-104153333D01*
X156186666Y-104320000D01*
X156220000Y-104420000D01*
X156286666Y-104486666D01*
X156353333Y-104520000D01*
X156486666Y-104553333D01*
X156586666Y-104553333D01*
X156720000Y-104520000D01*
X156786666Y-104486666D01*
X156853333Y-104420000D01*
X156886666Y-104320000D01*
X156886666Y-104153333D01*
X156186666Y-105186666D02*
X156186666Y-104853333D01*
X156520000Y-104820000D01*
X156486666Y-104853333D01*
X156453333Y-104920000D01*
X156453333Y-105086666D01*
X156486666Y-105153333D01*
X156520000Y-105186666D01*
X156586666Y-105220000D01*
X156753333Y-105220000D01*
X156820000Y-105186666D01*
X156853333Y-105153333D01*
X156886666Y-105086666D01*
X156886666Y-104920000D01*
X156853333Y-104853333D01*
X156820000Y-104820000D01*
X156916666Y-106753333D02*
X156216666Y-106753333D01*
X156216666Y-106920000D01*
X156250000Y-107020000D01*
X156316666Y-107086666D01*
X156383333Y-107120000D01*
X156516666Y-107153333D01*
X156616666Y-107153333D01*
X156750000Y-107120000D01*
X156816666Y-107086666D01*
X156883333Y-107020000D01*
X156916666Y-106920000D01*
X156916666Y-106753333D01*
X156450000Y-107753333D02*
X156916666Y-107753333D01*
X156183333Y-107586666D02*
X156683333Y-107420000D01*
X156683333Y-107853333D01*
X156886666Y-109233333D02*
X156186666Y-109233333D01*
X156186666Y-109400000D01*
X156220000Y-109500000D01*
X156286666Y-109566666D01*
X156353333Y-109600000D01*
X156486666Y-109633333D01*
X156586666Y-109633333D01*
X156720000Y-109600000D01*
X156786666Y-109566666D01*
X156853333Y-109500000D01*
X156886666Y-109400000D01*
X156886666Y-109233333D01*
X156186666Y-109866666D02*
X156186666Y-110300000D01*
X156453333Y-110066666D01*
X156453333Y-110166666D01*
X156486666Y-110233333D01*
X156520000Y-110266666D01*
X156586666Y-110300000D01*
X156753333Y-110300000D01*
X156820000Y-110266666D01*
X156853333Y-110233333D01*
X156886666Y-110166666D01*
X156886666Y-109966666D01*
X156853333Y-109900000D01*
X156820000Y-109866666D01*
X156846666Y-111773333D02*
X156146666Y-111773333D01*
X156146666Y-111940000D01*
X156180000Y-112040000D01*
X156246666Y-112106666D01*
X156313333Y-112140000D01*
X156446666Y-112173333D01*
X156546666Y-112173333D01*
X156680000Y-112140000D01*
X156746666Y-112106666D01*
X156813333Y-112040000D01*
X156846666Y-111940000D01*
X156846666Y-111773333D01*
X156213333Y-112440000D02*
X156180000Y-112473333D01*
X156146666Y-112540000D01*
X156146666Y-112706666D01*
X156180000Y-112773333D01*
X156213333Y-112806666D01*
X156280000Y-112840000D01*
X156346666Y-112840000D01*
X156446666Y-112806666D01*
X156846666Y-112406666D01*
X156846666Y-112840000D01*
X156886666Y-114383333D02*
X156186666Y-114383333D01*
X156186666Y-114550000D01*
X156220000Y-114650000D01*
X156286666Y-114716666D01*
X156353333Y-114750000D01*
X156486666Y-114783333D01*
X156586666Y-114783333D01*
X156720000Y-114750000D01*
X156786666Y-114716666D01*
X156853333Y-114650000D01*
X156886666Y-114550000D01*
X156886666Y-114383333D01*
X156886666Y-115450000D02*
X156886666Y-115050000D01*
X156886666Y-115250000D02*
X156186666Y-115250000D01*
X156286666Y-115183333D01*
X156353333Y-115116666D01*
X156386666Y-115050000D01*
X156886666Y-116823333D02*
X156186666Y-116823333D01*
X156186666Y-116990000D01*
X156220000Y-117090000D01*
X156286666Y-117156666D01*
X156353333Y-117190000D01*
X156486666Y-117223333D01*
X156586666Y-117223333D01*
X156720000Y-117190000D01*
X156786666Y-117156666D01*
X156853333Y-117090000D01*
X156886666Y-116990000D01*
X156886666Y-116823333D01*
X156186666Y-117656666D02*
X156186666Y-117723333D01*
X156220000Y-117790000D01*
X156253333Y-117823333D01*
X156320000Y-117856666D01*
X156453333Y-117890000D01*
X156620000Y-117890000D01*
X156753333Y-117856666D01*
X156820000Y-117823333D01*
X156853333Y-117790000D01*
X156886666Y-117723333D01*
X156886666Y-117656666D01*
X156853333Y-117590000D01*
X156820000Y-117556666D01*
X156753333Y-117523333D01*
X156620000Y-117490000D01*
X156453333Y-117490000D01*
X156320000Y-117523333D01*
X156253333Y-117556666D01*
X156220000Y-117590000D01*
X156186666Y-117656666D01*
X147040000Y-99116666D02*
X147006666Y-99050000D01*
X147006666Y-98950000D01*
X147040000Y-98850000D01*
X147106666Y-98783333D01*
X147173333Y-98750000D01*
X147306666Y-98716666D01*
X147406666Y-98716666D01*
X147540000Y-98750000D01*
X147606666Y-98783333D01*
X147673333Y-98850000D01*
X147706666Y-98950000D01*
X147706666Y-99016666D01*
X147673333Y-99116666D01*
X147640000Y-99150000D01*
X147406666Y-99150000D01*
X147406666Y-99016666D01*
X147706666Y-99450000D02*
X147006666Y-99450000D01*
X147706666Y-99850000D01*
X147006666Y-99850000D01*
X147706666Y-100183333D02*
X147006666Y-100183333D01*
X147006666Y-100350000D01*
X147040000Y-100450000D01*
X147106666Y-100516666D01*
X147173333Y-100550000D01*
X147306666Y-100583333D01*
X147406666Y-100583333D01*
X147540000Y-100550000D01*
X147606666Y-100516666D01*
X147673333Y-100450000D01*
X147706666Y-100350000D01*
X147706666Y-100183333D01*
X147440000Y-101120000D02*
X147440000Y-101653333D01*
X147706666Y-101386666D02*
X147173333Y-101386666D01*
X147006666Y-101920000D02*
X147006666Y-102353333D01*
X147273333Y-102120000D01*
X147273333Y-102220000D01*
X147306666Y-102286666D01*
X147340000Y-102320000D01*
X147406666Y-102353333D01*
X147573333Y-102353333D01*
X147640000Y-102320000D01*
X147673333Y-102286666D01*
X147706666Y-102220000D01*
X147706666Y-102020000D01*
X147673333Y-101953333D01*
X147640000Y-101920000D01*
X147640000Y-102653333D02*
X147673333Y-102686666D01*
X147706666Y-102653333D01*
X147673333Y-102620000D01*
X147640000Y-102653333D01*
X147706666Y-102653333D01*
X147006666Y-102920000D02*
X147006666Y-103353333D01*
X147273333Y-103120000D01*
X147273333Y-103220000D01*
X147306666Y-103286666D01*
X147340000Y-103320000D01*
X147406666Y-103353333D01*
X147573333Y-103353333D01*
X147640000Y-103320000D01*
X147673333Y-103286666D01*
X147706666Y-103220000D01*
X147706666Y-103020000D01*
X147673333Y-102953333D01*
X147640000Y-102920000D01*
X147706666Y-104153333D02*
X147006666Y-104153333D01*
X147006666Y-104320000D01*
X147040000Y-104420000D01*
X147106666Y-104486666D01*
X147173333Y-104520000D01*
X147306666Y-104553333D01*
X147406666Y-104553333D01*
X147540000Y-104520000D01*
X147606666Y-104486666D01*
X147673333Y-104420000D01*
X147706666Y-104320000D01*
X147706666Y-104153333D01*
X147006666Y-105186666D02*
X147006666Y-104853333D01*
X147340000Y-104820000D01*
X147306666Y-104853333D01*
X147273333Y-104920000D01*
X147273333Y-105086666D01*
X147306666Y-105153333D01*
X147340000Y-105186666D01*
X147406666Y-105220000D01*
X147573333Y-105220000D01*
X147640000Y-105186666D01*
X147673333Y-105153333D01*
X147706666Y-105086666D01*
X147706666Y-104920000D01*
X147673333Y-104853333D01*
X147640000Y-104820000D01*
X147766666Y-106653333D02*
X147066666Y-106653333D01*
X147066666Y-106820000D01*
X147100000Y-106920000D01*
X147166666Y-106986666D01*
X147233333Y-107020000D01*
X147366666Y-107053333D01*
X147466666Y-107053333D01*
X147600000Y-107020000D01*
X147666666Y-106986666D01*
X147733333Y-106920000D01*
X147766666Y-106820000D01*
X147766666Y-106653333D01*
X147300000Y-107653333D02*
X147766666Y-107653333D01*
X147033333Y-107486666D02*
X147533333Y-107320000D01*
X147533333Y-107753333D01*
X147706666Y-109303333D02*
X147006666Y-109303333D01*
X147006666Y-109470000D01*
X147040000Y-109570000D01*
X147106666Y-109636666D01*
X147173333Y-109670000D01*
X147306666Y-109703333D01*
X147406666Y-109703333D01*
X147540000Y-109670000D01*
X147606666Y-109636666D01*
X147673333Y-109570000D01*
X147706666Y-109470000D01*
X147706666Y-109303333D01*
X147006666Y-109936666D02*
X147006666Y-110370000D01*
X147273333Y-110136666D01*
X147273333Y-110236666D01*
X147306666Y-110303333D01*
X147340000Y-110336666D01*
X147406666Y-110370000D01*
X147573333Y-110370000D01*
X147640000Y-110336666D01*
X147673333Y-110303333D01*
X147706666Y-110236666D01*
X147706666Y-110036666D01*
X147673333Y-109970000D01*
X147640000Y-109936666D01*
X147706666Y-111943333D02*
X147006666Y-111943333D01*
X147006666Y-112110000D01*
X147040000Y-112210000D01*
X147106666Y-112276666D01*
X147173333Y-112310000D01*
X147306666Y-112343333D01*
X147406666Y-112343333D01*
X147540000Y-112310000D01*
X147606666Y-112276666D01*
X147673333Y-112210000D01*
X147706666Y-112110000D01*
X147706666Y-111943333D01*
X147073333Y-112610000D02*
X147040000Y-112643333D01*
X147006666Y-112710000D01*
X147006666Y-112876666D01*
X147040000Y-112943333D01*
X147073333Y-112976666D01*
X147140000Y-113010000D01*
X147206666Y-113010000D01*
X147306666Y-112976666D01*
X147706666Y-112576666D01*
X147706666Y-113010000D01*
X147736666Y-114513333D02*
X147036666Y-114513333D01*
X147036666Y-114680000D01*
X147070000Y-114780000D01*
X147136666Y-114846666D01*
X147203333Y-114880000D01*
X147336666Y-114913333D01*
X147436666Y-114913333D01*
X147570000Y-114880000D01*
X147636666Y-114846666D01*
X147703333Y-114780000D01*
X147736666Y-114680000D01*
X147736666Y-114513333D01*
X147736666Y-115580000D02*
X147736666Y-115180000D01*
X147736666Y-115380000D02*
X147036666Y-115380000D01*
X147136666Y-115313333D01*
X147203333Y-115246666D01*
X147236666Y-115180000D01*
X147666666Y-116793333D02*
X146966666Y-116793333D01*
X146966666Y-116960000D01*
X147000000Y-117060000D01*
X147066666Y-117126666D01*
X147133333Y-117160000D01*
X147266666Y-117193333D01*
X147366666Y-117193333D01*
X147500000Y-117160000D01*
X147566666Y-117126666D01*
X147633333Y-117060000D01*
X147666666Y-116960000D01*
X147666666Y-116793333D01*
X146966666Y-117626666D02*
X146966666Y-117693333D01*
X147000000Y-117760000D01*
X147033333Y-117793333D01*
X147100000Y-117826666D01*
X147233333Y-117860000D01*
X147400000Y-117860000D01*
X147533333Y-117826666D01*
X147600000Y-117793333D01*
X147633333Y-117760000D01*
X147666666Y-117693333D01*
X147666666Y-117626666D01*
X147633333Y-117560000D01*
X147600000Y-117526666D01*
X147533333Y-117493333D01*
X147400000Y-117460000D01*
X147233333Y-117460000D01*
X147100000Y-117493333D01*
X147033333Y-117526666D01*
X147000000Y-117560000D01*
X146966666Y-117626666D01*
X156460000Y-102040000D02*
X156993333Y-102040000D01*
X156726666Y-101773333D02*
X156726666Y-102306666D01*
X157260000Y-102473333D02*
X157693333Y-102473333D01*
X157460000Y-102206666D01*
X157560000Y-102206666D01*
X157626666Y-102173333D01*
X157660000Y-102140000D01*
X157693333Y-102073333D01*
X157693333Y-101906666D01*
X157660000Y-101840000D01*
X157626666Y-101806666D01*
X157560000Y-101773333D01*
X157360000Y-101773333D01*
X157293333Y-101806666D01*
X157260000Y-101840000D01*
X157993333Y-101840000D02*
X158026666Y-101806666D01*
X157993333Y-101773333D01*
X157960000Y-101806666D01*
X157993333Y-101840000D01*
X157993333Y-101773333D01*
X158260000Y-102473333D02*
X158693333Y-102473333D01*
X158460000Y-102206666D01*
X158560000Y-102206666D01*
X158626666Y-102173333D01*
X158660000Y-102140000D01*
X158693333Y-102073333D01*
X158693333Y-101906666D01*
X158660000Y-101840000D01*
X158626666Y-101806666D01*
X158560000Y-101773333D01*
X158360000Y-101773333D01*
X158293333Y-101806666D01*
X158260000Y-101840000D01*
X95575000Y-117541666D02*
X95175000Y-117541666D01*
X95375000Y-118241666D02*
X95375000Y-117541666D01*
X94808333Y-117541666D02*
X94675000Y-117541666D01*
X94608333Y-117575000D01*
X94541666Y-117641666D01*
X94508333Y-117775000D01*
X94508333Y-118008333D01*
X94541666Y-118141666D01*
X94608333Y-118208333D01*
X94675000Y-118241666D01*
X94808333Y-118241666D01*
X94875000Y-118208333D01*
X94941666Y-118141666D01*
X94975000Y-118008333D01*
X94975000Y-117775000D01*
X94941666Y-117641666D01*
X94875000Y-117575000D01*
X94808333Y-117541666D01*
X94208333Y-118241666D02*
X94208333Y-117541666D01*
X93808333Y-118241666D01*
X93808333Y-117541666D01*
X93475000Y-117875000D02*
X93241666Y-117875000D01*
X93141666Y-118241666D02*
X93475000Y-118241666D01*
X93475000Y-117541666D01*
X93141666Y-117541666D01*
X97850000Y-118241666D02*
X97850000Y-117541666D01*
X97450000Y-118241666D02*
X97750000Y-117841666D01*
X97450000Y-117541666D02*
X97850000Y-117941666D01*
X97150000Y-117875000D02*
X96916666Y-117875000D01*
X96816666Y-118241666D02*
X97150000Y-118241666D01*
X97150000Y-117541666D01*
X96816666Y-117541666D01*
X96383333Y-117908333D02*
X96383333Y-118241666D01*
X96616666Y-117541666D02*
X96383333Y-117908333D01*
X96150000Y-117541666D01*
X100391666Y-118291666D02*
X100391666Y-117591666D01*
X100125000Y-117591666D01*
X100058333Y-117625000D01*
X100025000Y-117658333D01*
X99991666Y-117725000D01*
X99991666Y-117825000D01*
X100025000Y-117891666D01*
X100058333Y-117925000D01*
X100125000Y-117958333D01*
X100391666Y-117958333D01*
X99791666Y-117591666D02*
X99391666Y-117591666D01*
X99591666Y-118291666D02*
X99591666Y-117591666D01*
X99258333Y-117591666D02*
X98858333Y-117591666D01*
X99058333Y-118291666D02*
X99058333Y-117591666D01*
X152125000Y-97225000D02*
X152125000Y-119675000D01*
X117075000Y-124975000D02*
X113475000Y-124950000D01*
X103800000Y-124975000D02*
X109700000Y-124950000D01*
X96750000Y-124975000D02*
X99550000Y-124975000D01*
X117050000Y-130450000D02*
X117075000Y-124975000D01*
X106975000Y-130450000D02*
X106975000Y-124975000D01*
X96750000Y-124975000D02*
X96775000Y-130475000D01*
D10*
X114150000Y-130150000D02*
X113916666Y-130150000D01*
X113816666Y-130516666D02*
X114150000Y-130516666D01*
X114150000Y-129816666D01*
X113816666Y-129816666D01*
X113583333Y-129816666D02*
X113116666Y-130516666D01*
X113116666Y-129816666D02*
X113583333Y-130516666D01*
X112950000Y-129816666D02*
X112550000Y-129816666D01*
X112750000Y-130516666D02*
X112750000Y-129816666D01*
X111550000Y-130150000D02*
X111450000Y-130183333D01*
X111416666Y-130216666D01*
X111383333Y-130283333D01*
X111383333Y-130383333D01*
X111416666Y-130450000D01*
X111450000Y-130483333D01*
X111516666Y-130516666D01*
X111783333Y-130516666D01*
X111783333Y-129816666D01*
X111550000Y-129816666D01*
X111483333Y-129850000D01*
X111450000Y-129883333D01*
X111416666Y-129950000D01*
X111416666Y-130016666D01*
X111450000Y-130083333D01*
X111483333Y-130116666D01*
X111550000Y-130150000D01*
X111783333Y-130150000D01*
X111116666Y-130316666D02*
X110783333Y-130316666D01*
X111183333Y-130516666D02*
X110950000Y-129816666D01*
X110716666Y-130516666D01*
X110583333Y-129816666D02*
X110183333Y-129816666D01*
X110383333Y-130516666D02*
X110383333Y-129816666D01*
X109950000Y-130450000D02*
X109916666Y-130483333D01*
X109950000Y-130516666D01*
X109983333Y-130483333D01*
X109950000Y-130450000D01*
X109950000Y-130516666D01*
X105691666Y-130433333D02*
X105591666Y-130466666D01*
X105425000Y-130466666D01*
X105358333Y-130433333D01*
X105325000Y-130400000D01*
X105291666Y-130333333D01*
X105291666Y-130266666D01*
X105325000Y-130200000D01*
X105358333Y-130166666D01*
X105425000Y-130133333D01*
X105558333Y-130100000D01*
X105625000Y-130066666D01*
X105658333Y-130033333D01*
X105691666Y-129966666D01*
X105691666Y-129900000D01*
X105658333Y-129833333D01*
X105625000Y-129800000D01*
X105558333Y-129766666D01*
X105391666Y-129766666D01*
X105291666Y-129800000D01*
X105058333Y-129766666D02*
X104891666Y-130466666D01*
X104758333Y-129966666D01*
X104625000Y-130466666D01*
X104458333Y-129766666D01*
X104191666Y-130466666D02*
X104191666Y-129766666D01*
X103958333Y-129766666D02*
X103558333Y-129766666D01*
X103758333Y-130466666D02*
X103758333Y-129766666D01*
X102925000Y-130400000D02*
X102958333Y-130433333D01*
X103058333Y-130466666D01*
X103125000Y-130466666D01*
X103225000Y-130433333D01*
X103291666Y-130366666D01*
X103325000Y-130300000D01*
X103358333Y-130166666D01*
X103358333Y-130066666D01*
X103325000Y-129933333D01*
X103291666Y-129866666D01*
X103225000Y-129800000D01*
X103125000Y-129766666D01*
X103058333Y-129766666D01*
X102958333Y-129800000D01*
X102925000Y-129833333D01*
X102625000Y-130466666D02*
X102625000Y-129766666D01*
X102625000Y-130100000D02*
X102225000Y-130100000D01*
X102225000Y-130466666D02*
X102225000Y-129766666D01*
X101891666Y-130100000D02*
X101658333Y-130100000D01*
X101558333Y-130466666D02*
X101891666Y-130466666D01*
X101891666Y-129766666D01*
X101558333Y-129766666D01*
X101258333Y-130466666D02*
X101258333Y-129766666D01*
X101091666Y-129766666D01*
X100991666Y-129800000D01*
X100925000Y-129866666D01*
X100891666Y-129933333D01*
X100858333Y-130066666D01*
X100858333Y-130166666D01*
X100891666Y-130300000D01*
X100925000Y-130366666D01*
X100991666Y-130433333D01*
X101091666Y-130466666D01*
X101258333Y-130466666D01*
X99791666Y-130100000D02*
X99691666Y-130133333D01*
X99658333Y-130166666D01*
X99625000Y-130233333D01*
X99625000Y-130333333D01*
X99658333Y-130400000D01*
X99691666Y-130433333D01*
X99758333Y-130466666D01*
X100025000Y-130466666D01*
X100025000Y-129766666D01*
X99791666Y-129766666D01*
X99725000Y-129800000D01*
X99691666Y-129833333D01*
X99658333Y-129900000D01*
X99658333Y-129966666D01*
X99691666Y-130033333D01*
X99725000Y-130066666D01*
X99791666Y-130100000D01*
X100025000Y-130100000D01*
X99358333Y-130266666D02*
X99025000Y-130266666D01*
X99425000Y-130466666D02*
X99191666Y-129766666D01*
X98958333Y-130466666D01*
X98825000Y-129766666D02*
X98425000Y-129766666D01*
X98625000Y-130466666D02*
X98625000Y-129766666D01*
X98191666Y-130400000D02*
X98158333Y-130433333D01*
X98191666Y-130466666D01*
X98225000Y-130433333D01*
X98191666Y-130400000D01*
X98191666Y-130466666D01*
X100920000Y-117226666D02*
X101253333Y-117226666D01*
X101253333Y-116526666D01*
X100553333Y-116526666D02*
X100420000Y-116526666D01*
X100353333Y-116560000D01*
X100286666Y-116626666D01*
X100253333Y-116760000D01*
X100253333Y-116993333D01*
X100286666Y-117126666D01*
X100353333Y-117193333D01*
X100420000Y-117226666D01*
X100553333Y-117226666D01*
X100620000Y-117193333D01*
X100686666Y-117126666D01*
X100720000Y-116993333D01*
X100720000Y-116760000D01*
X100686666Y-116626666D01*
X100620000Y-116560000D01*
X100553333Y-116526666D01*
X99586666Y-116560000D02*
X99653333Y-116526666D01*
X99753333Y-116526666D01*
X99853333Y-116560000D01*
X99920000Y-116626666D01*
X99953333Y-116693333D01*
X99986666Y-116826666D01*
X99986666Y-116926666D01*
X99953333Y-117060000D01*
X99920000Y-117126666D01*
X99853333Y-117193333D01*
X99753333Y-117226666D01*
X99686666Y-117226666D01*
X99586666Y-117193333D01*
X99553333Y-117160000D01*
X99553333Y-116926666D01*
X99686666Y-116926666D01*
X99253333Y-117226666D02*
X99253333Y-116526666D01*
X98520000Y-117160000D02*
X98553333Y-117193333D01*
X98653333Y-117226666D01*
X98720000Y-117226666D01*
X98820000Y-117193333D01*
X98886666Y-117126666D01*
X98920000Y-117060000D01*
X98953333Y-116926666D01*
X98953333Y-116826666D01*
X98920000Y-116693333D01*
X98886666Y-116626666D01*
X98820000Y-116560000D01*
X98720000Y-116526666D01*
X98653333Y-116526666D01*
X98553333Y-116560000D01*
X98520000Y-116593333D01*
X97353333Y-117226666D02*
X97686666Y-117226666D01*
X97686666Y-116526666D01*
X97120000Y-116860000D02*
X96886666Y-116860000D01*
X96786666Y-117226666D02*
X97120000Y-117226666D01*
X97120000Y-116526666D01*
X96786666Y-116526666D01*
X96586666Y-116526666D02*
X96353333Y-117226666D01*
X96120000Y-116526666D01*
X95886666Y-116860000D02*
X95653333Y-116860000D01*
X95553333Y-117226666D02*
X95886666Y-117226666D01*
X95886666Y-116526666D01*
X95553333Y-116526666D01*
X94920000Y-117226666D02*
X95253333Y-117226666D01*
X95253333Y-116526666D01*
X94020000Y-116526666D02*
X93886666Y-116526666D01*
X93820000Y-116560000D01*
X93753333Y-116626666D01*
X93720000Y-116760000D01*
X93720000Y-116993333D01*
X93753333Y-117126666D01*
X93820000Y-117193333D01*
X93886666Y-117226666D01*
X94020000Y-117226666D01*
X94086666Y-117193333D01*
X94153333Y-117126666D01*
X94186666Y-116993333D01*
X94186666Y-116760000D01*
X94153333Y-116626666D01*
X94086666Y-116560000D01*
X94020000Y-116526666D01*
X93420000Y-116526666D02*
X93420000Y-117093333D01*
X93386666Y-117160000D01*
X93353333Y-117193333D01*
X93286666Y-117226666D01*
X93153333Y-117226666D01*
X93086666Y-117193333D01*
X93053333Y-117160000D01*
X93020000Y-117093333D01*
X93020000Y-116526666D01*
X92786666Y-116526666D02*
X92386666Y-116526666D01*
X92586666Y-117226666D02*
X92586666Y-116526666D01*
X126643333Y-99716666D02*
X126410000Y-100416666D01*
X126176666Y-99716666D01*
X125543333Y-100350000D02*
X125576666Y-100383333D01*
X125676666Y-100416666D01*
X125743333Y-100416666D01*
X125843333Y-100383333D01*
X125910000Y-100316666D01*
X125943333Y-100250000D01*
X125976666Y-100116666D01*
X125976666Y-100016666D01*
X125943333Y-99883333D01*
X125910000Y-99816666D01*
X125843333Y-99750000D01*
X125743333Y-99716666D01*
X125676666Y-99716666D01*
X125576666Y-99750000D01*
X125543333Y-99783333D01*
X124843333Y-100350000D02*
X124876666Y-100383333D01*
X124976666Y-100416666D01*
X125043333Y-100416666D01*
X125143333Y-100383333D01*
X125210000Y-100316666D01*
X125243333Y-100250000D01*
X125276666Y-100116666D01*
X125276666Y-100016666D01*
X125243333Y-99883333D01*
X125210000Y-99816666D01*
X125143333Y-99750000D01*
X125043333Y-99716666D01*
X124976666Y-99716666D01*
X124876666Y-99750000D01*
X124843333Y-99783333D01*
X126690000Y-97906666D02*
X126690000Y-97206666D01*
X126456666Y-97706666D01*
X126223333Y-97206666D01*
X126223333Y-97906666D01*
X125756666Y-97206666D02*
X125623333Y-97206666D01*
X125556666Y-97240000D01*
X125490000Y-97306666D01*
X125456666Y-97440000D01*
X125456666Y-97673333D01*
X125490000Y-97806666D01*
X125556666Y-97873333D01*
X125623333Y-97906666D01*
X125756666Y-97906666D01*
X125823333Y-97873333D01*
X125890000Y-97806666D01*
X125923333Y-97673333D01*
X125923333Y-97440000D01*
X125890000Y-97306666D01*
X125823333Y-97240000D01*
X125756666Y-97206666D01*
X125190000Y-97873333D02*
X125090000Y-97906666D01*
X124923333Y-97906666D01*
X124856666Y-97873333D01*
X124823333Y-97840000D01*
X124790000Y-97773333D01*
X124790000Y-97706666D01*
X124823333Y-97640000D01*
X124856666Y-97606666D01*
X124923333Y-97573333D01*
X125056666Y-97540000D01*
X125123333Y-97506666D01*
X125156666Y-97473333D01*
X125190000Y-97406666D01*
X125190000Y-97340000D01*
X125156666Y-97273333D01*
X125123333Y-97240000D01*
X125056666Y-97206666D01*
X124890000Y-97206666D01*
X124790000Y-97240000D01*
X124490000Y-97906666D02*
X124490000Y-97206666D01*
X126083333Y-94540000D02*
X126150000Y-94506666D01*
X126250000Y-94506666D01*
X126350000Y-94540000D01*
X126416666Y-94606666D01*
X126450000Y-94673333D01*
X126483333Y-94806666D01*
X126483333Y-94906666D01*
X126450000Y-95040000D01*
X126416666Y-95106666D01*
X126350000Y-95173333D01*
X126250000Y-95206666D01*
X126183333Y-95206666D01*
X126083333Y-95173333D01*
X126050000Y-95140000D01*
X126050000Y-94906666D01*
X126183333Y-94906666D01*
X125750000Y-95206666D02*
X125750000Y-94506666D01*
X125350000Y-95206666D01*
X125350000Y-94506666D01*
X125016666Y-95206666D02*
X125016666Y-94506666D01*
X124850000Y-94506666D01*
X124750000Y-94540000D01*
X124683333Y-94606666D01*
X124650000Y-94673333D01*
X124616666Y-94806666D01*
X124616666Y-94906666D01*
X124650000Y-95040000D01*
X124683333Y-95106666D01*
X124750000Y-95173333D01*
X124850000Y-95206666D01*
X125016666Y-95206666D01*
X118430000Y-100176666D02*
X118430000Y-99476666D01*
X118196666Y-99976666D01*
X117963333Y-99476666D01*
X117963333Y-100176666D01*
X117630000Y-100176666D02*
X117630000Y-99476666D01*
X117330000Y-100143333D02*
X117230000Y-100176666D01*
X117063333Y-100176666D01*
X116996666Y-100143333D01*
X116963333Y-100110000D01*
X116930000Y-100043333D01*
X116930000Y-99976666D01*
X116963333Y-99910000D01*
X116996666Y-99876666D01*
X117063333Y-99843333D01*
X117196666Y-99810000D01*
X117263333Y-99776666D01*
X117296666Y-99743333D01*
X117330000Y-99676666D01*
X117330000Y-99610000D01*
X117296666Y-99543333D01*
X117263333Y-99510000D01*
X117196666Y-99476666D01*
X117030000Y-99476666D01*
X116930000Y-99510000D01*
X116496666Y-99476666D02*
X116363333Y-99476666D01*
X116296666Y-99510000D01*
X116230000Y-99576666D01*
X116196666Y-99710000D01*
X116196666Y-99943333D01*
X116230000Y-100076666D01*
X116296666Y-100143333D01*
X116363333Y-100176666D01*
X116496666Y-100176666D01*
X116563333Y-100143333D01*
X116630000Y-100076666D01*
X116663333Y-99943333D01*
X116663333Y-99710000D01*
X116630000Y-99576666D01*
X116563333Y-99510000D01*
X116496666Y-99476666D01*
X118190000Y-97723333D02*
X118090000Y-97756666D01*
X117923333Y-97756666D01*
X117856666Y-97723333D01*
X117823333Y-97690000D01*
X117790000Y-97623333D01*
X117790000Y-97556666D01*
X117823333Y-97490000D01*
X117856666Y-97456666D01*
X117923333Y-97423333D01*
X118056666Y-97390000D01*
X118123333Y-97356666D01*
X118156666Y-97323333D01*
X118190000Y-97256666D01*
X118190000Y-97190000D01*
X118156666Y-97123333D01*
X118123333Y-97090000D01*
X118056666Y-97056666D01*
X117890000Y-97056666D01*
X117790000Y-97090000D01*
X117090000Y-97690000D02*
X117123333Y-97723333D01*
X117223333Y-97756666D01*
X117290000Y-97756666D01*
X117390000Y-97723333D01*
X117456666Y-97656666D01*
X117490000Y-97590000D01*
X117523333Y-97456666D01*
X117523333Y-97356666D01*
X117490000Y-97223333D01*
X117456666Y-97156666D01*
X117390000Y-97090000D01*
X117290000Y-97056666D01*
X117223333Y-97056666D01*
X117123333Y-97090000D01*
X117090000Y-97123333D01*
X116790000Y-97756666D02*
X116790000Y-97056666D01*
X116390000Y-97756666D02*
X116690000Y-97356666D01*
X116390000Y-97056666D02*
X116790000Y-97456666D01*
X118196666Y-95126666D02*
X118430000Y-94793333D01*
X118596666Y-95126666D02*
X118596666Y-94426666D01*
X118330000Y-94426666D01*
X118263333Y-94460000D01*
X118230000Y-94493333D01*
X118196666Y-94560000D01*
X118196666Y-94660000D01*
X118230000Y-94726666D01*
X118263333Y-94760000D01*
X118330000Y-94793333D01*
X118596666Y-94793333D01*
X117630000Y-95093333D02*
X117696666Y-95126666D01*
X117830000Y-95126666D01*
X117896666Y-95093333D01*
X117930000Y-95026666D01*
X117930000Y-94760000D01*
X117896666Y-94693333D01*
X117830000Y-94660000D01*
X117696666Y-94660000D01*
X117630000Y-94693333D01*
X117596666Y-94760000D01*
X117596666Y-94826666D01*
X117930000Y-94893333D01*
X117330000Y-95093333D02*
X117263333Y-95126666D01*
X117130000Y-95126666D01*
X117063333Y-95093333D01*
X117030000Y-95026666D01*
X117030000Y-94993333D01*
X117063333Y-94926666D01*
X117130000Y-94893333D01*
X117230000Y-94893333D01*
X117296666Y-94860000D01*
X117330000Y-94793333D01*
X117330000Y-94760000D01*
X117296666Y-94693333D01*
X117230000Y-94660000D01*
X117130000Y-94660000D01*
X117063333Y-94693333D01*
X116463333Y-95093333D02*
X116530000Y-95126666D01*
X116663333Y-95126666D01*
X116730000Y-95093333D01*
X116763333Y-95026666D01*
X116763333Y-94760000D01*
X116730000Y-94693333D01*
X116663333Y-94660000D01*
X116530000Y-94660000D01*
X116463333Y-94693333D01*
X116430000Y-94760000D01*
X116430000Y-94826666D01*
X116763333Y-94893333D01*
X116230000Y-94660000D02*
X115963333Y-94660000D01*
X116130000Y-94426666D02*
X116130000Y-95026666D01*
X116096666Y-95093333D01*
X116030000Y-95126666D01*
X115963333Y-95126666D01*
D14*
X144607142Y-128957142D02*
X144607142Y-128057142D01*
X144221428Y-128957142D02*
X144221428Y-128485714D01*
X144264285Y-128400000D01*
X144350000Y-128357142D01*
X144478571Y-128357142D01*
X144564285Y-128400000D01*
X144607142Y-128442857D01*
X143921428Y-128357142D02*
X143578571Y-128357142D01*
X143792857Y-128057142D02*
X143792857Y-128828571D01*
X143750000Y-128914285D01*
X143664285Y-128957142D01*
X143578571Y-128957142D01*
X143407142Y-128357142D02*
X143064285Y-128357142D01*
X143278571Y-128057142D02*
X143278571Y-128828571D01*
X143235714Y-128914285D01*
X143150000Y-128957142D01*
X143064285Y-128957142D01*
X142764285Y-128357142D02*
X142764285Y-129257142D01*
X142764285Y-128400000D02*
X142678571Y-128357142D01*
X142507142Y-128357142D01*
X142421428Y-128400000D01*
X142378571Y-128442857D01*
X142335714Y-128528571D01*
X142335714Y-128785714D01*
X142378571Y-128871428D01*
X142421428Y-128914285D01*
X142507142Y-128957142D01*
X142678571Y-128957142D01*
X142764285Y-128914285D01*
X141992857Y-128914285D02*
X141907142Y-128957142D01*
X141735714Y-128957142D01*
X141650000Y-128914285D01*
X141607142Y-128828571D01*
X141607142Y-128785714D01*
X141650000Y-128700000D01*
X141735714Y-128657142D01*
X141864285Y-128657142D01*
X141950000Y-128614285D01*
X141992857Y-128528571D01*
X141992857Y-128485714D01*
X141950000Y-128400000D01*
X141864285Y-128357142D01*
X141735714Y-128357142D01*
X141650000Y-128400000D01*
X141221428Y-128871428D02*
X141178571Y-128914285D01*
X141221428Y-128957142D01*
X141264285Y-128914285D01*
X141221428Y-128871428D01*
X141221428Y-128957142D01*
X141221428Y-128400000D02*
X141178571Y-128442857D01*
X141221428Y-128485714D01*
X141264285Y-128442857D01*
X141221428Y-128400000D01*
X141221428Y-128485714D01*
X140150000Y-128014285D02*
X140921428Y-129171428D01*
X139207142Y-128014285D02*
X139978571Y-129171428D01*
X138521428Y-128357142D02*
X138521428Y-129085714D01*
X138564285Y-129171428D01*
X138607142Y-129214285D01*
X138692857Y-129257142D01*
X138821428Y-129257142D01*
X138907142Y-129214285D01*
X138521428Y-128914285D02*
X138607142Y-128957142D01*
X138778571Y-128957142D01*
X138864285Y-128914285D01*
X138907142Y-128871428D01*
X138950000Y-128785714D01*
X138950000Y-128528571D01*
X138907142Y-128442857D01*
X138864285Y-128400000D01*
X138778571Y-128357142D01*
X138607142Y-128357142D01*
X138521428Y-128400000D01*
X138092857Y-128957142D02*
X138092857Y-128357142D01*
X138092857Y-128057142D02*
X138135714Y-128100000D01*
X138092857Y-128142857D01*
X138050000Y-128100000D01*
X138092857Y-128057142D01*
X138092857Y-128142857D01*
X137792857Y-128357142D02*
X137450000Y-128357142D01*
X137664285Y-128057142D02*
X137664285Y-128828571D01*
X137621428Y-128914285D01*
X137535714Y-128957142D01*
X137450000Y-128957142D01*
X137150000Y-128957142D02*
X137150000Y-128057142D01*
X136764285Y-128957142D02*
X136764285Y-128485714D01*
X136807142Y-128400000D01*
X136892857Y-128357142D01*
X137021428Y-128357142D01*
X137107142Y-128400000D01*
X137150000Y-128442857D01*
X135950000Y-128357142D02*
X135950000Y-128957142D01*
X136335714Y-128357142D02*
X136335714Y-128828571D01*
X136292857Y-128914285D01*
X136207142Y-128957142D01*
X136078571Y-128957142D01*
X135992857Y-128914285D01*
X135950000Y-128871428D01*
X135521428Y-128957142D02*
X135521428Y-128057142D01*
X135521428Y-128400000D02*
X135435714Y-128357142D01*
X135264285Y-128357142D01*
X135178571Y-128400000D01*
X135135714Y-128442857D01*
X135092857Y-128528571D01*
X135092857Y-128785714D01*
X135135714Y-128871428D01*
X135178571Y-128914285D01*
X135264285Y-128957142D01*
X135435714Y-128957142D01*
X135521428Y-128914285D01*
X134707142Y-128871428D02*
X134664285Y-128914285D01*
X134707142Y-128957142D01*
X134750000Y-128914285D01*
X134707142Y-128871428D01*
X134707142Y-128957142D01*
X133892857Y-128914285D02*
X133978571Y-128957142D01*
X134150000Y-128957142D01*
X134235714Y-128914285D01*
X134278571Y-128871428D01*
X134321428Y-128785714D01*
X134321428Y-128528571D01*
X134278571Y-128442857D01*
X134235714Y-128400000D01*
X134150000Y-128357142D01*
X133978571Y-128357142D01*
X133892857Y-128400000D01*
X133378571Y-128957142D02*
X133464285Y-128914285D01*
X133507142Y-128871428D01*
X133550000Y-128785714D01*
X133550000Y-128528571D01*
X133507142Y-128442857D01*
X133464285Y-128400000D01*
X133378571Y-128357142D01*
X133250000Y-128357142D01*
X133164285Y-128400000D01*
X133121428Y-128442857D01*
X133078571Y-128528571D01*
X133078571Y-128785714D01*
X133121428Y-128871428D01*
X133164285Y-128914285D01*
X133250000Y-128957142D01*
X133378571Y-128957142D01*
X132692857Y-128957142D02*
X132692857Y-128357142D01*
X132692857Y-128442857D02*
X132650000Y-128400000D01*
X132564285Y-128357142D01*
X132435714Y-128357142D01*
X132350000Y-128400000D01*
X132307142Y-128485714D01*
X132307142Y-128957142D01*
X132307142Y-128485714D02*
X132264285Y-128400000D01*
X132178571Y-128357142D01*
X132050000Y-128357142D01*
X131964285Y-128400000D01*
X131921428Y-128485714D01*
X131921428Y-128957142D01*
X130850000Y-128014285D02*
X131621428Y-129171428D01*
X130378571Y-128057142D02*
X130207142Y-128057142D01*
X130121428Y-128100000D01*
X130035714Y-128185714D01*
X129992857Y-128357142D01*
X129992857Y-128657142D01*
X130035714Y-128828571D01*
X130121428Y-128914285D01*
X130207142Y-128957142D01*
X130378571Y-128957142D01*
X130464285Y-128914285D01*
X130550000Y-128828571D01*
X130592857Y-128657142D01*
X130592857Y-128357142D01*
X130550000Y-128185714D01*
X130464285Y-128100000D01*
X130378571Y-128057142D01*
X129607142Y-128357142D02*
X129607142Y-129257142D01*
X129607142Y-128400000D02*
X129521428Y-128357142D01*
X129350000Y-128357142D01*
X129264285Y-128400000D01*
X129221428Y-128442857D01*
X129178571Y-128528571D01*
X129178571Y-128785714D01*
X129221428Y-128871428D01*
X129264285Y-128914285D01*
X129350000Y-128957142D01*
X129521428Y-128957142D01*
X129607142Y-128914285D01*
X128450000Y-128914285D02*
X128535714Y-128957142D01*
X128707142Y-128957142D01*
X128792857Y-128914285D01*
X128835714Y-128828571D01*
X128835714Y-128485714D01*
X128792857Y-128400000D01*
X128707142Y-128357142D01*
X128535714Y-128357142D01*
X128450000Y-128400000D01*
X128407142Y-128485714D01*
X128407142Y-128571428D01*
X128835714Y-128657142D01*
X128021428Y-128357142D02*
X128021428Y-128957142D01*
X128021428Y-128442857D02*
X127978571Y-128400000D01*
X127892857Y-128357142D01*
X127764285Y-128357142D01*
X127678571Y-128400000D01*
X127635714Y-128485714D01*
X127635714Y-128957142D01*
X127250000Y-128700000D02*
X126821428Y-128700000D01*
X127335714Y-128957142D02*
X127035714Y-128057142D01*
X126735714Y-128957142D01*
X125921428Y-128957142D02*
X126221428Y-128528571D01*
X126435714Y-128957142D02*
X126435714Y-128057142D01*
X126092857Y-128057142D01*
X126007142Y-128100000D01*
X125964285Y-128142857D01*
X125921428Y-128228571D01*
X125921428Y-128357142D01*
X125964285Y-128442857D01*
X126007142Y-128485714D01*
X126092857Y-128528571D01*
X126435714Y-128528571D01*
X125535714Y-128957142D02*
X125535714Y-128057142D01*
X125321428Y-128057142D01*
X125192857Y-128100000D01*
X125107142Y-128185714D01*
X125064285Y-128271428D01*
X125021428Y-128442857D01*
X125021428Y-128571428D01*
X125064285Y-128742857D01*
X125107142Y-128828571D01*
X125192857Y-128914285D01*
X125321428Y-128957142D01*
X125535714Y-128957142D01*
X124335714Y-128485714D02*
X124635714Y-128485714D01*
X124635714Y-128957142D02*
X124635714Y-128057142D01*
X124207142Y-128057142D01*
X123221428Y-128014285D02*
X123992857Y-129171428D01*
X122964285Y-128700000D02*
X122535714Y-128700000D01*
X123050000Y-128957142D02*
X122750000Y-128057142D01*
X122450000Y-128957142D01*
X122150000Y-128957142D02*
X122150000Y-128357142D01*
X122150000Y-128528571D02*
X122107142Y-128442857D01*
X122064285Y-128400000D01*
X121978571Y-128357142D01*
X121892857Y-128357142D01*
X121207142Y-128957142D02*
X121207142Y-128057142D01*
X121207142Y-128914285D02*
X121292857Y-128957142D01*
X121464285Y-128957142D01*
X121550000Y-128914285D01*
X121592857Y-128871428D01*
X121635714Y-128785714D01*
X121635714Y-128528571D01*
X121592857Y-128442857D01*
X121550000Y-128400000D01*
X121464285Y-128357142D01*
X121292857Y-128357142D01*
X121207142Y-128400000D01*
X120392857Y-128357142D02*
X120392857Y-128957142D01*
X120778571Y-128357142D02*
X120778571Y-128828571D01*
X120735714Y-128914285D01*
X120650000Y-128957142D01*
X120521428Y-128957142D01*
X120435714Y-128914285D01*
X120392857Y-128871428D01*
X119578571Y-128914285D02*
X119664285Y-128957142D01*
X119835714Y-128957142D01*
X119921428Y-128914285D01*
X119964285Y-128871428D01*
X120007142Y-128785714D01*
X120007142Y-128528571D01*
X119964285Y-128442857D01*
X119921428Y-128400000D01*
X119835714Y-128357142D01*
X119664285Y-128357142D01*
X119578571Y-128400000D01*
X119064285Y-128957142D02*
X119150000Y-128914285D01*
X119192857Y-128871428D01*
X119235714Y-128785714D01*
X119235714Y-128528571D01*
X119192857Y-128442857D01*
X119150000Y-128400000D01*
X119064285Y-128357142D01*
X118935714Y-128357142D01*
X118850000Y-128400000D01*
X118807142Y-128442857D01*
X118764285Y-128528571D01*
X118764285Y-128785714D01*
X118807142Y-128871428D01*
X118850000Y-128914285D01*
X118935714Y-128957142D01*
X119064285Y-128957142D01*
X118378571Y-128357142D02*
X118378571Y-128957142D01*
X118378571Y-128442857D02*
X118335714Y-128400000D01*
X118250000Y-128357142D01*
X118121428Y-128357142D01*
X118035714Y-128400000D01*
X117992857Y-128485714D01*
X117992857Y-128957142D01*
D11*
X96567142Y-93964761D02*
X96614761Y-93917142D01*
X96662380Y-93774285D01*
X96662380Y-93679047D01*
X96614761Y-93536190D01*
X96519523Y-93440952D01*
X96424285Y-93393333D01*
X96233809Y-93345714D01*
X96090952Y-93345714D01*
X95900476Y-93393333D01*
X95805238Y-93440952D01*
X95710000Y-93536190D01*
X95662380Y-93679047D01*
X95662380Y-93774285D01*
X95710000Y-93917142D01*
X95757619Y-93964761D01*
X96662380Y-94964761D02*
X96186190Y-94631428D01*
X96662380Y-94393333D02*
X95662380Y-94393333D01*
X95662380Y-94774285D01*
X95710000Y-94869523D01*
X95757619Y-94917142D01*
X95852857Y-94964761D01*
X95995714Y-94964761D01*
X96090952Y-94917142D01*
X96138571Y-94869523D01*
X96186190Y-94774285D01*
X96186190Y-94393333D01*
X96662380Y-95917142D02*
X96662380Y-95345714D01*
X96662380Y-95631428D02*
X95662380Y-95631428D01*
X95805238Y-95536190D01*
X95900476Y-95440952D01*
X95948095Y-95345714D01*
X95757619Y-96298095D02*
X95710000Y-96345714D01*
X95662380Y-96440952D01*
X95662380Y-96679047D01*
X95710000Y-96774285D01*
X95757619Y-96821904D01*
X95852857Y-96869523D01*
X95948095Y-96869523D01*
X96090952Y-96821904D01*
X96662380Y-96250476D01*
X96662380Y-96869523D01*
X95757619Y-97250476D02*
X95710000Y-97298095D01*
X95662380Y-97393333D01*
X95662380Y-97631428D01*
X95710000Y-97726666D01*
X95757619Y-97774285D01*
X95852857Y-97821904D01*
X95948095Y-97821904D01*
X96090952Y-97774285D01*
X96662380Y-97202857D01*
X96662380Y-97821904D01*
X95662380Y-98440952D02*
X95662380Y-98536190D01*
X95710000Y-98631428D01*
X95757619Y-98679047D01*
X95852857Y-98726666D01*
X96043333Y-98774285D01*
X96281428Y-98774285D01*
X96471904Y-98726666D01*
X96567142Y-98679047D01*
X96614761Y-98631428D01*
X96662380Y-98536190D01*
X96662380Y-98440952D01*
X96614761Y-98345714D01*
X96567142Y-98298095D01*
X96471904Y-98250476D01*
X96281428Y-98202857D01*
X96043333Y-98202857D01*
X95852857Y-98250476D01*
X95757619Y-98298095D01*
X95710000Y-98345714D01*
X95662380Y-98440952D01*
D10*
X95106666Y-112436666D02*
X95240000Y-112436666D01*
X95306666Y-112470000D01*
X95340000Y-112503333D01*
X95406666Y-112603333D01*
X95440000Y-112736666D01*
X95440000Y-113003333D01*
X95406666Y-113070000D01*
X95373333Y-113103333D01*
X95306666Y-113136666D01*
X95173333Y-113136666D01*
X95106666Y-113103333D01*
X95073333Y-113070000D01*
X95040000Y-113003333D01*
X95040000Y-112836666D01*
X95073333Y-112770000D01*
X95106666Y-112736666D01*
X95173333Y-112703333D01*
X95306666Y-112703333D01*
X95373333Y-112736666D01*
X95406666Y-112770000D01*
X95440000Y-112836666D01*
X95443333Y-109436666D02*
X94976666Y-109436666D01*
X95276666Y-110136666D01*
X95306666Y-106916666D02*
X95373333Y-106883333D01*
X95406666Y-106850000D01*
X95440000Y-106783333D01*
X95440000Y-106750000D01*
X95406666Y-106683333D01*
X95373333Y-106650000D01*
X95306666Y-106616666D01*
X95173333Y-106616666D01*
X95106666Y-106650000D01*
X95073333Y-106683333D01*
X95040000Y-106750000D01*
X95040000Y-106783333D01*
X95073333Y-106850000D01*
X95106666Y-106883333D01*
X95173333Y-106916666D01*
X95306666Y-106916666D01*
X95373333Y-106950000D01*
X95406666Y-106983333D01*
X95440000Y-107050000D01*
X95440000Y-107183333D01*
X95406666Y-107250000D01*
X95373333Y-107283333D01*
X95306666Y-107316666D01*
X95173333Y-107316666D01*
X95106666Y-107283333D01*
X95073333Y-107250000D01*
X95040000Y-107183333D01*
X95040000Y-107050000D01*
X95073333Y-106983333D01*
X95106666Y-106950000D01*
X95173333Y-106916666D01*
X95343333Y-104696666D02*
X95210000Y-104696666D01*
X95143333Y-104663333D01*
X95110000Y-104630000D01*
X95043333Y-104530000D01*
X95010000Y-104396666D01*
X95010000Y-104130000D01*
X95043333Y-104063333D01*
X95076666Y-104030000D01*
X95143333Y-103996666D01*
X95276666Y-103996666D01*
X95343333Y-104030000D01*
X95376666Y-104063333D01*
X95410000Y-104130000D01*
X95410000Y-104296666D01*
X95376666Y-104363333D01*
X95343333Y-104396666D01*
X95276666Y-104430000D01*
X95143333Y-104430000D01*
X95076666Y-104396666D01*
X95043333Y-104363333D01*
X95010000Y-104296666D01*
D12*
X143477619Y-124063333D02*
X143096666Y-124063333D01*
X143553809Y-124291904D02*
X143287142Y-123491904D01*
X143020476Y-124291904D01*
X142753809Y-124291904D02*
X142753809Y-123758571D01*
X142753809Y-123910952D02*
X142715714Y-123834761D01*
X142677619Y-123796666D01*
X142601428Y-123758571D01*
X142525238Y-123758571D01*
X141915714Y-124291904D02*
X141915714Y-123491904D01*
X141915714Y-124253809D02*
X141991904Y-124291904D01*
X142144285Y-124291904D01*
X142220476Y-124253809D01*
X142258571Y-124215714D01*
X142296666Y-124139523D01*
X142296666Y-123910952D01*
X142258571Y-123834761D01*
X142220476Y-123796666D01*
X142144285Y-123758571D01*
X141991904Y-123758571D01*
X141915714Y-123796666D01*
X141191904Y-123758571D02*
X141191904Y-124291904D01*
X141534761Y-123758571D02*
X141534761Y-124177619D01*
X141496666Y-124253809D01*
X141420476Y-124291904D01*
X141306190Y-124291904D01*
X141230000Y-124253809D01*
X141191904Y-124215714D01*
X140468095Y-124253809D02*
X140544285Y-124291904D01*
X140696666Y-124291904D01*
X140772857Y-124253809D01*
X140810952Y-124215714D01*
X140849047Y-124139523D01*
X140849047Y-123910952D01*
X140810952Y-123834761D01*
X140772857Y-123796666D01*
X140696666Y-123758571D01*
X140544285Y-123758571D01*
X140468095Y-123796666D01*
X140010952Y-124291904D02*
X140087142Y-124253809D01*
X140125238Y-124215714D01*
X140163333Y-124139523D01*
X140163333Y-123910952D01*
X140125238Y-123834761D01*
X140087142Y-123796666D01*
X140010952Y-123758571D01*
X139896666Y-123758571D01*
X139820476Y-123796666D01*
X139782380Y-123834761D01*
X139744285Y-123910952D01*
X139744285Y-124139523D01*
X139782380Y-124215714D01*
X139820476Y-124253809D01*
X139896666Y-124291904D01*
X140010952Y-124291904D01*
X139401428Y-123758571D02*
X139401428Y-124291904D01*
X139401428Y-123834761D02*
X139363333Y-123796666D01*
X139287142Y-123758571D01*
X139172857Y-123758571D01*
X139096666Y-123796666D01*
X139058571Y-123872857D01*
X139058571Y-124291904D01*
X143477619Y-125463333D02*
X143096666Y-125463333D01*
X143553809Y-125691904D02*
X143287142Y-124891904D01*
X143020476Y-125691904D01*
X142296666Y-125691904D02*
X142563333Y-125310952D01*
X142753809Y-125691904D02*
X142753809Y-124891904D01*
X142449047Y-124891904D01*
X142372857Y-124930000D01*
X142334761Y-124968095D01*
X142296666Y-125044285D01*
X142296666Y-125158571D01*
X142334761Y-125234761D01*
X142372857Y-125272857D01*
X142449047Y-125310952D01*
X142753809Y-125310952D01*
X141953809Y-125691904D02*
X141953809Y-124891904D01*
X141763333Y-124891904D01*
X141649047Y-124930000D01*
X141572857Y-125006190D01*
X141534761Y-125082380D01*
X141496666Y-125234761D01*
X141496666Y-125349047D01*
X141534761Y-125501428D01*
X141572857Y-125577619D01*
X141649047Y-125653809D01*
X141763333Y-125691904D01*
X141953809Y-125691904D01*
X140887142Y-125272857D02*
X141153809Y-125272857D01*
X141153809Y-125691904D02*
X141153809Y-124891904D01*
X140772857Y-124891904D01*
X139972857Y-124891904D02*
X139515714Y-124891904D01*
X139744285Y-125691904D02*
X139744285Y-124891904D01*
X139249047Y-125691904D02*
X139249047Y-125158571D01*
X139249047Y-125310952D02*
X139210952Y-125234761D01*
X139172857Y-125196666D01*
X139096666Y-125158571D01*
X139020476Y-125158571D01*
X138410952Y-125691904D02*
X138410952Y-125272857D01*
X138449047Y-125196666D01*
X138525238Y-125158571D01*
X138677619Y-125158571D01*
X138753809Y-125196666D01*
X138410952Y-125653809D02*
X138487142Y-125691904D01*
X138677619Y-125691904D01*
X138753809Y-125653809D01*
X138791904Y-125577619D01*
X138791904Y-125501428D01*
X138753809Y-125425238D01*
X138677619Y-125387142D01*
X138487142Y-125387142D01*
X138410952Y-125349047D01*
X138030000Y-125158571D02*
X138030000Y-125691904D01*
X138030000Y-125234761D02*
X137991904Y-125196666D01*
X137915714Y-125158571D01*
X137801428Y-125158571D01*
X137725238Y-125196666D01*
X137687142Y-125272857D01*
X137687142Y-125691904D01*
X137344285Y-125653809D02*
X137268095Y-125691904D01*
X137115714Y-125691904D01*
X137039523Y-125653809D01*
X137001428Y-125577619D01*
X137001428Y-125539523D01*
X137039523Y-125463333D01*
X137115714Y-125425238D01*
X137230000Y-125425238D01*
X137306190Y-125387142D01*
X137344285Y-125310952D01*
X137344285Y-125272857D01*
X137306190Y-125196666D01*
X137230000Y-125158571D01*
X137115714Y-125158571D01*
X137039523Y-125196666D01*
X136658571Y-125691904D02*
X136658571Y-125158571D01*
X136658571Y-125234761D02*
X136620476Y-125196666D01*
X136544285Y-125158571D01*
X136430000Y-125158571D01*
X136353809Y-125196666D01*
X136315714Y-125272857D01*
X136315714Y-125691904D01*
X136315714Y-125272857D02*
X136277619Y-125196666D01*
X136201428Y-125158571D01*
X136087142Y-125158571D01*
X136010952Y-125196666D01*
X135972857Y-125272857D01*
X135972857Y-125691904D01*
X135591904Y-125691904D02*
X135591904Y-125158571D01*
X135591904Y-124891904D02*
X135630000Y-124930000D01*
X135591904Y-124968095D01*
X135553809Y-124930000D01*
X135591904Y-124891904D01*
X135591904Y-124968095D01*
X135325238Y-125158571D02*
X135020476Y-125158571D01*
X135210952Y-124891904D02*
X135210952Y-125577619D01*
X135172857Y-125653809D01*
X135096666Y-125691904D01*
X135020476Y-125691904D01*
X134868095Y-125158571D02*
X134563333Y-125158571D01*
X134753809Y-124891904D02*
X134753809Y-125577619D01*
X134715714Y-125653809D01*
X134639523Y-125691904D01*
X134563333Y-125691904D01*
X133991904Y-125653809D02*
X134068095Y-125691904D01*
X134220476Y-125691904D01*
X134296666Y-125653809D01*
X134334761Y-125577619D01*
X134334761Y-125272857D01*
X134296666Y-125196666D01*
X134220476Y-125158571D01*
X134068095Y-125158571D01*
X133991904Y-125196666D01*
X133953809Y-125272857D01*
X133953809Y-125349047D01*
X134334761Y-125425238D01*
X133610952Y-125691904D02*
X133610952Y-125158571D01*
X133610952Y-125310952D02*
X133572857Y-125234761D01*
X133534761Y-125196666D01*
X133458571Y-125158571D01*
X133382380Y-125158571D01*
X132049047Y-125615714D02*
X132087142Y-125653809D01*
X132201428Y-125691904D01*
X132277619Y-125691904D01*
X132391904Y-125653809D01*
X132468095Y-125577619D01*
X132506190Y-125501428D01*
X132544285Y-125349047D01*
X132544285Y-125234761D01*
X132506190Y-125082380D01*
X132468095Y-125006190D01*
X132391904Y-124930000D01*
X132277619Y-124891904D01*
X132201428Y-124891904D01*
X132087142Y-124930000D01*
X132049047Y-124968095D01*
X131591904Y-125691904D02*
X131668095Y-125653809D01*
X131706190Y-125615714D01*
X131744285Y-125539523D01*
X131744285Y-125310952D01*
X131706190Y-125234761D01*
X131668095Y-125196666D01*
X131591904Y-125158571D01*
X131477619Y-125158571D01*
X131401428Y-125196666D01*
X131363333Y-125234761D01*
X131325238Y-125310952D01*
X131325238Y-125539523D01*
X131363333Y-125615714D01*
X131401428Y-125653809D01*
X131477619Y-125691904D01*
X131591904Y-125691904D01*
X130982380Y-125158571D02*
X130982380Y-125691904D01*
X130982380Y-125234761D02*
X130944285Y-125196666D01*
X130868095Y-125158571D01*
X130753809Y-125158571D01*
X130677619Y-125196666D01*
X130639523Y-125272857D01*
X130639523Y-125691904D01*
X130372857Y-125158571D02*
X130068095Y-125158571D01*
X130258571Y-124891904D02*
X130258571Y-125577619D01*
X130220476Y-125653809D01*
X130144285Y-125691904D01*
X130068095Y-125691904D01*
X129801428Y-125691904D02*
X129801428Y-125158571D01*
X129801428Y-125310952D02*
X129763333Y-125234761D01*
X129725238Y-125196666D01*
X129649047Y-125158571D01*
X129572857Y-125158571D01*
X129191904Y-125691904D02*
X129268095Y-125653809D01*
X129306190Y-125615714D01*
X129344285Y-125539523D01*
X129344285Y-125310952D01*
X129306190Y-125234761D01*
X129268095Y-125196666D01*
X129191904Y-125158571D01*
X129077619Y-125158571D01*
X129001428Y-125196666D01*
X128963333Y-125234761D01*
X128925238Y-125310952D01*
X128925238Y-125539523D01*
X128963333Y-125615714D01*
X129001428Y-125653809D01*
X129077619Y-125691904D01*
X129191904Y-125691904D01*
X128468095Y-125691904D02*
X128544285Y-125653809D01*
X128582380Y-125577619D01*
X128582380Y-124891904D01*
X128049047Y-125691904D02*
X128125238Y-125653809D01*
X128163333Y-125577619D01*
X128163333Y-124891904D01*
X127439523Y-125653809D02*
X127515714Y-125691904D01*
X127668095Y-125691904D01*
X127744285Y-125653809D01*
X127782380Y-125577619D01*
X127782380Y-125272857D01*
X127744285Y-125196666D01*
X127668095Y-125158571D01*
X127515714Y-125158571D01*
X127439523Y-125196666D01*
X127401428Y-125272857D01*
X127401428Y-125349047D01*
X127782380Y-125425238D01*
X127058571Y-125691904D02*
X127058571Y-125158571D01*
X127058571Y-125310952D02*
X127020476Y-125234761D01*
X126982380Y-125196666D01*
X126906190Y-125158571D01*
X126830000Y-125158571D01*
X142982380Y-127091904D02*
X143249047Y-126710952D01*
X143439523Y-127091904D02*
X143439523Y-126291904D01*
X143134761Y-126291904D01*
X143058571Y-126330000D01*
X143020476Y-126368095D01*
X142982380Y-126444285D01*
X142982380Y-126558571D01*
X143020476Y-126634761D01*
X143058571Y-126672857D01*
X143134761Y-126710952D01*
X143439523Y-126710952D01*
X142334761Y-127053809D02*
X142410952Y-127091904D01*
X142563333Y-127091904D01*
X142639523Y-127053809D01*
X142677619Y-126977619D01*
X142677619Y-126672857D01*
X142639523Y-126596666D01*
X142563333Y-126558571D01*
X142410952Y-126558571D01*
X142334761Y-126596666D01*
X142296666Y-126672857D01*
X142296666Y-126749047D01*
X142677619Y-126825238D01*
X142030000Y-126558571D02*
X141839523Y-127091904D01*
X141649047Y-126558571D01*
X140772857Y-126368095D02*
X140734761Y-126330000D01*
X140658571Y-126291904D01*
X140468095Y-126291904D01*
X140391904Y-126330000D01*
X140353809Y-126368095D01*
X140315714Y-126444285D01*
X140315714Y-126520476D01*
X140353809Y-126634761D01*
X140810952Y-127091904D01*
X140315714Y-127091904D01*
X139972857Y-127015714D02*
X139934761Y-127053809D01*
X139972857Y-127091904D01*
X140010952Y-127053809D01*
X139972857Y-127015714D01*
X139972857Y-127091904D01*
X139668095Y-126291904D02*
X139172857Y-126291904D01*
X139439523Y-126596666D01*
X139325238Y-126596666D01*
X139249047Y-126634761D01*
X139210952Y-126672857D01*
X139172857Y-126749047D01*
X139172857Y-126939523D01*
X139210952Y-127015714D01*
X139249047Y-127053809D01*
X139325238Y-127091904D01*
X139553809Y-127091904D01*
X139630000Y-127053809D01*
X139668095Y-127015714D01*
X138220476Y-126787142D02*
X137610952Y-126787142D01*
X136620476Y-127091904D02*
X136620476Y-126291904D01*
X136353809Y-126863333D01*
X136087142Y-126291904D01*
X136087142Y-127091904D01*
X135363333Y-127091904D02*
X135363333Y-126672857D01*
X135401428Y-126596666D01*
X135477619Y-126558571D01*
X135630000Y-126558571D01*
X135706190Y-126596666D01*
X135363333Y-127053809D02*
X135439523Y-127091904D01*
X135630000Y-127091904D01*
X135706190Y-127053809D01*
X135744285Y-126977619D01*
X135744285Y-126901428D01*
X135706190Y-126825238D01*
X135630000Y-126787142D01*
X135439523Y-126787142D01*
X135363333Y-126749047D01*
X135058571Y-126558571D02*
X134868095Y-127091904D01*
X134677619Y-126558571D02*
X134868095Y-127091904D01*
X134944285Y-127282380D01*
X134982380Y-127320476D01*
X135058571Y-127358571D01*
X133801428Y-126368095D02*
X133763333Y-126330000D01*
X133687142Y-126291904D01*
X133496666Y-126291904D01*
X133420476Y-126330000D01*
X133382380Y-126368095D01*
X133344285Y-126444285D01*
X133344285Y-126520476D01*
X133382380Y-126634761D01*
X133839523Y-127091904D01*
X133344285Y-127091904D01*
X132849047Y-126291904D02*
X132772857Y-126291904D01*
X132696666Y-126330000D01*
X132658571Y-126368095D01*
X132620476Y-126444285D01*
X132582380Y-126596666D01*
X132582380Y-126787142D01*
X132620476Y-126939523D01*
X132658571Y-127015714D01*
X132696666Y-127053809D01*
X132772857Y-127091904D01*
X132849047Y-127091904D01*
X132925238Y-127053809D01*
X132963333Y-127015714D01*
X133001428Y-126939523D01*
X133039523Y-126787142D01*
X133039523Y-126596666D01*
X133001428Y-126444285D01*
X132963333Y-126368095D01*
X132925238Y-126330000D01*
X132849047Y-126291904D01*
X132277619Y-126368095D02*
X132239523Y-126330000D01*
X132163333Y-126291904D01*
X131972857Y-126291904D01*
X131896666Y-126330000D01*
X131858571Y-126368095D01*
X131820476Y-126444285D01*
X131820476Y-126520476D01*
X131858571Y-126634761D01*
X132315714Y-127091904D01*
X131820476Y-127091904D01*
X131058571Y-127091904D02*
X131515714Y-127091904D01*
X131287142Y-127091904D02*
X131287142Y-126291904D01*
X131363333Y-126406190D01*
X131439523Y-126482380D01*
X131515714Y-126520476D01*
D11*
X111900000Y-89440000D02*
X111900000Y-97040000D01*
X97220000Y-89440000D02*
X111900000Y-89440000D01*
X97220000Y-97040000D02*
X97220000Y-89440000D01*
D12*
X111753590Y-97090800D02*
G75*
G03*
X111753590Y-97090800I-7244390J0D01*
G01*
D13*
X103710800Y-121790180D02*
X103009760Y-121790180D01*
X103009760Y-121790180D02*
X103009760Y-122039100D01*
D11*
X115800000Y-98600000D02*
G75*
G03*
X115800000Y-98600000I-200000J0D01*
G01*
D13*
X124120000Y-97320000D02*
X124120000Y-102400000D01*
X124400000Y-94500000D02*
X122850000Y-94500000D01*
X121580000Y-94780000D02*
X121580000Y-97320000D01*
X121580000Y-97320000D02*
X124120000Y-97320000D01*
X124120000Y-102400000D02*
X119040000Y-102400000D01*
X119040000Y-102400000D02*
X119040000Y-97320000D01*
X124400000Y-94500000D02*
X124400000Y-96050000D01*
X119040000Y-94780000D02*
X121580000Y-94780000D01*
X119040000Y-97320000D02*
X119040000Y-94780000D01*
D15*
X108020000Y-121635000D02*
X106820000Y-121635000D01*
X106820000Y-123385000D02*
X108020000Y-123385000D01*
D13*
X93220000Y-118740000D02*
X100840000Y-118740000D01*
X93220000Y-121280000D02*
X100840000Y-121280000D01*
X90400000Y-121560000D02*
X91950000Y-121560000D01*
X100840000Y-118740000D02*
X100840000Y-121280000D01*
X93220000Y-121280000D02*
X93220000Y-118740000D01*
X91950000Y-118460000D02*
X90400000Y-118460000D01*
X90400000Y-118460000D02*
X90400000Y-121560000D01*
X125060000Y-113826666D02*
X124726666Y-113826666D01*
X125126666Y-114026666D02*
X124893333Y-113326666D01*
X124660000Y-114026666D01*
X124493333Y-113326666D02*
X124026666Y-113326666D01*
X124326666Y-114026666D01*
X125010000Y-116196666D02*
X124676666Y-116196666D01*
X125076666Y-116396666D02*
X124843333Y-115696666D01*
X124610000Y-116396666D01*
X124076666Y-115696666D02*
X124210000Y-115696666D01*
X124276666Y-115730000D01*
X124310000Y-115763333D01*
X124376666Y-115863333D01*
X124410000Y-115996666D01*
X124410000Y-116263333D01*
X124376666Y-116330000D01*
X124343333Y-116363333D01*
X124276666Y-116396666D01*
X124143333Y-116396666D01*
X124076666Y-116363333D01*
X124043333Y-116330000D01*
X124010000Y-116263333D01*
X124010000Y-116096666D01*
X124043333Y-116030000D01*
X124076666Y-115996666D01*
X124143333Y-115963333D01*
X124276666Y-115963333D01*
X124343333Y-115996666D01*
X124376666Y-116030000D01*
X124410000Y-116096666D01*
X125013333Y-103853333D02*
X124913333Y-103886666D01*
X124746666Y-103886666D01*
X124680000Y-103853333D01*
X124646666Y-103820000D01*
X124613333Y-103753333D01*
X124613333Y-103686666D01*
X124646666Y-103620000D01*
X124680000Y-103586666D01*
X124746666Y-103553333D01*
X124880000Y-103520000D01*
X124946666Y-103486666D01*
X124980000Y-103453333D01*
X125013333Y-103386666D01*
X125013333Y-103320000D01*
X124980000Y-103253333D01*
X124946666Y-103220000D01*
X124880000Y-103186666D01*
X124713333Y-103186666D01*
X124613333Y-103220000D01*
X123913333Y-103820000D02*
X123946666Y-103853333D01*
X124046666Y-103886666D01*
X124113333Y-103886666D01*
X124213333Y-103853333D01*
X124280000Y-103786666D01*
X124313333Y-103720000D01*
X124346666Y-103586666D01*
X124346666Y-103486666D01*
X124313333Y-103353333D01*
X124280000Y-103286666D01*
X124213333Y-103220000D01*
X124113333Y-103186666D01*
X124046666Y-103186666D01*
X123946666Y-103220000D01*
X123913333Y-103253333D01*
X123280000Y-103886666D02*
X123613333Y-103886666D01*
X123613333Y-103186666D01*
X124980000Y-106303333D02*
X124880000Y-106336666D01*
X124713333Y-106336666D01*
X124646666Y-106303333D01*
X124613333Y-106270000D01*
X124580000Y-106203333D01*
X124580000Y-106136666D01*
X124613333Y-106070000D01*
X124646666Y-106036666D01*
X124713333Y-106003333D01*
X124846666Y-105970000D01*
X124913333Y-105936666D01*
X124946666Y-105903333D01*
X124980000Y-105836666D01*
X124980000Y-105770000D01*
X124946666Y-105703333D01*
X124913333Y-105670000D01*
X124846666Y-105636666D01*
X124680000Y-105636666D01*
X124580000Y-105670000D01*
X124280000Y-106336666D02*
X124280000Y-105636666D01*
X124113333Y-105636666D01*
X124013333Y-105670000D01*
X123946666Y-105736666D01*
X123913333Y-105803333D01*
X123880000Y-105936666D01*
X123880000Y-106036666D01*
X123913333Y-106170000D01*
X123946666Y-106236666D01*
X124013333Y-106303333D01*
X124113333Y-106336666D01*
X124280000Y-106336666D01*
X123613333Y-106136666D02*
X123280000Y-106136666D01*
X123680000Y-106336666D02*
X123446666Y-105636666D01*
X123213333Y-106336666D01*
X129222857Y-90642380D02*
X129222857Y-89642380D01*
X128984761Y-89642380D01*
X128841904Y-89690000D01*
X128746666Y-89785238D01*
X128699047Y-89880476D01*
X128651428Y-90070952D01*
X128651428Y-90213809D01*
X128699047Y-90404285D01*
X128746666Y-90499523D01*
X128841904Y-90594761D01*
X128984761Y-90642380D01*
X129222857Y-90642380D01*
X128365714Y-89642380D02*
X127794285Y-89642380D01*
X128080000Y-90642380D02*
X128080000Y-89642380D01*
X126889523Y-90642380D02*
X127222857Y-90166190D01*
X127460952Y-90642380D02*
X127460952Y-89642380D01*
X127080000Y-89642380D01*
X126984761Y-89690000D01*
X126937142Y-89737619D01*
X126889523Y-89832857D01*
X126889523Y-89975714D01*
X126937142Y-90070952D01*
X126984761Y-90118571D01*
X127080000Y-90166190D01*
X127460952Y-90166190D01*
X133190476Y-101752380D02*
X132857142Y-102752380D01*
X132523809Y-101752380D01*
X131761904Y-102704761D02*
X131857142Y-102752380D01*
X132047619Y-102752380D01*
X132142857Y-102704761D01*
X132190476Y-102657142D01*
X132238095Y-102561904D01*
X132238095Y-102276190D01*
X132190476Y-102180952D01*
X132142857Y-102133333D01*
X132047619Y-102085714D01*
X131857142Y-102085714D01*
X131761904Y-102133333D01*
X130904761Y-102704761D02*
X131000000Y-102752380D01*
X131190476Y-102752380D01*
X131285714Y-102704761D01*
X131333333Y-102657142D01*
X131380952Y-102561904D01*
X131380952Y-102276190D01*
X131333333Y-102180952D01*
X131285714Y-102133333D01*
X131190476Y-102085714D01*
X131000000Y-102085714D01*
X130904761Y-102133333D01*
X133020476Y-94942380D02*
X133353809Y-94466190D01*
X133591904Y-94942380D02*
X133591904Y-93942380D01*
X133210952Y-93942380D01*
X133115714Y-93990000D01*
X133068095Y-94037619D01*
X133020476Y-94132857D01*
X133020476Y-94275714D01*
X133068095Y-94370952D01*
X133115714Y-94418571D01*
X133210952Y-94466190D01*
X133591904Y-94466190D01*
X132639523Y-94656666D02*
X132163333Y-94656666D01*
X132734761Y-94942380D02*
X132401428Y-93942380D01*
X132068095Y-94942380D01*
X131830000Y-93942380D02*
X131591904Y-94942380D01*
X131401428Y-94228095D01*
X131210952Y-94942380D01*
X130972857Y-93942380D01*
X133141904Y-96490000D02*
X133237142Y-96442380D01*
X133380000Y-96442380D01*
X133522857Y-96490000D01*
X133618095Y-96585238D01*
X133665714Y-96680476D01*
X133713333Y-96870952D01*
X133713333Y-97013809D01*
X133665714Y-97204285D01*
X133618095Y-97299523D01*
X133522857Y-97394761D01*
X133380000Y-97442380D01*
X133284761Y-97442380D01*
X133141904Y-97394761D01*
X133094285Y-97347142D01*
X133094285Y-97013809D01*
X133284761Y-97013809D01*
X132665714Y-97442380D02*
X132665714Y-96442380D01*
X132094285Y-97442380D01*
X132094285Y-96442380D01*
X131618095Y-97442380D02*
X131618095Y-96442380D01*
X131380000Y-96442380D01*
X131237142Y-96490000D01*
X131141904Y-96585238D01*
X131094285Y-96680476D01*
X131046666Y-96870952D01*
X131046666Y-97013809D01*
X131094285Y-97204285D01*
X131141904Y-97299523D01*
X131237142Y-97394761D01*
X131380000Y-97442380D01*
X131618095Y-97442380D01*
X132827619Y-100142380D02*
X133160952Y-99666190D01*
X133399047Y-100142380D02*
X133399047Y-99142380D01*
X133018095Y-99142380D01*
X132922857Y-99190000D01*
X132875238Y-99237619D01*
X132827619Y-99332857D01*
X132827619Y-99475714D01*
X132875238Y-99570952D01*
X132922857Y-99618571D01*
X133018095Y-99666190D01*
X133399047Y-99666190D01*
X132446666Y-100094761D02*
X132303809Y-100142380D01*
X132065714Y-100142380D01*
X131970476Y-100094761D01*
X131922857Y-100047142D01*
X131875238Y-99951904D01*
X131875238Y-99856666D01*
X131922857Y-99761428D01*
X131970476Y-99713809D01*
X132065714Y-99666190D01*
X132256190Y-99618571D01*
X132351428Y-99570952D01*
X132399047Y-99523333D01*
X132446666Y-99428095D01*
X132446666Y-99332857D01*
X132399047Y-99237619D01*
X132351428Y-99190000D01*
X132256190Y-99142380D01*
X132018095Y-99142380D01*
X131875238Y-99190000D01*
X131589523Y-99142380D02*
X131018095Y-99142380D01*
X131303809Y-100142380D02*
X131303809Y-99142380D01*
X132394285Y-105046666D02*
X131918095Y-105046666D01*
X132489523Y-105332380D02*
X132156190Y-104332380D01*
X131822857Y-105332380D01*
X131584761Y-104332380D02*
X130965714Y-104332380D01*
X131299047Y-104713333D01*
X131156190Y-104713333D01*
X131060952Y-104760952D01*
X131013333Y-104808571D01*
X130965714Y-104903809D01*
X130965714Y-105141904D01*
X131013333Y-105237142D01*
X131060952Y-105284761D01*
X131156190Y-105332380D01*
X131441904Y-105332380D01*
X131537142Y-105284761D01*
X131584761Y-105237142D01*
X132394285Y-107476666D02*
X131918095Y-107476666D01*
X132489523Y-107762380D02*
X132156190Y-106762380D01*
X131822857Y-107762380D01*
X131537142Y-106857619D02*
X131489523Y-106810000D01*
X131394285Y-106762380D01*
X131156190Y-106762380D01*
X131060952Y-106810000D01*
X131013333Y-106857619D01*
X130965714Y-106952857D01*
X130965714Y-107048095D01*
X131013333Y-107190952D01*
X131584761Y-107762380D01*
X130965714Y-107762380D01*
X132284285Y-109946666D02*
X131808095Y-109946666D01*
X132379523Y-110232380D02*
X132046190Y-109232380D01*
X131712857Y-110232380D01*
X130855714Y-110232380D02*
X131427142Y-110232380D01*
X131141428Y-110232380D02*
X131141428Y-109232380D01*
X131236666Y-109375238D01*
X131331904Y-109470476D01*
X131427142Y-109518095D01*
X132344285Y-112536666D02*
X131868095Y-112536666D01*
X132439523Y-112822380D02*
X132106190Y-111822380D01*
X131772857Y-112822380D01*
X131249047Y-111822380D02*
X131153809Y-111822380D01*
X131058571Y-111870000D01*
X131010952Y-111917619D01*
X130963333Y-112012857D01*
X130915714Y-112203333D01*
X130915714Y-112441428D01*
X130963333Y-112631904D01*
X131010952Y-112727142D01*
X131058571Y-112774761D01*
X131153809Y-112822380D01*
X131249047Y-112822380D01*
X131344285Y-112774761D01*
X131391904Y-112727142D01*
X131439523Y-112631904D01*
X131487142Y-112441428D01*
X131487142Y-112203333D01*
X131439523Y-112012857D01*
X131391904Y-111917619D01*
X131344285Y-111870000D01*
X131249047Y-111822380D01*
X131870476Y-115352380D02*
X132441904Y-115352380D01*
X132156190Y-115352380D02*
X132156190Y-114352380D01*
X132251428Y-114495238D01*
X132346666Y-114590476D01*
X132441904Y-114638095D01*
X131537142Y-114352380D02*
X130918095Y-114352380D01*
X131251428Y-114733333D01*
X131108571Y-114733333D01*
X131013333Y-114780952D01*
X130965714Y-114828571D01*
X130918095Y-114923809D01*
X130918095Y-115161904D01*
X130965714Y-115257142D01*
X131013333Y-115304761D01*
X131108571Y-115352380D01*
X131394285Y-115352380D01*
X131489523Y-115304761D01*
X131537142Y-115257142D01*
X131870476Y-117822380D02*
X132441904Y-117822380D01*
X132156190Y-117822380D02*
X132156190Y-116822380D01*
X132251428Y-116965238D01*
X132346666Y-117060476D01*
X132441904Y-117108095D01*
X131489523Y-116917619D02*
X131441904Y-116870000D01*
X131346666Y-116822380D01*
X131108571Y-116822380D01*
X131013333Y-116870000D01*
X130965714Y-116917619D01*
X130918095Y-117012857D01*
X130918095Y-117108095D01*
X130965714Y-117250952D01*
X131537142Y-117822380D01*
X130918095Y-117822380D01*
X131820476Y-120352380D02*
X132391904Y-120352380D01*
X132106190Y-120352380D02*
X132106190Y-119352380D01*
X132201428Y-119495238D01*
X132296666Y-119590476D01*
X132391904Y-119638095D01*
X130868095Y-120352380D02*
X131439523Y-120352380D01*
X131153809Y-120352380D02*
X131153809Y-119352380D01*
X131249047Y-119495238D01*
X131344285Y-119590476D01*
X131439523Y-119638095D01*
X131930476Y-122882380D02*
X132501904Y-122882380D01*
X132216190Y-122882380D02*
X132216190Y-121882380D01*
X132311428Y-122025238D01*
X132406666Y-122120476D01*
X132501904Y-122168095D01*
X131311428Y-121882380D02*
X131216190Y-121882380D01*
X131120952Y-121930000D01*
X131073333Y-121977619D01*
X131025714Y-122072857D01*
X130978095Y-122263333D01*
X130978095Y-122501428D01*
X131025714Y-122691904D01*
X131073333Y-122787142D01*
X131120952Y-122834761D01*
X131216190Y-122882380D01*
X131311428Y-122882380D01*
X131406666Y-122834761D01*
X131454285Y-122787142D01*
X131501904Y-122691904D01*
X131549523Y-122501428D01*
X131549523Y-122263333D01*
X131501904Y-122072857D01*
X131454285Y-121977619D01*
X131406666Y-121930000D01*
X131311428Y-121882380D01*
X112330476Y-122782380D02*
X112140000Y-122782380D01*
X112044761Y-122734761D01*
X111997142Y-122687142D01*
X111901904Y-122544285D01*
X111854285Y-122353809D01*
X111854285Y-121972857D01*
X111901904Y-121877619D01*
X111949523Y-121830000D01*
X112044761Y-121782380D01*
X112235238Y-121782380D01*
X112330476Y-121830000D01*
X112378095Y-121877619D01*
X112425714Y-121972857D01*
X112425714Y-122210952D01*
X112378095Y-122306190D01*
X112330476Y-122353809D01*
X112235238Y-122401428D01*
X112044761Y-122401428D01*
X111949523Y-122353809D01*
X111901904Y-122306190D01*
X111854285Y-122210952D01*
X112235238Y-119730952D02*
X112330476Y-119683333D01*
X112378095Y-119635714D01*
X112425714Y-119540476D01*
X112425714Y-119492857D01*
X112378095Y-119397619D01*
X112330476Y-119350000D01*
X112235238Y-119302380D01*
X112044761Y-119302380D01*
X111949523Y-119350000D01*
X111901904Y-119397619D01*
X111854285Y-119492857D01*
X111854285Y-119540476D01*
X111901904Y-119635714D01*
X111949523Y-119683333D01*
X112044761Y-119730952D01*
X112235238Y-119730952D01*
X112330476Y-119778571D01*
X112378095Y-119826190D01*
X112425714Y-119921428D01*
X112425714Y-120111904D01*
X112378095Y-120207142D01*
X112330476Y-120254761D01*
X112235238Y-120302380D01*
X112044761Y-120302380D01*
X111949523Y-120254761D01*
X111901904Y-120207142D01*
X111854285Y-120111904D01*
X111854285Y-119921428D01*
X111901904Y-119826190D01*
X111949523Y-119778571D01*
X112044761Y-119730952D01*
X112523333Y-116822380D02*
X111856666Y-116822380D01*
X112285238Y-117822380D01*
X111999523Y-114132380D02*
X112190000Y-114132380D01*
X112285238Y-114180000D01*
X112332857Y-114227619D01*
X112428095Y-114370476D01*
X112475714Y-114560952D01*
X112475714Y-114941904D01*
X112428095Y-115037142D01*
X112380476Y-115084761D01*
X112285238Y-115132380D01*
X112094761Y-115132380D01*
X111999523Y-115084761D01*
X111951904Y-115037142D01*
X111904285Y-114941904D01*
X111904285Y-114703809D01*
X111951904Y-114608571D01*
X111999523Y-114560952D01*
X112094761Y-114513333D01*
X112285238Y-114513333D01*
X112380476Y-114560952D01*
X112428095Y-114608571D01*
X112475714Y-114703809D01*
X111901904Y-111762380D02*
X112378095Y-111762380D01*
X112425714Y-112238571D01*
X112378095Y-112190952D01*
X112282857Y-112143333D01*
X112044761Y-112143333D01*
X111949523Y-112190952D01*
X111901904Y-112238571D01*
X111854285Y-112333809D01*
X111854285Y-112571904D01*
X111901904Y-112667142D01*
X111949523Y-112714761D01*
X112044761Y-112762380D01*
X112282857Y-112762380D01*
X112378095Y-112714761D01*
X112425714Y-112667142D01*
X111949523Y-109455714D02*
X111949523Y-110122380D01*
X112187619Y-109074761D02*
X112425714Y-109789047D01*
X111806666Y-109789047D01*
X112473333Y-106702380D02*
X111854285Y-106702380D01*
X112187619Y-107083333D01*
X112044761Y-107083333D01*
X111949523Y-107130952D01*
X111901904Y-107178571D01*
X111854285Y-107273809D01*
X111854285Y-107511904D01*
X111901904Y-107607142D01*
X111949523Y-107654761D01*
X112044761Y-107702380D01*
X112330476Y-107702380D01*
X112425714Y-107654761D01*
X112473333Y-107607142D01*
X112425714Y-104327619D02*
X112378095Y-104280000D01*
X112282857Y-104232380D01*
X112044761Y-104232380D01*
X111949523Y-104280000D01*
X111901904Y-104327619D01*
X111854285Y-104422857D01*
X111854285Y-104518095D01*
X111901904Y-104660952D01*
X112473333Y-105232380D01*
X111854285Y-105232380D01*
X116522857Y-90742380D02*
X116522857Y-89742380D01*
X116284761Y-89742380D01*
X116141904Y-89790000D01*
X116046666Y-89885238D01*
X115999047Y-89980476D01*
X115951428Y-90170952D01*
X115951428Y-90313809D01*
X115999047Y-90504285D01*
X116046666Y-90599523D01*
X116141904Y-90694761D01*
X116284761Y-90742380D01*
X116522857Y-90742380D01*
X115665714Y-89742380D02*
X115094285Y-89742380D01*
X115380000Y-90742380D02*
X115380000Y-89742380D01*
X114189523Y-90742380D02*
X114522857Y-90266190D01*
X114760952Y-90742380D02*
X114760952Y-89742380D01*
X114380000Y-89742380D01*
X114284761Y-89790000D01*
X114237142Y-89837619D01*
X114189523Y-89932857D01*
X114189523Y-90075714D01*
X114237142Y-90170952D01*
X114284761Y-90218571D01*
X114380000Y-90266190D01*
X114760952Y-90266190D01*
X124243333Y-121100000D02*
X124243333Y-120766666D01*
X124043333Y-121166666D02*
X124743333Y-120933333D01*
X124043333Y-120700000D01*
X124743333Y-120166666D02*
X124743333Y-120300000D01*
X124710000Y-120366666D01*
X124676666Y-120400000D01*
X124576666Y-120466666D01*
X124443333Y-120500000D01*
X124176666Y-120500000D01*
X124110000Y-120466666D01*
X124076666Y-120433333D01*
X124043333Y-120366666D01*
X124043333Y-120233333D01*
X124076666Y-120166666D01*
X124110000Y-120133333D01*
X124176666Y-120100000D01*
X124343333Y-120100000D01*
X124410000Y-120133333D01*
X124443333Y-120166666D01*
X124476666Y-120233333D01*
X124476666Y-120366666D01*
X124443333Y-120433333D01*
X124410000Y-120466666D01*
X124343333Y-120500000D01*
X126613333Y-121150000D02*
X126613333Y-120816666D01*
X126413333Y-121216666D02*
X127113333Y-120983333D01*
X126413333Y-120750000D01*
X127113333Y-120583333D02*
X127113333Y-120116666D01*
X126413333Y-120416666D01*
X122060000Y-120653333D02*
X122093333Y-120720000D01*
X122093333Y-120820000D01*
X122060000Y-120920000D01*
X121993333Y-120986666D01*
X121926666Y-121020000D01*
X121793333Y-121053333D01*
X121693333Y-121053333D01*
X121560000Y-121020000D01*
X121493333Y-120986666D01*
X121426666Y-120920000D01*
X121393333Y-120820000D01*
X121393333Y-120753333D01*
X121426666Y-120653333D01*
X121460000Y-120620000D01*
X121693333Y-120620000D01*
X121693333Y-120753333D01*
X121393333Y-120320000D02*
X122093333Y-120320000D01*
X121393333Y-119920000D01*
X122093333Y-119920000D01*
X121393333Y-119586666D02*
X122093333Y-119586666D01*
X122093333Y-119420000D01*
X122060000Y-119320000D01*
X121993333Y-119253333D01*
X121926666Y-119220000D01*
X121793333Y-119186666D01*
X121693333Y-119186666D01*
X121560000Y-119220000D01*
X121493333Y-119253333D01*
X121426666Y-119320000D01*
X121393333Y-119420000D01*
X121393333Y-119586666D01*
X106208095Y-96778571D02*
X106065238Y-96826190D01*
X106017619Y-96873809D01*
X105970000Y-96969047D01*
X105970000Y-97111904D01*
X106017619Y-97207142D01*
X106065238Y-97254761D01*
X106160476Y-97302380D01*
X106541428Y-97302380D01*
X106541428Y-96302380D01*
X106208095Y-96302380D01*
X106112857Y-96350000D01*
X106065238Y-96397619D01*
X106017619Y-96492857D01*
X106017619Y-96588095D01*
X106065238Y-96683333D01*
X106112857Y-96730952D01*
X106208095Y-96778571D01*
X106541428Y-96778571D01*
X105684285Y-96302380D02*
X105112857Y-96302380D01*
X105398571Y-97302380D02*
X105398571Y-96302380D01*
X104255714Y-97302380D02*
X104827142Y-97302380D01*
X104541428Y-97302380D02*
X104541428Y-96302380D01*
X104636666Y-96445238D01*
X104731904Y-96540476D01*
X104827142Y-96588095D01*
X103636666Y-96302380D02*
X103541428Y-96302380D01*
X103446190Y-96350000D01*
X103398571Y-96397619D01*
X103350952Y-96492857D01*
X103303333Y-96683333D01*
X103303333Y-96921428D01*
X103350952Y-97111904D01*
X103398571Y-97207142D01*
X103446190Y-97254761D01*
X103541428Y-97302380D01*
X103636666Y-97302380D01*
X103731904Y-97254761D01*
X103779523Y-97207142D01*
X103827142Y-97111904D01*
X103874761Y-96921428D01*
X103874761Y-96683333D01*
X103827142Y-96492857D01*
X103779523Y-96397619D01*
X103731904Y-96350000D01*
X103636666Y-96302380D01*
X102350952Y-97302380D02*
X102922380Y-97302380D01*
X102636666Y-97302380D02*
X102636666Y-96302380D01*
X102731904Y-96445238D01*
X102827142Y-96540476D01*
X102922380Y-96588095D01*
X102294628Y-87413447D02*
X102294628Y-88175352D01*
X102675580Y-87794400D02*
X101913676Y-87794400D01*
X102510528Y-105320447D02*
X102510528Y-106082352D01*
X161848571Y-124551904D02*
X161848571Y-125123333D01*
X161886666Y-125237619D01*
X161962857Y-125313809D01*
X162077142Y-125351904D01*
X162153333Y-125351904D01*
X161048571Y-125351904D02*
X161505714Y-125351904D01*
X161277142Y-125351904D02*
X161277142Y-124551904D01*
X161353333Y-124666190D01*
X161429523Y-124742380D01*
X161505714Y-124780476D01*
X160286666Y-125351904D02*
X160743809Y-125351904D01*
X160515238Y-125351904D02*
X160515238Y-124551904D01*
X160591428Y-124666190D01*
X160667619Y-124742380D01*
X160743809Y-124780476D01*
X159981904Y-124628095D02*
X159943809Y-124590000D01*
X159867619Y-124551904D01*
X159677142Y-124551904D01*
X159600952Y-124590000D01*
X159562857Y-124628095D01*
X159524761Y-124704285D01*
X159524761Y-124780476D01*
X159562857Y-124894761D01*
X160020000Y-125351904D01*
X159524761Y-125351904D01*
X104513333Y-121253333D02*
X104580000Y-121220000D01*
X104646666Y-121153333D01*
X104746666Y-121053333D01*
X104813333Y-121020000D01*
X104880000Y-121020000D01*
X104846666Y-121186666D02*
X104913333Y-121153333D01*
X104980000Y-121086666D01*
X105013333Y-120953333D01*
X105013333Y-120720000D01*
X104980000Y-120586666D01*
X104913333Y-120520000D01*
X104846666Y-120486666D01*
X104713333Y-120486666D01*
X104646666Y-120520000D01*
X104580000Y-120586666D01*
X104546666Y-120720000D01*
X104546666Y-120953333D01*
X104580000Y-121086666D01*
X104646666Y-121153333D01*
X104713333Y-121186666D01*
X104846666Y-121186666D01*
X103880000Y-121186666D02*
X104280000Y-121186666D01*
X104080000Y-121186666D02*
X104080000Y-120486666D01*
X104146666Y-120586666D01*
X104213333Y-120653333D01*
X104280000Y-120686666D01*
X103446666Y-120486666D02*
X103380000Y-120486666D01*
X103313333Y-120520000D01*
X103280000Y-120553333D01*
X103246666Y-120620000D01*
X103213333Y-120753333D01*
X103213333Y-120920000D01*
X103246666Y-121053333D01*
X103280000Y-121120000D01*
X103313333Y-121153333D01*
X103380000Y-121186666D01*
X103446666Y-121186666D01*
X103513333Y-121153333D01*
X103546666Y-121120000D01*
X103580000Y-121053333D01*
X103613333Y-120920000D01*
X103613333Y-120753333D01*
X103580000Y-120620000D01*
X103546666Y-120553333D01*
X103513333Y-120520000D01*
X103446666Y-120486666D01*
X102980000Y-120486666D02*
X102546666Y-120486666D01*
X102780000Y-120753333D01*
X102680000Y-120753333D01*
X102613333Y-120786666D01*
X102580000Y-120820000D01*
X102546666Y-120886666D01*
X102546666Y-121053333D01*
X102580000Y-121120000D01*
X102613333Y-121153333D01*
X102680000Y-121186666D01*
X102880000Y-121186666D01*
X102946666Y-121153333D01*
X102980000Y-121120000D01*
X123290476Y-94242380D02*
X123290476Y-93242380D01*
X122909523Y-93242380D01*
X122814285Y-93290000D01*
X122766666Y-93337619D01*
X122719047Y-93432857D01*
X122719047Y-93575714D01*
X122766666Y-93670952D01*
X122814285Y-93718571D01*
X122909523Y-93766190D01*
X123290476Y-93766190D01*
X121766666Y-94242380D02*
X122338095Y-94242380D01*
X122052380Y-94242380D02*
X122052380Y-93242380D01*
X122147619Y-93385238D01*
X122242857Y-93480476D01*
X122338095Y-93528095D01*
X121147619Y-93242380D02*
X121052380Y-93242380D01*
X120957142Y-93290000D01*
X120909523Y-93337619D01*
X120861904Y-93432857D01*
X120814285Y-93623333D01*
X120814285Y-93861428D01*
X120861904Y-94051904D01*
X120909523Y-94147142D01*
X120957142Y-94194761D01*
X121052380Y-94242380D01*
X121147619Y-94242380D01*
X121242857Y-94194761D01*
X121290476Y-94147142D01*
X121338095Y-94051904D01*
X121385714Y-93861428D01*
X121385714Y-93623333D01*
X121338095Y-93432857D01*
X121290476Y-93337619D01*
X121242857Y-93290000D01*
X121147619Y-93242380D01*
X119861904Y-94242380D02*
X120433333Y-94242380D01*
X120147619Y-94242380D02*
X120147619Y-93242380D01*
X120242857Y-93385238D01*
X120338095Y-93480476D01*
X120433333Y-93528095D01*
X102835714Y-124352380D02*
X102835714Y-125066666D01*
X102883333Y-125209523D01*
X102978571Y-125304761D01*
X103121428Y-125352380D01*
X103216666Y-125352380D01*
X101835714Y-125352380D02*
X102407142Y-125352380D01*
X102121428Y-125352380D02*
X102121428Y-124352380D01*
X102216666Y-124495238D01*
X102311904Y-124590476D01*
X102407142Y-124638095D01*
X101216666Y-124352380D02*
X101121428Y-124352380D01*
X101026190Y-124400000D01*
X100978571Y-124447619D01*
X100930952Y-124542857D01*
X100883333Y-124733333D01*
X100883333Y-124971428D01*
X100930952Y-125161904D01*
X100978571Y-125257142D01*
X101026190Y-125304761D01*
X101121428Y-125352380D01*
X101216666Y-125352380D01*
X101311904Y-125304761D01*
X101359523Y-125257142D01*
X101407142Y-125161904D01*
X101454761Y-124971428D01*
X101454761Y-124733333D01*
X101407142Y-124542857D01*
X101359523Y-124447619D01*
X101311904Y-124400000D01*
X101216666Y-124352380D01*
X100311904Y-124780952D02*
X100407142Y-124733333D01*
X100454761Y-124685714D01*
X100502380Y-124590476D01*
X100502380Y-124542857D01*
X100454761Y-124447619D01*
X100407142Y-124400000D01*
X100311904Y-124352380D01*
X100121428Y-124352380D01*
X100026190Y-124400000D01*
X99978571Y-124447619D01*
X99930952Y-124542857D01*
X99930952Y-124590476D01*
X99978571Y-124685714D01*
X100026190Y-124733333D01*
X100121428Y-124780952D01*
X100311904Y-124780952D01*
X100407142Y-124828571D01*
X100454761Y-124876190D01*
X100502380Y-124971428D01*
X100502380Y-125161904D01*
X100454761Y-125257142D01*
X100407142Y-125304761D01*
X100311904Y-125352380D01*
X100121428Y-125352380D01*
X100026190Y-125304761D01*
X99978571Y-125257142D01*
X99930952Y-125161904D01*
X99930952Y-124971428D01*
X99978571Y-124876190D01*
X100026190Y-124828571D01*
X100121428Y-124780952D01*
X101153333Y-110193333D02*
X101186666Y-110293333D01*
X101186666Y-110460000D01*
X101153333Y-110526666D01*
X101120000Y-110560000D01*
X101053333Y-110593333D01*
X100986666Y-110593333D01*
X100920000Y-110560000D01*
X100886666Y-110526666D01*
X100853333Y-110460000D01*
X100820000Y-110326666D01*
X100786666Y-110260000D01*
X100753333Y-110226666D01*
X100686666Y-110193333D01*
X100620000Y-110193333D01*
X100553333Y-110226666D01*
X100520000Y-110260000D01*
X100486666Y-110326666D01*
X100486666Y-110493333D01*
X100520000Y-110593333D01*
X100486666Y-111093333D02*
X100986666Y-111093333D01*
X101086666Y-111060000D01*
X101153333Y-110993333D01*
X101186666Y-110893333D01*
X101186666Y-110826666D01*
X101186666Y-111793333D02*
X101186666Y-111393333D01*
X101186666Y-111593333D02*
X100486666Y-111593333D01*
X100586666Y-111526666D01*
X100653333Y-111460000D01*
X100686666Y-111393333D01*
X100486666Y-112226666D02*
X100486666Y-112293333D01*
X100520000Y-112360000D01*
X100553333Y-112393333D01*
X100620000Y-112426666D01*
X100753333Y-112460000D01*
X100920000Y-112460000D01*
X101053333Y-112426666D01*
X101120000Y-112393333D01*
X101153333Y-112360000D01*
X101186666Y-112293333D01*
X101186666Y-112226666D01*
X101153333Y-112160000D01*
X101120000Y-112126666D01*
X101053333Y-112093333D01*
X100920000Y-112060000D01*
X100753333Y-112060000D01*
X100620000Y-112093333D01*
X100553333Y-112126666D01*
X100520000Y-112160000D01*
X100486666Y-112226666D01*
X100553333Y-112726666D02*
X100520000Y-112760000D01*
X100486666Y-112826666D01*
X100486666Y-112993333D01*
X100520000Y-113060000D01*
X100553333Y-113093333D01*
X100620000Y-113126666D01*
X100686666Y-113126666D01*
X100786666Y-113093333D01*
X101186666Y-112693333D01*
X101186666Y-113126666D01*
X139626666Y-106383333D02*
X139526666Y-106416666D01*
X139360000Y-106416666D01*
X139293333Y-106383333D01*
X139260000Y-106350000D01*
X139226666Y-106283333D01*
X139226666Y-106216666D01*
X139260000Y-106150000D01*
X139293333Y-106116666D01*
X139360000Y-106083333D01*
X139493333Y-106050000D01*
X139560000Y-106016666D01*
X139593333Y-105983333D01*
X139626666Y-105916666D01*
X139626666Y-105850000D01*
X139593333Y-105783333D01*
X139560000Y-105750000D01*
X139493333Y-105716666D01*
X139326666Y-105716666D01*
X139226666Y-105750000D01*
X138726666Y-105716666D02*
X138726666Y-106216666D01*
X138760000Y-106316666D01*
X138826666Y-106383333D01*
X138926666Y-106416666D01*
X138993333Y-106416666D01*
X138026666Y-106416666D02*
X138426666Y-106416666D01*
X138226666Y-106416666D02*
X138226666Y-105716666D01*
X138293333Y-105816666D01*
X138360000Y-105883333D01*
X138426666Y-105916666D01*
X137593333Y-105716666D02*
X137526666Y-105716666D01*
X137460000Y-105750000D01*
X137426666Y-105783333D01*
X137393333Y-105850000D01*
X137360000Y-105983333D01*
X137360000Y-106150000D01*
X137393333Y-106283333D01*
X137426666Y-106350000D01*
X137460000Y-106383333D01*
X137526666Y-106416666D01*
X137593333Y-106416666D01*
X137660000Y-106383333D01*
X137693333Y-106350000D01*
X137726666Y-106283333D01*
X137760000Y-106150000D01*
X137760000Y-105983333D01*
X137726666Y-105850000D01*
X137693333Y-105783333D01*
X137660000Y-105750000D01*
X137593333Y-105716666D01*
X137126666Y-105716666D02*
X136693333Y-105716666D01*
X136926666Y-105983333D01*
X136826666Y-105983333D01*
X136760000Y-106016666D01*
X136726666Y-106050000D01*
X136693333Y-106116666D01*
X136693333Y-106283333D01*
X136726666Y-106350000D01*
X136760000Y-106383333D01*
X136826666Y-106416666D01*
X137026666Y-106416666D01*
X137093333Y-106383333D01*
X137126666Y-106350000D01*
X139466666Y-108891333D02*
X139366666Y-108924666D01*
X139200000Y-108924666D01*
X139133333Y-108891333D01*
X139100000Y-108858000D01*
X139066666Y-108791333D01*
X139066666Y-108724666D01*
X139100000Y-108658000D01*
X139133333Y-108624666D01*
X139200000Y-108591333D01*
X139333333Y-108558000D01*
X139400000Y-108524666D01*
X139433333Y-108491333D01*
X139466666Y-108424666D01*
X139466666Y-108358000D01*
X139433333Y-108291333D01*
X139400000Y-108258000D01*
X139333333Y-108224666D01*
X139166666Y-108224666D01*
X139066666Y-108258000D01*
X138566666Y-108224666D02*
X138566666Y-108724666D01*
X138600000Y-108824666D01*
X138666666Y-108891333D01*
X138766666Y-108924666D01*
X138833333Y-108924666D01*
X137866666Y-108924666D02*
X138266666Y-108924666D01*
X138066666Y-108924666D02*
X138066666Y-108224666D01*
X138133333Y-108324666D01*
X138200000Y-108391333D01*
X138266666Y-108424666D01*
X137433333Y-108224666D02*
X137366666Y-108224666D01*
X137300000Y-108258000D01*
X137266666Y-108291333D01*
X137233333Y-108358000D01*
X137200000Y-108491333D01*
X137200000Y-108658000D01*
X137233333Y-108791333D01*
X137266666Y-108858000D01*
X137300000Y-108891333D01*
X137366666Y-108924666D01*
X137433333Y-108924666D01*
X137500000Y-108891333D01*
X137533333Y-108858000D01*
X137566666Y-108791333D01*
X137600000Y-108658000D01*
X137600000Y-108491333D01*
X137566666Y-108358000D01*
X137533333Y-108291333D01*
X137500000Y-108258000D01*
X137433333Y-108224666D01*
X136600000Y-108458000D02*
X136600000Y-108924666D01*
X136766666Y-108191333D02*
X136933333Y-108691333D01*
X136500000Y-108691333D01*
X139516666Y-111117333D02*
X139416666Y-111150666D01*
X139250000Y-111150666D01*
X139183333Y-111117333D01*
X139150000Y-111084000D01*
X139116666Y-111017333D01*
X139116666Y-110950666D01*
X139150000Y-110884000D01*
X139183333Y-110850666D01*
X139250000Y-110817333D01*
X139383333Y-110784000D01*
X139450000Y-110750666D01*
X139483333Y-110717333D01*
X139516666Y-110650666D01*
X139516666Y-110584000D01*
X139483333Y-110517333D01*
X139450000Y-110484000D01*
X139383333Y-110450666D01*
X139216666Y-110450666D01*
X139116666Y-110484000D01*
X138616666Y-110450666D02*
X138616666Y-110950666D01*
X138650000Y-111050666D01*
X138716666Y-111117333D01*
X138816666Y-111150666D01*
X138883333Y-111150666D01*
X137916666Y-111150666D02*
X138316666Y-111150666D01*
X138116666Y-111150666D02*
X138116666Y-110450666D01*
X138183333Y-110550666D01*
X138250000Y-110617333D01*
X138316666Y-110650666D01*
X137483333Y-110450666D02*
X137416666Y-110450666D01*
X137350000Y-110484000D01*
X137316666Y-110517333D01*
X137283333Y-110584000D01*
X137250000Y-110717333D01*
X137250000Y-110884000D01*
X137283333Y-111017333D01*
X137316666Y-111084000D01*
X137350000Y-111117333D01*
X137416666Y-111150666D01*
X137483333Y-111150666D01*
X137550000Y-111117333D01*
X137583333Y-111084000D01*
X137616666Y-111017333D01*
X137650000Y-110884000D01*
X137650000Y-110717333D01*
X137616666Y-110584000D01*
X137583333Y-110517333D01*
X137550000Y-110484000D01*
X137483333Y-110450666D01*
X136616666Y-110450666D02*
X136950000Y-110450666D01*
X136983333Y-110784000D01*
X136950000Y-110750666D01*
X136883333Y-110717333D01*
X136716666Y-110717333D01*
X136650000Y-110750666D01*
X136616666Y-110784000D01*
X136583333Y-110850666D01*
X136583333Y-111017333D01*
X136616666Y-111084000D01*
X136650000Y-111117333D01*
X136716666Y-111150666D01*
X136883333Y-111150666D01*
X136950000Y-111117333D01*
X136983333Y-111084000D01*
X139412666Y-113519333D02*
X139312666Y-113552666D01*
X139146000Y-113552666D01*
X139079333Y-113519333D01*
X139046000Y-113486000D01*
X139012666Y-113419333D01*
X139012666Y-113352666D01*
X139046000Y-113286000D01*
X139079333Y-113252666D01*
X139146000Y-113219333D01*
X139279333Y-113186000D01*
X139346000Y-113152666D01*
X139379333Y-113119333D01*
X139412666Y-113052666D01*
X139412666Y-112986000D01*
X139379333Y-112919333D01*
X139346000Y-112886000D01*
X139279333Y-112852666D01*
X139112666Y-112852666D01*
X139012666Y-112886000D01*
X138512666Y-112852666D02*
X138512666Y-113352666D01*
X138546000Y-113452666D01*
X138612666Y-113519333D01*
X138712666Y-113552666D01*
X138779333Y-113552666D01*
X137812666Y-113552666D02*
X138212666Y-113552666D01*
X138012666Y-113552666D02*
X138012666Y-112852666D01*
X138079333Y-112952666D01*
X138146000Y-113019333D01*
X138212666Y-113052666D01*
X137379333Y-112852666D02*
X137312666Y-112852666D01*
X137246000Y-112886000D01*
X137212666Y-112919333D01*
X137179333Y-112986000D01*
X137146000Y-113119333D01*
X137146000Y-113286000D01*
X137179333Y-113419333D01*
X137212666Y-113486000D01*
X137246000Y-113519333D01*
X137312666Y-113552666D01*
X137379333Y-113552666D01*
X137446000Y-113519333D01*
X137479333Y-113486000D01*
X137512666Y-113419333D01*
X137546000Y-113286000D01*
X137546000Y-113119333D01*
X137512666Y-112986000D01*
X137479333Y-112919333D01*
X137446000Y-112886000D01*
X137379333Y-112852666D01*
X136546000Y-112852666D02*
X136679333Y-112852666D01*
X136746000Y-112886000D01*
X136779333Y-112919333D01*
X136846000Y-113019333D01*
X136879333Y-113152666D01*
X136879333Y-113419333D01*
X136846000Y-113486000D01*
X136812666Y-113519333D01*
X136746000Y-113552666D01*
X136612666Y-113552666D01*
X136546000Y-113519333D01*
X136512666Y-113486000D01*
X136479333Y-113419333D01*
X136479333Y-113252666D01*
X136512666Y-113186000D01*
X136546000Y-113152666D01*
X136612666Y-113119333D01*
X136746000Y-113119333D01*
X136812666Y-113152666D01*
X136846000Y-113186000D01*
X136879333Y-113252666D01*
X139586666Y-115751333D02*
X139486666Y-115784666D01*
X139320000Y-115784666D01*
X139253333Y-115751333D01*
X139220000Y-115718000D01*
X139186666Y-115651333D01*
X139186666Y-115584666D01*
X139220000Y-115518000D01*
X139253333Y-115484666D01*
X139320000Y-115451333D01*
X139453333Y-115418000D01*
X139520000Y-115384666D01*
X139553333Y-115351333D01*
X139586666Y-115284666D01*
X139586666Y-115218000D01*
X139553333Y-115151333D01*
X139520000Y-115118000D01*
X139453333Y-115084666D01*
X139286666Y-115084666D01*
X139186666Y-115118000D01*
X138686666Y-115084666D02*
X138686666Y-115584666D01*
X138720000Y-115684666D01*
X138786666Y-115751333D01*
X138886666Y-115784666D01*
X138953333Y-115784666D01*
X137986666Y-115784666D02*
X138386666Y-115784666D01*
X138186666Y-115784666D02*
X138186666Y-115084666D01*
X138253333Y-115184666D01*
X138320000Y-115251333D01*
X138386666Y-115284666D01*
X137553333Y-115084666D02*
X137486666Y-115084666D01*
X137420000Y-115118000D01*
X137386666Y-115151333D01*
X137353333Y-115218000D01*
X137320000Y-115351333D01*
X137320000Y-115518000D01*
X137353333Y-115651333D01*
X137386666Y-115718000D01*
X137420000Y-115751333D01*
X137486666Y-115784666D01*
X137553333Y-115784666D01*
X137620000Y-115751333D01*
X137653333Y-115718000D01*
X137686666Y-115651333D01*
X137720000Y-115518000D01*
X137720000Y-115351333D01*
X137686666Y-115218000D01*
X137653333Y-115151333D01*
X137620000Y-115118000D01*
X137553333Y-115084666D01*
X137086666Y-115084666D02*
X136620000Y-115084666D01*
X136920000Y-115784666D01*
X139636666Y-118043333D02*
X139536666Y-118076666D01*
X139370000Y-118076666D01*
X139303333Y-118043333D01*
X139270000Y-118010000D01*
X139236666Y-117943333D01*
X139236666Y-117876666D01*
X139270000Y-117810000D01*
X139303333Y-117776666D01*
X139370000Y-117743333D01*
X139503333Y-117710000D01*
X139570000Y-117676666D01*
X139603333Y-117643333D01*
X139636666Y-117576666D01*
X139636666Y-117510000D01*
X139603333Y-117443333D01*
X139570000Y-117410000D01*
X139503333Y-117376666D01*
X139336666Y-117376666D01*
X139236666Y-117410000D01*
X138736666Y-117376666D02*
X138736666Y-117876666D01*
X138770000Y-117976666D01*
X138836666Y-118043333D01*
X138936666Y-118076666D01*
X139003333Y-118076666D01*
X138036666Y-118076666D02*
X138436666Y-118076666D01*
X138236666Y-118076666D02*
X138236666Y-117376666D01*
X138303333Y-117476666D01*
X138370000Y-117543333D01*
X138436666Y-117576666D01*
X137603333Y-117376666D02*
X137536666Y-117376666D01*
X137470000Y-117410000D01*
X137436666Y-117443333D01*
X137403333Y-117510000D01*
X137370000Y-117643333D01*
X137370000Y-117810000D01*
X137403333Y-117943333D01*
X137436666Y-118010000D01*
X137470000Y-118043333D01*
X137536666Y-118076666D01*
X137603333Y-118076666D01*
X137670000Y-118043333D01*
X137703333Y-118010000D01*
X137736666Y-117943333D01*
X137770000Y-117810000D01*
X137770000Y-117643333D01*
X137736666Y-117510000D01*
X137703333Y-117443333D01*
X137670000Y-117410000D01*
X137603333Y-117376666D01*
X136970000Y-117676666D02*
X137036666Y-117643333D01*
X137070000Y-117610000D01*
X137103333Y-117543333D01*
X137103333Y-117510000D01*
X137070000Y-117443333D01*
X137036666Y-117410000D01*
X136970000Y-117376666D01*
X136836666Y-117376666D01*
X136770000Y-117410000D01*
X136736666Y-117443333D01*
X136703333Y-117510000D01*
X136703333Y-117543333D01*
X136736666Y-117610000D01*
X136770000Y-117643333D01*
X136836666Y-117676666D01*
X136970000Y-117676666D01*
X137036666Y-117710000D01*
X137070000Y-117743333D01*
X137103333Y-117810000D01*
X137103333Y-117943333D01*
X137070000Y-118010000D01*
X137036666Y-118043333D01*
X136970000Y-118076666D01*
X136836666Y-118076666D01*
X136770000Y-118043333D01*
X136736666Y-118010000D01*
X136703333Y-117943333D01*
X136703333Y-117810000D01*
X136736666Y-117743333D01*
X136770000Y-117710000D01*
X136836666Y-117676666D01*
X112785714Y-124352380D02*
X112785714Y-125066666D01*
X112833333Y-125209523D01*
X112928571Y-125304761D01*
X113071428Y-125352380D01*
X113166666Y-125352380D01*
X111785714Y-125352380D02*
X112357142Y-125352380D01*
X112071428Y-125352380D02*
X112071428Y-124352380D01*
X112166666Y-124495238D01*
X112261904Y-124590476D01*
X112357142Y-124638095D01*
X111166666Y-124352380D02*
X111071428Y-124352380D01*
X110976190Y-124400000D01*
X110928571Y-124447619D01*
X110880952Y-124542857D01*
X110833333Y-124733333D01*
X110833333Y-124971428D01*
X110880952Y-125161904D01*
X110928571Y-125257142D01*
X110976190Y-125304761D01*
X111071428Y-125352380D01*
X111166666Y-125352380D01*
X111261904Y-125304761D01*
X111309523Y-125257142D01*
X111357142Y-125161904D01*
X111404761Y-124971428D01*
X111404761Y-124733333D01*
X111357142Y-124542857D01*
X111309523Y-124447619D01*
X111261904Y-124400000D01*
X111166666Y-124352380D01*
X110500000Y-124352380D02*
X109833333Y-124352380D01*
X110261904Y-125352380D01*
X98421904Y-124613095D02*
X98329047Y-124644047D01*
X98174285Y-124644047D01*
X98112380Y-124613095D01*
X98081428Y-124582142D01*
X98050476Y-124520238D01*
X98050476Y-124458333D01*
X98081428Y-124396428D01*
X98112380Y-124365476D01*
X98174285Y-124334523D01*
X98298095Y-124303571D01*
X98360000Y-124272619D01*
X98390952Y-124241666D01*
X98421904Y-124179761D01*
X98421904Y-124117857D01*
X98390952Y-124055952D01*
X98360000Y-124025000D01*
X98298095Y-123994047D01*
X98143333Y-123994047D01*
X98050476Y-124025000D01*
X97586190Y-123994047D02*
X97586190Y-124458333D01*
X97617142Y-124551190D01*
X97679047Y-124613095D01*
X97771904Y-124644047D01*
X97833809Y-124644047D01*
X96936190Y-124644047D02*
X97307619Y-124644047D01*
X97121904Y-124644047D02*
X97121904Y-123994047D01*
X97183809Y-124086904D01*
X97245714Y-124148809D01*
X97307619Y-124179761D01*
X96317142Y-124644047D02*
X96688571Y-124644047D01*
X96502857Y-124644047D02*
X96502857Y-123994047D01*
X96564761Y-124086904D01*
X96626666Y-124148809D01*
X96688571Y-124179761D01*
X95914761Y-123994047D02*
X95852857Y-123994047D01*
X95790952Y-124025000D01*
X95760000Y-124055952D01*
X95729047Y-124117857D01*
X95698095Y-124241666D01*
X95698095Y-124396428D01*
X95729047Y-124520238D01*
X95760000Y-124582142D01*
X95790952Y-124613095D01*
X95852857Y-124644047D01*
X95914761Y-124644047D01*
X95976666Y-124613095D01*
X96007619Y-124582142D01*
X96038571Y-124520238D01*
X96069523Y-124396428D01*
X96069523Y-124241666D01*
X96038571Y-124117857D01*
X96007619Y-124055952D01*
X95976666Y-124025000D01*
X95914761Y-123994047D01*
D15*
X107600952Y-122062380D02*
X107410476Y-121929047D01*
X107600952Y-121833809D02*
X107200952Y-121833809D01*
X107200952Y-121986190D01*
X107220000Y-122024285D01*
X107239047Y-122043333D01*
X107277142Y-122062380D01*
X107334285Y-122062380D01*
X107372380Y-122043333D01*
X107391428Y-122024285D01*
X107410476Y-121986190D01*
X107410476Y-121833809D01*
X107600952Y-122443333D02*
X107600952Y-122214761D01*
X107600952Y-122329047D02*
X107200952Y-122329047D01*
X107258095Y-122290952D01*
X107296190Y-122252857D01*
X107315238Y-122214761D01*
X107200952Y-122690952D02*
X107200952Y-122729047D01*
X107220000Y-122767142D01*
X107239047Y-122786190D01*
X107277142Y-122805238D01*
X107353333Y-122824285D01*
X107448571Y-122824285D01*
X107524761Y-122805238D01*
X107562857Y-122786190D01*
X107581904Y-122767142D01*
X107600952Y-122729047D01*
X107600952Y-122690952D01*
X107581904Y-122652857D01*
X107562857Y-122633809D01*
X107524761Y-122614761D01*
X107448571Y-122595714D01*
X107353333Y-122595714D01*
X107277142Y-122614761D01*
X107239047Y-122633809D01*
X107220000Y-122652857D01*
X107200952Y-122690952D01*
X107600952Y-123014761D02*
X107600952Y-123090952D01*
X107581904Y-123129047D01*
X107562857Y-123148095D01*
X107505714Y-123186190D01*
X107429523Y-123205238D01*
X107277142Y-123205238D01*
X107239047Y-123186190D01*
X107220000Y-123167142D01*
X107200952Y-123129047D01*
X107200952Y-123052857D01*
X107220000Y-123014761D01*
X107239047Y-122995714D01*
X107277142Y-122976666D01*
X107372380Y-122976666D01*
X107410476Y-122995714D01*
X107429523Y-123014761D01*
X107448571Y-123052857D01*
X107448571Y-123129047D01*
X107429523Y-123167142D01*
X107410476Y-123186190D01*
X107372380Y-123205238D01*
D13*
X89361665Y-119045001D02*
X89861665Y-119045001D01*
X89961665Y-119011667D01*
X90028332Y-118945001D01*
X90061665Y-118845001D01*
X90061665Y-118778334D01*
X90061665Y-119745001D02*
X90061665Y-119345001D01*
X90061665Y-119545001D02*
X89361665Y-119545001D01*
X89461665Y-119478334D01*
X89528332Y-119411667D01*
X89561665Y-119345001D01*
X89361665Y-120178334D02*
X89361665Y-120245001D01*
X89394999Y-120311667D01*
X89428332Y-120345001D01*
X89494999Y-120378334D01*
X89628332Y-120411667D01*
X89794999Y-120411667D01*
X89928332Y-120378334D01*
X89994999Y-120345001D01*
X90028332Y-120311667D01*
X90061665Y-120245001D01*
X90061665Y-120178334D01*
X90028332Y-120111667D01*
X89994999Y-120078334D01*
X89928332Y-120045001D01*
X89794999Y-120011667D01*
X89628332Y-120011667D01*
X89494999Y-120045001D01*
X89428332Y-120078334D01*
X89394999Y-120111667D01*
X89361665Y-120178334D01*
X89361665Y-121011667D02*
X89361665Y-120878334D01*
X89394999Y-120811667D01*
X89428332Y-120778334D01*
X89528332Y-120711667D01*
X89661665Y-120678334D01*
X89928332Y-120678334D01*
X89994999Y-120711667D01*
X90028332Y-120745001D01*
X90061665Y-120811667D01*
X90061665Y-120945001D01*
X90028332Y-121011667D01*
X89994999Y-121045001D01*
X89928332Y-121078334D01*
X89761665Y-121078334D01*
X89694999Y-121045001D01*
X89661665Y-121011667D01*
X89628332Y-120945001D01*
X89628332Y-120811667D01*
X89661665Y-120745001D01*
X89694999Y-120711667D01*
X89761665Y-120678334D01*
X140954285Y-93082380D02*
X140382857Y-93082380D01*
X140668571Y-94082380D02*
X140668571Y-93082380D01*
X140049523Y-94082380D02*
X140049523Y-93082380D01*
X139668571Y-93082380D01*
X139573333Y-93130000D01*
X139525714Y-93177619D01*
X139478095Y-93272857D01*
X139478095Y-93415714D01*
X139525714Y-93510952D01*
X139573333Y-93558571D01*
X139668571Y-93606190D01*
X140049523Y-93606190D01*
X138525714Y-94082380D02*
X139097142Y-94082380D01*
X138811428Y-94082380D02*
X138811428Y-93082380D01*
X138906666Y-93225238D01*
X139001904Y-93320476D01*
X139097142Y-93368095D01*
X137906666Y-93082380D02*
X137811428Y-93082380D01*
X137716190Y-93130000D01*
X137668571Y-93177619D01*
X137620952Y-93272857D01*
X137573333Y-93463333D01*
X137573333Y-93701428D01*
X137620952Y-93891904D01*
X137668571Y-93987142D01*
X137716190Y-94034761D01*
X137811428Y-94082380D01*
X137906666Y-94082380D01*
X138001904Y-94034761D01*
X138049523Y-93987142D01*
X138097142Y-93891904D01*
X138144761Y-93701428D01*
X138144761Y-93463333D01*
X138097142Y-93272857D01*
X138049523Y-93177619D01*
X138001904Y-93130000D01*
X137906666Y-93082380D01*
X136620952Y-94082380D02*
X137192380Y-94082380D01*
X136906666Y-94082380D02*
X136906666Y-93082380D01*
X137001904Y-93225238D01*
X137097142Y-93320476D01*
X137192380Y-93368095D01*
%LPC*%
D15*
G36*
X166250000Y-106400000D02*
G01*
X166225000Y-111625000D01*
X160875000Y-111625000D01*
X160900000Y-106375000D01*
X166250000Y-106400000D01*
G37*
X166250000Y-106400000D02*
X166225000Y-111625000D01*
X160875000Y-111625000D01*
X160900000Y-106375000D01*
X166250000Y-106400000D01*
D16*
X160390000Y-117560000D03*
X165740000Y-117560000D03*
D17*
X126430000Y-113630000D03*
X126430000Y-116170000D03*
X126430000Y-106010000D03*
X126430000Y-103470000D03*
X129350000Y-122520000D03*
X129350000Y-119980000D03*
X114095100Y-122520000D03*
X114095100Y-119980000D03*
X129350000Y-117440000D03*
X129350000Y-114900000D03*
X129350000Y-112360000D03*
X129350000Y-109820000D03*
X129350000Y-107280000D03*
X129350000Y-104740000D03*
X129350000Y-102200000D03*
X129350000Y-99660000D03*
D18*
X129350000Y-97120000D03*
D17*
X129340000Y-94580000D03*
X114095100Y-117465400D03*
X114095100Y-114925400D03*
X114095100Y-112385400D03*
X114095100Y-109845400D03*
X114095100Y-107305400D03*
X114095100Y-104765400D03*
D18*
X114095100Y-102225400D03*
D17*
X114095100Y-99685400D03*
X114095100Y-97145400D03*
X114100000Y-94605400D03*
D19*
X128012850Y-92065150D03*
X115426850Y-92065150D03*
X126810000Y-122520000D03*
X124270000Y-122520000D03*
D18*
X121720000Y-122520000D03*
D20*
X163070000Y-99400000D03*
D21*
X170200000Y-104200000D03*
D22*
X156579999Y-128682999D03*
X159373999Y-128682999D03*
X162167999Y-128682999D03*
X164961999Y-128682999D03*
D23*
X104560000Y-93040000D03*
D24*
X104560000Y-100540000D03*
D25*
X104560000Y-88810000D03*
D26*
X104560000Y-104610000D03*
D19*
X167560000Y-123150000D03*
X165020000Y-123150000D03*
X162480000Y-123150000D03*
X159940000Y-123150000D03*
X157400000Y-123150000D03*
D27*
X154860000Y-123150000D03*
D28*
X152190000Y-130380000D03*
X152170000Y-129410000D03*
X152190000Y-128420000D03*
X152170000Y-127510000D03*
X152180000Y-126570000D03*
X152180000Y-125650000D03*
X152170000Y-124740000D03*
X152170000Y-123810000D03*
X152170000Y-122900000D03*
X152170000Y-121990000D03*
D29*
X102621780Y-123090000D03*
X104620760Y-124040000D03*
X104620760Y-122140000D03*
D30*
X125550000Y-96050000D03*
D31*
X117610000Y-96050000D03*
X125550000Y-98590000D03*
X117610000Y-98590000D03*
X125550000Y-101130000D03*
X117610000Y-101130000D03*
D32*
X93300000Y-127000000D03*
X147500000Y-127000000D03*
X147500000Y-90000000D03*
X93300000Y-90000000D03*
D28*
X152180000Y-98050000D03*
X152180000Y-98960000D03*
X152180000Y-100120000D03*
X152180000Y-101040000D03*
X152180000Y-102210000D03*
X152180000Y-103140000D03*
X152180000Y-104080000D03*
X152180000Y-105310000D03*
X152180000Y-106220000D03*
X152180000Y-107400000D03*
X152180000Y-108340000D03*
X152180000Y-109270000D03*
X152180000Y-110470000D03*
X152180000Y-111400000D03*
X152180000Y-112570000D03*
X152180000Y-117700000D03*
X152180000Y-113490000D03*
X152180000Y-114410000D03*
X152180000Y-115630000D03*
X152180000Y-116550000D03*
X152180000Y-118600000D03*
X152180000Y-119490000D03*
D33*
X91940000Y-112691000D03*
X91940000Y-109897000D03*
X91940000Y-107103000D03*
X91940000Y-104309000D03*
D34*
X104580000Y-127500000D03*
D35*
X99500000Y-127500000D03*
D13*
G36*
X98068000Y-111784000D02*
G01*
X100092000Y-111784000D01*
X99592000Y-113308000D01*
X98568000Y-113308000D01*
X98068000Y-111784000D01*
G37*
G36*
X100080570Y-111464570D02*
G01*
X98079430Y-111464570D01*
X98579430Y-109963430D01*
X99580570Y-109963430D01*
X100080570Y-111464570D01*
G37*
G36*
X141454570Y-105239430D02*
G01*
X141454570Y-107240570D01*
X139953430Y-106740570D01*
X139953430Y-105739430D01*
X141454570Y-105239430D01*
G37*
G36*
X141774000Y-107252000D02*
G01*
X141774000Y-105228000D01*
X143298000Y-105728000D01*
X143298000Y-106752000D01*
X141774000Y-107252000D01*
G37*
G36*
X141774000Y-109564000D02*
G01*
X141774000Y-107540000D01*
X143298000Y-108040000D01*
X143298000Y-109064000D01*
X141774000Y-109564000D01*
G37*
G36*
X141454570Y-107551430D02*
G01*
X141454570Y-109552570D01*
X139953430Y-109052570D01*
X139953430Y-108051430D01*
X141454570Y-107551430D01*
G37*
G36*
X141454570Y-109863430D02*
G01*
X141454570Y-111864570D01*
X139953430Y-111364570D01*
X139953430Y-110363430D01*
X141454570Y-109863430D01*
G37*
G36*
X141774000Y-111876000D02*
G01*
X141774000Y-109852000D01*
X143298000Y-110352000D01*
X143298000Y-111376000D01*
X141774000Y-111876000D01*
G37*
G36*
X141774000Y-114188000D02*
G01*
X141774000Y-112164000D01*
X143298000Y-112664000D01*
X143298000Y-113688000D01*
X141774000Y-114188000D01*
G37*
G36*
X141454570Y-112175430D02*
G01*
X141454570Y-114176570D01*
X139953430Y-113676570D01*
X139953430Y-112675430D01*
X141454570Y-112175430D01*
G37*
G36*
X141454570Y-114487430D02*
G01*
X141454570Y-116488570D01*
X139953430Y-115988570D01*
X139953430Y-114987430D01*
X141454570Y-114487430D01*
G37*
G36*
X141774000Y-116500000D02*
G01*
X141774000Y-114476000D01*
X143298000Y-114976000D01*
X143298000Y-116000000D01*
X141774000Y-116500000D01*
G37*
G36*
X141774000Y-118812000D02*
G01*
X141774000Y-116788000D01*
X143298000Y-117288000D01*
X143298000Y-118312000D01*
X141774000Y-118812000D01*
G37*
G36*
X141454570Y-116799430D02*
G01*
X141454570Y-118800570D01*
X139953430Y-118300570D01*
X139953430Y-117299430D01*
X141454570Y-116799430D01*
G37*
D18*
X149520000Y-99640000D03*
D17*
X149520000Y-102180000D03*
X149520000Y-104720000D03*
X149520000Y-107260000D03*
X149520000Y-109800000D03*
X149520000Y-112340000D03*
X149520000Y-114880000D03*
X149520000Y-117420000D03*
X154710000Y-117420000D03*
X154710000Y-114880000D03*
X154710000Y-112340000D03*
X154710000Y-109800000D03*
X154710000Y-107260000D03*
X154710000Y-104720000D03*
X154710000Y-102180000D03*
D18*
X154710000Y-99640000D03*
D34*
X114430000Y-127450000D03*
D35*
X109350000Y-127450000D03*
D13*
G36*
X98487000Y-123742000D02*
G01*
X98487000Y-121718000D01*
X100011000Y-122218000D01*
X100011000Y-123242000D01*
X98487000Y-123742000D01*
G37*
G36*
X95681570Y-121729430D02*
G01*
X95681570Y-123730570D01*
X94180430Y-123230570D01*
X94180430Y-122229430D01*
X95681570Y-121729430D01*
G37*
D36*
X97090000Y-122730000D03*
D37*
X106470000Y-122510000D03*
X108370000Y-122510000D03*
D27*
X91950000Y-120010000D03*
D19*
X94490000Y-120010000D03*
X97030000Y-120010000D03*
X99570000Y-120010000D03*
D38*
X137440000Y-89585000D03*
X134440000Y-89585000D03*
D27*
X142640000Y-95810000D03*
D19*
X140100000Y-95810000D03*
X137560000Y-95810000D03*
X135020000Y-95810000D03*
D39*
X95943000Y-123593000D02*
X95807000Y-123593000D01*
X95807000Y-121863785D01*
X95943000Y-121860298D01*
X95943000Y-123593000D01*
D13*
G36*
X95943000Y-123593000D02*
G01*
X95807000Y-123593000D01*
X95807000Y-121863785D01*
X95943000Y-121860298D01*
X95943000Y-123593000D01*
G37*
D39*
X98353000Y-123619521D02*
X98237000Y-123616386D01*
X98237000Y-121849965D01*
X98353000Y-121843860D01*
X98353000Y-123619521D01*
D13*
G36*
X98353000Y-123619521D02*
G01*
X98237000Y-123616386D01*
X98237000Y-121849965D01*
X98353000Y-121843860D01*
X98353000Y-123619521D01*
G37*
D39*
X99958969Y-111653000D02*
X98201163Y-111653000D01*
X98203292Y-111587000D01*
X99956907Y-111587000D01*
X99958969Y-111653000D01*
D13*
G36*
X99958969Y-111653000D02*
G01*
X98201163Y-111653000D01*
X98203292Y-111587000D01*
X99956907Y-111587000D01*
X99958969Y-111653000D01*
G37*
D39*
X141623631Y-107123000D02*
X141567639Y-107123000D01*
X141576464Y-105367000D01*
X141632367Y-105367000D01*
X141623631Y-107123000D01*
D13*
G36*
X141623631Y-107123000D02*
G01*
X141567639Y-107123000D01*
X141576464Y-105367000D01*
X141632367Y-105367000D01*
X141623631Y-107123000D01*
G37*
D39*
X141623567Y-109455820D02*
X141594908Y-109458890D01*
X141568555Y-107693242D01*
X141632346Y-107691184D01*
X141623567Y-109455820D01*
D13*
G36*
X141623567Y-109455820D02*
G01*
X141594908Y-109458890D01*
X141568555Y-107693242D01*
X141632346Y-107691184D01*
X141623567Y-109455820D01*
G37*
D39*
X141653000Y-111730251D02*
X141565647Y-111735389D01*
X141548051Y-109993316D01*
X141653000Y-109990479D01*
X141653000Y-111730251D01*
D13*
G36*
X141653000Y-111730251D02*
G01*
X141565647Y-111735389D01*
X141548051Y-109993316D01*
X141653000Y-109990479D01*
X141653000Y-111730251D01*
G37*
D39*
X141623634Y-114043000D02*
X141575090Y-114043000D01*
X141548846Y-112310887D01*
X141632321Y-112305502D01*
X141623634Y-114043000D01*
D13*
G36*
X141623634Y-114043000D02*
G01*
X141575090Y-114043000D01*
X141548846Y-112310887D01*
X141632321Y-112305502D01*
X141623634Y-114043000D01*
G37*
D39*
X141634250Y-116346868D02*
X141567670Y-116348948D01*
X141576404Y-114637000D01*
X141651698Y-114637000D01*
X141634250Y-116346868D01*
D13*
G36*
X141634250Y-116346868D02*
G01*
X141567670Y-116348948D01*
X141576404Y-114637000D01*
X141651698Y-114637000D01*
X141634250Y-116346868D01*
G37*
D39*
X141631730Y-118683000D02*
X141567000Y-118683000D01*
X141567000Y-116927000D01*
X141614257Y-116927000D01*
X141631730Y-118683000D01*
D13*
G36*
X141631730Y-118683000D02*
G01*
X141567000Y-118683000D01*
X141567000Y-116927000D01*
X141614257Y-116927000D01*
X141631730Y-118683000D01*
G37*
M02*
