M48
; DRILL file {KiCad (5.1.9-0-10_14)} date Saturday, May 01, 2021 at 11:25:00 AM
; FORMAT={-:-/ absolute / inch / decimal}
; #@! TF.CreationDate,2021-05-01T11:25:00-04:00
; #@! TF.GenerationSoftware,Kicad,Pcbnew,(5.1.9-0-10_14)
; #@! TF.FileFunction,Plated,1,2,PTH
FMAT,2
INCH
T1C0.0118
T2C0.0157
T3C0.0400
T4C0.0591
T5C0.1575
%
G90
G05
T1
X6.3846Y-4.5276
X6.3976Y-4.0209
X6.3976Y-4.0469
X6.3976Y-4.0728
X6.3976Y-4.0992
X6.3976Y-4.1252
X6.3976Y-4.1512
X6.3976Y-4.4106
X6.3976Y-4.435
X6.3976Y-4.4594
X6.3976Y-4.4839
X6.3976Y-4.5083
X6.4047Y-4.2555
X6.4047Y-4.3248
X6.4055Y-4.2898
X6.4402Y-4.2551
X6.4402Y-4.2902
X6.4406Y-4.3252
X6.4425Y-4.0272
X6.4425Y-4.0535
X6.4425Y-4.0795
X6.4425Y-4.1248
X6.4425Y-4.4106
X6.4425Y-4.435
X6.4425Y-4.4594
X6.4425Y-4.4839
X6.4429Y-4.1508
X6.4429Y-4.5087
X6.4571Y-4.5276
X6.4614Y-4.1701
X6.4685Y-4.0795
X6.4685Y-4.1248
X6.4744Y-4.3252
X6.4748Y-4.2906
X6.4752Y-4.2551
X6.4945Y-4.0795
X6.4945Y-4.1248
X6.5205Y-4.0795
X6.5205Y-4.1248
X6.5465Y-4.0795
X6.5465Y-4.1252
X6.5724Y-4.0795
X6.5724Y-4.1252
T2
X3.5634Y-4.5503
X3.5634Y-4.5988
X3.5634Y-4.6492
X3.6331Y-4.5503
X3.7102Y-4.5503
X3.7499Y-4.4716
X3.7678Y-4.3424
X3.7717Y-4.4346
X3.7783Y-4.4988
X3.7909Y-4.2039
X3.8122Y-4.478
X3.8169Y-4.3476
X3.8196Y-4.4047
X3.8295Y-4.1697
X3.8476Y-4.2161
X3.8823Y-4.244
X3.9071Y-4.5154
X3.9226Y-4.1831
X3.926Y-4.2606
X3.9315Y-4.2996
X3.9336Y-4.0914
X3.9479Y-4.1578
X4.002Y-4.6957
X4.0165Y-4.222
X4.0165Y-4.2693
X4.057Y-4.2552
X4.0937Y-4.4028
X4.1054Y-4.2215
X4.1067Y-4.5764
X4.1452Y-4.2627
X4.1476Y-4.4008
X4.1765Y-4.294
X4.1898Y-4.6063
X4.2079Y-4.4325
X4.2252Y-3.7587
X4.2341Y-4.2071
X4.2492Y-4.6035
X4.2583Y-3.5047
X4.265Y-4.4325
X4.3028Y-3.998
X4.322Y-4.1736
X4.3299Y-4.1095
X4.3539Y-4.5644
X4.3539Y-4.648
X4.3677Y-4.2949
X4.3953Y-4.1041
X4.5417Y-4.3764
X4.6276Y-4.7661
X4.6524Y-4.1406
X4.6827Y-4.7236
X4.7004Y-3.9228
X4.7301Y-4.0307
X4.7378Y-3.953
X4.7484Y-3.91
X4.7589Y-4.3335
X4.7827Y-4.0667
X4.8117Y-4.2453
X4.8319Y-4.3181
X4.8354Y-3.6232
X4.8526Y-4.0188
X4.8562Y-4.2687
X4.8626Y-4.6929
X4.8678Y-4.0504
X4.8752Y-4.8917
X4.876Y-4.2346
X4.8858Y-4.1886
X4.937Y-4.3626
X4.9816Y-4.2907
X4.9874Y-4.6764
X5.0118Y-3.9339
X5.1427Y-3.9776
X5.1713Y-4.063
X5.1976Y-4.7228
X5.2105Y-4.1196
X5.2315Y-4.8307
X5.2391Y-4.2615
X5.2421Y-4.1823
X5.2512Y-4.3472
X5.2626Y-4.4933
X5.2626Y-4.6472
X5.2634Y-4.4398
X5.2642Y-4.5508
X5.2642Y-4.5992
X5.2866Y-4.3039
X5.2902Y-3.661
X5.2933Y-4.7071
X5.3228Y-4.4587
X5.3248Y-4.6449
X5.335Y-3.8882
X5.3362Y-4.2575
X5.3567Y-4.5909
X5.372Y-4.3539
X5.3791Y-4.0811
X5.3835Y-4.2669
X5.398Y-3.9772
X5.4012Y-4.5492
X5.4012Y-4.7417
X5.4657Y-3.8614
X5.6677Y-4.6378
X5.6957Y-4.1193
X5.7153Y-4.1534
X5.7154Y-4.6862
X5.7437Y-4.1827
X5.7437Y-4.3142
X5.7762Y-4.2423
X5.8047Y-4.3228
X5.8146Y-4.2661
X5.8382Y-4.3717
X5.8398Y-4.4732
X5.926Y-4.7181
X5.9331Y-4.3717
X5.9339Y-4.2724
X5.9366Y-4.1717
X5.9378Y-4.072
X5.9386Y-3.976
X6.0276Y-3.8563
X6.0323Y-3.9803
X6.0346Y-4.2677
X6.0378Y-4.4705
X6.0378Y-4.5689
X6.0378Y-4.6744
X6.0406Y-4.3705
X6.0437Y-4.1709
X6.0452Y-4.0696
X6.0728Y-3.8563
X6.0803Y-4.6819
X6.1126Y-3.8563
X6.1287Y-4.6819
X6.163Y-3.8638
X6.1669Y-4.6339
X6.172Y-4.6807
X6.1732Y-4.587
X6.1744Y-4.4969
X6.2126Y-4.4571
X6.2138Y-3.8626
X6.215Y-4.6807
X6.2567Y-4.5535
X6.2567Y-4.5976
X6.2587Y-4.1114
X6.2591Y-4.6366
X6.263Y-3.8626
X6.263Y-4.6823
X6.2669Y-3.9575
X6.2763Y-4.305
X6.2815Y-4.45
X6.2827Y-4.513
X6.2878Y-4.0378
X6.3217Y-4.3917
X6.3248Y-4.436
X6.3346Y-4.5146
X6.3358Y-4.478
X6.3488Y-4.0421
X6.3543Y-4.3622
X6.4894Y-4.0406
X6.5075Y-4.5028
X6.5165Y-4.2173
X6.5374Y-4.0394
X6.5531Y-4.5039
X6.5559Y-4.3568
X6.5563Y-4.272
X6.5563Y-4.3169
X6.5657Y-4.2213
X6.5803Y-3.9055
X6.5803Y-3.9575
X6.5815Y-3.8528
X6.5831Y-4.0055
X6.5843Y-4.5445
X6.5866Y-4.5949
X6.5882Y-4.6394
X6.5906Y-4.6835
X6.6441Y-3.8528
X6.6449Y-4.6827
X6.6457Y-4.4008
X6.7035Y-3.8531
X6.7055Y-4.6843
X6.7597Y-4.3588
X6.7602Y-4.4031
X6.7602Y-4.2626
X6.7602Y-4.3122
X6.7614Y-4.5012
X6.7614Y-4.6012
X6.7614Y-4.6469
X6.7614Y-4.6858
X6.7622Y-3.8535
X6.7626Y-4.4543
X6.7626Y-4.5492
X6.765Y-3.9004
X6.7661Y-3.9472
T3
X3.6201Y-4.7248
X3.7201Y-4.7248
X3.8201Y-4.7248
X3.9201Y-4.7248
X4.4919Y-3.8246
X4.4919Y-3.9246
X4.4919Y-4.0246
X4.4919Y-4.1246
X4.4919Y-4.2246
X4.4919Y-4.3246
X4.4919Y-4.4246
X4.4919Y-4.5246
X4.4919Y-4.6246
X4.4919Y-4.7236
X4.4919Y-4.8236
X4.4921Y-3.7246
X4.5444Y-3.6246
X4.7921Y-4.8236
X4.8925Y-4.8236
X4.9776Y-4.0736
X4.9776Y-4.1736
X4.9776Y-4.4736
X4.9776Y-4.5736
X4.9925Y-4.8236
X5.0399Y-3.6246
X5.0921Y-3.7236
X5.0925Y-3.8236
X5.0925Y-3.9236
X5.0925Y-4.0236
X5.0925Y-4.1236
X5.0925Y-4.2236
X5.0925Y-4.3236
X5.0925Y-4.4236
X5.0925Y-4.5236
X5.0925Y-4.6236
X5.0925Y-4.7236
X5.0925Y-4.8236
X5.3157Y-3.772
X5.4157Y-3.772
X5.5157Y-3.772
X5.6157Y-3.772
X5.8866Y-3.9228
X5.8866Y-4.0228
X5.8866Y-4.1228
X5.8866Y-4.2228
X5.8866Y-4.3228
X5.8866Y-4.4228
X5.8866Y-4.5228
X5.8866Y-4.6228
X6.0909Y-3.9228
X6.0909Y-4.0228
X6.0909Y-4.1228
X6.0909Y-4.2228
X6.0909Y-4.3228
X6.0909Y-4.4228
X6.0909Y-4.5228
X6.0909Y-4.6228
X6.0969Y-4.8484
X6.1969Y-4.8484
X6.2969Y-4.8484
X6.3969Y-4.8484
X6.4969Y-4.8484
X6.5969Y-4.8484
T4
X3.9173Y-5.0197
X4.1173Y-5.0197
X4.3051Y-5.0177
X4.5051Y-5.0177
T5
X3.6732Y-3.5433
X3.6732Y-5.0
X5.8071Y-3.5433
X5.8071Y-5.0
T0
M30
