M48
; DRILL file {KiCad (5.1.8-0-10_14)} date Wednesday, December 09, 2020 at 11:06:54 AM
; FORMAT={-:-/ absolute / inch / decimal}
; #@! TF.CreationDate,2020-12-09T11:06:54-05:00
; #@! TF.GenerationSoftware,Kicad,Pcbnew,(5.1.8-0-10_14)
; #@! TF.FileFunction,Plated,1,2,PTH
FMAT,2
INCH
T1C0.0118
T2C0.0157
T3C0.0400
T4C0.0591
T5C0.1575
%
G90
G05
T1
X6.4152Y-4.2656
X6.4152Y-4.3148
X6.463Y-4.2656
X6.4644Y-4.3148
T2
X3.6764Y-4.5646
X3.7949Y-4.2142
X3.8083Y-4.6035
X3.9008Y-4.3588
X3.9008Y-4.4309
X3.9528Y-4.1547
X4.013Y-4.8695
X4.0878Y-4.8583
X4.1295Y-4.8465
X4.1315Y-4.8067
X4.1772Y-4.7917
X4.211Y-3.5488
X4.222Y-3.6941
X4.2917Y-4.8374
X4.3087Y-4.0339
X4.5634Y-4.3783
X4.5676Y-4.1049
X4.5677Y-4.1543
X4.5685Y-4.2039
X4.5685Y-4.2488
X4.6544Y-4.1438
X4.698Y-4.3815
X4.7217Y-3.7948
X4.7399Y-3.8581
X4.7654Y-4.45
X4.7665Y-4.5039
X4.7785Y-3.8967
X4.788Y-4.0575
X4.788Y-4.326
X4.8047Y-4.5413
X4.8134Y-3.9331
X4.8177Y-4.0043
X4.8288Y-4.0485
X4.85Y-3.9701
X4.8587Y-4.0165
X4.8598Y-4.5413
X4.8724Y-4.0972
X4.911Y-3.9311
X4.9559Y-3.9311
X5.0091Y-3.9311
X5.0142Y-3.5118
X5.1886Y-4.4724
X5.2803Y-4.2299
X5.2963Y-4.3348
X5.3075Y-4.6079
X5.3089Y-4.0325
X5.3108Y-4.1407
X5.3356Y-4.3671
X5.3368Y-4.4439
X5.3386Y-3.9705
X5.3474Y-4.0709
X5.3504Y-4.2963
X5.3512Y-4.6543
X5.3617Y-4.5753
X5.3638Y-4.4843
X5.377Y-4.1801
X5.378Y-4.4063
X5.3829Y-3.9262
X5.3933Y-4.2291
X5.3945Y-4.6984
X5.3948Y-4.0304
X5.3965Y-4.0724
X5.3984Y-3.9854
X5.4047Y-4.585
X5.4134Y-4.2992
X5.4134Y-4.3691
X5.4154Y-3.8927
X5.4213Y-4.1988
X5.452Y-4.7179
X5.4553Y-4.1476
X5.463Y-3.8657
X5.4833Y-3.9783
X5.4852Y-4.1161
X5.5118Y-3.8476
X5.563Y-3.8476
X5.5646Y-4.0626
X5.6102Y-3.8476
X5.6567Y-3.865
X5.6567Y-3.9106
X5.6677Y-4.6378
X5.7346Y-4.7016
X5.7437Y-4.1827
X5.7445Y-4.3217
X5.7512Y-4.487
X5.7559Y-4.1193
X5.7762Y-4.2423
X5.7783Y-4.7094
X5.8047Y-4.3228
X5.8118Y-4.5182
X5.8189Y-4.2701
X5.926Y-4.7181
X6.0331Y-4.6728
X6.0343Y-4.372
X6.0343Y-4.4724
X6.0343Y-4.5744
X6.0346Y-4.272
X6.0355Y-3.9765
X6.0358Y-4.0724
X6.0358Y-4.1724
X6.1457Y-4.6748
X6.1653Y-4.2677
X6.1717Y-4.1268
X6.2508Y-4.5811
X6.2508Y-4.6744
X6.2874Y-4.5094
X6.3248Y-4.436
X6.3315Y-4.389
X6.3421Y-4.5091
X6.3896Y-4.0319
X6.3896Y-4.0764
X6.3896Y-4.1173
X6.3896Y-4.1561
X6.3902Y-4.4295
X6.3902Y-4.4685
X6.3902Y-4.5083
X6.4496Y-4.4673
X6.4496Y-4.5083
X6.45Y-4.4291
X6.451Y-4.0339
X6.451Y-4.0776
X6.451Y-4.1185
X6.451Y-4.1555
X6.552Y-4.3622
X6.5654Y-4.2067
X6.578Y-4.2524
X6.5783Y-4.2917
X6.5791Y-4.3331
T3
X6.3024Y-4.1161
X4.4919Y-3.8246
X4.4919Y-3.9246
X4.4919Y-4.0246
X4.4919Y-4.1246
X4.4919Y-4.2246
X4.4919Y-4.3246
X4.4919Y-4.4246
X4.4919Y-4.5246
X4.4919Y-4.6246
X4.4919Y-4.7236
X4.4919Y-4.8236
X4.4921Y-3.7246
X4.8399Y-3.6246
X4.9399Y-3.6246
X4.9776Y-4.0736
X4.9776Y-4.1736
X4.9776Y-4.4736
X4.9776Y-4.5736
X5.0921Y-3.7236
X5.0925Y-3.8236
X5.0925Y-3.9236
X5.0925Y-4.0236
X5.0925Y-4.1236
X5.0925Y-4.2236
X5.0925Y-4.3236
X5.0925Y-4.4236
X5.0925Y-4.5236
X5.0925Y-4.6236
X5.0925Y-4.7236
X5.0925Y-4.8236
X6.0909Y-3.9228
X6.0909Y-4.0228
X6.0909Y-4.1228
X6.0909Y-4.2228
X6.0909Y-4.3228
X6.0909Y-4.4228
X6.0909Y-4.5228
X6.0909Y-4.6228
X5.8866Y-3.9228
X5.8866Y-4.0228
X5.8866Y-4.1228
X5.8866Y-4.2228
X5.8866Y-4.3228
X5.8866Y-4.4228
X5.8866Y-4.5228
X5.8866Y-4.6228
X3.6228Y-4.7213
X3.7228Y-4.7213
X3.8228Y-4.7213
X3.9228Y-4.7213
X6.5406Y-4.1161
T4
X4.3051Y-5.0177
X4.5051Y-5.0177
X3.9173Y-5.0197
X4.1173Y-5.0197
T5
X3.6732Y-5.0
X5.8071Y-3.5433
X3.6732Y-3.5433
X5.8071Y-5.0
T0
M30
