M48
; DRILL file {KiCad (5.1.9-0-10_14)} date Sunday, October 24, 2021 at 11:35:37 AM
; FORMAT={-:-/ absolute / metric / decimal}
; #@! TF.CreationDate,2021-10-24T11:35:37-04:00
; #@! TF.GenerationSoftware,Kicad,Pcbnew,(5.1.9-0-10_14)
; #@! TF.FileFunction,NonPlated,1,2,NPTH
FMAT,2
METRIC
T1C0.500
T2C0.900
T3C1.000
T4C1.300
%
G90
G05
T1
X152.17Y-121.99
X152.17Y-122.9
X152.17Y-123.81
X152.17Y-124.74
X152.17Y-127.51
X152.17Y-129.41
X152.18Y-98.05
X152.18Y-98.96
X152.18Y-100.12
X152.18Y-101.04
X152.18Y-102.21
X152.18Y-103.14
X152.18Y-104.08
X152.18Y-105.31
X152.18Y-106.22
X152.18Y-107.4
X152.18Y-108.34
X152.18Y-109.27
X152.18Y-110.47
X152.18Y-111.4
X152.18Y-112.57
X152.18Y-113.49
X152.18Y-114.41
X152.18Y-115.63
X152.18Y-116.55
X152.18Y-117.7
X152.18Y-118.6
X152.18Y-119.49
X152.18Y-125.65
X152.18Y-126.57
X152.19Y-128.42
X152.19Y-130.38
T2
X134.44Y-89.585
X137.44Y-89.585
T3
X104.56Y-100.54
T4
X104.56Y-93.04
T0
M30
